<svg width="45" height="59" viewBox="0 0 45 59" fill="none" xmlns="http://www.w3.org/2000/svg">
<path d="M10.1162 35.7191C10.2568 35.5845 10.3975 35.45 10.5381 35.3154L10.6787 35.1809C10.9599 34.9118 11.2398 34.7787 11.6589 34.647C11.9387 34.5139 12.2172 34.5167 12.4957 34.5195C12.9134 34.5238 13.3297 34.664 13.6068 34.8027C13.7446 34.9401 13.8839 34.9415 14.0217 35.0789L14.1596 35.2162C14.2975 35.3536 14.2975 35.3536 14.4353 35.491L14.5732 35.6283C14.8489 35.9031 14.9854 36.1764 15.1218 36.4497C15.2583 36.723 15.3948 36.9963 15.5313 37.2696C15.8042 37.8162 15.938 38.3614 16.0703 39.0426C16.2026 39.7238 16.1957 40.4035 16.3294 40.9487L16.3267 41.2206C16.3253 41.3566 16.3239 41.4925 16.3225 41.6285L16.3212 41.7644L16.3184 42.0363L16.3129 42.5801C16.3115 42.7161 16.3101 42.852 16.3087 42.988L16.3074 43.1239C16.306 43.2599 16.3032 43.5318 16.3019 43.6677L16.3005 43.8037C16.2977 44.0756 16.2936 44.4834 16.1502 44.8898C16.1488 45.0258 16.1474 45.1617 16.1461 45.2977C16.1447 45.4336 16.1433 45.5696 16.1419 45.7055L16.1405 45.8415L15.9972 46.2479L15.8538 46.6543C15.8524 46.7903 15.851 46.9263 15.7104 47.0608L15.709 47.1967L15.7077 47.3327L15.7063 47.4686C15.7049 47.6046 15.5643 47.7391 15.5629 47.8751L15.5615 48.011C15.4181 48.4175 15.2748 48.8239 15.1314 49.2303C14.988 49.6368 14.8446 50.0432 14.5607 50.5842C14.4187 50.8547 14.2767 51.1251 14.136 51.2597L13.994 51.5302L13.8534 51.6647L13.8521 51.8006L14.5524 51.3999L15.2527 50.9991C15.3933 50.8645 15.5325 50.866 15.6732 50.7314L16.6561 49.9256L16.7953 49.927L17.2158 49.6594L17.4957 49.5262C17.9161 49.2586 18.1974 48.9895 18.6178 48.7218C19.0397 48.3182 19.4601 48.0506 19.882 47.647L20.4431 47.2448L20.7243 46.9757L21.0056 46.7066C21.0056 46.7066 21.0056 46.7066 20.8663 46.7052L20.7285 46.5679C20.7298 46.4319 20.5906 46.4305 20.592 46.2945L20.5934 46.1586L20.5947 46.0226L20.4583 45.7493L20.4596 45.6134L20.3218 45.476C20.1867 45.0668 19.9124 44.6561 19.7773 44.2468C19.5057 43.5642 19.2355 42.7457 18.9667 41.7913C18.6979 40.8368 18.5683 39.8837 18.4359 39.2026C18.3008 38.7933 18.3064 38.2495 18.1726 37.7043C18.1768 37.2965 18.0417 36.8872 18.0472 36.3434C17.919 35.2544 18.0693 34.1682 18.2168 33.3539C18.2209 32.9461 18.3643 32.5396 18.5077 32.1332L18.5091 31.9973C18.5104 31.8613 18.5118 31.7254 18.6524 31.5908C18.6538 31.4549 18.6538 31.4549 18.6552 31.3189C18.6579 31.047 18.7999 30.7765 18.9419 30.5061C19.0839 30.2356 19.2259 29.9651 19.5085 29.5601C19.5127 29.1522 19.6533 29.0177 19.7925 29.0191L19.7939 28.8831L19.9345 28.7486L20.0738 28.75C20.2144 28.6155 20.4942 28.4824 20.6335 28.4838L20.7727 28.4852C21.0526 28.3521 21.331 28.3549 21.7488 28.3591C22.0272 28.3619 22.1665 28.3634 22.4436 28.5021C22.722 28.505 22.9991 28.6437 23.2748 28.9185C23.2748 28.9185 23.2748 28.9185 23.4141 28.9199C23.5519 29.0572 23.5519 29.0572 23.6898 29.1946L23.8276 29.332C24.3777 30.0174 24.7885 30.7013 25.0615 31.248C25.333 31.9305 25.606 32.4772 25.7411 32.8864C25.7383 33.1583 25.8748 33.4316 25.8721 33.7035L25.8693 33.9754C25.9989 34.9285 25.9878 36.0161 25.8376 37.1023C25.8334 37.5101 25.69 37.9166 25.6859 38.3244L25.6832 38.5963C25.6818 38.7322 25.6804 38.8682 25.5398 39.0027C25.5384 39.1387 25.5384 39.1387 25.537 39.2746C25.5356 39.4106 25.5329 39.6825 25.3923 39.817C25.2475 40.3594 25.1027 40.9018 24.9594 41.3082C24.816 41.7147 24.6712 42.257 24.5279 42.6635C24.3845 43.0699 24.2425 43.3404 24.1005 43.6109C24.2411 43.4763 24.3817 43.3418 24.5237 43.0713C24.5265 42.7994 24.8077 42.5304 24.9483 42.3958C25.0876 42.3972 25.0889 42.2613 25.2282 42.2627C25.3688 42.1282 25.5108 41.8577 25.7907 41.7245C25.9313 41.59 26.0719 41.4555 26.2125 41.3209L26.3531 41.1864L27.1982 40.2432L28.0391 39.7079L28.8842 38.7647L29.0248 38.6302C29.0262 38.4943 29.1654 38.4957 29.1668 38.3597L29.4467 38.2266L29.5887 37.9561C29.7293 37.8216 29.8699 37.687 30.0119 37.4166L30.1525 37.282C30.0133 37.2806 29.7362 37.1418 29.5983 37.0045C29.4605 36.8671 29.4605 36.8671 29.3226 36.7297L29.1848 36.5924C29.0469 36.455 28.909 36.3177 28.7712 36.1803C28.4969 35.7696 28.2211 35.4949 28.0847 35.2216C27.8103 34.8109 27.536 34.4002 27.4009 33.991C27.1293 33.3084 26.8577 32.6258 26.5889 31.6714C26.3201 30.7169 26.1905 29.7638 26.0596 28.9467C25.9286 28.1296 26.0775 27.1794 26.0885 26.0918C26.0899 25.9558 26.0913 25.8199 26.2319 25.6854L26.2333 25.5494L26.2347 25.4135C26.2361 25.2775 26.3781 25.007 26.3794 24.8711C26.6676 23.9223 26.9543 23.1094 27.5195 22.2993L27.6602 22.1648C27.8008 22.0303 27.8008 22.0303 27.9414 21.8957C28.082 21.7612 28.2212 21.7626 28.3605 21.764C28.6403 21.6309 28.9202 21.4978 29.1987 21.5006C29.3379 21.502 29.4771 21.5034 29.6164 21.5048C29.7556 21.5063 29.8935 21.6436 30.0327 21.645C30.1719 21.6464 30.3098 21.7838 30.4477 21.9212L30.5855 22.0585C30.7234 22.1959 30.9991 22.4706 31.1369 22.608C31.4127 22.8827 31.687 23.2934 32.0992 23.8414C32.3721 24.388 32.6451 24.9347 32.7802 25.3439C33.0518 26.0265 33.1841 26.7076 33.3178 27.2529C33.4474 28.2059 33.4364 29.2935 33.2888 30.1078C33.2847 30.5156 33.14 31.058 33.1358 31.4659C32.9897 32.1442 32.8422 32.9585 32.5568 33.6354C32.5554 33.7714 32.4148 33.9059 32.412 34.1778L32.5527 34.0433L32.6933 33.9087C32.6947 33.7728 32.8339 33.7742 32.8353 33.6382C33.1179 33.2332 33.5411 32.6937 33.8237 32.2886C33.8251 32.1527 33.9657 32.0181 34.1063 31.8836C34.1063 31.8836 34.1063 31.8836 34.1077 31.7477L35.0907 30.9419C35.3733 30.5368 35.6559 30.1318 35.9385 29.7268C35.9399 29.5908 36.0791 29.5923 36.0805 29.4563L36.0819 29.3204L36.5037 28.9167L36.9269 28.3772C37.0676 28.2427 37.2096 27.9722 37.3502 27.8376L37.3515 27.7017C37.2123 27.7003 37.0745 27.5629 36.9366 27.4255C36.9366 27.4255 36.9366 27.4255 36.7987 27.2882C36.6609 27.1508 36.3852 26.8761 36.2473 26.7387C36.1108 26.4654 35.8351 26.1907 35.8365 26.0547L35.6986 25.9174L35.5608 25.78L35.5622 25.6441C35.4257 25.3708 35.15 25.096 35.0149 24.6868C34.7419 24.1402 34.6068 23.7309 34.4703 23.4576C34.2002 22.6391 33.93 21.8205 33.7976 21.1394C33.6639 20.5942 33.668 20.1863 33.5357 19.5052C33.5385 19.2333 33.4034 18.824 33.4061 18.5521L33.4089 18.2802C33.413 17.8724 33.4172 17.4645 33.4213 17.0567C33.4268 16.5129 33.4323 15.9691 33.5757 15.5626C33.5785 15.2907 33.5798 15.1548 33.7218 14.8843C33.7246 14.6124 33.8666 14.3419 34.0086 14.0714C34.01 13.9355 34.1492 13.9369 34.1506 13.8009C34.2912 13.6664 34.2926 13.5305 34.4318 13.5319L34.7131 13.2628C34.9929 13.1297 35.2728 12.9965 35.4134 12.862C35.9731 12.5958 36.5314 12.4655 36.9477 12.6057C37.3641 12.7458 37.6412 12.8846 38.0561 13.1608C38.194 13.2981 38.3318 13.4355 38.4697 13.5728L38.6089 13.5743C38.7468 13.7116 38.7468 13.7116 38.8846 13.849L39.0225 13.9863C39.159 14.2597 39.4361 14.3984 39.7118 14.6732C39.9861 15.0838 40.2605 15.4945 40.5334 16.0411C40.6685 16.4504 40.805 16.7237 40.8008 17.1315L40.7995 17.2675C40.9304 18.0846 40.9235 18.7644 40.9166 19.4441C40.9083 20.2598 40.7595 21.21 40.6106 22.1603C40.7512 22.0257 40.7526 21.8898 40.8932 21.7552L40.8946 21.6193C41.0365 21.3488 41.1785 21.0783 41.3205 20.8078C41.4612 20.6733 41.4625 20.5373 41.4639 20.4014L41.4653 20.2654L41.6073 19.995L41.6087 19.859L41.7493 19.7245L41.7507 19.5885C41.7534 19.3166 41.8968 18.9102 42.1767 18.7771L42.1808 18.3692L42.3228 18.0987C42.7488 17.2873 43.0355 16.4744 43.3209 15.7975L43.1817 15.7961C43.0424 15.7947 43.0424 15.7947 42.9032 15.7932C42.764 15.7918 42.6261 15.6545 42.4869 15.6531C42.3476 15.6516 42.349 15.5157 42.2098 15.5143L42.0719 15.3769C41.9341 15.2396 41.7962 15.1022 41.6583 14.9648C41.5205 14.8275 41.3826 14.6901 41.2448 14.5527C40.5555 13.8659 40.0054 13.1805 39.4554 12.4951C39.0432 11.9471 38.7716 11.2645 38.4987 10.7179C38.3622 10.4446 38.3636 10.3086 38.3663 10.0368C38.2298 9.76344 38.2326 9.49154 38.234 9.35559C38.2367 9.08369 38.2395 8.81179 38.2423 8.53989L38.2436 8.40394C38.2478 7.9961 38.3939 7.31776 38.955 6.91556C39.2362 6.64649 39.5161 6.51337 39.6567 6.37883L39.7959 6.38025C39.9352 6.38166 39.9366 6.24571 40.0758 6.24712C40.215 6.24853 40.4949 6.11541 40.6341 6.11683C41.0518 6.12106 41.3289 6.25984 41.7453 6.40003C42.0223 6.5388 42.1602 6.67617 42.4373 6.81494C42.5765 6.81635 42.5752 6.9523 42.7144 6.95371C42.8523 7.09108 42.9901 7.22844 43.2658 7.50317C43.5415 7.77789 43.6766 8.18715 43.8131 8.46046C44.0874 8.87114 44.2225 9.2804 44.2184 9.68824C44.3535 10.0975 44.348 10.6413 44.4831 11.0506C44.4803 11.3225 44.4762 11.7303 44.4734 12.0022C44.4748 11.8663 44.4762 11.7303 44.6168 11.5958L44.9049 10.647L45.0497 10.1046C44.9105 10.1032 44.9118 9.96721 44.9132 9.83126C44.9146 9.69531 44.9146 9.69531 44.916 9.55936L44.9174 9.42341L44.9187 9.28746C44.9201 9.15151 44.9215 9.01556 44.9229 8.87961L44.9243 8.74367L44.9256 8.60771C44.927 8.47177 44.9284 8.33582 44.9298 8.19987C44.9353 7.65607 44.9408 7.11227 44.8043 6.83896C44.8098 6.29516 44.6775 5.614 44.6885 4.52641L44.6899 4.39046L44.6927 4.11856C44.6941 3.98261 44.6968 3.71071 44.6982 3.57476C44.701 3.30286 44.7037 3.03097 44.8457 2.76048C44.9891 2.35405 44.9932 1.9462 45.1352 1.67571C45.2786 1.26928 45.4206 0.998791 45.7005 0.865668C45.8411 0.731131 45.9803 0.732548 45.9817 0.596599C46.1223 0.462063 46.4008 0.464886 46.54 0.466299C46.6792 0.467712 46.8185 0.469125 46.9577 0.470538C47.097 0.471951 47.2348 0.609316 47.3741 0.610729C47.5133 0.612142 47.6511 0.7495 47.789 0.886862C47.931 0.616377 47.9296 0.752328 48.0689 0.753741C48.3432 1.16442 48.6175 1.57509 48.7526 1.98435C48.7512 2.1203 48.8877 2.39361 48.8863 2.52956L48.885 2.66551C48.8822 2.93741 49.0201 3.07477 49.0173 3.34667C49.0145 3.61857 49.0104 4.02642 49.0063 4.43426C49.0049 4.57021 49.0021 4.84211 48.8615 4.97665C48.8601 5.1126 48.8587 5.24855 48.7181 5.38308C48.7154 5.65498 48.5748 5.78952 48.5734 5.92547L48.572 6.06142C48.43 6.3319 48.2866 6.73834 48.1433 7.14477C48.0013 7.41526 47.8593 7.68575 47.5766 8.09077C47.294 8.49579 47.0114 8.90081 46.8694 9.1713C46.7288 9.30583 46.5868 9.57632 46.4462 9.71085C46.3056 9.84539 46.165 9.97993 45.8851 10.1131C45.7459 10.1116 45.7445 10.2476 45.6066 10.1102L45.4605 10.7886L45.1696 12.0093C45.0262 12.4157 44.8829 12.8221 44.7395 13.2286C44.5961 13.635 44.4527 14.0415 44.3107 14.3119C44.3094 14.4479 44.3094 14.4479 44.1687 14.5824C44.024 15.1248 43.74 15.6658 43.5966 16.0722C43.5952 16.2082 43.4532 16.4786 43.4519 16.6146C43.7345 16.2096 44.0171 15.8046 44.2983 15.5355L44.4389 15.4009C44.8608 14.9973 45.2826 14.5937 45.5666 14.0528L45.7031 14.3261C45.9857 13.921 46.5482 13.3829 47.1093 12.9807C47.5311 12.5771 48.0936 12.0389 48.7939 11.6382C49.0738 11.505 49.3536 11.3719 49.6335 11.2388C49.7741 11.1043 50.0526 11.1071 50.3324 10.974C50.7501 10.9782 51.1678 10.9824 51.5828 11.2586C51.7206 11.3959 51.8585 11.5333 51.8571 11.6693C51.995 11.8066 51.9922 12.0785 52.1287 12.3518C52.1246 12.7597 52.1204 13.1675 52.1163 13.5754L52.1149 13.7113C52.108 14.3911 51.6848 14.9306 51.2615 15.4702C50.8383 16.0097 50.4151 16.5493 49.8526 17.0874C49.5714 17.3565 49.4308 17.4911 49.1509 17.6242L49.0103 17.7587C48.7291 18.0278 48.4492 18.1609 48.1694 18.294C47.8881 18.5631 47.6083 18.6962 47.3284 18.8293C46.9093 18.9611 46.6281 19.2301 46.3482 19.3633C46.0684 19.4964 45.7885 19.6295 45.5101 19.6267C45.2302 19.7598 44.9517 19.757 44.6733 19.7541L44.534 19.7527C44.3948 19.7513 44.2556 19.7499 44.1149 19.8844C43.9757 19.883 43.8351 20.0176 43.6958 20.0162L43.5566 20.0147C43.2768 20.1479 42.859 20.1436 42.5806 20.1408C42.4413 20.1394 42.3035 20.002 42.1642 20.0006C42.0209 20.407 41.8775 20.8135 41.5949 21.2185L40.8835 22.7069L40.3155 23.7888L40.0315 24.3298L40.0302 24.4657L39.8882 24.7362C39.7462 25.0067 39.6056 25.1413 39.4636 25.4117L39.4622 25.5477L39.4608 25.6836C39.4622 25.5477 39.6014 25.5491 39.742 25.4146C40.0233 25.1455 40.3045 24.8764 40.5844 24.7433L40.7263 24.4728L41.0062 24.3397C41.1468 24.2052 41.2861 24.2066 41.4267 24.072C41.4267 24.072 41.5659 24.0734 41.5673 23.9375C41.8471 23.8044 42.1284 23.5353 42.5475 23.4036C43.2478 23.0028 44.0873 22.6034 44.7863 22.3386C45.0661 22.2055 45.4852 22.0738 45.7651 21.9406L45.9043 21.9421C46.1842 21.8089 46.464 21.6758 46.8817 21.68C47.3008 21.5483 47.7185 21.5526 48.1376 21.4209C48.4161 21.4237 48.8338 21.4279 49.2501 21.5681C49.3894 21.5695 49.388 21.7055 49.5272 21.7069C49.6651 21.8443 49.803 21.9816 49.803 21.9816C49.9408 22.119 49.9394 22.2549 49.938 22.3909C49.9367 22.5268 50.0731 22.8001 50.0718 22.9361C50.069 23.208 50.0676 23.3439 50.0649 23.6158L50.0635 23.7518C50.0607 24.0237 49.9187 24.2942 49.9174 24.4301C49.7726 24.9725 49.4886 25.5135 49.2046 26.0544C49.0626 26.3249 48.7814 26.594 48.6394 26.8645L48.4988 26.999C48.3582 27.1336 48.3568 27.2695 48.2175 27.2681C47.9363 27.5372 47.6537 27.9422 47.3725 28.2113L47.3711 28.3472C47.2305 28.4817 47.0885 28.7522 46.8086 28.8854C46.668 29.0199 46.5274 29.1544 46.3868 29.289C46.2461 29.4235 46.1055 29.558 45.9649 29.6926C45.8243 29.8271 45.6837 29.9616 45.5431 30.0962L45.4025 30.2307L45.2618 30.3653C44.982 30.4984 44.8414 30.6329 44.8414 30.6329C44.2803 31.0351 43.58 31.4359 43.0189 31.8381C42.1779 32.3734 41.479 32.6382 40.78 32.9031L40.5002 33.0362C40.0811 33.1679 39.8012 33.301 39.3822 33.4327C38.8238 33.563 38.2655 33.6933 37.8464 33.8251C37.5679 33.8222 37.2881 33.9553 36.8704 33.9511C36.5919 33.9483 36.3134 33.9455 36.0363 33.8067C35.8971 33.8053 35.8971 33.8053 35.7579 33.8039L35.6186 33.8024L35.4794 33.801L35.3401 33.7996C35.2009 33.7982 35.0631 33.6608 34.9238 33.6594C34.786 33.5221 34.6467 33.5207 34.5089 33.3833L34.3669 33.6538L34.2249 33.9243L34.0843 34.0588C34.0829 34.1947 33.9436 34.1933 33.9423 34.3293C33.8016 34.4638 33.6597 34.7343 33.519 34.8688L32.532 36.0825C31.6855 37.1616 30.8404 38.1048 30.1346 39.0494C30.1332 39.1853 29.994 39.1839 29.994 39.1839L29.8534 39.3184L29.852 39.4544L29.8506 39.5903C31.2526 38.6528 32.9304 37.99 34.4689 37.3258C35.4477 36.9279 36.4265 36.5299 37.1268 36.1291L37.5459 35.9974C38.2448 35.7326 38.9438 35.4677 39.6427 35.2029C40.0618 35.0712 40.4795 35.0754 40.7593 34.9423L40.8986 34.9437C41.1771 34.9466 41.3163 34.948 41.5962 34.8148L41.7354 34.8163C42.0139 34.8191 42.4316 34.8233 42.8493 34.8276C43.267 34.8318 43.6833 34.972 43.9604 35.1108C44.0997 35.1122 44.2375 35.2495 44.5146 35.3883C44.5146 35.3883 44.6538 35.3897 44.6525 35.5257C44.6525 35.5257 44.7903 35.663 44.9282 35.8004C45.066 35.9378 45.0647 36.0737 45.0633 36.2097L45.0619 36.3456L45.0605 36.4816C45.0591 36.6175 45.0578 36.7535 45.0564 36.8894C45.0522 37.2973 44.9102 37.5678 44.9075 37.8396C44.7627 38.382 44.4801 38.7871 44.3367 39.1935L44.1961 39.328C44.0555 39.4626 43.9149 39.5971 43.9135 39.733L43.7729 39.8676C43.6323 40.0021 43.4917 40.1367 43.351 40.2712C43.0698 40.5403 42.7872 40.9453 42.3667 41.213C41.9449 41.6166 41.5244 41.8842 41.1039 42.1519C40.263 42.6872 39.2842 43.0851 38.4446 43.4845C37.7457 43.7494 37.0468 44.0142 36.0707 44.1402C35.2325 44.4037 34.3957 44.5311 33.4197 44.6572C32.3031 44.9178 30.9107 44.9037 29.5197 44.7536C28.8235 44.7465 28.1287 44.6035 27.5731 44.4619C27.4339 44.4605 27.296 44.3231 27.1568 44.3217L27.0176 44.3203C26.8783 44.3189 26.6012 44.1801 26.462 44.1787C26.3228 44.1773 26.3241 44.0413 26.1849 44.0399C26.0457 44.0385 26.0457 44.0385 25.9064 44.0371C25.7672 44.0357 25.7686 43.8997 25.6293 43.8983L24.2232 45.2437L24.0826 45.3782L23.6607 45.7818L22.3979 46.7208C22.2573 46.8553 22.2573 46.8553 22.1167 46.9898C21.415 47.5266 20.7119 48.1992 20.0102 48.736L19.8696 48.8705L19.5897 49.0036C19.4491 49.1382 19.3085 49.2727 19.1679 49.4072C19.0286 49.4058 19.0273 49.5418 18.888 49.5404C19.4464 49.4101 20.0061 49.1438 20.4252 49.0121L20.8442 48.8804L21.5418 48.7515C23.0776 48.3592 24.7525 47.9683 26.8452 47.5817C27.682 47.4542 28.5188 47.3267 29.4949 47.2007C29.6341 47.2021 29.7733 47.2035 29.9126 47.2049L30.0518 47.2063C30.3303 47.2092 30.4695 47.2106 30.748 47.2134L30.8872 47.2148L31.0265 47.2162C32.1404 47.2275 33.2501 47.6467 34.3571 48.3377C34.6342 48.4765 34.9099 48.7512 35.0478 48.8886C35.0478 48.8886 35.0478 48.8886 35.1856 49.0259C35.3235 49.1633 35.4613 49.3007 35.5978 49.574C35.7343 49.8473 35.8708 50.1206 36.0073 50.3939C36.0059 50.5299 36.0045 50.6658 36.1424 50.8032C36.1424 50.8032 36.1424 50.8032 36.141 50.9391C36.1396 51.0751 36.1368 51.347 36.1355 51.4829C36.1299 52.0267 35.7067 52.5663 35.4241 52.9713C35.2821 53.2418 35.0009 53.5109 34.8589 53.7813C34.5776 54.0504 34.437 54.185 34.1558 54.454L34.0152 54.5886C33.5933 54.9922 33.0336 55.2584 32.4725 55.6606C32.1927 55.7937 31.7722 56.0614 31.2125 56.3276C31.0733 56.3262 30.9326 56.4608 30.9326 56.4608L30.7934 56.4594L30.6528 56.5939C30.3729 56.727 30.2337 56.7256 29.9539 56.8587C29.674 56.9919 29.3941 57.125 29.1157 57.1221C28.556 57.3884 27.8584 57.5173 27.1622 57.5102C26.4647 57.6391 25.6292 57.6306 24.7952 57.4862C24.2383 57.4805 23.6827 57.3389 23.1257 57.3333C22.2917 57.1889 21.3198 56.9071 20.6264 56.6281C20.21 56.4879 19.6545 56.3463 19.2395 56.0702C18.8232 55.93 18.5475 55.6553 18.2704 55.5165C18.1325 55.3791 17.7176 55.103 17.4405 54.9642C17.3012 54.9628 17.3026 54.8269 17.1634 54.8254C17.0255 54.6881 16.8877 54.5507 16.8877 54.5507C16.612 54.276 16.3362 54.0013 16.0605 53.7265L15.7848 53.4518L15.6469 53.3145L15.5091 53.1771C15.3712 53.0397 15.3712 53.0397 15.2334 52.9024C15.2334 52.9024 15.2348 52.7664 15.0955 52.765L14.8143 53.0341L14.5331 53.3032L14.3924 53.4377L13.5515 53.973C13.5515 53.973 13.4109 54.1075 13.4095 54.2435C13.2689 54.378 12.989 54.5112 12.5699 54.6429L12.2901 54.776L11.4505 55.1754C11.1707 55.3085 11.0301 55.443 10.8908 55.4416L9.49156 56.1072L9.21171 56.2403C9.07109 56.3749 8.79124 56.508 8.51276 56.5052L8.23291 56.6383L8.0923 56.7728L7.95305 56.7714C7.25411 57.0363 6.55379 57.437 5.71561 57.7005C5.29652 57.8322 4.87743 57.9639 4.17987 58.0928C3.90139 58.0899 3.62154 58.2231 3.34307 58.2202C3.20383 58.2188 2.92536 58.216 2.78612 58.2146L2.50765 58.2118C2.08994 58.2075 1.67085 58.3392 1.39237 58.3364C1.1139 58.3336 0.835427 58.3307 0.556953 58.3279C0.417716 58.3265 0.278475 58.3251 0.140618 58.1877C0.00276078 58.0504 0.00414413 57.9144 0.00552379 57.7785C0.00690341 57.6425 0.00827925 57.5066 0.148896 57.372C0.289512 57.2375 0.428753 57.2389 0.56799 57.2403C0.985701 57.2446 1.40342 57.2488 1.82113 57.253L2.23883 57.2573C2.65654 57.2615 3.35411 57.1326 4.05167 57.0038C4.33015 57.0066 4.61 56.8735 4.88847 56.8763C5.30756 56.7446 5.58741 56.6115 5.86588 56.6143C6.14574 56.4812 6.4256 56.348 6.70545 56.2149L6.99082 55.538L7.83038 55.1386C7.96961 55.14 8.11023 55.0055 8.24947 55.0069L8.3887 55.0083L8.52932 54.8738L8.66855 54.8752L8.8078 54.8766L8.94841 54.7421L9.08903 54.6075C9.36888 54.4744 9.64873 54.3413 9.92859 54.2082C10.0692 54.0736 10.2084 54.075 10.3491 53.9405L10.4897 53.806L10.7695 53.6728L10.9101 53.5383C10.7723 53.4009 10.7723 53.4009 10.7737 53.265L10.6358 53.1276C10.4979 52.9903 10.4993 52.8543 10.3615 52.717C10.2236 52.5796 10.225 52.4436 10.0871 52.3063C9.94928 52.1689 9.81281 51.8956 9.67495 51.7583L9.67633 51.6223C9.53847 51.4849 9.53984 51.349 9.40061 51.3476C9.12489 51.0729 8.9898 50.6636 8.8547 50.2543C8.58037 49.8437 8.44527 49.4344 8.31155 48.8892C8.17645 48.4799 8.04273 47.9347 8.04687 47.5269C7.91729 46.5738 7.78633 45.7567 7.79599 44.8051C7.80703 43.7175 7.67607 42.9004 7.68573 41.9487C7.68711 41.8128 7.68849 41.6768 7.69125 41.4049L7.69401 41.133C7.69677 40.8611 7.69815 40.7252 7.7009 40.4533C7.7078 39.7735 7.85255 39.2311 8.13654 38.6902C8.42191 38.0132 8.70591 37.4723 8.98991 36.9313C9.41314 36.3917 9.69437 36.1227 10.1162 35.7191Z" fill="#F7F1CC"/>
</svg>
