<svg xmlns="http://www.w3.org/2000/svg" width="1591" height="707" viewBox="0 0 1591 707"><defs><linearGradient id="scfpa" x1="543.52" x2="571.52" y1="161.5" y2="161.5" gradientUnits="userSpaceOnUse"><stop offset="0" stop-color="#cda948"/><stop offset="1" stop-color="#e6cf33"/></linearGradient><linearGradient id="scfpb" x1="516" x2="544" y1="468.5" y2="468.5" gradientUnits="userSpaceOnUse"><stop offset="0" stop-color="#cda948"/><stop offset="1" stop-color="#e6cf33"/></linearGradient><linearGradient id="scfpc" x1="935.52" x2="966.52" y1="52.5" y2="52.5" gradientUnits="userSpaceOnUse"><stop offset="0" stop-color="#cda948"/><stop offset="1" stop-color="#e6cf33"/></linearGradient><linearGradient id="scfpd" x1="709.52" x2="751.52" y1="21" y2="21" gradientUnits="userSpaceOnUse"><stop offset="0" stop-color="#cda948"/><stop offset="1" stop-color="#e6cf33"/></linearGradient><linearGradient id="scfpe" x1="1038" x2="1075" y1="333" y2="333" gradientUnits="userSpaceOnUse"><stop offset="0" stop-color="#cda948"/><stop offset="1" stop-color="#e6cf33"/></linearGradient></defs><g><g><g><g><path fill="#f2e96c" d="M347.096 410.515c-2.014-1.15-4.603-.287-5.466 1.727a133.252 133.252 0 0 0-8.343 18.412c-.864 2.013.287 4.603 2.589 5.178.575.288.863.288 1.438.288 1.726 0 3.165-1.151 3.74-2.59a93.145 93.145 0 0 1 7.768-17.26c.863-2.302 0-4.604-1.726-5.755z"/></g><g><path fill="#def9fa" d="M281.567 485.868c.575.288 1.15.288 1.726.288 1.438 0 2.877-.863 3.74-2.302.863-2.013 0-4.603-2.014-5.466-4.028-2.014-7.768-4.603-10.932-8.055-1.439-1.726-4.028-1.726-5.754-.288-1.726 1.439-1.726 4.028-.288 5.754 3.74 4.315 8.343 7.768 13.522 10.07z"/></g><g><path fill="#f2e96c" d="M380.798 173.704c1.15 0 2.301-.575 3.164-1.438 3.74-4.315 6.33-9.781 7.768-15.247.575-2.302-.863-4.316-2.877-4.891-2.301-.576-4.315.863-4.89 2.877-1.151 4.315-3.165 8.63-6.042 12.083-1.438 1.726-1.15 4.315.575 5.753.288.576 1.439.864 2.302.864z"/></g><g><path fill="#def9fa" d="M413.591 434.676c.576.288.864.288 1.439.288 1.726 0 3.164-.863 3.74-2.59 2.014-4.89 4.028-9.78 6.617-14.384 1.15-2.014.287-4.315-1.439-5.466-2.014-1.15-4.315-.288-5.466 1.438-2.877 4.891-5.178 10.07-7.192 15.536-.863 2.013.288 4.603 2.301 5.178z"/></g><g><path fill="#def9fa" d="M287.591 643.676c.576.288.864.288 1.439.288 1.726 0 3.164-.863 3.74-2.59 2.014-4.89 4.028-9.78 6.617-14.384 1.15-2.014.287-4.315-1.439-5.466-2.014-1.15-4.315-.288-5.466 1.438-2.877 4.891-5.178 10.07-7.192 15.536-.863 2.013.288 4.603 2.301 5.178z"/></g><g><path fill="#def9fa" d="M2.591 407.676c.576.288.864.288 1.439.288 1.726 0 3.164-.863 3.74-2.59 2.014-4.89 4.028-9.78 6.617-14.384 1.15-2.014.287-4.315-1.439-5.466-2.014-1.15-4.315-.288-5.466 1.438-2.877 4.891-5.178 10.07-7.192 15.536-.863 2.013.288 4.603 2.301 5.178z"/></g><g><path fill="#def9fa" d="M205.591 412.676c.576.288.864.288 1.439.288 1.726 0 3.164-.863 3.74-2.59 2.014-4.89 4.027-9.78 6.617-14.384 1.15-2.014.287-4.315-1.439-5.466-2.014-1.15-4.315-.288-5.466 1.438-2.877 4.891-5.178 10.07-7.192 15.536-.863 2.013.288 4.603 2.301 5.178z"/></g><g><path fill="#dbb2d2" d="M452.693 275.049c2.302-.288 4.028-2.302 3.74-4.315-.287-2.302-2.301-4.028-4.315-3.74-6.33.575-12.658-1.439-17.549-5.179-1.726-1.438-4.315-.863-5.754.863-1.438 1.726-.863 4.316.863 5.754 5.754 4.315 13.234 6.905 20.426 6.905.576-.288 1.726-.288 2.59-.288z"/></g><g><path fill="#f2e96c" d="M489.005 202.511c-3.452-.863-6.329-2.589-8.918-5.178-1.439-1.726-4.028-1.726-5.754-.288-1.726 1.439-1.726 4.028-.288 5.754 3.453 3.74 8.056 6.33 12.946 7.48h.863c1.727 0 3.453-1.15 4.028-3.165.575-1.726-.575-4.027-2.877-4.603z"/></g><g><path fill="#f2e96c" d="M649.005 208.511c-3.452-.863-6.329-2.589-8.918-5.178-1.439-1.726-4.028-1.726-5.754-.288-1.726 1.439-1.726 4.028-.288 5.754 3.453 3.74 8.056 6.33 12.946 7.48h.863c1.726 0 3.453-1.15 4.028-3.165.575-1.726-.575-4.027-2.877-4.603z"/></g><g><path fill="#f2e96c" d="M344.978 112.156c.863 0 2.013-.288 2.876-1.15 1.727-1.44 1.727-4.029.288-5.755l-8.055-8.918c-1.439-1.726-4.028-1.726-5.754-.288-1.726 1.439-1.726 4.028-.288 5.754l8.056 8.918c.863.864 1.726 1.439 2.876 1.439z"/></g><g><path fill="#dbb2d2" d="M429.434 195.515c-2.014-1.15-4.603-.287-5.466 1.727l-3.453 6.616c-1.15 2.014-.287 4.603 1.727 5.467.575.287 1.15.575 2.013.575 1.439 0 2.877-.863 3.74-2.302l3.453-6.616c.863-2.014 0-4.604-2.014-5.467z"/></g><g><path fill="#f9d9e3" d="M260.943 272.587c-2.014-1.151-4.315-.576-5.466 1.438l-4.89 8.055c-1.151 2.014-.576 4.316 1.438 5.466.575.288 1.438.576 2.014.576 1.438 0 2.877-.863 3.452-2.014l4.89-8.055c1.152-1.727.288-4.316-1.438-5.467z"/></g><g><path fill="#def9fa" d="M505.28 250.087c-2.302-.288-4.604-1.726-5.467-3.74-.863-2.014-3.452-2.877-5.466-2.014-2.014.863-2.877 3.453-2.014 5.466 2.302 4.603 7.192 8.056 12.37 8.343h.288c2.014 0 4.028-1.726 4.028-3.74 0-2.301-1.726-4.027-3.74-4.315z"/></g><g><path fill="#f9d9e3" d="M384.338 500.982l-10.357-5.467c-2.013-1.15-4.602-.287-5.466 1.727-1.15 2.013-.287 4.603 1.727 5.466l10.356 5.466c.576.287 1.151.575 2.014.575 1.439 0 2.877-.863 3.74-2.301.575-1.727 0-4.316-2.014-5.466z"/></g><g><path fill="#f9d9e3" d="M99.338 562.982l-10.357-5.467c-2.013-1.15-4.602-.287-5.466 1.727-1.15 2.013-.287 4.603 1.727 5.466l10.356 5.466c.576.287 1.151.575 2.014.575 1.439 0 2.877-.863 3.74-2.301.576-1.727 0-4.316-2.014-5.466z"/></g><g><path fill="#f2e96c" d="M374.53 593.721c.575 1.439 2.3 2.302 3.74 2.302.575 0 1.15 0 1.725-.288 2.014-.863 2.877-3.452 1.726-5.466l-2.013-4.027c-.863-2.014-3.453-2.877-5.466-1.727-2.014.863-2.877 3.453-1.727 5.467z"/></g><g><path fill="#dbb2d2" d="M264.466 431.359a36.44 36.44 0 0 0 13.521-2.59c2.014-.862 3.165-3.164 2.302-5.178-.863-2.013-3.165-3.164-5.179-2.301-3.74 1.438-7.767 2.014-11.795 2.014-2.301 0-4.027 1.726-4.315 4.027 0 2.302 1.726 4.028 4.028 4.316.287-.288.863-.288 1.438-.288z"/></g><g><path fill="#dbb2d2" d="M233.466 540.359a36.44 36.44 0 0 0 13.521-2.59c2.014-.862 3.165-3.164 2.302-5.178-.863-2.013-3.165-3.164-5.178-2.301-3.74 1.438-7.768 2.014-11.796 2.014-2.301 0-4.027 1.726-4.315 4.027 0 2.302 1.726 4.028 4.028 4.316.287-.288.863-.288 1.438-.288z"/></g><g><path fill="#def9fa" d="M557.979 527.485c.575.576 1.438.863 2.301.863 1.15 0 2.59-.575 3.452-1.726 1.439-1.726.863-4.315-.863-5.754-4.603-3.452-8.63-8.055-10.932-13.52-.863-2.015-3.165-2.878-5.466-2.015-2.014.863-3.165 3.165-2.014 5.466 2.59 6.617 7.48 12.37 13.522 16.686z"/></g><g><path fill="#def9fa" d="M416.978 64.485c.576.576 1.439.863 2.302.863 1.15 0 2.59-.575 3.452-1.726 1.439-1.726.863-4.315-.863-5.754-4.603-3.452-8.63-8.055-10.932-13.52-.863-2.015-3.165-2.878-5.466-2.015-2.014.863-3.165 3.165-2.014 5.466 2.59 6.617 7.48 12.37 13.522 16.686z"/></g><g><path fill="#def9fa" d="M604.979 266.485c.575.576 1.438.863 2.301.863 1.15 0 2.59-.575 3.452-1.726 1.439-1.726.863-4.315-.863-5.754-4.603-3.452-8.63-8.055-10.932-13.52-.863-2.015-3.165-2.878-5.466-2.015-2.014.863-3.165 3.165-2.014 5.466 2.59 6.617 7.48 12.37 13.522 16.686z"/></g><g><path fill="#f2e96c" d="M411.874 341.75c-1.439-1.727-3.74-2.302-5.754-1.151-5.178 3.74-10.07 8.63-13.521 14.096-1.151 2.014-.576 4.316 1.15 5.754.576.576 1.439.576 2.302.576 1.438 0 2.59-.576 3.452-2.014 2.877-4.603 6.905-8.63 11.22-11.795 2.014-.864 2.302-3.453 1.15-5.467z"/></g><g><path fill="#dbb2d2" d="M315.188 190.57c-3.165-1.15-6.042-3.452-7.48-6.328-1.151-2.014-3.453-2.877-5.466-1.727-2.014 1.151-2.877 3.453-1.727 5.467 2.59 4.89 7.193 8.918 12.371 10.644.288 0 .863.288 1.15.288 1.727 0 3.453-1.151 4.028-2.877.576-2.302-.863-4.603-2.876-5.466z"/></g><g><path fill="#f9d9e3" d="M543.924 212.74c-.288-2.302-2.302-3.74-4.603-3.74-5.754.575-11.508 2.301-16.974 4.603-2.014.863-2.877 3.452-2.014 5.466.576 1.439 2.302 2.302 3.74 2.302.576 0 1.151 0 1.726-.288 4.603-2.014 9.494-3.452 14.385-4.028 2.301 0 4.027-2.014 3.74-4.315z"/></g><g><path fill="#dbb2d2" d="M467.854 137.8c1.439-1.727 1.439-4.316-.287-5.755-1.726-1.438-4.316-1.438-5.754.288l-7.768 9.206c-1.438 1.726-1.438 4.315.288 5.754.863.575 1.726.863 2.59.863 1.15 0 2.3-.575 3.164-1.439z"/></g><g><path fill="#f9d9e3" d="M295.756 346c-2.301 0-4.028 2.014-3.74 4.315.288 3.453-.575 7.193-1.726 10.645-.863 2.014.288 4.603 2.301 5.466.576.288 1.151.288 1.439.288 1.726 0 3.164-.864 3.74-2.59 1.726-4.315 2.59-9.206 2.301-14.096-.287-2.302-2.301-4.028-4.315-4.028z"/></g><g><path fill="#f9d9e3" d="M149.756 324c-2.301 0-4.028 2.014-3.74 4.315.288 3.453-.575 7.193-1.726 10.645-.863 2.014.288 4.603 2.301 5.466.576.288 1.151.288 1.439.288 1.726 0 3.164-.864 3.74-2.59 1.726-4.315 2.59-9.206 2.301-14.096-.287-2.302-2.301-4.028-4.315-4.028z"/></g><g><path fill="#f2e96c" d="M312.087 239.771c-.288-2.301-2.014-4.027-4.316-3.74-2.301.288-4.027 2.014-3.74 4.316.288 4.89 1.151 9.781 2.877 14.672.576 1.726 2.302 2.877 4.028 2.877.288 0 .863 0 1.15-.288 2.014-.575 3.453-2.877 2.59-5.178-1.439-4.028-2.302-8.343-2.59-12.659z"/></g><g><path fill="#f2e96c" d="M100.087 176.771c-.288-2.301-2.014-4.027-4.316-3.74-2.301.288-4.027 2.014-3.74 4.316.288 4.89 1.151 9.781 2.877 14.672.576 1.726 2.302 2.877 4.028 2.877.288 0 .863 0 1.15-.288 2.014-.575 3.453-2.877 2.59-5.178-1.439-4.028-2.302-8.343-2.59-12.659z"/></g></g><g><g><path fill="#f2e96c" d="M1258.065 399.515c2.014-1.15 4.603-.287 5.466 1.727a133.252 133.252 0 0 1 8.343 18.412c.863 2.013-.288 4.603-2.59 5.178-.575.288-.862.288-1.438.288-1.726 0-3.164-1.151-3.74-2.59a93.145 93.145 0 0 0-7.767-17.26c-.863-2.302 0-4.604 1.726-5.755z"/></g><g><path fill="#def9fa" d="M1255.8 573.868c-.576.288-1.151.288-1.727.288-1.438 0-2.877-.863-3.74-2.302-.863-2.013 0-4.603 2.014-5.466 4.028-2.014 7.768-4.603 10.932-8.055 1.439-1.726 4.028-1.726 5.754-.288 1.726 1.439 1.726 4.028.288 5.754-3.74 4.315-8.343 7.768-13.522 10.07z"/></g><g><path fill="#f9d9e3" d="M1246.06 188.704c-1.15 0-2.301-.575-3.165-1.438-3.74-4.315-6.329-9.781-7.767-15.247-.575-2.302.863-4.316 2.877-4.891 2.301-.576 4.315.863 4.89 2.877 1.151 4.315 3.165 8.63 6.042 12.083 1.438 1.726 1.15 4.315-.575 5.753-.288.576-1.439.864-2.302.864z"/></g><g><path fill="#def9fa" d="M1215.32 416.676c-.576.288-.864.288-1.44.288-1.725 0-3.164-.863-3.74-2.59-2.013-4.89-4.027-9.78-6.616-14.384-1.15-2.014-.288-4.315 1.438-5.466 2.014-1.15 4.316-.288 5.466 1.438 2.877 4.891 5.179 10.07 7.193 15.536.863 2.013-.288 4.603-2.302 5.178z"/></g><g><path fill="#def9fa" d="M1283.938 706.712c-.575.288-.863.288-1.438.288-1.726 0-3.165-.863-3.74-2.59-2.014-4.89-4.028-9.78-6.617-14.384-1.15-2.013-.287-4.315 1.439-5.466 2.014-1.15 4.315-.287 5.466 1.439 2.877 4.89 5.178 10.069 7.192 15.535.863 2.014-.288 4.603-2.302 5.178z"/></g><g><path fill="#def9fa" d="M1526.32 572.676c-.576.288-.864.288-1.44.288-1.725 0-3.164-.863-3.74-2.59-2.013-4.89-4.027-9.78-6.616-14.384-1.15-2.014-.288-4.315 1.438-5.466 2.014-1.15 4.316-.288 5.466 1.438 2.877 4.891 5.179 10.07 7.193 15.536.863 2.013-.288 4.603-2.302 5.178z"/></g><g><path fill="#f2e96c" d="M1260.57 112.156c-.863 0-2.014-.288-2.877-1.15-1.726-1.44-1.726-4.029-.287-5.755l8.055-8.918c1.438-1.726 4.027-1.726 5.754-.288 1.726 1.439 1.726 4.028.287 5.754l-8.055 8.918c-.863.864-1.726 1.439-2.877 1.439z"/></g><g><path fill="#dbb2d2" d="M1172.347 216.515c2.014-1.15 4.603-.287 5.466 1.727l3.452 6.616c1.151 2.014.288 4.603-1.726 5.467-.575.287-1.15.575-2.014.575-1.438 0-2.876-.863-3.74-2.302l-3.452-6.616c-.863-2.014 0-4.604 2.014-5.467z"/></g><g><path fill="#def9fa" d="M1085.74 384.087c2.301-.288 4.603-1.726 5.466-3.74.863-2.014 3.452-2.877 5.466-2.014 2.014.863 2.877 3.453 2.014 5.466-2.302 4.603-7.192 8.056-12.37 8.343h-.288c-2.014 0-4.028-1.726-4.028-3.74 0-2.301 1.726-4.027 3.74-4.315z"/></g><g><path fill="#f9d9e3" d="M1221.21 500.982l10.356-5.467c2.014-1.15 4.603-.287 5.466 1.727 1.15 2.013.288 4.603-1.726 5.466l-10.357 5.466c-.575.287-1.15.575-2.014.575-1.438 0-2.876-.863-3.74-2.301-.575-1.727 0-4.316 2.014-5.466z"/></g><g><path fill="#f9d9e3" d="M1574.225 332.982l10.357-5.467c2.014-1.15 4.603-.287 5.466 1.727 1.15 2.013.288 4.603-1.726 5.466l-10.357 5.466c-.575.287-1.15.575-2.014.575-1.438 0-2.876-.863-3.74-2.301-.575-1.727 0-4.316 2.014-5.466z"/></g><g><path fill="#f2e96c" d="M1189.708 589.721c-.576 1.439-2.302 2.302-3.74 2.302-.576 0-1.151 0-1.726-.288-2.014-.863-2.877-3.452-1.727-5.466l2.014-4.027c.863-2.014 3.452-2.877 5.466-1.727 2.014.863 2.877 3.453 1.726 5.467z"/></g><g><path fill="#def9fa" d="M1188.57 64.485c-.576.576-1.44.863-2.302.863-1.151 0-2.59-.575-3.453-1.726-1.438-1.726-.863-4.315.863-5.754 4.603-3.452 8.631-8.055 10.933-13.52.863-2.015 3.164-2.878 5.466-2.015 2.013.863 3.164 3.165 2.013 5.466-2.589 6.617-7.48 12.37-13.52 16.686z"/></g><g><path fill="#f2e96c" d="M1256.673 285.75c1.438-1.727 3.74-2.302 5.754-1.151 5.178 3.74 10.069 8.63 13.521 14.096 1.15 2.014.576 4.316-1.15 5.754-.576.576-1.439.576-2.302.576-1.439 0-2.59-.576-3.452-2.014-2.877-4.603-6.905-8.63-11.22-11.795-2.014-.864-2.302-3.453-1.15-5.467z"/></g><g><path fill="#dbb2d2" d="M1337.045 100.8c-1.438-1.727-1.438-4.316.288-5.755 1.726-1.438 4.315-1.438 5.754.288l7.767 9.206c1.439 1.726 1.439 4.315-.287 5.754-.863.575-1.726.863-2.59.863-1.15 0-2.301-.576-3.164-1.439z"/></g><g><path fill="#f9d9e3" d="M1447.37 406c2.301 0 4.027 2.014 3.74 4.315-.288 3.453.575 7.193 1.726 10.645.863 2.014-.288 4.603-2.302 5.466-.575.288-1.15.288-1.438.288-1.726 0-3.165-.864-3.74-2.59-1.726-4.315-2.59-9.206-2.302-14.096.288-2.302 2.302-4.028 4.316-4.028z"/></g><g><path fill="#f2e96c" d="M1505.461 176.771c.288-2.301 2.014-4.027 4.315-3.74 2.302.288 4.028 2.014 3.74 4.316-.287 4.89-1.15 9.781-2.877 14.672-.575 1.726-2.301 2.877-4.027 2.877-.288 0-.863 0-1.151-.288-2.014-.575-3.452-2.877-2.59-5.178 1.44-4.028 2.302-8.343 2.59-12.659z"/></g></g><g><path fill="#cfb0d0" d="M339.312 264.012l.544-.255.182-.085c.363-.17.68-.209 1.133-.2.317-.037.588.057.859.151.406.142.767.416.992.642.09.18.225.227.314.406l.09.18.179.359.089.18c.179.358.222.67.266.982l.13.935c.087.624.038 1.2-.057 1.909-.095.708-.325 1.37-.374 1.946l-.092.265-.138.397-.046.132-.092.265-.184.529-.139.397-.046.132-.184.53-.046.132c-.092.264-.23.661-.504 1.01l-.138.398-.138.397-.046.132-.274.35-.274.35c-.046.132-.092.264-.273.35l-.046.132-.046.132-.046.132c-.046.132-.228.218-.274.35l-.046.132-.821 1.05c-.274.35-.547.699-1.003 1.134-.227.217-.455.435-.636.52l-.228.217-.182.085-.046.133.816-.161.816-.162c.181-.085.317-.037.498-.123l1.225-.463.136.047.498-.123.317-.038c.499-.123.862-.294 1.36-.417.545-.255 1.044-.378 1.589-.634l.68-.208.363-.17.363-.17-.135-.047-.09-.18c.046-.132-.09-.18-.043-.312l.046-.132.046-.132-.044-.312.046-.132-.089-.18c.003-.444-.13-.935-.128-1.38-.04-.755-.035-1.643.016-2.664.052-1.02.239-1.993.334-2.702.002-.444.186-.973.235-1.55.138-.397.141-.84.325-1.37.233-1.106.737-2.117 1.149-2.863.138-.397.412-.747.685-1.097l.046-.132c.047-.132.093-.265.274-.35l.092-.264c.092-.265.32-.482.548-.7.227-.217.455-.435.864-.737.138-.397.32-.482.455-.435l.046-.133.182-.085.135.047c.182-.085.499-.123.634-.075l.136.047c.317-.038.588.056.994.198.271.094.407.141.632.368.271.094.496.32.675.68l.135.047.18.359.089.18c.311.85.488 1.653.574 2.276.041.756.128 1.38.125 1.824-.092.264-.049.576-.14.84l-.093.265c-.187.973-.555 2.032-1.06 3.043-.137.397-.41.747-.549 1.144l-.092.264c-.046.132-.092.265-.274.35l-.092.265c-.046.132-.138.396-.32.482-.32.482-.64.964-.913 1.313-.273.35-.593.832-.867 1.182-.273.35-.501.567-.729.784.182-.085.363-.17.591-.387.092-.265.455-.435.637-.52.135.047.181-.085.317-.038.181-.085.409-.303.726-.34l.545-.256.181-.085 1.136-.643.997-.246 1.135-.644.182-.085c.046-.132.181-.085.227-.217l.317-.038.228-.218c.182-.085.363-.17.59-.387l.182-.085c-.135-.048-.36-.274-.45-.454l-.178-.359-.09-.18-.268-.538c-.133-.49-.312-.85-.355-1.161-.133-.492-.266-.983-.263-1.427-.041-.756-.082-1.512-.03-2.532.051-1.02.238-1.994.379-2.835.14-.84.598-1.72.967-2.778.046-.133.092-.265.274-.35l.046-.132.046-.133c.046-.132.273-.35.32-.482.593-.831 1.14-1.53 1.959-2.136l.181-.085.363-.17c.182-.086.317-.038.453.009.317-.038.634-.076.905.018l.406.142c.136.047.225.226.36.274.136.047.226.226.315.406l.09.18.357.717c.18.359.312.85.534 1.52.087.624.174 1.248.171 1.692.041.756-.054 1.465-.102 2.041-.187.973-.556 2.032-.968 2.778-.138.397-.458.88-.596 1.276-.365.615-.777 1.361-1.279 1.928-.046.133-.227.218-.32.482l.182-.085.182-.085c.046-.132.181-.085.228-.217.409-.303 1-.69 1.409-.993.046-.132.227-.218.409-.303l.046-.132 1.225-.464 1.227-.907c.046-.133.182-.086.228-.218l.046-.132.544-.256.591-.387c.182-.085.41-.303.59-.388l.047-.132c-.135-.047-.225-.227-.314-.406l-.09-.18-.358-.718c-.043-.311-.222-.67-.176-.803l-.09-.18-.089-.179.046-.132c-.043-.312-.222-.67-.22-1.115-.086-.623-.083-1.067-.127-1.38.006-.887.01-1.775.106-2.484.048-.576.187-.973.281-1.682.092-.265.095-.709.187-.973l.092-.265.415-1.19c.184-.53.368-1.06.642-1.409.092-.264.138-.397.366-.614.092-.265.32-.482.547-.7.046-.132.182-.085.228-.217.181-.085.227-.218.363-.17l.363-.17c.317-.039.634-.077.816-.162.634-.076 1.222-.02 1.582.255.36.273.586.5.9.906l.268.538.136.048.179.359.09.18c.043.31.267.538.446.897.133.49.266.982.353 1.606-.003.444.04.755-.098 1.152l-.046.133c-.14.84-.37 1.502-.601 2.164-.276.793-.734 1.672-1.192 2.551.181-.085.227-.217.409-.302l.046-.133.683-.652c.181-.085.227-.217.274-.35l.046-.132.227-.217.046-.133.182-.085.046-.132c.092-.265.366-.614.683-.652l.138-.397.227-.218c.683-.652 1.23-1.352 1.732-1.919l-.136-.047-.27-.094c-.136-.047-.226-.227-.361-.274-.136-.047-.09-.18-.225-.227l-.09-.18-.268-.538-.268-.538c-.447-.897-.76-1.748-1.07-2.598-.223-.67-.264-1.426-.35-2.05-.044-.312.002-.444.094-.708-.043-.312.049-.577.095-.71l.276-.793.046-.132c.139-.397.504-1.012 1.184-1.22.364-.17.68-.208.862-.293l.136.047c.135.047.181-.085.317-.038.135.047.452.01.588.056.406.142.631.369.992.642.225.227.314.407.54.633.135.047.089.18.224.227l.358.718c.179.359.176.803.22 1.114.132.492.13.936-.009 1.333-.002.444-.186.973-.19 1.417-.091.265-.23.662-.322.926.047-.132.093-.264.274-.35l.594-.831.32-.482c-.136-.048-.09-.18-.044-.312l.092-.265.046-.132.046-.132.138-.397.046-.133.046-.132.139-.397c.184-.529.368-1.058.325-1.37.184-.53.279-1.238.647-2.296l.046-.133.092-.264.184-.53c.093-.264.185-.529.412-.746.274-.35.412-.747.64-.964.273-.35.501-.567.818-.605.182-.085.317-.038.363-.17.182-.086.453.009.588.056l.407.141c.135.048.225.227.36.274.136.047.225.227.315.406.227-.217.181-.085.317-.038.132.492.265.983.263 1.427-.046.132-.003.444-.05.576l-.045.133c-.092.264-.003.444-.095.708l-.368 1.059c-.046.132-.138.397-.32.482-.046.132-.092.264-.274.35-.092.264-.273.35-.32.482l-.046.132c-.227.217-.5.567-.774.917a7.987 7.987 0 0 1-.865.737c-.409.303-.818.605-1.046.823-.181.085-.409.302-.59.387-.182.086-.364.17-.68.209-.136-.048-.182.085-.272-.095l-.365.615-.686 1.096-.821 1.05c-.274.349-.547.699-.775.916-.046.132-.046.132-.228.218-.32.482-.774.917-1.048 1.266-.046.133-.274.35-.32.482.41-.302.818-.605 1.182-.775l.181-.085c.545-.256 1.09-.511 1.545-.946l.043.312c.41-.303 1.135-.643 1.816-.851.544-.256 1.27-.596 2.086-.757l.951-.114c.182-.085.453.009.77-.03.406.142.813.284 1.127.69.09.18.18.359.133.491.09.18-.002.444.04.756-.137.397-.275.794-.414 1.19l-.046.133c-.23.662-.82 1.05-1.411 1.437-.591.388-1.182.775-1.908 1.116-.363.17-.545.255-.862.293l-.181.085c-.363.17-.68.209-.998.247-.363.17-.68.208-.997.246-.452-.01-.815.16-1.132.199-.318.038-.635.076-.906-.018-.317.037-.588-.057-.859-.151l-.135-.047c-.136-.048-.271-.095-.453-.01-.135-.047-.317.038-.452-.009l-.136-.047c-.317.038-.723-.104-.994-.198-.136-.047-.225-.227-.36-.274-.274.35-.548.7-.957 1.002l-1.184 1.22-.91.87-.456.434-.046.133-.228.217c-.227.218-.409.303-.637.52l-.046.132-.046.133c.046-.133.182-.085.363-.17.364-.17.727-.34 1.044-.379l.227-.217.317-.038c.182-.086.317-.038.499-.123 0 0 .135.047.182-.086.317-.038.68-.208 1.132-.199a17.285 17.285 0 0 1 2.537-.303c.317-.038.77-.03 1.086-.067l.136.047c.317-.038.634-.076 1.04.066.453.009.86.15 1.312.16.271.094.678.235 1.038.51.136.046.09.179.225.226l.179.359c.09.18.043.312-.003.444s-.002.444-.048.576c-.093.265-.139.397-.23.662l-.047.132c-.092.265-.32.482-.366.614-.32.483-.774.917-1.23 1.352-.227.218-.59.388-.818.605l-.182.086c-.181.085-.227.217-.363.17-.363.17-.772.473-1.135.643l-.046.132c-.182.085-.41.303-.726.34l-.545.256-.545.256-.544.255-.182.085-.182.085c-.317.038-.498.123-.498.123-.68.209-1.496.37-2.176.578-.997.246-1.767.275-2.537.304l-.317.037c-.452-.009-.77.03-1.222.02-.588-.056-1.176-.113-1.629-.122-.27-.094-.588-.056-.994-.198-.271-.094-.542-.188-.767-.415l-.271-.094-.136-.048-.135-.047-.136-.047c-.135-.047-.225-.227-.36-.274-.09-.18-.225-.226-.314-.406l-.228.218-.228.217-.181.085c-.046.132-.182.085-.228.218-.181.085-.409.302-.59.387l-1.364.86c-1.181.776-2.316 1.42-3.316 2.11-.046.132-.182.085-.182.085l-.181.085-.046.132-.046.132c1.677-.454 3.533-.55 5.254-.692 1.087-.067 2.173-.134 2.99-.295l.452.01 2.308-.087c.453.01.86.151 1.177.113l.135.047c.271.095.407.142.724.104l.135.047 1.084.377c.407.142.767.416.992.642.136.047.225.227.45.454 0 0 .135.047.09.179l.178.359c.09.18.044.312-.002.444l-.046.132-.046.133-.139.397c-.138.396-.365.614-.458.878-.32.483-.728.785-1.002 1.135l-.182.085c-.181.085-.363.17-.409.303l-.181.085-.545.255c-.363.17-.772.473-1.271.596-.545.255-1.043.378-1.542.502-.997.246-2.084.312-3.035.426-.77.03-1.54.058-2.534-.14-.905-.018-1.764-.17-2.758-.367-1.177-.113-2.532-.584-3.84-1.188-.678-.236-1.31-.604-1.806-.925-.135-.048-.224-.227-.36-.274l-.136-.047c-.135-.048-.36-.274-.495-.321-.136-.048-.09-.18-.225-.227l-.271-.094c-.136-.048-.09-.18-.225-.227l-1.816.851-.181.085-.545.256-1.542.502-.363.17c-.862.293-1.77.719-2.631 1.012l-.182.085-.317.038-.545.256c-.135-.047-.181.085-.317.038.588.056 1.222-.02 1.675-.01l.453.008.723.104c1.629.122 3.393.291 5.564.602.859.15 1.718.301 2.712.5l.407.14.135.048.678.236.135.047.136.047c1.084.377 2.03 1.151 2.884 2.19.224.227.403.586.493.765l.09.18c.089.18.178.359.222.67l.13.936c-.046.132-.092.265-.003.444l-.046.132-.184.53c-.184.529-.775.916-1.184 1.219-.228.217-.591.388-.819.605l-.908.426-.181.085c-.545.255-1.179.331-1.859.54-.317.038-.816.16-1.45.236-.135-.047-.317.038-.317.038l-.135-.047-.182.085c-.317.038-.452-.009-.77.03-.317.037-.634.075-.905-.02-.634.077-1.357-.027-2.035-.263-.723-.103-1.536-.386-2.303-.802-.542-.188-1.038-.51-1.58-.698a13.836 13.836 0 0 1-2.209-1.51c-.36-.274-.856-.595-1.17-1.001-.361-.274-.54-.633-.765-.86-.09-.18-.404-.585-.629-.812-.135-.047-.09-.18-.225-.227l-.179-.359-.536-1.076-.18-.36-.089-.179-.09-.18-.178-.358s.046-.132-.09-.18l-.363.17-.363.17-.181.086-.998.246s-.181.085-.227.218c-.182.085-.499.123-.951.114l-.317.037-.952.114c-.317.038-.498.123-.634.076l-1.585.19-.317.038a1.11 1.11 0 0 1-.77.029l-.317.038-.181.085-.136-.047c-.77.029-1.585.19-2.49.171-.453-.009-.905-.018-1.629-.122-.27-.094-.588-.056-.859-.15l-.542-.19-.271-.093c-.406-.142-.859-.151-1.13-.246l-.813-.283c-.135-.047-.271-.094-.36-.273-.09-.18-.044-.312.002-.444.046-.133.092-.265.274-.35.181-.085.317-.038.452.009l1.22.425.406.141c.407.142 1.13.245 1.854.349.271.094.588.056.86.15.452.01.769-.028 1.04.066l.95-.114.502-.567.951-.114c.136.047.317-.038.453.01l.135.046.182-.085.136.047.135.048.182-.086.181-.085.951-.114c.182-.085.317-.038.499-.123l.181-.085.317-.038.182-.085c-.09-.18-.09-.18-.043-.312l-.09-.18c-.09-.179-.043-.31-.133-.49-.09-.18-.043-.312-.132-.492-.09-.18-.133-.49-.223-.67l.046-.133c-.09-.18-.043-.311-.179-.359-.178-.359-.176-.803-.173-1.247-.133-.491-.13-.935-.082-1.511.003-.444.052-1.02.19-1.418.187-.973.328-1.814.65-2.74.368-1.059.51-1.9.832-2.826l.184-.529.092-.264.23-.662c.23-.661.55-1.144 1.006-1.578.5-.568.956-1.002 1.411-1.437.591-.388.954-.558 1.499-.814z"/></g><g><path fill="#f7f1cc" d="M1139.81 324.29l.617-.591.206-.197c.411-.394.821-.589 1.435-.782.41-.195.817-.19 1.225-.186.611.006 1.22.211 1.626.414.202.201.406.204.608.405l.201.2.404.403.202.2c.404.403.603.803.803 1.203l.6 1.2c.4.8.595 1.599.789 2.596.193.997.183 1.992.379 2.79l-.004.399-.006.597-.002.199-.004.398-.008.796-.006.597-.002.199-.008.796-.002.199c-.004.398-.01.995-.22 1.59l-.007.597-.006.597-.002.2-.21.594-.21.595c-.001.2-.003.398-.21.595l-.001.2-.002.198-.002.2c-.002.198-.208.395-.21.594l-.002.2-.63 1.784c-.21.595-.42 1.19-.835 1.982-.208.396-.416.792-.622.989l-.208.396-.206.197-.002.199 1.025-.587 1.026-.587c.206-.196.41-.194.615-.391l1.44-1.18.203.002.616-.392.41-.195c.615-.392 1.026-.785 1.642-1.177.618-.591 1.233-.983 1.85-1.574l.822-.589.412-.393.411-.394-.203-.002-.202-.201c.002-.2-.202-.202-.2-.4l.002-.2.002-.199-.2-.4.002-.199-.202-.2c-.197-.6-.599-1.201-.797-1.8-.397-1-.793-2.198-1.186-3.595-.394-1.397-.584-2.793-.777-3.79-.198-.599-.19-1.395-.386-2.193.006-.597-.191-1.196-.183-1.992-.188-1.595.032-3.185.248-4.377.006-.597.216-1.192.426-1.787l.002-.199c.002-.199.004-.398.21-.595l.004-.398c.004-.398.212-.794.42-1.19.207-.396.415-.792.829-1.385.006-.597.212-.794.416-.791l.002-.2.206-.196.203.002c.206-.197.616-.392.82-.39l.204.002c.41-.195.817-.19 1.428-.185.408.005.612.007 1.018.21.407.004.813.207 1.216.61l.204.001.404.402.202.202a15.971 15.971 0 0 1 1.806 2.804c.398 1 .797 1.8.995 2.399-.004.398.196.798.192 1.196l-.004.398c.19 1.395.173 2.988-.047 4.578-.006.597-.216 1.192-.222 1.789l-.004.398c-.002.199-.004.398-.21.595l-.004.398c-.002.199-.006.597-.212.794-.212.794-.424 1.588-.633 2.183-.21.595-.422 1.389-.632 1.984a9.58 9.58 0 0 1-.626 1.387c.206-.197.412-.394.62-.79.004-.398.415-.792.621-.989.204.002.206-.197.41-.195.206-.197.414-.593.823-.788l.618-.59.206-.197 1.237-1.381 1.231-.784 1.237-1.38.206-.198c.002-.199.206-.197.208-.395l.41-.195.207-.396c.206-.197.412-.394.62-.79l.206-.197c-.204-.002-.61-.205-.811-.406l-.404-.403-.202-.2-.605-.604c-.402-.601-.806-1.003-1.005-1.404-.402-.6-.804-1.202-1.001-1.801-.398-1-.795-1.998-1.189-3.396-.393-1.397-.583-2.792-.775-3.988-.192-1.197.026-2.588.043-4.18.002-.199.004-.398.21-.595l.001-.199.002-.199c.002-.199.21-.595.212-.794.422-1.389.842-2.579 1.67-3.765l.205-.197.412-.393c.206-.197.41-.195.613-.193.41-.195.82-.39 1.228-.386l.611.006c.204.002.406.203.61.206.203.002.405.203.607.404l.202.2.807.805c.404.402.805 1.004 1.409 1.806.4.8.799 1.6.997 2.2.397.999.59 1.996.787 2.794.19 1.395.173 2.987-.043 4.18-.006.596-.218 1.39-.224 1.987-.214.993-.43 2.186-.848 3.177-.002.199-.207.395-.211.794l.205-.198.206-.196c.002-.2.206-.197.208-.396.414-.593 1.033-1.383 1.447-1.976.002-.2.208-.396.414-.593l.002-.199 1.439-1.18 1.241-1.778c.002-.2.206-.197.208-.396l.002-.2.617-.59.62-.79c.206-.197.414-.593.62-.79l.002-.199c-.204-.002-.406-.203-.608-.404l-.202-.201-.807-.805c-.2-.4-.603-.802-.601-1.001l-.202-.201-.202-.201.002-.2c-.2-.4-.603-.801-.801-1.4-.4-.8-.597-1.4-.797-1.8-.396-1.198-.791-2.397-.985-3.394-.196-.798-.19-1.395-.383-2.392.004-.398-.194-.997-.19-1.395l.004-.398.018-1.791c.008-.797.016-1.593.226-2.188.004-.398.006-.597.214-.993.004-.398.212-.794.42-1.19.002-.199.206-.197.208-.396.206-.197.208-.396.412-.394l.411-.393c.41-.195.82-.39 1.025-.587.82-.39 1.637-.58 2.247-.375.609.205 1.015.408 1.622.812l.606.603.203.003.404.402.202.2c.2.401.605.604 1.009 1.006.401.602.803 1.203 1.203 2.003.198.599.397 1 .391 1.596l-.002.2c.192 1.195.182 2.19.172 3.186-.012 1.194-.23 2.585-.448 3.976.206-.197.208-.396.413-.593l.002-.2.624-1.187c.206-.197.208-.396.21-.595l.002-.199.208-.396.002-.199.206-.197.002-.199c.004-.398.214-.993.623-1.188l.006-.597.208-.396c.624-1.188 1.044-2.378 1.461-3.369l-.203-.002-.408-.004c-.204-.002-.406-.203-.61-.205-.203-.002-.201-.201-.405-.203l-.202-.201-.606-.604-.605-.603c-1.009-1.005-1.814-2.009-2.62-3.012-.603-.802-1-1.802-1.4-2.602-.2-.4-.198-.6-.194-.997-.2-.4-.195-.798-.193-.997l.012-1.194.002-.2c.006-.596.22-1.59 1.041-2.178.412-.394.821-.589 1.027-.786l.204.002c.204.002.206-.197.41-.195.204.002.613-.193.817-.19.612.006 1.017.209 1.627.414.405.203.607.404 1.013.607.204.003.202.202.405.204l.808.804c.403.402.601 1.001.801 1.401.402.602.6 1.2.593 1.798.198.599.19 1.395.388 1.994l-.014 1.393c.002-.199.004-.398.21-.595l.421-1.389.212-.794c-.204-.002-.202-.2-.2-.4l.004-.398.002-.199.002-.199.007-.597.002-.199.002-.199.006-.597c.008-.796.016-1.592-.184-1.992.008-.796-.186-1.794-.17-3.386l.003-.199.004-.398.008-.796c.004-.398.008-.796.216-1.192.21-.595.216-1.192.423-1.588.21-.595.418-.99.828-1.186.206-.197.41-.195.412-.394.205-.197.613-.193.817-.19l.611.006c.204.002.406.203.61.205.204.002.406.203.607.404.208-.396.206-.197.41-.195.402.602.803 1.203 1.001 1.802-.002.199.198.599.196.798l-.002.199c-.004.398.198.6.193.997l-.016 1.592c-.002.2-.006.597-.212.794-.002.2-.004.398-.21.595-.004.398-.21.595-.211.794l-.002.2c-.208.395-.418.99-.628 1.585-.208.396-.416.792-.83 1.385-.413.593-.827 1.186-1.035 1.582-.206.197-.414.593-.62.79-.205.197-.411.394-.82.589-.205-.002-.207.197-.408-.004l-.214.992-.426 1.788-.63 1.785c-.21.594-.42 1.19-.628 1.585-.002.2-.002.2-.207.396-.212.794-.628 1.586-.838 2.181-.002.2-.21.595-.212.794.414-.593.828-1.185 1.24-1.58l.205-.196c.618-.591 1.235-1.182 1.65-1.974l.2.4c.414-.593 1.238-1.38 2.06-1.97.617-.59 1.44-1.378 2.465-1.965l1.23-.584c.205-.197.613-.193 1.023-.388.611.006 1.223.012 1.83.417.202.2.404.402.402.6.202.202.197.6.397 1l-.018 1.791-.002.2c-.01.994-.63 1.784-1.25 2.574-.619.79-1.238 1.58-2.062 2.368-.411.393-.617.59-1.027.785l-.206.197c-.412.394-.821.59-1.23.784-.413.394-.822.589-1.232.784-.613.192-1.025.586-1.435.781-.41.195-.82.39-1.227.386-.41.195-.817.19-1.225.186l-.204-.002c-.204-.002-.407-.004-.613.193-.204-.002-.41.195-.614.193l-.204-.002c-.41.195-1.02.189-1.428.184-.204-.002-.406-.203-.61-.205-.21.595-.42 1.19-.833 1.783l-1.042 2.179-.831 1.584-.416.792-.002.199-.208.396c-.208.396-.414.593-.622.989l-.002.199-.002.199c.002-.2.206-.197.412-.394.412-.394.824-.788 1.233-.983l.208-.396.41-.195c.206-.197.41-.195.615-.392 0 0 .204.003.206-.196.41-.195.822-.59 1.435-.782a24.591 24.591 0 0 1 3.278-1.56c.41-.194 1.023-.387 1.432-.582l.204.002c.41-.195.82-.39 1.431-.383.614-.193 1.225-.187 1.839-.38.407.005 1.019.01 1.628.216.204.002.202.201.406.203l.404.402c.201.201.2.4.197.6-.002.198.198.599.196.798l-.01.995-.002.199c-.004.398-.212.794-.214.993-.212.794-.628 1.586-1.043 2.378-.208.396-.62.79-.828 1.185l-.206.197c-.206.197-.208.396-.411.394-.412.394-.826.987-1.237 1.381l-.003.199c-.205.197-.413.593-.823.788l-.617.59-.618.592-.618.59-.205.197-.206.197c-.41.195-.616.392-.616.392-.821.589-1.846 1.176-2.668 1.764-1.23.784-2.254 1.172-3.277 1.56l-.41.194c-.613.193-1.023.388-1.637.58-.817.192-1.634.382-2.248.575-.408-.004-.817.19-1.429.185-.407-.005-.815-.009-1.22-.212l-.408-.004-.204-.002-.204-.002-.204-.002c-.204-.002-.406-.203-.61-.205-.201-.201-.405-.204-.607-.405l-.208.396-.207.396-.206.197c-.002.2-.206.197-.208.396-.206.197-.414.593-.62.79l-1.445 1.777c-1.239 1.58-2.476 2.96-3.51 4.343-.001.2-.205.197-.205.197l-.206.197-.002.199-.002.199c2.052-1.372 4.508-2.343 6.76-3.315 1.433-.583 2.866-1.165 3.892-1.752l.613-.193 3.07-1.163c.613-.193 1.225-.186 1.634-.381l.204.002c.408.004.612.006 1.021-.189l.204.002 1.631.017c.611.006 1.22.211 1.627.414.203.002.405.203.81.407 0 0 .205.002.203.2l.403.403c.202.2.2.4.198.599l-.002.199-.002.2-.006.596c-.006.597-.214.993-.218 1.391-.212.794-.626 1.387-.836 1.982l-.205.197c-.206.197-.412.394-.414.593l-.206.197-.618.59c-.411.395-.825.988-1.44 1.38-.618.59-1.234.982-1.85 1.374-1.23.784-2.663 1.366-3.892 1.95-1.023.388-2.047.776-3.475.96-1.227.386-2.452.573-3.881.757-1.635.382-3.673.361-5.71.142-1.019-.01-2.036-.22-2.85-.427-.203-.002-.405-.204-.609-.206l-.203-.002c-.204-.002-.61-.205-.814-.207-.204-.002-.202-.201-.405-.203l-.408-.004c-.204-.002-.202-.201-.406-.203l-2.058 1.97-.206.196-.618.59-1.848 1.375-.412.394c-1.027.786-2.056 1.77-3.084 2.556l-.205.197-.41.195-.618.591c-.204-.002-.206.197-.41.195.818-.19 1.637-.58 2.25-.773l.614-.193 1.022-.189c2.248-.574 4.7-1.146 7.763-1.712 1.225-.187 2.45-.374 3.88-.558l.61.006.204.002 1.02.01.203.003.204.002c1.631.016 3.256.63 4.876 1.641.406.204.81.606 1.011.807l.202.201c.202.201.404.402.603.802l.6 1.2c-.002.2-.004.399.198.6l-.002.199-.009.796c-.008.796-.627 1.586-1.04 2.179-.209.396-.62.79-.828 1.185l-1.03.985-.205.197c-.618.591-1.437.98-2.259 1.57-.41.194-1.025.586-1.844.976-.204-.002-.41.195-.41.195l-.204-.002-.206.197c-.41.195-.613.193-1.023.388-.41.194-.82.39-1.227.385-.82.39-1.84.579-2.86.568-1.02.189-2.244.176-3.465-.035-.815-.008-1.629-.215-2.444-.224a19.652 19.652 0 0 1-3.659-1.032c-.61-.205-1.422-.413-2.03-.817-.61-.205-1.013-.607-1.419-.81-.201-.201-.809-.606-1.215-.809-.203-.002-.201-.2-.405-.203l-.404-.402-1.21-1.207-.404-.402-.202-.201-.202-.201-.404-.402s.002-.2-.201-.201l-.412.394-.412.393-.206.197-1.23.784s-.207.197-.209.396c-.205.197-.615.392-1.229.585l-.41.195-1.228.584c-.41.195-.616.392-.82.39l-2.048.974-.41.195a1.577 1.577 0 0 1-1.023.388l-.41.195-.206.197-.203-.002c-1.024.387-2.049.974-3.276 1.36-.613.192-1.227.385-2.248.574-.408-.004-.817.19-1.225.187l-.815-.009-.408-.004c-.612-.006-1.225.187-1.633.183l-1.223-.013c-.204-.002-.407-.004-.61-.205-.201-.201-.199-.4-.197-.6.002-.198.004-.397.21-.594.206-.197.41-.195.613-.193l1.835.019.611.006c.612.006 1.633-.182 2.654-.371.408.004.818-.191 1.225-.187.614-.193 1.024-.387 1.431-.383l1.23-.585.417-.991 1.229-.585c.204.002.41-.195.614-.192l.203.002.206-.197.204.002.204.002.206-.197.206-.197 1.229-.585c.205-.197.41-.195.615-.392l.206-.196.41-.195.206-.197c-.202-.201-.202-.201-.2-.4l-.202-.202c-.202-.2-.2-.4-.402-.6-.201-.202-.2-.4-.401-.602-.202-.201-.402-.601-.604-.802l.002-.2c-.201-.2-.2-.4-.403-.401-.404-.403-.602-1.002-.8-1.6-.401-.602-.599-1.201-.795-2-.197-.598-.393-1.397-.387-1.994-.19-1.395-.381-2.591-.367-3.984.016-1.592-.176-2.788-.162-4.182l.008-.796.004-.398.01-.995c.01-.995.223-1.789.638-2.58.418-.992.834-1.784 1.25-2.576.62-.79 1.03-1.183 1.648-1.774z"/></g><g><path fill="#d1f3f5" d="M483.243 521.535l-.555-.101-.185-.034c-.37-.067-.632-.21-.973-.464-.263-.144-.418-.363-.574-.582a2.583 2.583 0 0 1-.408-1.03c.03-.186-.048-.295-.019-.481l.03-.186.058-.371.03-.186c.058-.371.195-.633.331-.894l.41-.785c.273-.523.623-.937 1.081-1.426.458-.49.994-.87 1.344-1.283l.215-.152.321-.228.107-.076.214-.151.429-.304.321-.228.107-.076.429-.304.107-.076c.214-.152.535-.38.935-.498l.321-.227.321-.228.108-.076.399-.118.399-.118c.107-.076.214-.152.399-.119l.107-.076.107-.075.107-.076c.107-.076.292-.043.4-.119l.107-.075 1.197-.355c.4-.118.798-.236 1.383-.32.291-.043.583-.085.768-.051l.292-.042.185.034.107-.076-.71-.321-.71-.32c-.185-.035-.263-.144-.448-.178l-1.187-.312-.078-.11-.447-.177-.263-.144c-.448-.177-.817-.245-1.265-.422-.555-.101-1.002-.278-1.557-.38l-.633-.21-.37-.068-.37-.068.079.11-.03.185c-.107.076-.03.186-.136.262l-.107.076-.107.076-.137.262-.107.076-.03.185c-.243.338-.409.785-.652 1.123-.38.599-.867 1.274-1.462 2.025-.594.751-1.266 1.392-1.724 1.882-.244.337-.672.641-1.023 1.055-.321.227-.565.565-.993.869-.78.717-1.714 1.215-2.435 1.56-.321.229-.72.347-1.12.465l-.107.076c-.107.076-.214.152-.399.118l-.214.152c-.214.152-.506.194-.798.236-.292.042-.584.085-1.061.093-.322.228-.507.194-.584.084l-.107.076-.185-.033-.078-.11c-.185-.034-.448-.177-.526-.287l-.077-.11c-.263-.143-.419-.363-.652-.692-.156-.22-.233-.33-.282-.625-.155-.219-.204-.514-.145-.886l-.078-.11.059-.37.03-.186c.224-.819.526-1.528.799-2.051.38-.6.653-1.122.896-1.46.215-.152.351-.413.565-.565l.215-.152c.672-.642 1.529-1.25 2.463-1.747.322-.228.721-.346 1.042-.574l.215-.152c.107-.076.214-.152.399-.118l.214-.152c.107-.076.321-.228.506-.194.507-.194 1.013-.388 1.412-.506.4-.118.905-.312 1.305-.43.399-.118.69-.16.983-.203-.185-.034-.37-.067-.662-.025-.214.152-.584.084-.769.05-.078-.11-.185-.033-.263-.143-.185-.034-.477.008-.74-.135l-.554-.101-.185-.034-1.216-.127-.896-.354-1.216-.127-.185-.034c-.107.076-.185-.034-.292.042l-.263-.143-.292.042a1.818 1.818 0 0 0-.662-.025l-.185-.034c.078.11.127.405.097.59l-.058.372-.03.186-.088.557c-.166.447-.224.818-.36 1.08-.167.447-.332.894-.576 1.232-.38.6-.76 1.198-1.354 1.95-.595.75-1.267 1.392-1.832 1.957-.565.565-1.392.987-2.25 1.595-.106.076-.214.152-.398.118l-.108.076-.107.076c-.107.076-.399.118-.506.194-.905.312-1.704.549-2.658.565l-.184-.034-.37-.067c-.185-.034-.263-.143-.34-.253-.263-.144-.526-.287-.682-.507l-.233-.329c-.078-.11-.049-.295-.126-.405-.078-.11-.049-.295-.02-.48l.03-.186.117-.743c.059-.371.225-.819.42-1.452.273-.523.546-1.046.79-1.384.38-.599.837-1.088 1.188-1.502.672-.641 1.53-1.249 2.25-1.595.321-.227.827-.422 1.149-.65.613-.27 1.334-.615 2.025-.776.107-.076.292-.042.506-.194l-.185-.034-.185-.033c-.107.076-.185-.034-.292.042-.477.008-1.139-.017-1.616-.009-.107.076-.292.042-.477.009l-.107.076-1.187-.313-1.43.026c-.108.076-.186-.034-.293.042l-.107.076-.555-.102-.661-.025c-.185-.034-.477.009-.662-.025l-.107.076c.077.11.048.295.019.48l-.03.186-.117.743c-.136.262-.195.633-.302.709l-.03.186-.029.185-.107.076c-.136.262-.195.633-.439.97-.273.524-.516.861-.653 1.123-.487.675-.974 1.35-1.432 1.84-.35.413-.672.641-1.13 1.13-.214.152-.458.49-.672.642l-.214.152-.964.683c-.429.304-.857.608-1.256.726-.215.152-.322.228-.614.27-.214.152-.506.194-.798.236-.107.076-.185-.034-.292.042-.185-.034-.292.042-.37-.067l-.37-.068c-.263-.143-.525-.287-.71-.32-.525-.287-.944-.65-1.07-1.056a4.068 4.068 0 0 1-.194-1.181l.088-.557-.077-.11.058-.371.03-.186c.136-.261.088-.557.146-.928.166-.447.332-.895.605-1.418.243-.337.38-.599.701-.827l.107-.076c.565-.565 1.1-.945 1.637-1.325.642-.455 1.47-.877 2.298-1.299-.185-.034-.292.042-.477.008l-.107.076-.877.127c-.184-.034-.292.042-.399.118l-.107.076-.292.042-.107.076-.185-.034-.107.076c-.214.152-.613.27-.876.127l-.322.228-.292.042c-.876.126-1.674.363-2.365.523l.078.11.155.219c.078.11.049.295.126.405.078.11-.029.186.049.295l-.03.186-.087.557c-.03.186-.06.371-.088.557-.147.928-.372 1.747-.596 2.566-.195.633-.575 1.232-.848 1.755-.137.261-.244.337-.458.49-.137.26-.35.413-.458.489l-.643.455-.107.076c-.321.228-.935.498-1.567.287-.37-.067-.633-.21-.818-.245l-.077-.11c-.078-.109-.185-.033-.263-.143-.078-.11-.34-.253-.418-.363-.234-.329-.282-.624-.408-1.03-.049-.295-.02-.48-.068-.776-.078-.11.03-.185-.048-.295l.117-.743c.059-.371.302-.709.439-.97.166-.447.41-.785.73-1.013.244-.337.673-.641.916-.979l.75-.531c-.107.076-.214.152-.399.118l-.905.312-.507.194c.078.11-.03.186-.136.262l-.214.152-.108.075-.107.076-.321.228-.107.076-.107.076-.322.228c-.428.304-.857.608-.993.87-.429.303-.886.792-1.743 1.4l-.108.076-.214.152-.428.304c-.215.151-.429.303-.72.346-.4.118-.721.346-1.013.388-.4.118-.692.16-.954.017-.185-.034-.263-.144-.37-.068-.185-.034-.34-.253-.418-.363l-.234-.33c-.077-.109-.048-.294-.126-.404-.078-.11-.048-.296-.019-.481-.292.042-.185-.034-.263-.144.166-.447.332-.894.576-1.232.107-.076.243-.337.35-.413l.107-.076c.215-.152.244-.338.458-.49l.857-.607c.107-.076.322-.228.506-.194.108-.076.215-.152.4-.118.214-.152.399-.119.506-.194l.107-.076c.292-.043.691-.16 1.09-.279.292-.042.584-.084 1.061-.093.477-.008.954-.016 1.246-.059.185.034.477-.008.662.026.185.034.37.067.633.21.077.11.185.035.155.22l.614-.27 1.12-.464 1.197-.354c.399-.118.798-.237 1.09-.279.107-.076.107-.076.292-.042.506-.194 1.09-.278 1.49-.396.107-.076.399-.119.506-.195-.477.009-.954.017-1.324-.05l-.185-.034c-.554-.101-1.11-.203-1.693-.118l.136-.262c-.477.009-1.216-.126-1.849-.338-.555-.1-1.294-.236-2.005-.557l-.788-.43c-.184-.034-.34-.253-.603-.397-.233-.329-.466-.658-.486-1.14.03-.185.06-.37.166-.446.03-.186.244-.338.38-.6l.964-.683.108-.076c.535-.38 1.197-.354 1.859-.329.662.025 1.324.05 2.063.186.37.067.555.101.818.245l.185.033c.37.068.632.211.895.355.37.067.632.21.895.354.34.254.71.321.973.465.263.143.525.287.68.506.264.143.42.363.575.582l.077.11c.078.11.156.22.34.253.079.11.264.144.341.253l.078.11c.263.144.496.473.652.692.078.11.048.296.126.405.4-.118.798-.236 1.275-.244l1.567-.287 1.169-.169.584-.084.107-.076.292-.042c.292-.043.477-.009.769-.051l.107-.076.107-.076c-.107.076-.185-.034-.37-.067-.37-.068-.74-.135-1.002-.279l-.292.042-.263-.143c-.185-.034-.262-.144-.447-.178 0 0-.078-.11-.185-.033-.263-.144-.633-.211-.973-.465-.71-.32-1.499-.75-2.102-1.147-.262-.144-.603-.397-.866-.54l-.077-.11c-.263-.144-.526-.287-.76-.616-.34-.254-.573-.583-.913-.836-.156-.22-.39-.548-.516-.954-.077-.11.03-.185-.048-.295l.059-.371c.029-.186.136-.262.243-.338.107-.076.244-.337.351-.413l.536-.38.107-.076c.214-.152.506-.194.613-.27.506-.194 1.09-.278 1.675-.363.292-.042.661.026.953-.017l.185.034c.185.034.292-.042.37.068.37.067.847.059 1.217.126l.107-.076c.185.034.477-.008.74.136l.554.1.555.102.555.101.185.034.184.034c.263.143.448.177.448.177.632.211 1.343.532 1.975.743.896.354 1.499.751 2.102 1.148l.263.143c.34.254.603.397.943.65.418.363.837.726 1.177.98.156.219.418.362.652.691.155.22.31.44.36.735l.155.219.078.11.077.11.078.11c.078.109.049.294.126.404-.029.186.049.296.02.481l.292-.042.292-.042.185.034c.107-.076.184.033.292-.043.184.034.476-.008.661.026l1.509.084c1.324.051 2.54.178 3.679.195.107-.076.185.033.185.033l.185.034.107-.076.107-.076c-1.528-.565-2.997-1.502-4.388-2.33-.866-.54-1.732-1.08-2.442-1.4l-.34-.254-1.81-1.19c-.34-.253-.574-.582-.836-.725l-.078-.11c-.156-.22-.233-.33-.496-.473l-.078-.11-.622-.877a2.583 2.583 0 0 1-.408-1.03c-.078-.11-.049-.295-.097-.59 0 0-.078-.11.03-.186l.058-.371c.03-.186.136-.262.244-.338l.107-.076.107-.076.321-.228c.322-.228.614-.27.828-.422.506-.194.983-.202 1.382-.32l.185.034c.185.033.37.067.477-.009l.185.034.555.101c.37.068.846.06 1.294.237.555.1 1.002.278 1.45.455.895.355 1.76.895 2.549 1.326.603.396 1.206.793 1.858 1.485.68.506 1.255 1.089 1.906 1.78.837.727 1.615 1.824 2.285 2.997.39.548.671 1.173.875 1.688.078.11.048.295.126.405l.078.11c.078.11.126.405.204.514.078.11-.03.186.048.296l.156.22c.078.109-.03.185.049.294l1.849.338.184.034.555.101 1.45.456.37.068c.817.244 1.742.413 2.56.658l.184.034.263.143.555.102c.077.11.185.033.262.143-.418-.363-.943-.65-1.284-.903l-.34-.253-.496-.473a75.22 75.22 0 0 1-3.92-3.486 108.05 108.05 0 0 1-1.8-1.856l-.233-.33-.078-.11-.388-.548-.078-.11-.078-.11c-.622-.877-.923-1.982-1.01-3.24-.048-.295.01-.667.04-.852l.03-.186c.028-.186.058-.371.194-.633l.41-.785c.107-.076.214-.151.243-.337l.107-.076.429-.304c.428-.304 1.09-.278 1.567-.287.292-.042.662.026.954-.017l.925.17.184.033c.555.101 1.08.388 1.713.6.263.143.71.32 1.236.607.077.11.262.144.262.144l.078.11.185.033c.263.144.34.253.603.397.263.143.526.287.681.506.526.287 1.022.76 1.41 1.308.497.473.963 1.131 1.323 1.865.31.44.515.954.826 1.393.36.734.69 1.654.865 2.355.126.405.33.92.349 1.4.126.406.067.777.116 1.072-.03.186-.01.667.038.962.078.11-.03.186.048.296l-.058.371-.176 1.114-.059.371-.03.186-.029.186-.058.371s-.107.076-.03.186l.37.067.37.068.185.033.895.355s.185.034.292-.042c.185.034.448.177.788.43l.263.144.788.43c.263.144.448.177.525.287l1.314.718.262.143c.185.034.448.177.604.397l.262.143.185.034.078.11c.603.396 1.313.717 1.994 1.224.34.253.681.506 1.177.979.156.219.419.362.574.582l.311.439.156.22c.233.328.574.581.73.8l.466.66c.078.109.156.219.126.404-.03.186-.136.262-.243.338-.108.076-.215.152-.4.118-.184-.034-.262-.144-.34-.253l-.7-.988-.233-.329c-.234-.329-.73-.802-1.226-1.274-.155-.22-.418-.363-.574-.583-.34-.253-.603-.396-.758-.616l-.788-.43-.692.16-.788-.43c-.077-.11-.262-.144-.34-.253l-.078-.11-.185-.034-.078-.11-.078-.11-.184-.033-.185-.034-.788-.43c-.185-.034-.263-.144-.448-.178l-.185-.033-.263-.144-.184-.034c-.03.186-.03.186-.137.262l-.03.186c-.029.185-.136.261-.165.447-.03.186-.137.261-.166.447-.03.186-.166.447-.195.633l-.107.076c-.03.186-.137.262-.059.371-.059.372-.302.71-.546 1.047-.165.447-.409.785-.76 1.198-.243.338-.594.751-.915.979-.672.641-1.238 1.207-1.987 1.738-.857.608-1.422 1.173-2.172 1.705l-.429.304-.214.152-.536.38a3.565 3.565 0 0 1-1.625.658c-.692.16-1.276.244-1.86.328-.662-.025-1.031-.092-1.586-.194z"/></g><g><path fill="url(#scfpa)" d="M571.52 159.949l-10.223-1.08L559.213 147l-4.428 11.06-11.265-2.9 7.944 8.768-5.274 9.172 9.767-4.654 7.489 7.554-1.368-10.723z"/></g><g><path fill="url(#scfpb)" d="M544 466.949l-10.223-1.08L531.693 454l-4.428 11.06-11.265-2.9 7.944 8.768-5.274 9.172 9.767-4.654 7.489 7.554-1.368-10.723z"/></g><g><path fill="url(#scfpc)" d="M966.52 50.949l-11.319-1.08L952.894 38l-4.902 11.06-12.472-2.9 8.795 8.768-5.84 9.172 10.815-4.654L957.58 67l-1.514-10.723z"/></g><g><path fill="url(#scfpd)" d="M751.52 18.753l-15.335-1.562L733.06 0l-6.642 16.019-16.898-4.2 11.916 12.697-7.911 13.284 14.65-6.74L739.409 42l-2.05-15.53z"/></g><g><path fill="url(#scfpe)" d="M1075 330.967l-13.51-1.414-2.753-15.553-5.851 14.493-14.886-3.8 10.498 11.488-6.97 12.019 12.907-6.098 9.895 9.898-1.807-14.051z"/></g></g></g></svg>