<svg xmlns="http://www.w3.org/2000/svg" width="266" height="320" viewBox="0 0 266 320"><defs><linearGradient id="cg9xa" x1="0" x2="28" y1="117.5" y2="117.5" gradientUnits="userSpaceOnUse"><stop offset="0" stop-color="#cda948"/><stop offset="1" stop-color="#e6cf33"/></linearGradient><linearGradient id="cg9xb" x1="238" x2="266" y1="146.5" y2="146.5" gradientUnits="userSpaceOnUse"><stop offset="0" stop-color="#cda948"/><stop offset="1" stop-color="#e6cf33"/></linearGradient><linearGradient id="cg9xc" x1="51.43" x2="92.43" y1="19.7" y2="19.7" gradientUnits="userSpaceOnUse"><stop offset="0" stop-color="#cda948"/><stop offset="1" stop-color="#e6cf33"/></linearGradient></defs><g><g><g><path fill="#f2e96c" d="M89.813 124.85a2.73 2.73 0 0 0-2.923 3.035c.095 5.05.594 10.403 1.469 15.562.193 1.685 1.918 3.092 3.638 2.716.484.005.672-.091 1.048-.285 1.128-.581 1.635-1.862 1.47-3.052a74.396 74.396 0 0 1-1.412-14.571c-.3-1.885-1.73-3.189-3.29-3.405z"/></g><g><path fill="#def9fa" d="M117.387 131.99c.49.006.87-.19 1.25-.387.952-.49 1.574-1.586 1.598-2.889-.196-1.706-1.752-3.228-3.411-3.147-3.43-.04-6.887-.581-10.293-1.924-1.608-.72-3.32.162-3.913 1.76-.594 1.597.391 3.413 1.999 4.133 4.114 1.752 8.47 2.605 12.77 2.454z"/></g><g><path fill="#f2e96c" d="M115.324 160.507c.753-.388 1.29-1.175 1.53-2.065.823-4.255.46-8.92-.658-13.199-.49-1.79-2.19-2.703-3.725-2.423-1.723.376-2.5 2.053-2.118 3.645.872 3.382 1.179 7.056.596 10.42-.292 1.684.871 3.383 2.543 3.8.405.302 1.267.113 1.832-.178z"/></g><g><path fill="#def9fa" d="M104.594 187.726c.484.006.672-.091 1.049-.285 1.128-.581 1.744-1.664 1.471-3.055-.523-4.069-1.046-8.137-1.084-12.2-.005-1.784-1.435-3.09-2.997-3.306-1.75-.12-2.93 1.254-3.034 2.839-.041 4.36.402 8.724 1.141 13.192.193 1.687 1.92 3.094 3.454 2.815z"/></g><g><path fill="#dbb2d2" d="M144.635 183.365c1.423-.997 1.801-3.021.837-4.35-1.074-1.535-3.078-2.065-4.309-1.166-3.996 2.59-8.985 3.344-13.678 2.377-1.702-.426-3.206.875-3.502 2.596-.297 1.72 1.08 3.36 2.78 3.785 5.49 1.077 11.466.335 16.257-2.145.274-.402 1.04-.799 1.615-1.097z"/></g><g><path fill="#f2e96c" d="M144.233 153.945c-2.615.572-5.179.342-7.88-.594-1.612-.722-3.327.162-3.922 1.764-.595 1.6.392 3.421 2.003 4.144 3.712 1.45 7.748 1.698 11.427.836l.571-.295c1.144-.59 1.848-1.99 1.462-3.602-.277-1.41-1.917-2.635-3.66-2.253z"/></g><g><path fill="#f2e96c" d="M142.843 111.648c.568-.292 1.217-.884 1.459-1.779.591-1.59-.39-3.397-1.991-4.114l-8.684-3.493c-1.601-.717-3.306.16-3.898 1.75-.592 1.59.39 3.398 1.99 4.115l8.685 3.493c.895.31 1.681.419 2.44.028z"/></g><g><path fill="#dbb2d2" d="M133.597 123.63a2.742 2.742 0 0 0-2.936 3.048l.233 5.77c.006 1.79 1.55 3.3 3.198 3.22.486.006.972.011 1.539-.28.944-.487 1.562-1.573 1.586-2.866l-.233-5.77c-.194-1.693-1.739-3.203-3.387-3.122z"/></g><g><path fill="#f9d9e3" d="M128.123 204.112c-1.757-.12-3.05 1.058-3.045 2.849l-.168 7.259c.005 1.79 1.252 3.197 3.009 3.317.486.006 1.162-.086 1.54-.28.944-.487 1.562-1.574 1.505-2.57l.168-7.258c.104-1.59-1.44-3.1-3.009-3.317z"/></g><g><path fill="#def9fa" d="M175.712 159.424c-1.631.583-3.7.359-5.038-.76-1.337-1.119-3.378-.841-4.38.45-1.004 1.293-.59 3.404.748 4.522 3.273 2.445 7.821 3.2 11.355 1.636l.19-.098c1.332-.686 2.007-2.584 1.24-3.997-.876-1.615-2.674-2.237-4.115-1.753z"/></g><g><path fill="#f9d9e3" d="M84.277 147.58l-8.945-.304a2.77 2.77 0 0 0-2.964 3.083c.006 1.81 1.565 3.336 3.228 3.254l8.946.305c.49.006.982.011 1.553-.284.953-.491 1.577-1.59 1.6-2.897-.276-1.41-1.645-3.035-3.418-3.156z"/></g><g><path fill="#f2e96c" d="M109.14 109.6c.921.807 2.382.824 3.328.337.378-.195.756-.39 1.026-.785.997-1.283.585-3.379-.933-4.392l-2.847-2.124c-1.329-1.111-3.357-.836-4.245.647-.998 1.283-.586 3.38.932 4.393z"/></g><g><path fill="#dbb2d2" d="M84.311 175.714a25.416 25.416 0 0 0 8.018-6.502c1.011-1.307.896-3.338-.452-4.47-1.348-1.132-3.323-1.154-4.334.153-1.94 2.311-4.404 4.109-7.088 5.498-1.534.794-2.023 2.615-1.332 4.348.883 1.634 2.696 2.264 4.34 1.674.081-.304.465-.502.848-.7z"/></g><g><path fill="#def9fa" d="M71.292 129.03c.596.207 1.272.115 1.84-.177.757-.39 1.485-1.278 1.617-2.373.293-1.69-1.065-3.3-2.745-3.719-4.333-.847-8.724-2.691-12.306-5.722-1.33-1.112-3.17-.934-4.357.447-.998 1.284-.884 3.278.744 4.493 4.206 3.736 9.6 6.09 15.207 7.052z"/></g><g><path fill="#f2e96c" d="M112.635 202.092c-1.602-.718-3.337-.339-4.227 1.149-1.994 4.37-3.363 9.447-3.565 14.437.005 1.798 1.257 3.21 2.94 3.63.597.206 1.166-.087 1.735-.38.947-.488 1.488-1.281 1.51-2.579.151-4.192 1.278-8.373 2.921-12.048 1-1.287.208-3.193-1.314-4.21z"/></g><g><path fill="#dbb2d2" d="M161.174 205.504c-2.526.271-5.299-.361-7.34-1.886-1.525-1.018-3.372-.839-4.264.651-.892 1.49-.588 3.395.937 4.414 3.566 2.542 8.134 3.796 12.208 3.243.19-.098.679-.093.868-.19 1.14-.588 1.842-1.98 1.566-3.384-.494-1.807-2.318-2.928-3.975-2.848z"/></g><g><path fill="#f9d9e3" d="M170.171 82.045c-1.074-1.533-2.966-1.86-4.5-1.066-3.611 2.39-6.782 5.598-9.54 9.113-1.01 1.306-.593 3.44.754 4.57.935.822 2.415.839 3.373.343.383-.198.767-.396 1.04-.799 2.293-3.014 5-5.72 8.036-7.813 1.533-.793 1.91-2.816.837-4.348z"/></g><g><path fill="#dbb2d2" d="M153.443 75.95c.293-1.692-.688-3.499-2.369-3.917-1.681-.419-3.386.46-3.679 2.152l-1.626 9.058c-.293 1.692.688 3.499 2.37 3.917.785.109 1.462.017 2.03-.276.758-.39 1.298-1.182 1.539-2.076z"/></g><g><path fill="#f9d9e3" d="M132.118 233.97c-1.497.773-1.866 2.741-.818 4.233 1.478 2.286 2.316 5.157 2.859 7.925.192 1.68 1.91 3.08 3.542 3.001.482.006.856-.187 1.043-.284 1.123-.578 1.736-1.656 1.465-3.04a27.42 27.42 0 0 0-3.777-10.501c-1.048-1.492-3.004-2.008-4.314-1.333z"/></g><g><path fill="#f2e96c" d="M156.383 225.136c-1.048-1.493-2.817-2.106-4.208-1.135-1.39.97-1.867 2.74-.818 4.233 2.017 3.28 4.41 6.367 7.363 9.165 1.02.999 2.575 1.214 3.698.635.187-.096.562-.29.641-.584 1.095-1.073 1.17-3.144-.253-4.444-2.443-2.298-4.62-4.988-6.423-7.87z"/></g></g><g><g><path fill="#f2e96c" d="M138.134 234.264c1.413-1.213 1.588-3.373.437-4.536a92.527 92.527 0 0 0-10.393-10.975c-1.151-1.163-3.313-.967-4.41.609-.375.356-.462.572-.635 1.003-.52 1.292-.147 2.664.688 3.465a64.673 64.673 0 0 1 9.76 10.248c1.352 1.237 3.226 1.182 4.553.186z"/></g><g><path fill="#def9fa" d="M113.579 247.202c-.37.351-.542.775-.713 1.199-.427 1.06-.258 2.337.48 3.336 1.138 1.144 3.186 1.163 4.382-.102 2.59-2.458 5.494-4.559 8.824-6.018 1.622-.623 2.392-2.53 1.91-4.165-.483-1.635-2.274-2.29-3.896-1.666a32.175 32.175 0 0 0-10.987 7.416z"/></g><g><path fill="#f2e96c" d="M96.65 223.84c-.346.859-.29 1.865.055 2.73 1.895 3.898 4.94 7.23 8.333 9.705 1.437 1.019 3.279.46 4.287-.895 1.095-1.571.695-3.443-.542-4.388-2.673-1.965-5.087-4.573-6.637-7.605-.775-1.516-2.674-1.965-4.2-1.044-.489.067-1.036.852-1.296 1.497z"/></g><g><path fill="#def9fa" d="M87.013 196.141c-.374.356-.461.571-.634 1.002-.52 1.29-.349 2.587.687 3.46 2.82 2.76 5.638 5.52 8.083 8.636 1.064 1.377 2.936 1.322 4.261.327 1.413-1.21 1.501-3.153.639-4.456-2.56-3.405-5.494-6.454-8.716-9.362-1.15-1.161-3.31-.965-4.32.393z"/></g><g><path fill="#dbb2d2" d="M59.344 226.277c-.478 1.75.392 3.514 1.852 3.808 1.658.365 3.428-.672 3.823-2.213 1.464-4.762 4.697-8.876 8.688-11.509 1.49-.9 1.856-2.932 1.099-4.413-.758-1.481-2.696-1.71-4.186-.81-4.638 3.119-8.602 7.928-10.712 13.176.027.491-.31 1.331-.564 1.96z"/></g><g><path fill="#f2e96c" d="M78.389 247.946c1.62-2.32 3.663-3.998 6.218-5.248 1.617-.622 2.385-2.525 1.904-4.156-.48-1.63-2.268-2.283-3.885-1.661-3.605 1.594-6.756 4.324-9 7.628l-.256.634c-.512 1.268-.23 2.827.99 3.757 1.02.858 2.95.592 4.029-.954z"/></g><g><path fill="#f2e96c" d="M107.566 279.223c-.258.639-.402 1.564-.06 2.422.485 1.644 2.285 2.302 3.915 1.675l8.61-3.7c1.63-.626 2.404-2.543 1.92-4.187-.485-1.643-2.285-2.301-3.916-1.674l-8.61 3.7c-.857.419-1.515.912-1.86 1.764z"/></g><g><path fill="#dbb2d2" d="M106.028 263.714c1.407-1.204 1.581-3.35.435-4.505l-3.582-4.256c-1.06-1.37-3.126-1.388-4.333-.11-.373.354-.746.708-1.005 1.35-.432 1.07-.261 2.36.484 3.369l3.582 4.255c1.147 1.156 3.212 1.175 4.419-.103z"/></g><g><path fill="#f9d9e3" d="M57.519 199.265c1.407-1.204 1.696-3.062.636-4.43L54 189.142c-1.06-1.369-2.838-1.528-4.245-.324-.373.354-.833.922-1.005 1.35-.432 1.07-.26 2.36.37 3.08l4.153 5.691c.86 1.296 2.924 1.315 4.245.325z"/></g><g><path fill="#def9fa" d="M50.993 264.303c.883-1.622 2.562-2.954 4.211-3.08 1.65-.128 3.016-1.816 3.018-3.517.001-1.7-1.533-2.99-3.183-2.863-3.868.532-7.71 3.261-9.447 7.002l-.086.212c-.598 1.483-.003 3.401 1.39 3.91 1.592.581 3.299-.254 4.097-1.664z"/></g><g><path fill="#f9d9e3" d="M127.9 213.588l6.84-6.232c1.39-1.19 1.563-3.309.43-4.45-1.049-1.353-3.091-1.37-4.283-.109l-6.84 6.231c-.37.35-.739.7-.995 1.335-.426 1.056-.257 2.33.48 3.327 1.02.857 2.977 1.087 4.367-.102z"/></g><g><path fill="#f2e96c" d="M134.317 258.256c-1.175.061-2.294 1.123-2.724 2.19-.173.428-.345.855-.317 1.355-.002 1.715 1.544 3.015 3.292 2.673l3.41-.47c1.662-.127 3.039-1.83 2.84-3.617.002-1.715-1.544-3.015-3.292-2.673z"/></g><g><path fill="#dbb2d2" d="M110.102 192.052c-1.35 3.358-2.11 6.93-2.197 10.51 0 1.684 1.234 3.099 2.863 2.973 1.629-.126 3.09-1.517 3.09-3.201.115-3.088.903-6.17 2.084-9.107.675-1.678.002-3.369-1.486-4.154-1.572-.576-3.257.252-4.129 1.858.112.282-.056.702-.225 1.121z"/></g><g><path fill="#def9fa" d="M150.442 219.349c-.573.28-1.031.847-1.29 1.487-.344.854-.374 2.067.17 3 .77 1.506 2.746 1.738 4.264.824 3.782-2.536 8.193-4.352 12.689-4.668 1.66-.128 2.95-1.616 3.038-3.542.002-1.714-1.256-3.153-3.203-2.885-5.383.237-10.854 2.4-15.668 5.784z"/></g><g><path fill="#f2e96c" d="M70.354 190.857c1.63-.627 2.716-2.183 2.518-3.965-1.052-4.78-2.99-9.64-5.757-13.58-1.056-1.363-2.827-1.521-4.342-.61-.572.28-.83.919-1.087 1.557-.43 1.064-.374 2.062.368 3.065 2.34 3.297 3.935 7.299 4.845 11.294-.001 1.71 1.712 2.579 3.455 2.239z"/></g><g><path fill="#dbb2d2" d="M31.903 220.04c1.741-2.045 4.195-3.586 6.618-3.92 1.74-.34 3.024-1.82 2.826-3.598-.198-1.778-1.536-2.997-3.276-2.658-4.163.673-8.328 3.051-11.068 6.437-.085.212-.456.564-.542.777-.515 1.274-.231 2.84.794 3.701 1.425 1.008 3.45.528 4.648-.74z"/></g><g><path fill="#f9d9e3" d="M105.563 319.369c1.658.366 3.233-.744 3.91-2.424 1.295-4.343 1.804-8.975 1.835-13.54.001-1.686-1.516-2.964-3.147-2.838-1.152.06-2.25 1.104-2.672 2.154-.169.42-.338.84-.31 1.332.026 3.864-.426 7.793-1.469 11.507-.676 1.68.195 3.443 1.853 3.809z"/></g><g><path fill="#dbb2d2" d="M122.315 313.057c.77 1.504 2.572 2.162 4.089 1.25 1.517-.914 2.29-2.832 1.52-4.336l-4.082-8.093c-.77-1.504-2.572-2.162-4.088-1.249-.659.493-1.117 1.06-1.375 1.699-.344.852-.288 1.85.054 2.71z"/></g><g><path fill="#f9d9e3" d="M35.07 179.053c.697-1.735-.198-3.557-1.904-3.935-2.516-.676-4.887-2.294-6.968-4.054-1.156-1.171-3.325-.973-4.542.322-.376.359-.55.793-.637 1.01-.522 1.3-.35 2.608.69 3.488a22.752 22.752 0 0 0 9.223 5.38c1.706.378 3.53-.693 4.139-2.211z"/></g><g><path fill="#f2e96c" d="M22.52 201.802c1.705.378 3.441-.476 3.935-2.285.493-1.808-.2-3.554-1.905-3.932-3.527-1.047-7.228-1.66-11.19-1.624-1.388-.013-2.72.99-3.241 2.29-.087.217-.261.65-.146.941-.204 1.666.98 3.344 2.86 3.289a33.634 33.634 0 0 1 9.686 1.32z"/></g></g><g><path fill="url(#cg9xa)" d="M28 115.949l-10.223-1.08L15.693 103l-4.428 11.06L0 111.16l7.944 8.768L2.67 129.1l9.767-4.653L19.926 132l-1.368-10.723z"/></g><g><path fill="url(#cg9xb)" d="M266 144.949l-10.223-1.08L253.693 132l-4.428 11.06-11.265-2.9 7.944 8.768-5.274 9.172 9.767-4.654 7.489 7.554-1.368-10.723z"/></g><g transform="rotate(116.41 74.5 21)"><path fill="url(#cg9xc)" d="M51.43 21.947l14.97 1.562L69.45 40.7l6.485-16.019 16.495 4.2-11.633-12.697L88.521 2.9 74.218 9.64 63.253-1.3l2.003 15.53z"/></g></g></svg>