<svg xmlns="http://www.w3.org/2000/svg" width="319" height="211" viewBox="0 0 319 211"><defs><linearGradient id="48t5a" x1="0" x2="28" y1="194.5" y2="194.5" gradientUnits="userSpaceOnUse"><stop offset="0" stop-color="#cda948"/><stop offset="1" stop-color="#e6cf33"/></linearGradient><linearGradient id="48t5b" x1="275.43" x2="316.43" y1="188.7" y2="188.7" gradientUnits="userSpaceOnUse"><stop offset="0" stop-color="#cda948"/><stop offset="1" stop-color="#e6cf33"/></linearGradient></defs><g><g><g><path fill="#f2e96c" d="M284.975 58.845c1.353-1.282 1.418-3.443.206-4.543a92.373 92.373 0 0 0-10.96-10.396c-1.211-1.099-3.365-.79-4.382.836-.357.375-.433.595-.585 1.033-.454 1.315-.01 2.663.865 3.417a64.564 64.564 0 0 1 10.29 9.705c1.417 1.163 3.289 1.01 4.566-.052z"/></g><g><path fill="#def9fa" d="M261.104 73.055c-.353.37-.502.8-.652 1.232-.373 1.077-.139 2.342.652 3.299 1.195 1.081 3.246.993 4.378-.33 2.466-2.583 5.264-4.826 8.521-6.453 1.591-.705 2.264-2.645 1.698-4.249-.566-1.604-2.392-2.163-3.983-1.457a32.268 32.268 0 0 0-10.614 7.958z"/></g><g><path fill="#f2e96c" d="M242.99 50.62c-.302.874-.194 1.874.194 2.718 2.095 3.785 5.314 6.948 8.835 9.237 1.49.94 3.305.288 4.245-1.115 1.015-1.622.519-3.467-.766-4.345-2.776-1.818-5.325-4.292-7.03-7.233-.854-1.47-2.777-1.818-4.257-.822-.486.093-.994.904-1.22 1.56z"/></g><g><path fill="#def9fa" d="M231.929 23.461c-.357.375-.433.594-.584 1.031-.455 1.313-.217 2.597.864 3.413 2.962 2.603 5.924 5.207 8.529 8.185 1.135 1.317 3.005 1.165 4.281.104a3.386 3.386 0 0 0 .412-4.473c-2.735-3.26-5.826-6.146-9.2-8.876-1.21-1.098-3.362-.79-4.302.616z"/></g><g><path fill="#dbb2d2" d="M205.854 54.968c-.39 1.77.57 3.482 2.046 3.699 1.676.278 3.393-.848 3.71-2.404 1.22-4.822 4.244-9.09 8.1-11.922 1.444-.974 1.707-3.02.874-4.456-.833-1.437-2.783-1.563-4.226-.59-4.478 3.35-8.197 8.35-10.04 13.69.052.488-.242 1.342-.464 1.983z"/></g><g><path fill="#f2e96c" d="M226.008 75.619c1.501-2.395 3.46-4.174 5.952-5.552 1.587-.704 2.258-2.64 1.693-4.24-.564-1.6-2.385-2.157-3.972-1.454-3.524 1.776-6.538 4.66-8.614 8.068l-.224.645c-.447 1.29-.085 2.829 1.182 3.692 1.065.802 2.982.437 3.983-1.16z"/></g><g><path fill="#f2e96c" d="M256.762 105.346c-.225.65-.322 1.58.064 2.417.569 1.612 2.404 2.174 4.003 1.465l8.427-4.132c1.6-.71 2.276-2.66 1.707-4.272-.568-1.612-2.404-2.174-4.003-1.465l-8.427 4.132c-.837.463-1.47.988-1.771 1.855z"/></g><g><path fill="#dbb2d2" d="M254.44 89.93c1.346-1.272 1.411-3.419.205-4.51l-3.802-4.055c-1.131-1.31-3.2-1.221-4.341.114-.356.373-.712.746-.938 1.399-.377 1.088-.14 2.364.657 3.33l3.802 4.055c1.206 1.092 3.274 1.003 4.416-.332z"/></g><g><path fill="#f9d9e3" d="M202.647 28.087c1.346-1.272 1.54-3.138.41-4.448l-4.447-5.454c-1.13-1.31-2.919-1.376-4.265-.103-.355.372-.786.962-.937 1.398-.377 1.088-.14 2.364.527 3.05l4.447 5.454c.926 1.246 2.994 1.158 4.265.103z"/></g><g><path fill="#def9fa" d="M199.5 93.38c.801-1.662 2.413-3.076 4.057-3.288 1.644-.212 2.925-1.966 2.84-3.66-.086-1.695-1.687-2.9-3.33-2.689-3.844.731-7.548 3.65-9.096 7.467l-.075.216c-.523 1.508.171 3.39 1.59 3.824 1.623.497 3.289-.424 4.014-1.87z"/></g><g><path fill="#f9d9e3" d="M273.666 38.733l6.525-6.564c1.33-1.257 1.395-3.378.202-4.456-1.117-1.294-3.161-1.206-4.29.113l-6.525 6.564c-.351.368-.702.736-.926 1.381-.373 1.075-.138 2.336.65 3.29 1.064.802 3.033.93 4.364-.328z"/></g><g><path fill="#f2e96c" d="M282.401 83.027c-1.172.121-2.237 1.237-2.614 2.323-.15.435-.301.87-.247 1.366.085 1.709 1.699 2.924 3.43 2.493l3.389-.644c1.657-.214 2.948-1.982 2.657-3.753-.085-1.708-1.699-2.923-3.43-2.492z"/></g><g><path fill="#dbb2d2" d="M254.784 18.174c-1.179 3.417-1.757 7.017-1.661 10.589.084 1.679 1.391 3.025 3.013 2.814 1.622-.21 3.012-1.672 2.927-3.351-.043-3.083.588-6.195 1.62-9.185.59-1.708-.17-3.358-1.697-4.063-1.601-.492-3.244.42-4.034 2.067.127.275-.02.702-.168 1.13z"/></g><g><path fill="#def9fa" d="M296.467 43.327c-.56.31-.99.898-1.215 1.55-.301.867-.269 2.078.322 2.98.849 1.46 2.838 1.588 4.31.599 3.656-2.723 7.977-4.761 12.46-5.31 1.655-.213 2.87-1.762 2.86-3.686-.086-1.707-1.419-3.076-3.354-2.708-5.374.515-10.739 2.955-15.383 6.575z"/></g><g><path fill="#f2e96c" d="M215.023 19.014c1.598-.709 2.607-2.316 2.317-4.081-1.297-4.708-3.484-9.45-6.455-13.233-1.126-1.302-2.906-1.368-4.376-.38-.558.307-.783.957-1.008 1.606-.376 1.083-.269 2.074.525 3.035 2.51 3.163 4.31 7.068 5.426 11.002.085 1.702 1.844 2.48 3.57 2.05z"/></g><g><path fill="#dbb2d2" d="M178.134 50.166c1.638-2.128 4.014-3.79 6.422-4.248 1.723-.429 2.933-1.97 2.644-3.731-.289-1.762-1.69-2.908-3.414-2.479-4.131.886-8.177 3.472-10.746 6.987-.075.216-.428.586-.503.802-.45 1.296-.086 2.841.984 3.647 1.477.93 3.479.347 4.613-.978z"/></g><g><path fill="#f9d9e3" d="M256.851 145.526c1.677.278 3.195-.91 3.786-2.62 1.074-4.395 1.347-9.038 1.146-13.59-.085-1.68-1.667-2.874-3.291-2.664-1.15.12-2.194 1.217-2.562 2.286-.148.427-.296.854-.243 1.343.223 3.85-.03 7.79-.883 11.544-.59 1.71.37 3.422 2.047 3.7z"/></g><g><path fill="#dbb2d2" d="M273.258 138.358c.848 1.459 2.684 2.02 4.155 1.032s2.148-2.94 1.3-4.398l-4.498-7.852c-.848-1.459-2.684-2.02-4.155-1.032-.634.525-1.063 1.113-1.289 1.763-.3.868-.194 1.86.193 2.697z"/></g><g><path fill="#f9d9e3" d="M179.187 9.072c.608-1.765-.38-3.534-2.107-3.822-2.552-.543-5.006-2.031-7.178-3.677-1.217-1.107-3.378-.797-4.53.557-.358.378-.51.82-.586 1.04-.456 1.324-.218 2.618.868 3.441a22.785 22.785 0 0 0 9.503 4.882c1.727.288 3.497-.876 4.03-2.42z"/></g><g><path fill="#f2e96c" d="M167.828 32.442c1.726.288 3.42-.654 3.822-2.482.402-1.828-.38-3.532-2.106-3.82-3.583-.86-7.318-1.279-11.28-1.036-1.39.06-2.672 1.13-3.128 2.453-.076.22-.228.661-.098.945-.12 1.671 1.15 3.283 3.029 3.13 3.268-.214 6.59.078 9.76.81z"/></g></g><g><g><path fill="#f2e96c" d="M134.03 153.16c-.337 1.776.917 3.588 2.58 3.845a100.669 100.669 0 0 0 15.309 2.695c1.662.257 3.247-1.147 3.1-3.028.067-.499-.003-.72-.144-1.16-.421-1.325-1.602-2.196-2.78-2.348a70.328 70.328 0 0 1-14.338-2.485c-1.87-.2-3.318.926-3.726 2.481z"/></g><g><path fill="#def9fa" d="M145.716 128.418c.066-.491-.073-.925-.211-1.36-.347-1.085-1.307-2-2.538-2.366-1.64-.253-3.275.91-3.404 2.6-.462 3.438-1.403 6.773-3.097 9.844-.882 1.427-.258 3.38 1.181 4.398 1.44 1.018 3.281.506 4.163-.921a29.066 29.066 0 0 0 3.906-12.195z"/></g><g><path fill="#f2e96c" d="M173.63 136.462c-.28-.88-.975-1.645-1.806-2.132-4.017-1.994-8.581-2.878-12.865-2.881-1.796.021-2.895 1.525-2.818 3.18.147 1.876 1.673 3.128 3.262 3.164 3.386.014 6.982.688 10.167 2.196 1.593.754 3.386.015 4-1.594.344-.335.27-1.273.06-1.933z"/></g><g><path fill="#def9fa" d="M198.268 152.413c.067-.499-.003-.719-.144-1.16-.42-1.322-1.393-2.25-2.777-2.344-4.014-.56-8.028-1.12-11.974-2.178-1.732-.477-3.179.647-3.586 2.2-.338 1.773.845 3.363 2.37 3.897 4.223 1.221 8.515 1.943 12.943 2.388 1.66.256 3.245-1.145 3.168-2.803z"/></g><g><path fill="#dbb2d2" d="M201.236 111.653c-.749-1.664-2.572-2.56-3.918-1.95-1.548.665-2.281 2.51-1.601 3.96 1.907 4.62 1.996 9.747.532 14.137-.6 1.573.418 3.396 1.972 4.134 1.553.737 3.234-.2 3.834-1.773 1.664-5.149 1.705-11.25-.002-16.628-.339-.374-.612-1.234-.817-1.88z"/></g><g><path fill="#f2e96c" d="M172.906 106.01c.216 2.77-.317 5.276-1.532 7.736-.88 1.424-.257 3.373 1.178 4.388 1.435 1.016 3.271.505 4.15-.919 1.825-3.337 2.556-7.313 2.198-11.222l-.208-.65c-.414-1.3-1.645-2.372-3.212-2.408-1.363-.092-2.719 1.229-2.574 3.075z"/></g><g><path fill="#f2e96c" d="M130.827 99.45c-.209-.655-.693-1.47-1.52-1.953-1.446-1.023-3.298-.508-4.184.926l-4.426 7.883c-.886 1.435-.259 3.399 1.188 4.422 1.446 1.023 3.298.508 4.184-.927l4.426-7.883c.408-.826.61-1.595.332-2.468z"/></g><g><path fill="#dbb2d2" d="M141.41 110.325c-.335 1.764.913 3.564 2.568 3.82l5.588 1.307c1.725.474 3.373-.7 3.503-2.407.067-.496.133-.992-.076-1.65-.35-1.095-1.32-2.018-2.561-2.388l-5.588-1.308c-1.655-.255-3.303.92-3.433 2.626z"/></g><g><path fill="#f9d9e3" d="M219.235 131.435c-.336 1.763.636 3.4 2.36 3.875l6.969 2.116c1.724.474 3.236-.424 3.572-2.188.066-.495.063-1.21-.077-1.648-.35-1.096-1.318-2.019-2.284-2.227l-6.968-2.115c-1.518-.532-3.166.642-3.572 2.187z"/></g><g><path fill="#def9fa" d="M184.533 76.257c.35 1.793-.12 3.814-1.344 4.863-1.224 1.05-1.214 3.174-.116 4.522 1.1 1.348 3.148 1.487 4.373.438 2.719-2.647 3.997-7.019 2.954-10.982l-.07-.217c-.484-1.52-2.196-2.697-3.629-2.299-1.636.456-2.448 2.099-2.168 3.675z"/></g><g><path fill="#f9d9e3" d="M154.885 163.52l-1.39 8.873c-.332 1.743.901 3.522 2.537 3.774 1.704.469 3.333-.692 3.462-2.378l1.39-8.874c.066-.49.132-.98-.076-1.629-.345-1.083-1.302-1.995-2.53-2.36-1.362-.093-3.06.85-3.393 2.594z"/></g><g><path fill="#f2e96c" d="M122.677 132.225c.891-.724 1.09-2.208.742-3.302-.14-.438-.28-.875-.625-1.255-1.108-1.36-3.173-1.5-4.336-.223l-2.398 2.335c-1.233 1.057-1.223 3.198.09 4.5 1.107 1.36 3.172 1.499 4.336.222z"/></g><g><path fill="#dbb2d2" d="M182.484 169.646a31.081 31.081 0 0 0-5.025-9.601c-1.084-1.337-2.972-1.746-4.18-.707-1.208 1.04-1.47 2.986-.386 4.323 1.897 2.514 3.256 5.412 4.212 8.423a3.484 3.484 0 0 0 3.85 2.437c1.615-.451 2.417-2.08 2.072-3.856-.27-.16-.406-.59-.543-1.02z"/></g><g><path fill="#def9fa" d="M133.746 173.094c.272-.551.27-1.265.06-1.92-.28-.874-1.04-1.853-2.074-2.28-1.585-.748-3.3.205-3.91 1.803-1.356 4.185-3.676 8.162-7.032 11-1.233 1.057-1.293 2.977-.116 4.554 1.106 1.358 3.034 1.773 4.403.44 4.11-3.285 7.044-8.147 8.669-13.597z"/></g><g><path fill="#f2e96c" d="M214.125 145.962c-.885 1.433-.739 3.292.57 4.59 3.926 3.18 8.604 5.915 13.345 7.444 1.718.472 3.223-.421 3.833-2.015.272-.55.063-1.205-.146-1.859-.348-1.09-1.037-1.847-2.274-2.216-3.985-1.265-7.838-3.517-11.143-6.158-1.104-1.355-3.024-1.058-4.185.214z"/></g><g><path fill="#dbb2d2" d="M226.748 99.533c-.056 2.621-1.003 5.253-2.707 6.911-1.158 1.27-1.217 3.181.09 4.476 1.306 1.294 3.156 1.49 4.314.22 2.862-2.927 4.622-7.206 4.602-11.464-.07-.218-.003-.71-.072-.927-.417-1.306-1.654-2.383-3.024-2.475-1.78.02-3.074 1.565-3.203 3.259z"/></g><g><path fill="#f9d9e3" d="M107.496 66.289c-1.548.666-2.08 2.455-1.533 4.176 1.771 4.192 4.351 8.158 7.267 11.796 1.085 1.337 3.109 1.475 4.319.434.874-.712 1.07-2.173.728-3.249-.137-.43-.274-.86-.612-1.234-2.51-3.05-4.682-6.426-6.248-9.972-.547-1.721-2.372-2.618-3.92-1.951z"/></g><g><path fill="#dbb2d2" d="M98.24 81.534c-1.583-.748-3.435-.233-4.045 1.363-.611 1.596.016 3.56 1.6 4.309l8.467 4.062c1.583.748 3.435.232 4.046-1.364.202-.769.2-1.481-.01-2.136-.279-.873-.97-1.632-1.796-2.115z"/></g><g><path fill="#f9d9e3" d="M249.434 133.523c.564 1.777 2.444 2.703 4.038 2.014 2.427-.921 5.344-1.012 8.124-.823 1.668.259 3.26-1.155 3.39-2.885.068-.503-.073-.947-.144-1.17-.423-1.333-1.4-2.269-2.79-2.363-3.544-.46-7.294-.135-10.762 1.078-1.594.688-2.35 2.593-1.856 4.149z"/></g><g><path fill="#f2e96c" d="M245.37 107.954c-1.594.688-2.42 2.37-1.647 4.088.772 1.718 2.443 2.701 4.037 2.013 3.466-1.212 6.792-2.869 9.906-5.191 1.108-.794 1.517-2.36 1.094-3.692-.07-.222-.21-.666-.49-.83-.909-1.437-2.926-2.082-4.379-.95-2.56 1.926-5.47 3.466-8.52 4.562z"/></g></g><g><path fill="url(#48t5a)" d="M28 192.949l-10.223-1.08L15.693 180l-4.428 11.06L0 188.16l7.944 8.768L2.67 206.1l9.767-4.654L19.926 209l-1.368-10.723z"/></g><g transform="rotate(116.41 298.5 190)"><path fill="url(#48t5b)" d="M275.43 190.946l14.97 1.563 3.05 17.191 6.485-16.019 16.495 4.2-11.633-12.697 7.724-13.284-14.303 6.74-10.965-10.94 2.003 15.53z"/></g></g></svg>