<svg width="44" height="223" viewBox="0 0 44 223" fill="none" xmlns="http://www.w3.org/2000/svg">
<path d="M11.4505 21.7486C11.562 21.7136 11.6734 21.6786 11.7848 21.6436L11.8962 21.6086C12.119 21.5386 12.305 21.5413 12.5655 21.5819C12.7514 21.5846 12.9005 21.6602 13.0495 21.7357C13.2731 21.849 13.4599 22.0351 13.5721 22.1834C13.6097 22.294 13.6842 22.3317 13.7219 22.4423L13.7596 22.5528C13.7972 22.6634 13.7972 22.6634 13.8349 22.7739L13.8725 22.8845C13.9478 23.1055 13.9486 23.2889 13.9494 23.4722C13.9502 23.6555 13.951 23.8388 13.9517 24.0221C13.9533 24.3888 13.8803 24.7176 13.7705 25.1193C13.6606 25.5209 13.4762 25.8848 13.4032 26.2137L13.3295 26.3592C13.2926 26.432 13.2557 26.5048 13.2189 26.5775L13.182 26.6503L13.1082 26.7959L12.9607 27.087C12.9238 27.1597 12.887 27.2325 12.8501 27.3053L12.8132 27.3781C12.7763 27.4508 12.7026 27.5964 12.6657 27.6692L12.6288 27.7419C12.5551 27.8875 12.4444 28.1058 12.2593 28.2864C12.2224 28.3591 12.1855 28.4319 12.1486 28.5047C12.1117 28.5775 12.0749 28.6502 12.038 28.723L12.0011 28.7958L11.8159 28.9763L11.6308 29.1569C11.5939 29.2297 11.557 29.3024 11.4456 29.3374L11.4087 29.4102L11.3718 29.483L11.335 29.5558C11.2981 29.6285 11.1867 29.6636 11.1498 29.7363L11.1129 29.8091C10.9278 29.9897 10.7426 30.1702 10.5574 30.3508C10.3723 30.5313 10.1871 30.7119 9.8905 30.9274C9.74222 31.0352 9.59392 31.143 9.48251 31.178L9.33422 31.2858L9.22281 31.3208L9.18593 31.3936L9.66924 31.3641L10.1525 31.3346C10.264 31.2996 10.3385 31.3374 10.4499 31.3024L11.1929 31.1301L11.2674 31.1679L11.5648 31.1356L11.7508 31.1384C12.0481 31.1062 12.2709 31.0361 12.5683 31.0039C12.9025 30.8989 13.1999 30.8666 13.5341 30.7616L13.9429 30.6944L14.1657 30.6244L14.3885 30.5544C14.3885 30.5544 14.3885 30.5544 14.314 30.5166L14.2764 30.4061C14.3132 30.3333 14.2387 30.2955 14.2756 30.2227L14.3125 30.15L14.3493 30.0772L14.3486 29.8939L14.3854 29.8211L14.3478 29.7105C14.3839 29.4545 14.3454 29.1606 14.3815 28.9045C14.4169 28.4651 14.4891 27.9529 14.5981 27.3679C14.7072 26.783 14.8908 26.2358 15.0007 25.8341C15.0368 25.578 15.1843 25.2869 15.2573 24.9581C15.3679 24.7398 15.404 24.4837 15.5515 24.1926C15.772 23.5726 16.1416 23.0282 16.4374 22.6293C16.548 22.411 16.7332 22.2304 16.9183 22.0499L16.9552 21.9771C16.9921 21.9043 17.029 21.8315 17.1404 21.7965C17.1772 21.7238 17.1772 21.7238 17.2141 21.651C17.2879 21.5054 17.4362 21.3976 17.5845 21.2899C17.7327 21.1821 17.881 21.0743 18.1407 20.9315C18.2514 20.7132 18.3628 20.6782 18.4373 20.716L18.4742 20.6432L18.5856 20.6082L18.6601 20.646C18.7716 20.6109 18.9575 20.6137 19.032 20.6515L19.1066 20.6893C19.2925 20.692 19.4416 20.7676 19.6652 20.8809C19.8143 20.9564 19.8888 20.9942 20.001 21.1425C20.1501 21.218 20.2622 21.3663 20.3376 21.5874C20.3376 21.5874 20.3376 21.5874 20.4121 21.6252C20.4497 21.7357 20.4498 21.7357 20.4874 21.8463L20.5251 21.9568C20.6388 22.4718 20.678 22.949 20.6796 23.3156C20.6443 23.755 20.6458 24.1217 20.6097 24.3778C20.536 24.5233 20.5367 24.7066 20.463 24.8522L20.3892 24.9977C20.2056 25.5449 19.9106 26.1271 19.541 26.6715C19.4304 26.8899 19.2452 27.0704 19.1346 27.2887L19.0609 27.4343C19.024 27.5071 18.9871 27.5798 18.8757 27.6148C18.8388 27.6876 18.8388 27.6876 18.8019 27.7604C18.7651 27.8332 18.6913 27.9787 18.5799 28.0137C18.3578 28.267 18.1358 28.5204 17.9506 28.7009C17.7655 28.8815 17.5434 29.1348 17.3582 29.3154C17.1731 29.4959 17.0248 29.6037 16.8765 29.7115C16.9879 29.6765 17.0993 29.6415 17.2476 29.5337C17.3214 29.3881 17.5442 29.3181 17.6556 29.2831C17.7301 29.3209 17.767 29.2481 17.8416 29.2859C17.953 29.2509 18.1013 29.1431 18.2872 29.1459C18.3986 29.1109 18.51 29.0759 18.6214 29.0409L18.7329 29.0059L19.4382 28.723L20.0329 28.6586L20.7383 28.3758L20.8497 28.3408C20.8866 28.268 20.9611 28.3058 20.998 28.233L21.1839 28.2357L21.3322 28.128C21.4436 28.093 21.555 28.0579 21.7033 27.9502L21.8147 27.9152C21.7402 27.8774 21.628 27.7291 21.5904 27.6185C21.5527 27.508 21.5527 27.508 21.515 27.3974L21.4774 27.2869C21.4397 27.1764 21.4021 27.0658 21.3644 26.9553C21.326 26.6614 21.2507 26.4403 21.2499 26.257C21.2115 25.9631 21.173 25.6693 21.2091 25.4132C21.2444 24.9738 21.2798 24.5344 21.3888 23.9494C21.4979 23.3644 21.6815 22.8172 21.8282 22.3428C21.975 21.8684 22.3077 21.3968 22.6027 20.8146C22.6396 20.7418 22.6764 20.669 22.7879 20.634L22.8247 20.5612L22.8616 20.4884C22.8985 20.4157 23.0468 20.3079 23.0837 20.2351C23.4909 19.8012 23.8612 19.4401 24.3806 19.1546L24.492 19.1196C24.6034 19.0846 24.6034 19.0846 24.7148 19.0495C24.8263 19.0145 24.9008 19.0523 24.9753 19.0901C25.1613 19.0928 25.3472 19.0956 25.4963 19.1711C25.5708 19.2089 25.6454 19.2467 25.7199 19.2845C25.7944 19.3222 25.8321 19.4328 25.9066 19.4705C25.9812 19.5083 26.0188 19.6189 26.0565 19.7294L26.0941 19.8399C26.1318 19.9505 26.2071 20.1716 26.2447 20.2821C26.3201 20.5032 26.3585 20.7971 26.4346 21.2015C26.4362 21.5681 26.4377 21.9348 26.4016 22.1908C26.3663 22.6303 26.2564 23.0319 26.1835 23.3608C25.9998 23.908 25.7048 24.4902 25.409 24.889C25.2984 25.1074 25.0763 25.3607 24.9657 25.579C24.7068 25.9051 24.411 26.304 24.0775 26.5923C24.0406 26.6651 23.9292 26.7001 23.8555 26.8457L23.9669 26.8107L24.0783 26.7757C24.1152 26.7029 24.1897 26.7406 24.2266 26.6679C24.4863 26.5251 24.8574 26.3473 25.1171 26.2045C25.154 26.1317 25.2654 26.0967 25.3768 26.0617C25.3768 26.0617 25.3768 26.0617 25.4137 25.989L26.1567 25.8167C26.4164 25.6739 26.6761 25.5311 26.9358 25.3883C26.9727 25.3156 27.0472 25.3533 27.0841 25.2806L27.121 25.2078L27.4552 25.1028L27.8263 24.925C27.9377 24.89 28.086 24.7822 28.1974 24.7472L28.2343 24.6744C28.1598 24.6366 28.1221 24.5261 28.0845 24.4156C28.0845 24.4156 28.0845 24.4156 28.0468 24.305C28.0092 24.1945 27.9338 23.9734 27.8962 23.8628C27.8954 23.6795 27.8201 23.4584 27.857 23.3857L27.8193 23.2751L27.7817 23.1646L27.8185 23.0918C27.8178 22.9085 27.7424 22.6874 27.7785 22.4313C27.777 22.0647 27.8131 21.8086 27.8123 21.6252C27.8845 21.113 27.9567 20.6009 28.0666 20.1992C28.1395 19.8704 28.2502 19.652 28.36 19.2504C28.4338 19.1048 28.4699 18.8487 28.5436 18.7032L28.6174 18.5576C28.728 18.3393 28.8387 18.121 28.9493 17.9027C29.0968 17.6116 29.2443 17.3205 29.4295 17.1399C29.5032 16.9944 29.5401 16.9216 29.6884 16.8138C29.7622 16.6683 29.9105 16.5605 30.0587 16.4527C30.0956 16.3799 30.1702 16.4177 30.207 16.3449C30.3184 16.3099 30.3553 16.2371 30.4299 16.2749L30.6527 16.2049C30.8386 16.2077 31.0246 16.2104 31.136 16.1754C31.5079 16.181 31.8429 16.2593 32.0296 16.4453C32.2163 16.6314 32.3285 16.7797 32.4784 17.0386C32.516 17.1491 32.5537 17.2597 32.5914 17.3702L32.6659 17.408C32.7035 17.5185 32.7035 17.5185 32.7412 17.6291L32.7789 17.7396C32.7796 17.923 32.8918 18.0713 32.9671 18.2924C33.0056 18.5862 33.044 18.8801 33.0456 19.2467C33.0095 19.5028 33.0103 19.6861 32.8996 19.9045L32.8627 19.9772C32.716 20.4517 32.5316 20.8155 32.3472 21.1794C32.126 21.616 31.7933 22.0877 31.4606 22.5594C31.572 22.5243 31.6089 22.4516 31.7203 22.4166L31.7572 22.3438C31.9055 22.236 32.0538 22.1282 32.2021 22.0205C32.3135 21.9854 32.3503 21.9127 32.3872 21.8399L32.4241 21.7671L32.5724 21.6593L32.6093 21.5866L32.7207 21.5516L32.7576 21.4788C32.8313 21.3332 33.0165 21.1527 33.2024 21.1555L33.3131 20.9371L33.4614 20.8293C33.9062 20.506 34.2766 20.1449 34.61 19.8566L34.5355 19.8188C34.461 19.781 34.461 19.781 34.3864 19.7433C34.3119 19.7055 34.2742 19.5949 34.1997 19.5572C34.1252 19.5194 34.162 19.4466 34.0875 19.4089L34.0498 19.2983C34.0122 19.1878 33.9745 19.0772 33.9369 18.9667C33.8992 18.8561 33.8616 18.7456 33.8239 18.6351C33.6356 18.0823 33.5219 17.5674 33.4081 17.0524C33.332 16.648 33.3674 16.2086 33.3658 15.842C33.365 15.6587 33.4019 15.5859 33.4756 15.4403C33.4749 15.257 33.5486 15.1115 33.5855 15.0387C33.6593 14.8931 33.733 14.7476 33.8068 14.602L33.8436 14.5293C33.9543 14.3109 34.2132 13.9848 34.622 13.9176C34.8448 13.8476 35.0307 13.8503 35.1422 13.8153L35.2167 13.8531C35.2912 13.8909 35.3281 13.8181 35.4026 13.8559C35.4772 13.8936 35.6631 13.8964 35.7377 13.9342C35.9613 14.0475 36.0734 14.1958 36.2602 14.3819C36.3724 14.5302 36.41 14.6407 36.5222 14.7891C36.5967 14.8268 36.5599 14.8996 36.6344 14.9374C36.6721 15.0479 36.7097 15.1585 36.785 15.3795C36.8603 15.6006 36.8242 15.8567 36.825 16.04C36.8635 16.3339 36.8274 16.59 36.7167 16.8083C36.6806 17.0644 36.5331 17.3555 36.497 17.6116C36.4233 17.7572 36.3126 17.9755 36.2389 18.121C36.2758 18.0483 36.3126 17.9755 36.424 17.9405L36.8313 17.5066L37.0533 17.2533C36.9788 17.2155 37.0156 17.1427 37.0525 17.0699C37.0894 16.9972 37.0894 16.9972 37.1263 16.9244L37.1632 16.8516L37.2 16.7788C37.2369 16.7061 37.2738 16.6333 37.3107 16.5605L37.3475 16.4878L37.3844 16.415C37.4213 16.3422 37.4582 16.2694 37.4951 16.1967C37.6426 15.9056 37.7901 15.6145 37.7893 15.4311C37.9368 15.14 38.0467 14.7384 38.3417 14.1562L38.3786 14.0834L38.4523 13.9379C38.4892 13.8651 38.563 13.7195 38.5998 13.6468C38.6736 13.5012 38.7473 13.3557 38.8956 13.2479C39.0808 13.0673 39.1914 12.849 39.3397 12.7412C39.5249 12.5607 39.6732 12.4529 39.8591 12.4557C39.9705 12.4207 40.0451 12.4584 40.082 12.3857C40.1934 12.3507 40.3424 12.4262 40.417 12.464C40.4915 12.5017 40.566 12.5395 40.6406 12.5773C40.7151 12.615 40.7528 12.7256 40.8273 12.7634C40.9018 12.8011 40.9395 12.9117 40.9772 13.0222C41.1254 12.9144 41.0886 12.9872 41.1631 13.025C41.2015 13.3188 41.24 13.6127 41.2039 13.8688C41.167 13.9416 41.1678 14.1249 41.1309 14.1977L41.094 14.2704C41.0203 14.416 41.0579 14.5265 40.9842 14.6721C40.9104 14.8176 40.7998 15.036 40.6891 15.2543C40.6523 15.3271 40.5785 15.4726 40.4671 15.5076C40.4302 15.5804 40.3933 15.6532 40.2819 15.6882C40.2082 15.8337 40.0968 15.8687 40.0599 15.9415L40.023 16.0143C39.8747 16.122 39.6895 16.3026 39.5044 16.4832C39.3561 16.5909 39.2078 16.6987 38.9481 16.8415C38.6884 16.9843 38.4287 17.1271 38.2804 17.2348C38.169 17.2699 38.0207 17.3776 37.9093 17.4126C37.7979 17.4476 37.6865 17.4826 37.5005 17.4799C37.426 17.4421 37.3891 17.5149 37.3514 17.4043L37.0925 17.7304L36.6115 18.3099C36.4264 18.4904 36.2412 18.671 36.056 18.8515C35.8709 19.0321 35.6857 19.2127 35.5374 19.3204C35.5005 19.3932 35.5005 19.3932 35.3891 19.4282C35.1671 19.6815 34.8705 19.8971 34.6853 20.0777C34.6485 20.1504 34.5002 20.2582 34.4633 20.331C34.723 20.1882 34.9827 20.0454 35.2055 19.9754L35.3169 19.9404C35.6512 19.8354 35.9854 19.7304 36.282 19.5148L36.2828 19.6981C36.5425 19.5553 36.9881 19.4153 37.3969 19.3481C37.7311 19.2431 38.1768 19.103 38.6601 19.0736C38.846 19.0763 39.032 19.0791 39.2179 19.0819C39.3293 19.0469 39.4784 19.1224 39.6643 19.1252C39.8879 19.2385 40.1116 19.3518 40.2614 19.6106C40.2991 19.7212 40.3367 19.8317 40.2998 19.9045C40.3375 20.015 40.2637 20.1606 40.2645 20.3439C40.1539 20.5622 40.0432 20.7806 39.9326 20.9989L39.8957 21.0717C39.7113 21.4355 39.3402 21.6133 38.9691 21.7911C38.598 21.9689 38.2269 22.1467 37.7812 22.2867C37.5584 22.3567 37.447 22.3917 37.2611 22.389L37.1496 22.424C36.9268 22.494 36.7409 22.4912 36.5549 22.4884C36.3321 22.5585 36.1462 22.5557 35.9602 22.5529C35.6997 22.5124 35.4769 22.5824 35.291 22.5796C35.105 22.5769 34.9191 22.5741 34.77 22.4986C34.584 22.4958 34.435 22.4203 34.2859 22.3447L34.2114 22.307C34.1368 22.2692 34.0623 22.2314 33.9509 22.2664C33.8764 22.2287 33.7649 22.2637 33.6904 22.2259L33.6159 22.1881C33.4299 22.1854 33.2063 22.072 33.0573 21.9965C32.9827 21.9587 32.9451 21.8482 32.8705 21.8104C32.6854 21.991 32.5002 22.1715 32.2405 22.3143L31.4622 22.926L30.869 23.3571L30.5724 23.5727L30.5355 23.6454L30.3873 23.7532C30.239 23.861 30.1276 23.896 29.9793 24.0038L29.9424 24.0766L29.9055 24.1493C29.9424 24.0766 30.0169 24.1143 30.1283 24.0793C30.3512 24.0093 30.574 23.9393 30.7599 23.9421L30.9082 23.8343L31.0942 23.8371C31.2056 23.8021 31.2801 23.8398 31.3915 23.8048C31.3915 23.8048 31.4661 23.8426 31.5029 23.7698C31.6889 23.7726 31.9117 23.7026 32.1722 23.7431C32.6555 23.7136 33.2133 23.7219 33.6598 23.7652C33.8457 23.768 34.1062 23.8085 34.2921 23.8113L34.3667 23.849C34.5526 23.8518 34.7386 23.8546 34.9622 23.9679C35.2227 24.0084 35.4463 24.1217 35.7067 24.1623C35.8558 24.2378 36.0794 24.3511 36.2661 24.5372C36.3407 24.575 36.3038 24.6477 36.3783 24.6855C36.416 24.7961 36.4536 24.9066 36.4536 24.9066C36.4913 25.0171 36.4544 25.0899 36.4175 25.1627C36.3807 25.2355 36.3814 25.4188 36.3446 25.4916C36.2708 25.6371 36.2339 25.7099 36.1602 25.8554L36.1233 25.9282C36.0495 26.0738 35.9012 26.1815 35.8644 26.2543C35.6423 26.5076 35.3457 26.7232 35.0492 26.9388C34.9009 27.0465 34.6781 27.1165 34.5298 27.2243L34.4183 27.2593C34.3069 27.2943 34.2701 27.3671 34.1955 27.3293C33.9727 27.3994 33.713 27.5421 33.4902 27.6121L33.4533 27.6849C33.3419 27.7199 33.1936 27.8277 33.0076 27.8249C32.8962 27.86 32.7848 27.895 32.6734 27.93C32.562 27.965 32.4506 28 32.3392 28.035C32.2278 28.07 32.1163 28.105 32.0049 28.14L31.8935 28.175L31.7821 28.21C31.5962 28.2072 31.4847 28.2422 31.4847 28.2422C31.076 28.3095 30.5927 28.339 30.1839 28.4062C29.5892 28.4707 29.1428 28.4274 28.6963 28.3841L28.5104 28.3813C28.2499 28.3408 28.064 28.338 27.8035 28.2975C27.4685 28.2192 27.1334 28.1409 26.873 28.1004C26.7239 28.0248 26.5379 28.022 26.3143 27.9087C26.1653 27.8332 26.0162 27.7577 25.904 27.6093C25.8295 27.5716 25.8295 27.5716 25.7549 27.5338L25.6804 27.496L25.6059 27.4583L25.5313 27.4205C25.4568 27.3827 25.4191 27.2722 25.3446 27.2344C25.307 27.1239 25.2324 27.0861 25.1948 26.9756L25.0465 27.0833L24.8982 27.1911L24.7868 27.2261C24.7499 27.2989 24.6754 27.2611 24.6385 27.3339C24.5271 27.3689 24.3788 27.4767 24.2674 27.5117L23.4137 27.9023C22.6715 28.2579 21.9661 28.5407 21.3353 28.8612C21.2984 28.934 21.2239 28.8962 21.2239 28.8962L21.1125 28.9312L21.0756 29.004L21.0387 29.0768C22.0422 28.9451 23.121 29.0344 24.1253 29.086C24.7577 29.1321 25.3901 29.1781 25.8734 29.1487L26.1338 29.1892C26.5803 29.2325 27.0267 29.2758 27.4731 29.3191C27.7336 29.3596 27.9572 29.4729 28.1432 29.4757L28.2177 29.5135C28.3668 29.589 28.4413 29.6268 28.6272 29.6296L28.7018 29.6673C28.8508 29.7429 29.0745 29.8562 29.2981 29.9695C29.5217 30.0828 29.7084 30.2689 29.8206 30.4172C29.8951 30.455 29.9328 30.5655 30.045 30.7138C30.045 30.7138 30.1195 30.7516 30.0826 30.8244C30.0826 30.8244 30.1203 30.9349 30.1579 31.0454C30.1956 31.156 30.1587 31.2288 30.1218 31.3015L30.085 31.3743L30.0481 31.4471C30.0112 31.5199 29.9743 31.5926 29.9374 31.6654C29.8268 31.8837 29.6785 31.9915 29.6048 32.1371C29.3827 32.3904 29.123 32.5332 28.9378 32.7137L28.8264 32.7487C28.715 32.7837 28.6036 32.8187 28.5667 32.8915L28.4553 32.9265C28.3439 32.9615 28.2325 32.9965 28.1211 33.0315C27.8983 33.1016 27.6385 33.2443 27.3412 33.2766C27.007 33.3816 26.7096 33.4138 26.4122 33.4461C25.8175 33.5106 25.1851 33.4645 24.6273 33.4562C24.1809 33.4129 23.7345 33.3696 23.1758 33.178C22.6549 33.0969 22.1708 32.9431 21.6122 32.7515C20.9421 32.5949 20.1968 32.2172 19.4883 31.7667C19.1156 31.5778 18.7798 31.3162 18.5186 31.0924C18.4441 31.0546 18.4064 30.9441 18.3319 30.9063L18.2573 30.8685C18.1828 30.8307 18.0706 30.6824 17.9961 30.6447C17.9215 30.6069 17.9584 30.5341 17.8839 30.4963C17.8093 30.4586 17.8093 30.4586 17.7348 30.4208C17.6603 30.383 17.6972 30.3103 17.6226 30.2725L16.5085 30.6225L16.3971 30.6576L16.0628 30.7626L15.1339 30.9321C15.0225 30.9671 15.0225 30.9671 14.9111 31.0021C14.3909 31.1043 13.8338 31.2794 13.3136 31.3816L13.2022 31.4166L13.0163 31.4138C12.9049 31.4488 12.7935 31.4839 12.682 31.5189C12.6075 31.4811 12.5706 31.5539 12.4961 31.5161C12.8311 31.5944 13.203 31.5999 13.4635 31.6405L13.724 31.681L14.1335 31.7971C15.064 31.9942 16.0691 32.2291 17.2977 32.5773C17.7818 32.7312 18.2659 32.885 18.8245 33.0766C18.899 33.1144 18.9736 33.1522 19.0481 33.1899L19.1227 33.2277C19.2717 33.3033 19.3463 33.341 19.4953 33.4166L19.5699 33.4543L19.6444 33.4921C20.2407 33.7943 20.7263 34.3147 21.1382 34.9808C21.2504 35.1291 21.3257 35.3502 21.3634 35.4607C21.3634 35.4607 21.3634 35.4607 21.401 35.5713C21.4387 35.6818 21.4763 35.7924 21.4771 35.9757C21.4779 36.159 21.4787 36.3423 21.4795 36.5256C21.4426 36.5984 21.4057 36.6712 21.4434 36.7817C21.4434 36.7817 21.4434 36.7817 21.4065 36.8545C21.3696 36.9273 21.2958 37.0728 21.259 37.1456C21.1114 37.4367 20.7403 37.6145 20.4806 37.7573C20.3323 37.865 20.1095 37.9351 19.9612 38.0428C19.7384 38.1128 19.627 38.1479 19.4042 38.2179L19.2928 38.2529C18.9585 38.3579 18.5866 38.3524 18.1779 38.4196C17.9919 38.4168 17.6945 38.4491 17.3227 38.4435C17.2481 38.4058 17.1367 38.4408 17.1367 38.4408L17.0622 38.403L16.9508 38.438C16.7648 38.4352 16.6903 38.3975 16.5043 38.3947C16.3184 38.392 16.1324 38.3892 15.9834 38.3136C15.6115 38.3081 15.2019 38.192 14.8292 38.0032C14.4197 37.8871 13.9725 37.6605 13.5622 37.3611C13.264 37.21 13.0028 36.9862 12.7046 36.8351C12.2943 36.5357 11.8463 36.1258 11.5474 35.7914C11.3607 35.6053 11.0994 35.3814 10.9496 35.1226C10.7628 34.9365 10.6875 34.7154 10.5753 34.5671C10.5377 34.4566 10.3878 34.1977 10.2756 34.0494C10.2011 34.0116 10.238 33.9388 10.1634 33.9011C10.1258 33.7905 10.0881 33.68 10.0881 33.68C10.0128 33.4589 9.93751 33.2378 9.86219 33.0167L9.78688 32.7956L9.74922 32.6851L9.71156 32.5745C9.67391 32.464 9.67391 32.464 9.63626 32.3534C9.63626 32.3534 9.67313 32.2807 9.5986 32.2429L9.37577 32.3129L9.15295 32.3829L9.04154 32.4179L8.44681 32.4824C8.44681 32.4824 8.33541 32.5174 8.29853 32.5902C8.18711 32.6252 8.00117 32.6224 7.74069 32.5819L7.55474 32.5791L6.9969 32.5708C6.81095 32.5681 6.69954 32.6031 6.62501 32.5653L5.69527 32.5515L5.50932 32.5487C5.39791 32.5837 5.21196 32.581 5.06289 32.5054L4.87695 32.5027L4.76554 32.5377L4.691 32.4999C4.24457 32.4566 3.76127 32.4861 3.24031 32.405C2.97982 32.3645 2.71935 32.3239 2.30979 32.2079C2.16072 32.1323 1.97478 32.1296 1.82571 32.054C1.75118 32.0162 1.60211 31.9407 1.52757 31.9029L1.37851 31.8274C1.1549 31.7141 0.894419 31.6736 0.74535 31.598C0.596281 31.5225 0.447213 31.4469 0.298144 31.3714C0.223609 31.3336 0.149073 31.2959 0.111415 31.1853C0.0737594 31.0748 0.110637 31.002 0.147515 30.9292C0.184393 30.8565 0.22127 30.7837 0.332682 30.7487C0.444095 30.7137 0.518629 30.7514 0.593164 30.7892C0.816767 30.9025 1.04037 31.0158 1.26397 31.1291L1.48758 31.2424C1.71118 31.3558 2.12073 31.4718 2.53028 31.5879C2.67935 31.6634 2.8653 31.6662 3.01437 31.7417C3.27485 31.7823 3.46079 31.785 3.60986 31.8606C3.79581 31.8633 3.98176 31.8661 4.16771 31.8689L4.50116 31.5805L5.059 31.5888C5.13354 31.6266 5.24495 31.5916 5.31949 31.6294L5.39402 31.6671L5.50543 31.6321L5.57996 31.6699L5.6545 31.7077L5.76591 31.6727L5.87732 31.6377C6.06327 31.6404 6.24922 31.6432 6.43516 31.6459C6.54658 31.6109 6.62111 31.6487 6.73252 31.6137L6.84393 31.5787L7.02988 31.5815L7.1413 31.5465C7.10364 31.4359 7.10364 31.4359 7.14051 31.3631L7.10286 31.2526C7.0652 31.1421 7.10208 31.0693 7.06442 30.9587C7.02677 30.8482 7.06364 30.7754 7.02599 30.6649C6.98833 30.5543 6.98755 30.371 6.9499 30.2605L6.98678 30.1877C6.94912 30.0771 6.98599 30.0044 6.91146 29.9666C6.83614 29.7455 6.87225 29.4894 6.90835 29.2333C6.86991 28.9395 6.90601 28.6834 6.97899 28.3545C7.01509 28.0984 7.08806 27.7695 7.19869 27.5512C7.38231 27.004 7.52904 26.5296 7.78718 26.0202C8.08221 25.438 8.22894 24.9636 8.48709 24.4541C8.52396 24.3814 8.56084 24.3086 8.6346 24.163L8.70835 24.0175C8.78211 23.872 8.81898 23.7992 8.89274 23.6536C9.07713 23.2898 9.29917 23.0364 9.59575 22.8209C9.92921 22.5325 10.2258 22.317 10.5224 22.1014C10.8935 21.9236 11.1163 21.8536 11.4505 21.7486Z" fill="#D1F3F5"/>
<path d="M33.4308 201.258C33.342 201.334 33.2532 201.41 33.1645 201.486L33.0757 201.562C32.8981 201.714 32.7259 201.784 32.4704 201.849C32.2982 201.919 32.1315 201.908 31.9647 201.897C31.7146 201.88 31.4699 201.782 31.3086 201.69C31.2306 201.603 31.1472 201.597 31.0693 201.51L30.9913 201.423C30.9134 201.336 30.9134 201.336 30.8354 201.249L30.7574 201.162C30.6015 200.988 30.529 200.82 30.4564 200.652C30.3839 200.483 30.3114 200.315 30.2388 200.147C30.0937 199.81 30.032 199.479 29.9757 199.066C29.9194 198.654 29.9465 198.247 29.8848 197.915L29.8956 197.753C29.901 197.671 29.9064 197.59 29.9118 197.508L29.9173 197.427L29.9281 197.264L29.9497 196.939C29.9552 196.857 29.9606 196.776 29.966 196.694L29.9714 196.613C29.9768 196.532 29.9877 196.369 29.9931 196.287L29.9985 196.206C30.0093 196.043 30.0256 195.799 30.1252 195.56C30.1306 195.479 30.136 195.397 30.1414 195.316C30.1468 195.235 30.1523 195.153 30.1577 195.072L30.1631 194.99L30.2627 194.752L30.3623 194.513C30.3677 194.432 30.3731 194.35 30.4619 194.274L30.4674 194.193L30.4728 194.112L30.4782 194.03C30.4836 193.949 30.5724 193.873 30.5778 193.792L30.5832 193.71C30.6828 193.471 30.7824 193.233 30.8821 192.994C30.9817 192.755 31.0813 192.517 31.2697 192.202C31.3639 192.045 31.4581 191.888 31.5469 191.812L31.6411 191.655L31.7299 191.579L31.7353 191.497L31.3022 191.714L30.8691 191.93C30.7803 192.006 30.6969 192.001 30.6081 192.076L29.992 192.526L29.9087 192.521L29.6477 192.667L29.4755 192.737C29.2146 192.883 29.037 193.035 28.7761 193.181C28.5097 193.409 28.2488 193.555 27.9824 193.782L27.6326 194.004L27.4551 194.156L27.2775 194.308C27.2775 194.308 27.2775 194.308 27.3609 194.313L27.4388 194.4C27.4334 194.482 27.5168 194.487 27.5114 194.569L27.506 194.65L27.5005 194.732L27.5731 194.9L27.5677 194.981L27.6456 195.068C27.7128 195.318 27.8633 195.573 27.9304 195.823C28.0701 196.241 28.2043 196.741 28.3332 197.322C28.462 197.903 28.5075 198.478 28.5638 198.891C28.6309 199.14 28.6092 199.466 28.671 199.797C28.6547 200.041 28.7218 200.291 28.7002 200.617C28.7402 201.273 28.6135 201.919 28.4977 202.402C28.4814 202.646 28.3818 202.885 28.2822 203.124L28.2768 203.205C28.2714 203.286 28.266 203.368 28.1772 203.444C28.1717 203.525 28.1717 203.525 28.1663 203.607C28.1555 203.769 28.0613 203.927 27.9671 204.084C27.8729 204.241 27.7787 204.398 27.5957 204.632C27.5794 204.876 27.4907 204.952 27.4073 204.946L27.4019 205.027L27.3131 205.103L27.2297 205.098C27.1409 205.174 26.9688 205.244 26.8854 205.238L26.802 205.233C26.6299 205.303 26.4631 205.292 26.213 205.275C26.0462 205.264 25.9629 205.259 25.8015 205.166C25.6348 205.155 25.4734 205.063 25.3175 204.889C25.3175 204.889 25.3175 204.889 25.2342 204.883C25.1562 204.796 25.1562 204.796 25.0782 204.709L25.0003 204.622C24.6939 204.193 24.4708 203.77 24.3257 203.433C24.186 203.015 24.041 202.678 23.9738 202.428C23.9847 202.265 23.9121 202.097 23.923 201.934L23.9338 201.771C23.8883 201.196 23.9316 200.545 24.0583 199.899C24.0746 199.655 24.1742 199.416 24.1904 199.172L24.2013 199.009C24.2067 198.928 24.2121 198.846 24.3009 198.771C24.3063 198.689 24.3063 198.689 24.3117 198.608C24.3171 198.526 24.328 198.364 24.4167 198.288C24.5218 197.968 24.6268 197.648 24.7264 197.409C24.826 197.17 24.9311 196.85 25.0307 196.611C25.1303 196.373 25.2245 196.215 25.3187 196.058C25.2299 196.134 25.1411 196.21 25.0469 196.367C25.0361 196.53 24.8585 196.682 24.7697 196.758C24.6864 196.752 24.681 196.833 24.5976 196.828C24.5088 196.904 24.4146 197.061 24.2424 197.131C24.1536 197.207 24.0649 197.283 23.9761 197.359L23.8873 197.435L23.3491 197.971L22.8272 198.264L22.2891 198.8L22.2003 198.876C22.1949 198.958 22.1115 198.952 22.1061 199.033L21.9339 199.104L21.8397 199.261C21.7509 199.337 21.6621 199.413 21.5679 199.57L21.4792 199.646C21.5625 199.651 21.7239 199.744 21.8018 199.831C21.8798 199.918 21.8798 199.918 21.9577 200.005L22.0357 200.092C22.1137 200.179 22.1916 200.266 22.2696 200.352C22.4201 200.608 22.576 200.782 22.6485 200.95C22.799 201.205 22.9495 201.461 23.0167 201.71C23.1563 202.129 23.296 202.547 23.4249 203.128C23.5537 203.709 23.5992 204.284 23.6501 204.778C23.7009 205.272 23.5797 205.836 23.5363 206.487C23.5309 206.569 23.5255 206.65 23.4367 206.726L23.4313 206.807L23.4259 206.889C23.4205 206.97 23.3263 207.128 23.3209 207.209C23.1162 207.768 22.917 208.245 22.551 208.711L22.4622 208.787C22.3734 208.863 22.3734 208.863 22.2846 208.939C22.1958 209.015 22.1125 209.009 22.0291 209.004C21.8569 209.074 21.6848 209.144 21.518 209.133C21.4346 209.128 21.3513 209.122 21.2679 209.117C21.1845 209.111 21.1066 209.024 21.0232 209.018C20.9398 209.013 20.8619 208.926 20.7839 208.839L20.7059 208.752C20.628 208.665 20.4721 208.491 20.3941 208.404C20.2382 208.23 20.0877 207.975 19.8592 207.633C19.7141 207.296 19.569 206.959 19.5019 206.71C19.3622 206.292 19.3059 205.879 19.2442 205.548C19.1988 204.972 19.2421 204.321 19.3579 203.838C19.3742 203.594 19.4792 203.274 19.4955 203.03C19.6059 202.628 19.7218 202.145 19.9156 201.749C19.921 201.668 20.0098 201.592 20.0206 201.429L19.9318 201.505L19.8431 201.581C19.8376 201.663 19.7543 201.657 19.7488 201.738C19.5659 201.971 19.2941 202.28 19.1111 202.514C19.1057 202.595 19.0169 202.671 18.9281 202.747C18.9281 202.747 18.9281 202.747 18.9227 202.828L18.3066 203.278C18.1236 203.511 17.9406 203.744 17.7576 203.977C17.7522 204.059 17.6688 204.053 17.6634 204.134L17.658 204.216L17.3916 204.443L17.1198 204.752C17.031 204.828 16.9368 204.985 16.8481 205.061L16.8426 205.143C16.926 205.148 17.004 205.235 17.0819 205.322C17.0819 205.322 17.0819 205.322 17.1599 205.409C17.2378 205.496 17.3938 205.67 17.4717 205.757C17.5443 205.925 17.7002 206.099 17.6948 206.181L17.7727 206.268L17.8507 206.354L17.8453 206.436C17.9178 206.604 18.0737 206.778 18.1409 207.028C18.2859 207.365 18.3531 207.614 18.4256 207.783C18.5599 208.282 18.6941 208.782 18.7504 209.194C18.8122 209.526 18.7959 209.77 18.8522 210.182C18.8414 210.345 18.9085 210.595 18.8977 210.758L18.8868 210.921C18.8706 211.165 18.8544 211.409 18.8381 211.653C18.8165 211.979 18.7948 212.304 18.6952 212.543C18.6843 212.706 18.6789 212.787 18.5847 212.945C18.5739 213.107 18.4797 213.265 18.3855 213.422C18.3801 213.503 18.2967 213.498 18.2913 213.579C18.2025 213.655 18.1971 213.736 18.1137 213.731L17.9361 213.883C17.764 213.953 17.5918 214.023 17.503 214.099C17.1587 214.24 16.8198 214.299 16.5751 214.201C16.3304 214.103 16.169 214.01 15.9297 213.831C15.8518 213.744 15.7738 213.657 15.6959 213.57L15.6125 213.564C15.5345 213.478 15.5345 213.478 15.4566 213.391L15.3786 213.304C15.3061 213.135 15.1447 213.043 14.9888 212.869C14.8383 212.614 14.6878 212.358 14.5427 212.022C14.4756 211.772 14.4031 211.603 14.4193 211.359L14.4247 211.278C14.3738 210.784 14.4009 210.377 14.428 209.97C14.4605 209.481 14.5817 208.917 14.703 208.353C14.6142 208.429 14.6088 208.51 14.52 208.586L14.5146 208.667C14.4204 208.825 14.3262 208.982 14.232 209.139C14.1432 209.215 14.1378 209.296 14.1324 209.378L14.127 209.459L14.0328 209.616L14.0274 209.698L13.9386 209.774L13.9332 209.855C13.9223 210.018 13.8227 210.257 13.6505 210.327L13.6343 210.571L13.5401 210.728C13.2575 211.2 13.0583 211.678 12.8644 212.073L12.9478 212.079C13.0312 212.085 13.0312 212.085 13.1145 212.09C13.1979 212.096 13.2759 212.183 13.3593 212.188C13.4426 212.194 13.4372 212.275 13.5206 212.281L13.5985 212.368C13.6765 212.455 13.7545 212.541 13.8324 212.628C13.9104 212.715 13.9883 212.802 14.0663 212.889C14.4561 213.324 14.7625 213.753 15.0689 214.182C15.2974 214.525 15.4371 214.943 15.5822 215.28C15.6547 215.448 15.6493 215.529 15.6385 215.692C15.711 215.86 15.7002 216.023 15.6948 216.105C15.6839 216.268 15.6731 216.43 15.6623 216.593L15.6569 216.675C15.6406 216.919 15.5302 217.32 15.1804 217.542C15.0028 217.694 14.8307 217.764 14.7419 217.84L14.6585 217.835C14.5751 217.829 14.5697 217.91 14.4864 217.905C14.403 217.899 14.2308 217.97 14.1474 217.964C13.8973 217.948 13.736 217.855 13.4913 217.757C13.33 217.664 13.252 217.578 13.0907 217.485C13.0073 217.479 13.0127 217.398 12.9293 217.393C12.8514 217.306 12.7734 217.219 12.6175 217.045C12.4616 216.871 12.3944 216.621 12.3219 216.453C12.1714 216.197 12.1043 215.948 12.1205 215.703C12.0534 215.454 12.075 215.128 12.0079 214.878C12.0187 214.715 12.035 214.471 12.0458 214.308C12.0404 214.39 12.035 214.471 11.9462 214.547L11.7415 215.106L11.6365 215.426C11.7199 215.431 11.7145 215.513 11.7091 215.594C11.7036 215.676 11.7036 215.676 11.6982 215.757L11.6928 215.838L11.6874 215.92C11.682 216.001 11.6766 216.083 11.6712 216.164L11.6657 216.246L11.6603 216.327C11.6549 216.408 11.6495 216.49 11.6441 216.571C11.6224 216.897 11.6008 217.222 11.6733 217.391C11.6516 217.716 11.7079 218.129 11.6646 218.78L11.6592 218.862L11.6484 219.024C11.643 219.106 11.6321 219.269 11.6267 219.35C11.6159 219.513 11.6051 219.676 11.5109 219.833C11.4112 220.072 11.395 220.316 11.3008 220.473C11.2012 220.712 11.107 220.869 10.9348 220.939C10.846 221.015 10.7626 221.01 10.7572 221.091C10.6684 221.167 10.5017 221.156 10.4183 221.15C10.3349 221.145 10.2516 221.139 10.1682 221.134C10.0848 221.128 10.0069 221.041 9.9235 221.036C9.84012 221.03 9.76216 220.943 9.6842 220.856C9.59 221.013 9.59541 220.932 9.51204 220.926C9.36154 220.671 9.21104 220.416 9.14391 220.166C9.14932 220.085 9.07678 219.916 9.08219 219.835L9.08761 219.753C9.09844 219.591 9.02048 219.504 9.03131 219.341C9.04214 219.178 9.05838 218.934 9.07463 218.69C9.08004 218.608 9.09087 218.445 9.17966 218.37C9.18507 218.288 9.19049 218.207 9.27928 218.131C9.29011 217.968 9.3789 217.892 9.38431 217.811L9.38973 217.729C9.48393 217.572 9.58355 217.333 9.68317 217.095C9.77737 216.938 9.87157 216.78 10.0546 216.547C10.2376 216.314 10.4206 216.081 10.5148 215.924C10.6035 215.848 10.6977 215.691 10.7865 215.615C10.8753 215.539 10.9641 215.463 11.1363 215.393C11.2196 215.398 11.2251 215.317 11.303 215.404L11.4135 215.002L11.629 214.281C11.7286 214.042 11.8282 213.803 11.9278 213.565C12.0274 213.326 12.127 213.087 12.2212 212.93C12.2267 212.849 12.2267 212.849 12.3155 212.773C12.4205 212.453 12.6089 212.138 12.7085 211.9C12.7139 211.818 12.8081 211.661 12.8135 211.579C12.6306 211.813 12.4476 212.046 12.27 212.197L12.1812 212.273C11.9148 212.501 11.6485 212.728 11.4601 213.043L11.3875 212.875C11.2045 213.108 10.8494 213.411 10.4996 213.633C10.2333 213.861 9.8781 214.164 9.44499 214.381C9.27283 214.451 9.10067 214.521 8.9285 214.592C8.83972 214.668 8.67297 214.656 8.50081 214.727C8.25068 214.71 8.00056 214.693 7.76127 214.514C7.68331 214.427 7.60535 214.34 7.61077 214.259C7.53281 214.172 7.54364 214.009 7.4711 213.841C7.48734 213.596 7.50359 213.352 7.51983 213.108L7.52525 213.027C7.55232 212.62 7.8241 212.311 8.09588 212.002C8.36766 211.693 8.63944 211.384 8.9946 211.08C9.17217 210.928 9.26096 210.853 9.43313 210.782L9.52191 210.706C9.69949 210.555 9.87165 210.484 10.0438 210.414C10.2214 210.262 10.3936 210.192 10.5657 210.122C10.8213 210.057 10.9988 209.905 11.171 209.835C11.3432 209.765 11.5153 209.694 11.6821 209.705C11.8542 209.635 12.021 209.646 12.1877 209.657L12.2711 209.663C12.3545 209.668 12.4378 209.674 12.5266 209.598C12.61 209.604 12.6988 209.528 12.7822 209.533L12.8655 209.539C13.0377 209.468 13.2878 209.485 13.4546 209.496C13.5379 209.502 13.6159 209.589 13.6993 209.594C13.7989 209.356 13.8985 209.117 14.0815 208.884L14.5579 208.016L14.9348 207.387L15.1232 207.072L15.1286 206.991L15.2228 206.834C15.317 206.677 15.4058 206.601 15.5 206.443L15.5054 206.362L15.5108 206.281C15.5054 206.362 15.422 206.356 15.3332 206.432C15.1556 206.584 14.9781 206.736 14.8059 206.806L14.7117 206.963L14.5395 207.034C14.4508 207.11 14.3674 207.104 14.2786 207.18C14.2786 207.18 14.1952 207.174 14.1898 207.256C14.0176 207.326 13.8401 207.478 13.5845 207.542C13.1514 207.759 12.6349 207.97 12.2072 208.105C12.0351 208.175 11.7795 208.24 11.6074 208.31L11.524 208.305C11.3518 208.375 11.1797 208.445 10.9296 208.429C10.674 208.494 10.4239 208.477 10.1684 208.542C10.0016 208.531 9.75149 208.514 9.50679 208.416C9.42341 208.41 9.42883 208.329 9.34545 208.323C9.26749 208.237 9.18953 208.15 9.18953 208.15C9.11158 208.063 9.11699 207.981 9.12241 207.9C9.12782 207.818 9.05528 207.65 9.06069 207.569C9.07152 207.406 9.07694 207.324 9.08777 207.162L9.09318 207.08C9.10401 206.917 9.19822 206.76 9.20363 206.679C9.30866 206.359 9.49707 206.044 9.68548 205.73C9.77968 205.572 9.95726 205.421 10.0515 205.263L10.1403 205.187C10.229 205.112 10.2345 205.03 10.3178 205.036C10.4954 204.884 10.6784 204.651 10.856 204.499L10.8614 204.418C10.9502 204.342 11.0444 204.185 11.2165 204.114C11.3053 204.039 11.3941 203.963 11.4829 203.887C11.5717 203.811 11.6605 203.735 11.7493 203.659C11.8381 203.583 11.9269 203.507 12.0156 203.432L12.1044 203.356L12.1932 203.28C12.3654 203.21 12.4542 203.134 12.4542 203.134C12.8039 202.912 13.237 202.695 13.5868 202.473C14.1087 202.181 14.5364 202.046 14.9641 201.911L15.1362 201.84C15.3918 201.776 15.5639 201.705 15.8195 201.641C16.1584 201.581 16.4973 201.522 16.7528 201.457C16.9196 201.468 17.0917 201.398 17.3418 201.415C17.5086 201.426 17.6753 201.437 17.8367 201.529C17.92 201.535 17.92 201.535 18.0034 201.54L18.0868 201.546L18.1702 201.552L18.2535 201.557C18.3369 201.563 18.4149 201.65 18.4982 201.655C18.5762 201.742 18.6596 201.748 18.7375 201.835L18.8317 201.677L18.9259 201.52L19.0147 201.444C19.0201 201.363 19.1035 201.368 19.1089 201.287C19.1977 201.211 19.2919 201.054 19.3807 200.978L20.0131 200.284C20.5566 199.666 21.0948 199.13 21.5495 198.588C21.555 198.506 21.6383 198.512 21.6383 198.512L21.7271 198.436L21.7325 198.354L21.738 198.273C20.8663 198.787 19.8388 199.128 18.8946 199.474C18.2947 199.679 17.6948 199.885 17.2617 200.101L17.0062 200.166C16.5785 200.301 16.1508 200.436 15.7231 200.571C15.4676 200.636 15.2174 200.619 15.0453 200.69L14.9619 200.684C14.7952 200.673 14.7118 200.667 14.5396 200.738L14.4563 200.732C14.2895 200.721 14.0394 200.704 13.7893 200.688C13.5391 200.671 13.2944 200.573 13.1331 200.481C13.0497 200.475 12.9718 200.388 12.8104 200.296C12.8104 200.296 12.7271 200.29 12.7325 200.209C12.7325 200.209 12.6545 200.122 12.5766 200.035C12.4986 199.948 12.504 199.866 12.5094 199.785L12.5148 199.704L12.5203 199.622C12.5257 199.541 12.5311 199.459 12.5365 199.378C12.5528 199.134 12.647 198.977 12.6578 198.814C12.7628 198.494 12.9458 198.261 13.0454 198.022L13.1342 197.946C13.223 197.87 13.3118 197.794 13.3172 197.713L13.406 197.637C13.4948 197.561 13.5836 197.485 13.6724 197.409C13.8499 197.258 14.0329 197.025 14.2939 196.878C14.5603 196.651 14.8212 196.505 15.0822 196.358C15.6041 196.066 16.2039 195.861 16.7204 195.65C17.1481 195.515 17.5758 195.38 18.1648 195.337C18.6759 195.208 19.1816 195.159 19.7706 195.117C20.4484 194.998 21.2821 195.054 22.1105 195.191C22.5273 195.218 22.9388 195.328 23.2669 195.431C23.3502 195.437 23.4282 195.524 23.5116 195.529L23.5949 195.535C23.6783 195.54 23.8397 195.633 23.923 195.638C24.0064 195.644 24.001 195.725 24.0844 195.731C24.1677 195.736 24.1677 195.736 24.2511 195.742C24.3345 195.747 24.3291 195.829 24.4124 195.834L25.3003 195.076L25.3891 195L25.6555 194.772L26.4438 194.252C26.5325 194.177 26.5325 194.177 26.6213 194.101C27.0599 193.803 27.5038 193.424 27.9423 193.126L28.0311 193.05L28.2033 192.979C28.2921 192.904 28.3809 192.828 28.4696 192.752C28.553 192.757 28.5584 192.676 28.6418 192.682C28.3029 192.741 27.9586 192.881 27.703 192.946L27.4475 193.011L27.0252 193.065C26.0919 193.248 25.0751 193.426 23.8083 193.587C23.3026 193.635 22.797 193.683 22.2079 193.725C22.1246 193.72 22.0412 193.714 21.9578 193.709L21.8744 193.703C21.7077 193.692 21.6243 193.687 21.4576 193.675L21.3742 193.67L21.2908 193.664C20.6238 193.62 19.9731 193.331 19.3332 192.88C19.1718 192.788 19.0159 192.614 18.938 192.527C18.938 192.527 18.938 192.527 18.86 192.44C18.7821 192.353 18.7041 192.266 18.6315 192.097C18.559 191.929 18.4865 191.761 18.4139 191.592C18.4193 191.511 18.4247 191.43 18.3468 191.343C18.3468 191.343 18.3468 191.343 18.3522 191.261C18.3576 191.18 18.3684 191.017 18.3739 190.936C18.3955 190.61 18.6673 190.301 18.8503 190.068C18.9445 189.911 19.1221 189.759 19.2163 189.602C19.3939 189.45 19.4826 189.374 19.6602 189.222L19.749 189.147C20.0154 188.919 20.3597 188.778 20.7094 188.556C20.8816 188.486 21.1426 188.34 21.4869 188.199C21.5703 188.205 21.659 188.129 21.659 188.129L21.7424 188.134L21.8312 188.059C22.0034 187.988 22.0867 187.994 22.2589 187.923C22.4311 187.853 22.6032 187.783 22.77 187.794C23.1143 187.653 23.5366 187.6 23.9535 187.627C24.3757 187.574 24.876 187.607 25.3708 187.722C25.7043 187.744 26.0324 187.847 26.3659 187.87C26.8607 187.984 27.4335 188.186 27.8395 188.376C28.0842 188.474 28.4123 188.578 28.6516 188.758C28.8963 188.856 29.0522 189.029 29.2136 189.122C29.2915 189.209 29.5308 189.388 29.6921 189.481C29.7755 189.486 29.7701 189.568 29.8535 189.573C29.9314 189.66 30.0094 189.747 30.0094 189.747C30.1653 189.921 30.3212 190.095 30.4771 190.269L30.6331 190.443L30.711 190.53L30.789 190.617C30.8669 190.704 30.8669 190.704 30.9449 190.791C30.9449 190.791 30.9395 190.872 31.0229 190.878L31.2004 190.726L31.378 190.574L31.4668 190.498L31.9887 190.206C31.9887 190.206 32.0775 190.13 32.0829 190.049C32.1717 189.973 32.3439 189.903 32.5994 189.838L32.7716 189.767L33.288 189.556C33.4602 189.486 33.549 189.41 33.6324 189.416L34.4932 189.064L34.6653 188.994C34.7541 188.918 34.9263 188.848 35.093 188.859L35.2652 188.789L35.354 188.713L35.4374 188.718C35.8651 188.583 36.2982 188.367 36.8092 188.237C37.0648 188.172 37.3203 188.108 37.7426 188.054C37.9093 188.065 38.0815 187.995 38.2483 188.006C38.3316 188.011 38.4984 188.022 38.5818 188.028L38.7485 188.039C38.9986 188.056 39.2542 187.991 39.4209 188.002C39.5877 188.013 39.7544 188.024 39.9211 188.035C40.0045 188.041 40.0879 188.046 40.1659 188.133C40.2438 188.22 40.2384 188.302 40.233 188.383C40.2276 188.465 40.2222 188.546 40.1334 188.622C40.0446 188.698 39.9612 188.692 39.8778 188.687C39.6277 188.67 39.3776 188.653 39.1275 188.637L38.8773 188.62C38.6272 188.603 38.2049 188.657 37.7827 188.711C37.6159 188.7 37.4437 188.77 37.277 188.759C37.0215 188.824 36.8493 188.894 36.6826 188.883C36.5104 188.953 36.3382 189.024 36.1661 189.094L35.9722 189.49L35.4558 189.701C35.3724 189.695 35.2836 189.771 35.2002 189.765L35.1168 189.76L35.0281 189.836L34.9447 189.83L34.8613 189.825L34.7725 189.901L34.6837 189.976C34.5116 190.047 34.3394 190.117 34.1672 190.187C34.0785 190.263 33.9951 190.258 33.9063 190.334L33.8175 190.409L33.6453 190.48L33.5566 190.556C33.6345 190.642 33.6345 190.642 33.6291 190.724L33.7071 190.811C33.785 190.898 33.7796 190.979 33.8576 191.066C33.9355 191.153 33.9301 191.235 34.0081 191.321C34.086 191.408 34.1586 191.577 34.2365 191.664L34.2311 191.745C34.3091 191.832 34.3037 191.913 34.387 191.919C34.5429 192.093 34.6101 192.343 34.6772 192.592C34.8277 192.848 34.8948 193.098 34.9565 193.429C35.0237 193.678 35.0854 194.01 35.0692 194.254C35.1146 194.829 35.1655 195.323 35.1276 195.893C35.0843 196.544 35.1352 197.038 35.0973 197.608C35.0918 197.689 35.0864 197.771 35.0756 197.934L35.0648 198.097C35.0539 198.259 35.0485 198.341 35.0377 198.504C35.0106 198.911 34.9056 199.231 34.7172 199.545C34.5234 199.941 34.3349 200.256 34.1465 200.57C33.8748 200.879 33.6972 201.031 33.4308 201.258Z" fill="#CFB0D0"/>
</svg>
