<svg xmlns="http://www.w3.org/2000/svg" width="590" height="612" viewBox="0 0 590 612"><g><g transform="rotate(-13.32 294.5 307)"><g><path fill="#f2e96c" d="M323.686 379.545c-2.014-1.15-4.603-.287-5.466 1.727a133.252 133.252 0 0 0-8.343 18.412c-.864 2.013.287 4.603 2.589 5.178.575.288.863.288 1.438.288 1.726 0 3.165-1.151 3.74-2.59a93.145 93.145 0 0 1 7.768-17.26c.863-2.302 0-4.604-1.726-5.755z"/></g><g><path fill="#def9fa" d="M258.157 454.898c.575.288 1.15.288 1.726.288 1.438 0 2.877-.863 3.74-2.302.863-2.013 0-4.603-2.014-5.466-4.028-2.014-7.768-4.603-10.932-8.055-1.439-1.726-4.028-1.726-5.754-.288-1.726 1.439-1.726 4.028-.288 5.754 3.74 4.315 8.343 7.768 13.522 10.07z"/></g><g><path fill="#f2e96c" d="M357.388 142.734c1.15 0 2.301-.575 3.164-1.438 3.74-4.315 6.33-9.781 7.768-15.247.575-2.302-.863-4.316-2.877-4.891-2.301-.576-4.315.863-4.89 2.877-1.151 4.315-3.165 8.63-6.042 12.083-1.438 1.726-1.15 4.315.575 5.753.288.576 1.439.863 2.302.863z"/></g><g><path fill="#def9fa" d="M390.181 403.706c.576.288.864.288 1.439.288 1.726 0 3.164-.863 3.74-2.59 2.014-4.89 4.028-9.78 6.617-14.384 1.15-2.014.287-4.315-1.439-5.466-2.014-1.15-4.315-.288-5.466 1.438-2.877 4.891-5.178 10.07-7.192 15.536-.863 2.013.288 4.603 2.301 5.178z"/></g><g><path fill="#def9fa" d="M264.181 612.706c.576.288.864.288 1.439.288 1.726 0 3.164-.863 3.74-2.59 2.014-4.89 4.028-9.78 6.617-14.384 1.15-2.014.287-4.315-1.439-5.466-2.014-1.15-4.315-.288-5.466 1.438-2.877 4.891-5.178 10.07-7.192 15.536-.863 2.013.288 4.603 2.301 5.178z"/></g><g><path fill="#def9fa" d="M-20.819 376.706c.576.288.864.288 1.439.288 1.726 0 3.164-.863 3.74-2.59 2.014-4.89 4.027-9.78 6.617-14.384 1.15-2.014.287-4.315-1.439-5.466-2.014-1.15-4.315-.288-5.466 1.438-2.877 4.891-5.178 10.07-7.192 15.536-.863 2.013.288 4.603 2.301 5.178z"/></g><g><path fill="#def9fa" d="M182.181 381.706c.576.288.864.288 1.439.288 1.726 0 3.164-.863 3.74-2.59 2.014-4.89 4.028-9.78 6.617-14.384 1.15-2.014.287-4.315-1.439-5.466-2.014-1.15-4.315-.288-5.466 1.438-2.877 4.891-5.178 10.07-7.192 15.536-.863 2.013.288 4.603 2.301 5.178z"/></g><g><path fill="#dbb2d2" d="M429.283 244.079c2.302-.288 4.028-2.302 3.74-4.315-.287-2.302-2.301-4.028-4.315-3.74-6.33.575-12.658-1.439-17.549-5.179-1.726-1.438-4.315-.863-5.754.863-1.438 1.726-.863 4.316.863 5.754 5.754 4.315 13.234 6.905 20.426 6.905.576-.288 1.726-.288 2.59-.288z"/></g><g><path fill="#f2e96c" d="M465.595 171.541c-3.452-.863-6.329-2.589-8.918-5.178-1.439-1.726-4.028-1.726-5.754-.288-1.726 1.439-1.726 4.028-.288 5.754 3.453 3.74 8.056 6.33 12.946 7.48h.863c1.727 0 3.453-1.15 4.028-3.165.575-1.726-.575-4.027-2.877-4.603z"/></g><g><path fill="#f2e96c" d="M625.595 177.541c-3.452-.863-6.329-2.589-8.918-5.178-1.439-1.726-4.028-1.726-5.754-.288-1.726 1.439-1.726 4.028-.288 5.754 3.453 3.74 8.056 6.33 12.946 7.48h.863c1.727 0 3.453-1.15 4.028-3.165.575-1.726-.575-4.027-2.877-4.603z"/></g><g><path fill="#f2e96c" d="M321.567 81.186c.864 0 2.014-.288 2.877-1.15 1.726-1.44 1.726-4.029.288-5.755l-8.055-8.918c-1.439-1.726-4.028-1.726-5.754-.288-1.726 1.439-1.726 4.028-.288 5.754l8.056 8.918c.863.864 1.726 1.439 2.876 1.439z"/></g><g><path fill="#dbb2d2" d="M406.024 164.545c-2.014-1.15-4.603-.287-5.466 1.727l-3.453 6.616c-1.15 2.014-.287 4.603 1.727 5.467.575.287 1.15.575 2.013.575 1.439 0 2.877-.863 3.74-2.302l3.453-6.616c.863-2.014 0-4.604-2.014-5.467z"/></g><g><path fill="#f9d9e3" d="M237.533 241.617c-2.014-1.151-4.315-.576-5.466 1.438l-4.89 8.055c-1.151 2.014-.576 4.316 1.438 5.466.575.288 1.438.576 2.014.576 1.438 0 2.877-.863 3.452-2.014l4.89-8.055c1.151-1.727.288-4.316-1.438-5.466z"/></g><g><path fill="#def9fa" d="M481.87 219.117c-2.302-.288-4.604-1.726-5.467-3.74-.863-2.014-3.452-2.877-5.466-2.014-2.014.863-2.877 3.453-2.014 5.466 2.302 4.603 7.192 8.056 12.37 8.343h.288c2.014 0 4.028-1.726 4.028-3.74 0-2.301-1.726-4.027-3.74-4.315z"/></g><g><path fill="#f9d9e3" d="M360.928 470.012l-10.357-5.467c-2.013-1.15-4.603-.287-5.466 1.727-1.15 2.013-.287 4.603 1.727 5.466l10.356 5.466c.576.287 1.151.575 2.014.575 1.439 0 2.877-.863 3.74-2.301.575-1.727 0-4.316-2.014-5.466z"/></g><g><path fill="#f9d9e3" d="M75.928 532.012l-10.357-5.467c-2.013-1.15-4.603-.287-5.466 1.727-1.15 2.013-.287 4.603 1.727 5.466l10.356 5.466c.576.287 1.151.575 2.014.575 1.439 0 2.877-.863 3.74-2.301.576-1.727 0-4.316-2.014-5.466z"/></g><g><path fill="#f2e96c" d="M351.12 562.751c.575 1.439 2.3 2.302 3.74 2.302.575 0 1.15 0 1.725-.288 2.014-.863 2.877-3.452 1.726-5.466l-2.013-4.027c-.863-2.014-3.453-2.877-5.466-1.727-2.014.863-2.877 3.453-1.727 5.467z"/></g><g><path fill="#dbb2d2" d="M241.056 400.389a36.44 36.44 0 0 0 13.521-2.59c2.014-.862 3.165-3.164 2.302-5.178-.863-2.013-3.165-3.164-5.179-2.301-3.74 1.438-7.767 2.014-11.795 2.014-2.301 0-4.027 1.726-4.315 4.027 0 2.302 1.726 4.028 4.028 4.316.287-.288.863-.288 1.438-.288z"/></g><g><path fill="#dbb2d2" d="M210.056 509.389a36.44 36.44 0 0 0 13.521-2.59c2.014-.862 3.165-3.164 2.302-5.178-.863-2.013-3.165-3.164-5.178-2.301-3.74 1.438-7.768 2.014-11.796 2.014-2.301 0-4.027 1.726-4.315 4.027 0 2.302 1.726 4.028 4.028 4.316.287-.288.863-.288 1.438-.288z"/></g><g><path fill="#def9fa" d="M534.568 496.515c.576.576 1.439.863 2.302.863 1.15 0 2.59-.575 3.452-1.726 1.439-1.726.863-4.315-.863-5.754-4.603-3.452-8.63-8.055-10.932-13.52-.863-2.015-3.165-2.878-5.466-2.015-2.014.863-3.165 3.165-2.014 5.466 2.59 6.617 7.48 12.37 13.521 16.686z"/></g><g><path fill="#def9fa" d="M393.568 33.515c.576.576 1.439.863 2.302.863 1.15 0 2.59-.575 3.452-1.726 1.439-1.726.863-4.315-.863-5.754-4.603-3.452-8.63-8.055-10.932-13.52-.863-2.015-3.165-2.878-5.466-2.015-2.014.863-3.165 3.165-2.014 5.466 2.59 6.617 7.48 12.37 13.521 16.686z"/></g><g><path fill="#def9fa" d="M581.568 235.515c.576.576 1.439.863 2.302.863 1.15 0 2.59-.575 3.452-1.726 1.439-1.726.863-4.315-.863-5.754-4.603-3.452-8.63-8.055-10.932-13.52-.863-2.015-3.165-2.878-5.466-2.015-2.014.863-3.165 3.165-2.014 5.466 2.59 6.617 7.48 12.37 13.521 16.686z"/></g><g><path fill="#f2e96c" d="M388.464 310.78c-1.439-1.727-3.74-2.302-5.754-1.151-5.178 3.74-10.07 8.63-13.521 14.096-1.151 2.014-.576 4.316 1.15 5.754.576.576 1.439.576 2.302.576 1.438 0 2.59-.576 3.452-2.014 2.877-4.603 6.905-8.63 11.22-11.795 2.014-.864 2.302-3.453 1.15-5.467z"/></g><g><path fill="#dbb2d2" d="M291.778 159.6c-3.165-1.15-6.042-3.452-7.48-6.328-1.151-2.014-3.453-2.877-5.466-1.727-2.014 1.151-2.877 3.453-1.727 5.467 2.59 4.89 7.193 8.918 12.371 10.644.288 0 .863.288 1.15.288 1.727 0 3.453-1.151 4.028-2.877.576-2.302-.863-4.603-2.876-5.466z"/></g><g><path fill="#f9d9e3" d="M520.514 181.77c-.288-2.302-2.302-3.74-4.603-3.74-5.754.575-11.508 2.301-16.974 4.603-2.014.863-2.877 3.452-2.014 5.466.576 1.439 2.302 2.302 3.74 2.302.576 0 1.151 0 1.726-.288 4.603-2.014 9.494-3.452 14.385-4.028 2.301 0 4.027-2.014 3.74-4.315z"/></g><g><path fill="#dbb2d2" d="M444.444 106.83c1.439-1.727 1.439-4.316-.287-5.755-1.726-1.438-4.316-1.438-5.754.288l-7.768 9.206c-1.438 1.726-1.438 4.315.288 5.754.863.575 1.726.863 2.59.863 1.15 0 2.3-.576 3.164-1.439z"/></g><g><path fill="#f9d9e3" d="M272.346 315.03c-2.301 0-4.028 2.014-3.74 4.315.288 3.453-.575 7.192-1.726 10.645-.863 2.014.288 4.603 2.301 5.466.576.288 1.151.288 1.439.288 1.726 0 3.164-.864 3.74-2.59 1.726-4.315 2.59-9.206 2.301-14.096-.287-2.302-2.301-4.028-4.315-4.028z"/></g><g><path fill="#f9d9e3" d="M126.346 293.03c-2.301 0-4.028 2.014-3.74 4.315.288 3.453-.575 7.192-1.726 10.645-.863 2.014.288 4.603 2.301 5.466.576.288 1.151.288 1.439.288 1.726 0 3.164-.864 3.74-2.59 1.726-4.315 2.59-9.206 2.301-14.096-.287-2.302-2.301-4.028-4.315-4.028z"/></g><g><path fill="#f2e96c" d="M288.677 208.801c-.288-2.301-2.014-4.027-4.316-3.74-2.301.288-4.027 2.014-3.74 4.316.288 4.89 1.151 9.781 2.877 14.672.576 1.726 2.302 2.877 4.028 2.877.288 0 .863 0 1.15-.288 2.014-.575 3.453-2.877 2.59-5.178-1.439-4.028-2.302-8.343-2.59-12.659z"/></g><g><path fill="#f2e96c" d="M76.677 145.801c-.288-2.301-2.014-4.027-4.316-3.74-2.301.288-4.027 2.014-3.74 4.316.288 4.89 1.151 9.781 2.877 14.672.576 1.726 2.302 2.877 4.028 2.877.288 0 .863 0 1.15-.288 2.014-.575 3.453-2.877 2.59-5.178-1.439-4.028-2.302-8.343-2.59-12.659z"/></g></g></g></svg>