<svg xmlns="http://www.w3.org/2000/svg" width="128" height="145" viewBox="0 0 128 145"><g><g><path fill="#f8e9f9" d="M.505 92.715c.628-9.527 3.454-18.741 6.47-27.83 5.087-15.17 11.18-30.275 21.292-42.686C38.379 9.789 53.14.323 69.157.009c8.793-.187 17.46 2.32 25.5 5.83 6.344 2.758 12.562 6.268 17.273 11.408 4.271 4.639 7.097 10.405 9.421 16.297 8.103 20.81 9.799 45.193-.565 65-7.223 13.665-19.722 24.195-33.54 31.216-13.882 7.02-29.144 10.781-44.407 13.539-6.658 1.191-13.504 2.256-20.225 1.379-4.02-.502-11.306-2.633-14.32-6.331-7.161-8.713-9.422-21.124-7.79-45.632z"/></g></g></svg>