<svg xmlns="http://www.w3.org/2000/svg" width="103" height="114" viewBox="0 0 103 114"><g><g transform="rotate(-52.5 96 81)"><g><path fill="#f2e96c" d="M91.735 45.634c-.992-.567-2.268-.142-2.693.85a65.655 65.655 0 0 0-4.11 9.072c-.426.993.14 2.268 1.275 2.552.283.142.425.142.709.142.85 0 1.559-.567 1.842-1.276a45.894 45.894 0 0 1 3.828-8.505c.425-1.134 0-2.268-.85-2.835z"/></g><g><path fill="#def9fa" d="M105.067 57.681c.284.142.567.142.85.142.71 0 1.418-.425 1.844-1.134.425-.992 0-2.268-.993-2.693-1.984-.992-3.827-2.268-5.386-3.97-.709-.85-1.985-.85-2.835-.141-.85.709-.85 1.985-.142 2.835a19.094 19.094 0 0 0 6.662 4.961z"/></g><g><path fill="#f2e96c" d="M95.141 73.274c.567 0 1.134-.283 1.56-.709 1.842-2.126 3.118-4.819 3.827-7.512.283-1.134-.426-2.127-1.418-2.41-1.134-.284-2.126.425-2.41 1.417-.566 2.127-1.559 4.253-2.976 5.954-.709.85-.567 2.126.283 2.835.142.283.709.425 1.134.425z"/></g><g><path fill="#def9fa" d="M80.827 85.463c.283.142.425.142.709.142.85 0 1.559-.426 1.842-1.276.993-2.41 1.985-4.82 3.26-7.088.568-.992.142-2.126-.708-2.693-.992-.567-2.126-.142-2.693.709-1.418 2.41-2.552 4.961-3.544 7.654-.425.993.142 2.268 1.134 2.552z"/></g><g><path fill="#dbb2d2" d="M105.067 94.962c1.134-.142 1.984-1.134 1.843-2.126-.142-1.134-1.134-1.985-2.127-1.843-3.118.284-6.237-.709-8.646-2.551-.85-.709-2.127-.426-2.835.425-.71.85-.426 2.126.425 2.835 2.835 2.126 6.52 3.402 10.064 3.402.284-.142.85-.142 1.276-.142z"/></g><g><path fill="#f2e96c" d="M113.706 78.378c-1.701-.425-3.118-1.275-4.394-2.551-.709-.85-1.985-.85-2.835-.142-.85.709-.85 1.985-.142 2.835 1.701 1.843 3.969 3.119 6.379 3.686h.425c.85 0 1.701-.567 1.985-1.56.283-.85-.284-1.984-1.418-2.268z"/></g><g><path fill="#f2e96c" d="M125.622 53.853c.425 0 .992-.142 1.417-.567.85-.709.85-1.984.142-2.835l-3.97-4.394c-.708-.85-1.984-.85-2.834-.142-.85.709-.85 1.985-.142 2.835l3.969 4.394c.425.426.85.709 1.418.709z"/></g><g><path fill="#dbb2d2" d="M116.828 58.104c-.992-.567-2.268-.142-2.693.85l-1.701 3.26c-.567.993-.142 2.269.85 2.694.284.142.567.283.993.283.708 0 1.417-.425 1.842-1.134l1.701-3.26c.426-.992 0-2.268-.992-2.693z"/></g><g><path fill="#f9d9e3" d="M89.472 102.049c-.992-.567-2.126-.284-2.693.709l-2.41 3.969c-.567.992-.284 2.126.709 2.693.283.142.708.283.992.283.709 0 1.417-.425 1.701-.992l2.41-3.969c.567-.85.141-2.126-.709-2.693z"/></g><g><path fill="#def9fa" d="M129.873 91c-1.134-.143-2.268-.851-2.693-1.844-.426-.992-1.701-1.417-2.694-.992-.992.425-1.417 1.701-.992 2.693 1.134 2.268 3.544 3.97 6.095 4.111h.142c.992 0 1.985-.85 1.985-1.843 0-1.134-.85-1.984-1.843-2.126z"/></g><g><path fill="#f9d9e3" d="M81.68 56.687l-5.103-2.693c-.992-.567-2.268-.142-2.693.85-.567.993-.142 2.268.85 2.694l5.103 2.693c.284.142.567.283.993.283.708 0 1.417-.425 1.842-1.134.284-.85 0-2.126-.992-2.693z"/></g><g><path fill="#f2e96c" d="M107.046 42.66c.284.709 1.134 1.134 1.843 1.134.283 0 .567 0 .85-.142.993-.425 1.418-1.7.85-2.693l-.991-1.985c-.426-.992-1.701-1.417-2.694-.85-.992.425-1.417 1.7-.85 2.693z"/></g><g><path fill="#dbb2d2" d="M73.033 72.564c2.268 0 4.536-.425 6.662-1.276.993-.425 1.56-1.559 1.134-2.551-.425-.992-1.559-1.56-2.551-1.134-1.843.709-3.827.992-5.812.992-1.134 0-1.984.85-2.126 1.985 0 1.134.85 1.984 1.984 2.126.142-.142.426-.142.71-.142z"/></g><g><path fill="#def9fa" d="M79.837 42.089c.284.283.71.425 1.134.425.567 0 1.276-.283 1.701-.85.71-.85.426-2.127-.425-2.835-2.268-1.701-4.252-3.97-5.386-6.663-.426-.992-1.56-1.417-2.694-.992-.992.425-1.559 1.56-.992 2.693 1.276 3.26 3.686 6.096 6.662 8.222z"/></g><g><path fill="#f2e96c" d="M81.392 96.242c-.709-.85-1.843-1.134-2.835-.567-2.551 1.843-4.961 4.252-6.662 6.946-.567.992-.284 2.126.567 2.835.283.283.709.283 1.134.283.709 0 1.276-.283 1.701-.992 1.417-2.268 3.402-4.253 5.528-5.812.992-.425 1.134-1.7.567-2.693z"/></g><g><path fill="#dbb2d2" d="M107.753 112.683c-1.56-.567-2.977-1.701-3.685-3.119-.567-.992-1.701-1.417-2.694-.85-.992.567-1.417 1.701-.85 2.693 1.276 2.41 3.544 4.394 6.095 5.245.142 0 .425.142.567.142.85 0 1.701-.567 1.985-1.418.283-1.134-.426-2.268-1.418-2.693z"/></g><g><path fill="#f9d9e3" d="M150.138 45.493c-.142-1.134-1.134-1.843-2.268-1.843-2.835.283-5.67 1.134-8.364 2.268-.992.425-1.417 1.701-.992 2.693.284.709 1.134 1.134 1.843 1.134.283 0 .567 0 .85-.142 2.268-.992 4.678-1.7 7.088-1.984 1.134 0 1.984-.992 1.843-2.126z"/></g><g><path fill="#dbb2d2" d="M142.489 36.99c.709-.85.709-2.126-.142-2.835-.85-.709-2.126-.709-2.835.142l-3.827 4.536c-.709.85-.709 2.126.142 2.835.425.283.85.425 1.276.425.567 0 1.134-.283 1.559-.709z"/></g><g><path fill="#f9d9e3" d="M82.666 120.19c-1.134 0-1.984.992-1.843 2.126.142 1.701-.283 3.544-.85 5.245-.425.992.142 2.268 1.134 2.693.283.142.567.142.709.142.85 0 1.559-.425 1.842-1.276a16.297 16.297 0 0 0 1.134-6.946c-.141-1.134-1.134-1.984-2.126-1.984z"/></g><g><path fill="#f2e96c" d="M99.114 122.458c-.141-1.134-.992-1.984-2.126-1.843-1.134.142-1.984.993-1.843 2.127.142 2.41.567 4.82 1.418 7.229.283.85 1.134 1.417 1.984 1.417.142 0 .426 0 .567-.141.993-.284 1.701-1.418 1.276-2.552a23.245 23.245 0 0 1-1.276-6.237z"/></g></g><g transform="rotate(-56.61 28.5 4.5)"><g><path fill="#f2e96c" d="M23.175-30.376c-.992-.567-2.268-.142-2.693.85a65.655 65.655 0 0 0-4.11 9.072c-.426.993.141 2.268 1.275 2.552.283.142.425.142.709.142.85 0 1.559-.567 1.842-1.276a45.894 45.894 0 0 1 3.828-8.505c.425-1.134 0-2.268-.85-2.835z"/></g><g><path fill="#def9fa" d="M36.507-18.329c.284.142.567.142.85.142.71 0 1.418-.425 1.844-1.134.425-.992 0-2.268-.993-2.693-1.984-.992-3.827-2.268-5.386-3.97-.709-.85-1.985-.85-2.835-.141-.85.709-.85 1.985-.142 2.835a19.094 19.094 0 0 0 6.662 4.961z"/></g><g><path fill="#f2e96c" d="M26.581-2.736c.567 0 1.134-.283 1.56-.709 1.842-2.126 3.118-4.819 3.827-7.512.283-1.134-.426-2.127-1.418-2.41-1.134-.284-2.126.425-2.41 1.417-.566 2.127-1.559 4.253-2.976 5.954-.709.85-.567 2.126.283 2.835.142.283.709.425 1.134.425z"/></g><g><path fill="#def9fa" d="M12.267 9.453c.283.142.425.142.709.142.85 0 1.559-.426 1.842-1.276.993-2.41 1.985-4.82 3.26-7.088.568-.992.142-2.126-.708-2.693-.992-.567-2.126-.142-2.693.709-1.418 2.41-2.552 4.961-3.544 7.654-.425.993.142 2.268 1.134 2.552z"/></g><g><path fill="#dbb2d2" d="M36.507 18.952c1.134-.142 1.984-1.134 1.843-2.126-.142-1.134-1.134-1.985-2.127-1.843-3.118.284-6.237-.709-8.646-2.551-.85-.709-2.127-.426-2.835.425-.709.85-.426 2.126.425 2.835 2.835 2.126 6.52 3.402 10.064 3.402.284-.142.85-.142 1.276-.142z"/></g><g><path fill="#f2e96c" d="M45.146 2.368c-1.701-.425-3.118-1.275-4.394-2.551-.709-.85-1.985-.85-2.835-.142-.85.709-.85 1.985-.142 2.835 1.701 1.843 3.969 3.119 6.379 3.686h.425c.85 0 1.701-.567 1.984-1.56.284-.85-.283-1.984-1.417-2.268z"/></g><g><path fill="#f2e96c" d="M57.052-22.157c.425 0 .992-.142 1.417-.567.85-.709.85-1.984.142-2.835l-3.97-4.394c-.708-.85-1.984-.85-2.834-.142-.85.709-.85 1.985-.142 2.835l3.969 4.394c.425.426.85.709 1.418.709z"/></g><g><path fill="#dbb2d2" d="M48.268-17.906c-.992-.567-2.268-.142-2.693.85l-1.701 3.26c-.567.993-.142 2.269.85 2.694.284.142.567.283.993.283.708 0 1.417-.425 1.842-1.134l1.701-3.26c.426-.992 0-2.268-.992-2.693z"/></g><g><path fill="#f9d9e3" d="M20.912 26.039c-.992-.567-2.126-.284-2.693.709l-2.41 3.969c-.567.992-.284 2.126.709 2.693.283.142.708.283.992.283.709 0 1.417-.425 1.701-.992l2.41-3.969c.567-.85.141-2.126-.709-2.693z"/></g><g><path fill="#def9fa" d="M61.313 14.99c-1.134-.143-2.268-.851-2.693-1.844-.426-.992-1.701-1.417-2.694-.992-.992.425-1.417 1.701-.992 2.693 1.134 2.268 3.544 3.97 6.095 4.111h.142c.992 0 1.985-.85 1.985-1.843 0-1.134-.85-1.984-1.843-2.126z"/></g><g><path fill="#f9d9e3" d="M13.11-19.323l-5.103-2.693c-.992-.567-2.268-.142-2.693.85-.567.993-.142 2.268.85 2.694l5.103 2.693c.284.142.567.283.993.283.708 0 1.417-.425 1.842-1.134.284-.85 0-2.126-.992-2.693z"/></g><g><path fill="#f2e96c" d="M38.486-33.35c.284.709 1.134 1.134 1.843 1.134.283 0 .567 0 .85-.142.993-.425 1.418-1.7.85-2.693l-.991-1.985c-.426-.992-1.701-1.417-2.694-.85-.992.425-1.417 1.701-.85 2.693z"/></g><g><path fill="#dbb2d2" d="M4.463-3.446c2.268 0 4.536-.425 6.662-1.276.993-.425 1.56-1.559 1.134-2.551-.425-.992-1.559-1.56-2.551-1.134-1.843.709-3.827.992-5.812.992-1.134 0-1.984.85-2.126 1.985 0 1.134.85 1.984 1.984 2.126.142-.142.426-.142.71-.142z"/></g><g><path fill="#def9fa" d="M11.267-33.921c.284.283.71.425 1.134.425.567 0 1.276-.283 1.701-.85.71-.85.426-2.127-.425-2.835-2.268-1.701-4.252-3.97-5.386-6.663-.426-.992-1.56-1.417-2.694-.992-.992.425-1.559 1.56-.992 2.693 1.276 3.26 3.686 6.096 6.662 8.222z"/></g><g><path fill="#f2e96c" d="M12.832 20.232c-.709-.85-1.843-1.134-2.835-.567-2.551 1.843-4.961 4.252-6.662 6.946-.567.992-.284 2.126.567 2.835.283.283.709.283 1.134.283.709 0 1.276-.283 1.701-.992 1.417-2.268 3.402-4.253 5.528-5.812.992-.425 1.134-1.7.567-2.693z"/></g><g><path fill="#dbb2d2" d="M39.193 36.673c-1.56-.567-2.977-1.701-3.685-3.119-.567-.992-1.701-1.417-2.694-.85-.992.567-1.417 1.701-.85 2.693 1.276 2.41 3.544 4.394 6.095 5.245.142 0 .425.142.567.142.85 0 1.701-.567 1.985-1.418.283-1.134-.426-2.268-1.418-2.693z"/></g><g><path fill="#f9d9e3" d="M81.578-30.517c-.142-1.134-1.134-1.843-2.268-1.843-2.835.283-5.67 1.134-8.364 2.268-.992.425-1.417 1.701-.992 2.693.284.709 1.134 1.134 1.843 1.134.283 0 .567 0 .85-.142 2.268-.992 4.678-1.7 7.088-1.984 1.134 0 1.984-.992 1.843-2.126z"/></g><g><path fill="#dbb2d2" d="M73.929-39.02c.709-.85.709-2.126-.142-2.835-.85-.709-2.126-.709-2.835.142l-3.827 4.536c-.709.85-.709 2.126.142 2.835.425.283.85.425 1.276.425.567 0 1.134-.283 1.559-.709z"/></g><g><path fill="#f9d9e3" d="M14.106 44.18c-1.134 0-1.984.992-1.843 2.126.142 1.701-.283 3.544-.85 5.245-.425.992.142 2.268 1.134 2.693.283.142.567.142.709.142.85 0 1.559-.425 1.842-1.276a16.297 16.297 0 0 0 1.134-6.946c-.141-1.133-1.134-1.984-2.126-1.984z"/></g><g><path fill="#f2e96c" d="M30.544 46.448c-.141-1.134-.992-1.984-2.126-1.843-1.134.142-1.984.993-1.843 2.127.142 2.41.567 4.82 1.418 7.229.283.85 1.134 1.417 1.984 1.417.142 0 .426 0 .567-.141.993-.284 1.701-1.418 1.276-2.552a23.245 23.245 0 0 1-1.276-6.237z"/></g></g></g></svg>