<svg xmlns="http://www.w3.org/2000/svg" width="41" height="240" viewBox="0 0 41 240"><g><g><path fill="#cfb0d0" d="M10.318 224.005l.317-.149.106-.05c.211-.099.396-.12.66-.116.184-.022.342.033.5.088.236.083.446.242.577.374.052.105.131.132.183.237l.053.104.104.21.052.104c.104.209.13.39.155.572l.075.545c.05.363.022.698-.033 1.111-.055.413-.189.798-.217 1.134l-.054.154-.08.231-.027.077-.054.154-.107.308-.08.232-.028.077-.107.308-.027.077a1.984 1.984 0 0 1-.293.589l-.08.23-.081.232-.027.077-.16.204-.159.204c-.026.077-.053.154-.159.203l-.027.077-.027.077-.026.077c-.027.077-.133.127-.16.204l-.027.077-.478.611c-.16.204-.319.407-.584.66-.132.127-.265.254-.37.304l-.133.126-.106.05-.027.077.475-.094.475-.094c.106-.05.185-.022.29-.071l.714-.27.08.027.29-.072.184-.022c.29-.072.502-.17.792-.242.318-.15.608-.22.925-.37l.396-.12.212-.1.211-.1-.079-.027-.052-.104c.027-.077-.052-.105-.025-.182l.027-.077.027-.077-.026-.181.027-.077-.052-.105c.001-.259-.076-.545-.074-.803-.024-.44-.02-.958.009-1.552.03-.594.139-1.161.194-1.574.002-.258.109-.567.137-.902.08-.231.082-.49.19-.798.135-.644.429-1.233.669-1.668.08-.231.24-.435.399-.638l.027-.077c.026-.078.053-.155.159-.204l.054-.154c.053-.154.186-.281.318-.408.133-.126.265-.253.504-.43.08-.23.186-.28.265-.252l.027-.077.105-.05.08.028c.105-.05.29-.072.369-.045l.079.028c.184-.022.342.033.579.115.158.055.236.082.367.214.158.055.29.187.394.396l.078.028.105.209.052.104c.181.496.284.963.334 1.326.024.44.075.804.073 1.062-.054.154-.028.336-.082.49l-.054.154a7.053 7.053 0 0 1-.616 1.772c-.08.231-.24.435-.32.666l-.054.154c-.027.077-.054.155-.16.204l-.053.154c-.027.077-.08.231-.187.281-.186.28-.372.561-.531.765-.16.204-.346.484-.505.688-.16.204-.292.33-.425.457.106-.05.212-.099.344-.226.054-.154.265-.253.371-.303.079.028.106-.05.185-.022.105-.05.238-.176.423-.198l.317-.149.106-.05.66-.374.582-.143.66-.375.107-.05c.026-.076.105-.049.132-.126l.185-.022.132-.127c.106-.05.212-.099.344-.226l.106-.05c-.079-.027-.21-.158-.262-.263l-.104-.21-.052-.104-.156-.313c-.078-.286-.182-.495-.207-.677-.078-.286-.155-.572-.153-.83-.024-.44-.048-.881-.018-1.475.03-.595.139-1.161.22-1.651.083-.49.35-1.002.564-1.618.027-.077.054-.154.16-.204l.026-.077.027-.077c.027-.077.16-.204.186-.28.346-.485.665-.893 1.141-1.245l.106-.05.211-.099c.106-.05.185-.022.264.006.185-.022.37-.045.527.01l.237.083c.079.027.13.132.21.16.079.027.13.131.183.236l.052.104.208.418c.104.21.182.496.311.886.05.363.101.726.1.985.024.44-.032.853-.06 1.189a5.876 5.876 0 0 1-.563 1.618c-.08.23-.267.512-.347.743-.213.357-.453.792-.745 1.123-.027.077-.133.126-.186.28l.105-.05.106-.049c.027-.077.106-.05.133-.126.238-.177.582-.402.82-.579.027-.077.133-.126.239-.176l.026-.077.714-.27.715-.529c.026-.077.105-.05.132-.126l.027-.077.317-.149.344-.226c.106-.05.238-.176.344-.226l.027-.077c-.079-.027-.131-.132-.183-.236l-.052-.105-.209-.418c-.025-.181-.129-.39-.102-.467l-.052-.105-.052-.104.026-.077c-.025-.182-.129-.391-.127-.65-.051-.363-.05-.621-.075-.803.003-.517.007-1.035.062-1.447.028-.336.109-.567.164-.98.053-.154.055-.412.109-.567l.053-.154.242-.693c.107-.308.214-.617.374-.82.053-.154.08-.231.213-.358.053-.154.186-.28.318-.407.027-.077.106-.05.133-.127.106-.05.132-.127.211-.1l.212-.098c.184-.022.37-.045.475-.094.37-.044.712-.012.922.148.21.16.34.291.524.528l.156.313.079.028.104.209.052.105c.025.181.156.313.26.522.078.286.155.572.206.935-.002.26.023.44-.057.672l-.027.077c-.082.49-.216.875-.35 1.26-.161.462-.428.974-.694 1.486.105-.05.132-.127.238-.176l.027-.077.397-.38c.106-.05.133-.127.16-.204l.027-.077.132-.126.027-.077.106-.05.027-.077c.053-.154.213-.358.397-.38l.08-.231.133-.127c.398-.38.717-.787 1.009-1.117l-.08-.028-.157-.055c-.079-.027-.131-.132-.21-.16-.079-.027-.052-.104-.131-.131l-.052-.105-.156-.313-.157-.314c-.26-.522-.442-1.017-.623-1.513-.13-.39-.153-.83-.204-1.194-.025-.181.002-.258.055-.412-.025-.182.029-.336.055-.413l.161-.462.027-.077c.08-.232.294-.59.69-.71.211-.1.396-.122.502-.171l.079.027c.079.028.105-.05.184-.022.08.027.264.005.343.033.236.082.367.214.577.374.131.132.184.236.315.368.078.028.052.105.13.132l.209.418c.104.21.103.468.128.65.077.286.076.544-.005.775-.001.259-.109.567-.11.826l-.188.54c.027-.078.054-.155.16-.205l.345-.484.186-.28c-.079-.028-.052-.105-.025-.182l.054-.154.026-.077.027-.077.08-.232.027-.077.027-.077.08-.23c.108-.31.215-.617.19-.799.107-.308.162-.72.377-1.337l.027-.077.054-.154.107-.309c.053-.154.107-.308.24-.434.16-.204.24-.435.372-.562.16-.203.292-.33.477-.352.105-.05.184-.022.211-.1.106-.049.264.006.343.033l.236.083c.08.027.131.132.21.16.08.027.131.131.183.236.133-.127.106-.05.185-.022.077.286.155.572.153.83-.027.078-.001.26-.028.336l-.027.077c-.054.154-.002.259-.055.413l-.215.616c-.027.077-.08.232-.186.281-.027.077-.054.154-.16.204-.053.154-.159.203-.186.28l-.026.078c-.133.126-.292.33-.452.534-.132.126-.265.253-.503.429a7.497 7.497 0 0 0-.61.48c-.105.049-.238.175-.343.225-.106.05-.212.099-.396.121-.08-.027-.106.05-.158-.055l-.213.358-.4.638-.478.612c-.159.203-.318.407-.45.533-.028.078-.028.078-.133.127-.187.28-.452.534-.611.738-.027.077-.16.203-.186.28.238-.176.476-.352.688-.451l.105-.05c.318-.148.635-.297.9-.55l.025.181c.239-.176.661-.374 1.058-.496.317-.148.74-.347 1.215-.44l.554-.067c.105-.05.263.006.448-.017.237.083.473.165.656.402.053.104.105.209.078.286.052.104-.002.258.024.44l-.242.694-.027.077c-.134.385-.478.61-.822.836-.344.226-.688.452-1.11.65-.212.1-.318.149-.503.171l-.105.05a1.75 1.75 0 0 1-.581.143c-.212.1-.396.121-.58.144-.264-.006-.476.093-.66.115-.185.023-.37.045-.528-.01-.184.022-.342-.033-.5-.088l-.079-.028c-.079-.027-.158-.054-.264-.005-.078-.027-.184.022-.263-.005l-.079-.028c-.185.022-.421-.06-.58-.115-.078-.027-.13-.132-.21-.16-.159.204-.318.408-.556.584l-.69.71-.53.507-.265.253-.027.077-.133.127c-.132.126-.238.176-.37.303l-.027.077-.027.077c.027-.077.106-.05.211-.1.212-.099.423-.198.608-.22l.133-.126.184-.023c.106-.05.185-.022.29-.071 0 0 .08.027.106-.05.185-.022.396-.121.66-.116.475-.094 1.029-.16 1.477-.177.185-.022.448-.016.633-.039l.079.028c.185-.022.37-.044.606.038.264.005.5.088.764.093.158.055.394.138.604.297.08.028.052.105.131.132l.105.21c.052.104.025.18-.002.258-.027.077-.002.258-.028.335l-.134.386-.027.077c-.054.154-.186.28-.213.357-.186.281-.452.534-.717.788-.132.126-.344.225-.476.352l-.106.05c-.106.05-.133.126-.211.099-.212.099-.45.275-.662.374l-.027.077c-.105.05-.238.177-.422.199l-.318.148-.317.15-.317.148-.106.05-.106.05c-.184.021-.29.07-.29.07-.396.122-.871.216-1.267.337-.581.144-1.03.16-1.477.177l-.185.022c-.264-.005-.448.017-.712.012-.342-.033-.685-.066-.948-.071-.158-.055-.343-.033-.58-.116-.157-.055-.315-.11-.446-.242l-.158-.055-.079-.027-.079-.027-.079-.028c-.079-.027-.13-.132-.21-.16-.052-.104-.13-.131-.183-.236l-.132.127-.133.126-.106.05c-.026.077-.105.05-.132.127-.106.05-.239.176-.344.225l-.794.502c-.688.451-1.35.826-1.932 1.228-.026.077-.105.05-.105.05l-.106.049-.027.077-.027.077c.977-.265 2.058-.32 3.06-.403.633-.04 1.266-.078 1.741-.172l.264.005 1.344-.05c.264.006.5.088.685.066l.08.027c.157.055.236.083.42.06l.08.028.63.22c.238.082.447.242.578.374.08.027.131.132.262.264 0 0 .08.027.053.104l.104.21c.052.104.025.18-.002.258l-.027.077-.026.077-.08.231c-.081.231-.214.358-.268.512-.186.28-.424.457-.584.66l-.105.05c-.106.05-.212.1-.239.176l-.105.05-.317.149c-.212.099-.45.275-.74.347-.318.148-.608.22-.899.292-.58.143-1.213.182-1.767.248-.448.017-.897.034-1.476-.081-.527-.011-1.027-.099-1.606-.214-.685-.066-1.475-.34-2.237-.692a5.047 5.047 0 0 1-1.051-.539c-.079-.027-.131-.132-.21-.16l-.079-.027c-.079-.027-.21-.16-.289-.187-.079-.027-.052-.104-.13-.132l-.158-.055c-.08-.027-.053-.104-.131-.132l-1.058.496-.105.05-.318.148-.898.293-.211.099c-.502.17-1.03.418-1.533.59l-.105.049-.185.022-.317.149c-.079-.028-.106.05-.185.022.343.033.712-.012.976-.006l.263.005.421.06c.949.072 1.976.17 3.24.35.5.089 1.001.176 1.58.292l.237.082.08.028.394.137.078.027.08.028c.63.22 1.182.67 1.679 1.276.13.132.235.34.287.445l.052.105c.052.104.104.209.13.39l.075.545c-.026.077-.053.154-.001.259l-.027.077-.107.308c-.108.308-.452.534-.69.71-.132.127-.344.226-.476.352-.212.1-.318.15-.53.248l-.105.05c-.317.149-.686.193-1.082.314-.185.022-.476.094-.845.138-.079-.027-.184.022-.184.022l-.08-.027-.105.05c-.185.021-.264-.006-.448.016-.185.022-.37.044-.527-.01-.37.044-.791-.017-1.186-.154a4.144 4.144 0 0 1-1.341-.467c-.316-.11-.605-.297-.92-.407a8.05 8.05 0 0 1-1.287-.88c-.21-.159-.498-.346-.682-.582-.21-.16-.314-.369-.445-.5a2.605 2.605 0 0 0-.366-.474c-.079-.027-.052-.104-.13-.132a387.884 387.884 0 0 0-.418-.836l-.104-.209-.052-.105-.052-.104-.104-.21s.027-.076-.052-.104l-.212.1-.211.099-.106.05-.58.143s-.106.05-.133.126c-.106.05-.29.072-.554.067l-.185.022-.554.066c-.184.022-.29.072-.37.044l-.922.11-.185.023a.646.646 0 0 1-.448.017l-.185.022-.106.05-.078-.028c-.449.017-.924.11-1.45.1a6.912 6.912 0 0 1-.95-.071c-.157-.055-.342-.033-.5-.088l-.315-.11-.158-.055c-.237-.082-.5-.088-.658-.143l-.474-.164c-.079-.028-.158-.055-.21-.16-.052-.104-.025-.182.002-.259.027-.077.054-.154.16-.203.105-.05.184-.022.263.005l.71.247.237.083c.237.082.658.142 1.08.203.157.055.342.033.5.088.263.005.448-.017.606.038l.554-.067.292-.33.553-.066c.08.027.185-.022.264.005l.079.028.106-.05.079.028.079.027.105-.05.106-.05.554-.065c.106-.05.185-.023.29-.072l.106-.05.185-.022.105-.05c-.052-.104-.052-.104-.025-.181l-.052-.105c-.052-.104-.025-.181-.077-.286-.052-.104-.026-.181-.078-.286-.052-.104-.077-.286-.13-.39l.028-.077c-.052-.105-.026-.182-.104-.21-.105-.208-.103-.467-.101-.726-.078-.286-.076-.544-.048-.88.002-.259.03-.594.11-.826.11-.566.191-1.056.38-1.595.214-.617.296-1.107.483-1.646l.108-.308.053-.154.134-.386c.135-.385.32-.666.586-.919.292-.33.557-.583.822-.837.344-.225.555-.325.873-.473z"/></g><g><path fill="#d1f3f5" d="M30.017 16.346l-.315.092-.105.031c-.21.062-.384.056-.628.013-.174-.006-.312-.08-.45-.153a1.503 1.503 0 0 1-.482-.429c-.033-.104-.103-.141-.136-.245l-.033-.105-.067-.208-.033-.105c-.067-.208-.064-.38-.061-.552l.008-.515c.005-.344.08-.65.19-1.025.11-.375.29-.712.364-1.02l.071-.134.108-.203.036-.067.072-.135.143-.27.108-.203.036-.068.143-.27.036-.067c.072-.135.18-.338.356-.504l.108-.202.108-.203.036-.067.177-.166.176-.166c.036-.068.072-.135.177-.166l.036-.067.036-.068.036-.068c.036-.067.14-.098.177-.165l.036-.068.53-.497c.177-.166.354-.332.636-.529.14-.098.282-.196.387-.227l.14-.098.106-.031.035-.068-.453.02-.453.018c-.106.03-.175-.006-.28.025l-.7.148-.068-.037-.28.025-.174-.006c-.28.025-.49.086-.769.11-.315.093-.594.118-.91.21l-.383.056-.21.061-.21.062.068.037.034.104c-.036.067.033.104-.003.172l-.036.067-.036.068-.002.172-.036.067.033.105c-.038.239-.008.515-.046.754-.041.411-.118.89-.231 1.436-.113.547-.295 1.056-.405 1.43-.039.24-.182.51-.257.817-.107.202-.146.442-.29.712-.218.577-.574 1.08-.858 1.449-.108.202-.285.368-.462.534l-.036.068c-.035.067-.071.135-.176.165l-.072.135c-.072.136-.213.234-.354.332-.14.098-.282.197-.528.326-.107.202-.212.233-.282.196l-.035.068-.105.03-.07-.036c-.105.03-.279.025-.348-.012l-.07-.037c-.173-.006-.312-.08-.52-.19-.138-.073-.207-.11-.31-.25-.138-.074-.24-.215-.307-.424l-.069-.037-.066-.208-.033-.105a6.139 6.139 0 0 1-.12-1.276c.04-.41.046-.755.084-.994.072-.135.075-.307.146-.442l.072-.135a6.6 6.6 0 0 1 .826-1.553c.107-.203.284-.369.392-.571l.072-.135c.036-.068.071-.135.176-.166l.072-.135c.036-.068.108-.203.213-.233.213-.234.425-.467.602-.633.177-.166.39-.4.567-.565.176-.166.317-.264.458-.363-.105.031-.21.062-.35.16-.073.135-.283.197-.388.228-.069-.037-.105.03-.174-.006-.105.03-.246.129-.42.123l-.315.092-.105.03-.667.253-.558.05-.666.252-.105.03c-.036.068-.105.031-.141.099l-.175-.006-.14.098c-.105.031-.21.062-.351.16l-.106.03c.07.038.172.179.205.283l.067.209.033.104.1.313c.03.276.097.484.095.656.03.276.06.552.022.792-.04.41-.082.822-.195 1.368-.113.547-.295 1.056-.44 1.498-.147.442-.467.878-.754 1.418-.036.068-.072.135-.177.166l-.036.067-.036.068c-.036.068-.177.166-.213.233-.39.4-.743.731-1.235.99l-.105.03-.21.062c-.105.03-.174-.006-.243-.043-.175-.006-.349-.012-.487-.085l-.208-.11c-.069-.038-.102-.142-.171-.179-.07-.036-.103-.14-.136-.245l-.033-.104-.133-.417c-.067-.209-.098-.485-.162-.865.006-.344.01-.688.05-.927.04-.411.15-.786.225-1.093.182-.509.47-1.05.754-1.418.107-.202.32-.436.428-.638.248-.301.533-.67.85-.934.037-.067.142-.098.213-.233l-.105.03-.105.032c-.036.067-.105.03-.14.098-.247.129-.598.289-.844.418-.035.067-.14.098-.246.129l-.035.067-.7.148-.738.388c-.036.067-.105.03-.14.098l-.037.067-.315.093-.351.16c-.105.03-.246.129-.351.16l-.036.067c.07.037.103.141.136.245l.033.105.133.417c-.002.172.064.38.028.448l.033.104.034.104-.036.068c-.003.172.064.38.025.62-.005.343-.043.582-.046.754-.077.479-.154.958-.264 1.332-.075.307-.182.51-.293.884-.071.135-.11.374-.182.51l-.071.135-.323.607c-.144.27-.288.54-.464.706-.072.135-.108.203-.25.301-.07.135-.212.234-.353.332-.036.067-.105.03-.14.098-.106.031-.142.099-.21.062l-.21.061c-.175-.006-.35-.012-.454.02-.349-.013-.661-.092-.833-.27a2.368 2.368 0 0 1-.41-.564l-.1-.313-.069-.037-.066-.208-.033-.105c.002-.172-.1-.313-.167-.521-.03-.276-.061-.552-.056-.896.039-.24.041-.411.149-.614l.036-.067c.146-.442.325-.78.505-1.118.215-.405.535-.84.856-1.277-.105.031-.141.099-.246.13l-.036.067-.423.295c-.105.03-.14.098-.177.166l-.036.067-.14.099-.036.067-.105.03-.036.068c-.072.135-.249.301-.423.295l-.108.203-.14.098c-.424.295-.777.627-1.095.89l.07.038.138.073c.069.037.102.141.171.178.07.037.033.104.103.141l.033.104.1.313.1.313c.166.521.263 1.006.36 1.49.064.381.023.792.018 1.136-.003.172-.039.24-.11.374a.814.814 0 0 1-.11.375l-.216.405-.036.068c-.108.202-.356.503-.74.559-.21.061-.385.055-.49.086l-.069-.037c-.07-.037-.105.031-.174-.006-.07-.037-.244-.043-.313-.08-.207-.11-.31-.25-.481-.428-.103-.141-.136-.246-.238-.387-.07-.037-.034-.104-.103-.14l-.133-.418c-.067-.209-.028-.448-.025-.62-.031-.276.007-.515.115-.718.039-.24.182-.51.22-.749l.252-.472c-.036.067-.072.135-.177.166l-.39.399-.212.233c.069.037.033.104-.003.172l-.072.135-.036.068-.035.067-.108.203-.036.067-.036.068-.108.202c-.143.27-.287.54-.29.712-.143.27-.253.645-.54 1.185l-.036.068-.072.135-.143.27c-.072.135-.144.27-.285.368-.177.166-.284.369-.425.467-.177.166-.318.264-.492.258-.105.031-.175-.006-.21.062-.105.03-.244-.043-.313-.08l-.207-.11c-.07-.037-.103-.141-.172-.178-.07-.037-.102-.14-.136-.245-.14.098-.105.03-.174-.006-.03-.276-.061-.552-.023-.792.036-.067.039-.239.075-.307l.035-.067c.072-.135.039-.24.11-.375l.288-.54c.036-.067.108-.202.213-.233.035-.068.071-.135.176-.166.072-.135.177-.166.213-.233l.036-.068c.14-.098.318-.264.495-.43a4.36 4.36 0 0 1 .527-.326c.246-.129.492-.258.633-.356.105-.03.246-.13.351-.16.105-.03.21-.061.385-.055.069.036.105-.031.138.073l.249-.3.461-.535.53-.498c.177-.165.354-.331.495-.43.036-.067.036-.067.141-.098.213-.233.495-.43.671-.596.036-.067.177-.165.213-.233-.246.129-.492.258-.702.32l-.105.03c-.315.093-.63.185-.912.382l.002-.172c-.246.129-.666.252-1.05.308-.315.092-.735.215-1.189.234l-.523-.018c-.105.03-.243-.043-.417-.049-.208-.11-.415-.22-.55-.466-.034-.104-.067-.208-.032-.276-.033-.104.039-.24.042-.41.107-.204.215-.406.323-.609l.036-.067c.179-.338.53-.498.881-.658.351-.16.702-.32 1.122-.442.21-.062.315-.093.49-.087l.105-.03c.21-.062.384-.056.558-.05.21-.062.385-.056.559-.05.243.043.453-.019.628-.013.174.006.348.012.486.086.175.006.313.08.451.153l.07.037c.068.036.138.073.243.042.069.037.174.006.243.043l.07.037c.173.006.38.116.52.19.068.036.102.14.17.178.178-.166.355-.332.6-.461l.741-.56.564-.392.282-.197.036-.068.14-.098c.142-.098.247-.13.388-.227l.035-.068.036-.067c-.036.067-.105.03-.21.061-.21.062-.42.123-.594.117l-.141.099-.174-.006c-.105.03-.175-.006-.28.024 0 0-.069-.036-.105.031-.174-.006-.384.056-.627.013-.454.019-.977 0-1.394-.048-.174-.006-.418-.049-.592-.055l-.07-.036c-.173-.006-.348-.012-.555-.123-.243-.042-.45-.153-.694-.195a1.99 1.99 0 0 1-.518-.362c-.069-.037-.033-.104-.102-.14l-.067-.21c-.033-.104.003-.171.039-.239.036-.067.038-.24.074-.307l.18-.337.036-.068c.071-.135.212-.233.248-.3.213-.234.495-.43.777-.627.14-.099.35-.16.492-.259l.105-.03c.105-.031.14-.099.21-.062.21-.061.456-.19.666-.252l.036-.068c.105-.03.246-.129.42-.123l.315-.092.315-.092.316-.093.105-.03.105-.031c.174.006.279-.025.279-.025.384-.056.838-.074 1.222-.13.559-.05.976 0 1.394.048l.174.006c.243.043.418.049.66.091.313.08.626.16.87.202.138.074.312.08.52.19.138.073.276.147.378.288l.139.073.069.037.07.037.068.037c.07.036.103.14.172.177.033.105.102.142.136.246l.14-.099.142-.098.105-.03c.036-.068.105-.031.14-.099.106-.03.247-.129.351-.16l.808-.35c.702-.32 1.368-.572 1.965-.861.036-.068.105-.03.105-.03l.105-.032.036-.067.036-.068c-.943.106-1.952.002-2.893-.065-.591-.054-1.183-.109-1.637-.09l-.243-.043-1.253-.146c-.243-.043-.45-.153-.625-.159l-.07-.037c-.137-.073-.207-.11-.38-.116l-.07-.037-.553-.294a1.504 1.504 0 0 1-.482-.429c-.069-.037-.102-.141-.205-.282 0 0-.069-.037-.033-.104l-.067-.209c-.033-.104.003-.172.039-.24l.036-.067.036-.067.107-.203c.108-.202.249-.3.32-.436.214-.233.46-.362.636-.528l.105-.03c.105-.032.21-.062.246-.13l.105-.03c.105-.032.21-.062.316-.093.21-.062.456-.19.735-.216.315-.092.594-.117.874-.141.558-.05 1.15.005 1.673.023.417.048.835.097 1.355.287.487.085.937.238 1.457.428.626.159 1.317.527 1.973.962.346.183.656.435.897.65.069.036.102.14.171.177l.07.037c.068.037.17.178.24.214.07.037.033.105.102.142l.139.073c.069.037.033.104.102.141l1.05-.308.106-.03.315-.093.874-.142.21-.061c.49-.087 1.014-.24 1.504-.327l.105-.03.174.005.315-.092c.07.037.105-.03.174.006-.312-.08-.66-.091-.904-.134l-.243-.043-.382-.116a43.857 43.857 0 0 1-2.951-.79c-.451-.152-.902-.305-1.422-.495l-.208-.11-.069-.037-.346-.184-.069-.036-.069-.037c-.553-.294-.999-.79-1.373-1.423-.102-.14-.169-.35-.202-.453l-.033-.105c-.033-.104-.067-.208-.064-.38l.008-.516c.036-.067.072-.135.038-.239l.036-.067.144-.27c.143-.27.494-.43.74-.56.141-.098.351-.16.492-.258l.526-.154.105-.03c.315-.093.663-.08 1.047-.136.175.006.454-.02.802-.007.07.037.175.006.175.006l.069.037.105-.031c.174.006.243.042.417.048.175.006.349.012.487.086.349.012.73.128 1.076.312.382.116.797.337 1.176.625.277.147.517.361.794.508.379.288.791.68 1.065 1 .172.177.413.392.549.637.171.178.238.387.34.528.033.104.17.35.272.49.069.037.033.105.102.141l.067.21.2.625.066.208.033.105.033.104.067.209s-.036.067.033.104l.21-.062.21-.061.105-.031.559-.05s.105-.03.14-.098c.106-.03.28-.025.524.018l.174.006.522.018c.175.006.28-.025.349.012l.87.03.175.006a.606.606 0 0 1 .418.048l.174.006.105-.03.07.036c.417.05.87.03 1.357.116.243.043.487.085.868.202.139.073.313.079.451.153.07.036.208.11.277.147l.138.073c.208.11.451.153.59.227l.414.22c.07.037.139.074.172.178.033.104-.002.172-.038.24-.036.067-.072.134-.177.165-.105.03-.174-.006-.244-.043l-.622-.33-.208-.11c-.207-.111-.589-.227-.97-.344-.139-.073-.313-.079-.451-.153-.244-.042-.418-.048-.556-.122l-.523-.018-.318.265-.522-.018c-.07-.037-.175-.006-.244-.043l-.069-.037-.105.03-.07-.036-.068-.037-.105.031-.105.03-.523-.017c-.105.03-.174-.006-.28.025l-.104.03-.175-.006-.105.031c.034.105.034.105-.002.172l.033.104c.033.105-.003.172.03.276.034.105-.002.172.031.277.034.104.031.276.064.38l-.036.067c.034.105-.002.172.067.21.067.208.028.447-.01.686.03.276-.008.516-.083.823-.038.239-.113.546-.22.748-.182.51-.329.952-.58 1.425-.287.54-.433.982-.684 1.454l-.144.27-.072.136-.179.337c-.18.338-.392.571-.674.768-.318.264-.6.46-.882.657-.35.16-.56.222-.876.314z"/></g></g></svg>