<svg xmlns="http://www.w3.org/2000/svg" width="45" height="50" viewBox="0 0 45 50"><g><g><path fill="#f7f1cc" d="M8.625 30.052l.36-.344.12-.115c.239-.23.477-.343.835-.455.238-.114.476-.111.713-.109.356.004.711.123.947.242.118.117.237.118.354.235l.118.117.235.234.117.117c.235.235.352.468.468.7l.35.7c.232.466.346.93.459 1.511.113.581.107 1.16.22 1.625l-.002.232-.003.348-.001.116-.003.232-.004.463-.004.348-.001.116-.005.463-.001.116c-.002.232-.006.58-.128.926l-.004.348-.003.348-.001.116-.123.346-.122.347c-.001.116-.002.231-.122.346l-.001.116-.001.116-.002.116c0 .116-.12.23-.122.346l-.001.116-.367 1.04c-.122.346-.244.693-.486 1.154-.121.23-.242.461-.362.576l-.121.23-.12.115-.001.116.597-.341.597-.342c.12-.115.238-.114.358-.228l.838-.687h.119l.358-.227.239-.114c.358-.228.598-.457.957-.686.36-.344.718-.572 1.077-.916l.479-.343.24-.23.24-.229-.12-.001-.117-.117c.001-.116-.117-.117-.116-.233v-.116l.002-.116-.116-.233v-.116l-.117-.117c-.115-.349-.349-.699-.464-1.048a21.515 21.515 0 0 1-.691-2.093c-.23-.814-.34-1.627-.452-2.207-.116-.35-.11-.813-.225-1.278.004-.347-.112-.696-.107-1.16-.11-.928.019-1.854.145-2.549.003-.347.125-.694.248-1.04v-.116c.002-.116.003-.232.123-.347l.002-.232c.003-.231.124-.462.245-.693a6.59 6.59 0 0 1 .483-.806c.004-.348.123-.463.242-.461l.001-.116.12-.115.119.001c.12-.114.358-.228.477-.227l.119.001c.238-.113.476-.11.832-.107.237.002.356.004.592.122.238.002.474.12.709.355l.119.001.235.234.117.117c.47.585.82 1.168 1.052 1.634.232.582.464 1.048.58 1.397-.003.232.114.465.111.696l-.002.232c.11.813.101 1.74-.027 2.666-.004.348-.126.694-.13 1.042l-.002.232c0 .116-.002.232-.122.346l-.002.232c-.002.116-.004.348-.124.463-.123.462-.247.924-.369 1.27-.122.347-.245.81-.368 1.156a5.592 5.592 0 0 1-.364.808c.12-.115.24-.23.36-.46.003-.232.243-.461.363-.576.118.001.12-.115.238-.113.12-.115.241-.346.48-.46l.36-.343.12-.115.72-.804.717-.456.72-.805.12-.114c.001-.116.12-.115.121-.23l.239-.114.12-.231c.12-.115.24-.23.362-.46l.12-.115c-.12 0-.355-.12-.473-.236L25 30.913l-.117-.117-.353-.351c-.234-.35-.469-.584-.585-.817-.234-.35-.468-.7-.583-1.05a18.487 18.487 0 0 1-.693-1.977c-.229-.814-.34-1.626-.45-2.323-.112-.697.014-1.507.024-2.434.001-.116.002-.232.122-.347l.001-.115.001-.116c.002-.116.123-.347.124-.463.245-.809.49-1.502.972-2.192l.12-.115.24-.23c.12-.114.238-.113.357-.112.238-.113.477-.227.714-.224.12 0 .238.002.357.003.118.002.236.119.355.12.118.001.236.118.353.235l.118.117.47.469c.235.234.469.584.82 1.051.233.466.466.932.58 1.281.232.582.345 1.163.46 1.628.11.812.1 1.74-.025 2.434-.004.347-.127.81-.13 1.158-.125.578-.251 1.272-.495 1.85 0 .115-.12.23-.123.462l.12-.115.12-.115c0-.116.12-.114.12-.23.242-.346.603-.806.844-1.15 0-.117.12-.231.24-.346l.002-.116.838-.687.722-1.036c.002-.116.12-.115.122-.23v-.116l.36-.345.361-.46c.12-.114.241-.345.361-.46l.001-.116c-.118 0-.236-.118-.354-.235l-.117-.117-.47-.468c-.116-.234-.352-.468-.35-.584l-.118-.117-.117-.117v-.116c-.116-.233-.35-.467-.466-.816-.233-.466-.348-.815-.464-1.048-.23-.698-.46-1.395-.574-1.976-.114-.465-.11-.813-.223-1.393.002-.232-.113-.581-.11-.813l.002-.232.01-1.043c.005-.464.01-.927.132-1.274.002-.232.004-.347.125-.578.002-.232.123-.462.244-.693.001-.116.12-.115.121-.23.12-.115.121-.231.24-.23l.24-.23c.238-.113.477-.226.597-.341.477-.227.953-.338 1.308-.219.355.12.591.238.945.474l.353.35.118.002.235.234.118.117c.116.233.352.352.587.586.234.35.468.7.701 1.166.115.35.232.582.228.93l-.001.116c.111.696.106 1.276.1 1.855-.007.696-.134 1.506-.261 2.316.12-.115.12-.23.24-.345l.002-.116.363-.692c.12-.115.121-.23.122-.346l.001-.116.122-.231v-.116l.12-.115.002-.115c.002-.232.124-.579.363-.692l.003-.348.122-.23c.363-.692.607-1.385.85-1.963h-.118l-.238-.003c-.118-.001-.236-.118-.355-.12-.118 0-.117-.117-.236-.118l-.117-.117-.353-.351-.353-.352c-.587-.585-1.056-1.17-1.525-1.754-.352-.467-.583-1.05-.816-1.515-.116-.233-.115-.35-.113-.58-.116-.234-.114-.466-.112-.582l.007-.695v-.116c.004-.348.129-.926.607-1.269.24-.23.479-.343.599-.457h.118c.119.002.12-.114.239-.113.119.001.357-.112.476-.11.356.003.592.121.947.24.236.119.354.236.59.354.119.002.118.117.236.119l.47.468c.236.234.35.583.467.816.234.35.35.7.346 1.047.115.349.11.813.225 1.161l-.008.812c.001-.116.002-.232.122-.347l.246-.809.123-.462c-.118-.001-.117-.117-.116-.233l.002-.232.002-.116v-.116l.004-.347.001-.116.002-.116.003-.348c.005-.464.01-.927-.107-1.16.005-.464-.108-1.044-.098-1.972v-.116l.003-.231.005-.464c.002-.232.004-.464.126-.694.122-.347.125-.694.246-.925.123-.347.244-.577.482-.69.12-.115.239-.114.24-.23.12-.115.357-.112.476-.111l.356.003c.119.002.236.119.355.12.119.001.236.118.354.235.12-.23.12-.114.238-.113.234.35.468.7.583 1.049 0 .116.116.349.114.465v.116c-.003.232.114.349.112.58l-.01.928c0 .116-.003.347-.123.462-.001.116-.002.232-.122.347-.002.231-.122.346-.123.462l-.002.116c-.12.23-.243.577-.365.924-.121.23-.242.46-.483.806-.241.345-.482.69-.603.921-.12.115-.241.346-.361.46-.12.115-.24.23-.478.343-.12-.001-.12.115-.238-.002l-.124.578-.248 1.04-.367 1.04c-.122.347-.245.693-.366.924 0 .116 0 .116-.12.23-.124.463-.366.924-.488 1.27-.002.117-.123.347-.124.463.241-.345.482-.69.722-.92l.12-.115c.36-.344.719-.688.961-1.149l.116.233c.241-.345.72-.804 1.2-1.147.359-.344.838-.803 1.436-1.145l.715-.34c.12-.115.358-.112.596-.226.356.004.712.007 1.066.243.118.117.235.234.234.35.118.117.115.349.232.582l-.011 1.043-.001.116c-.006.58-.367 1.04-.728 1.5-.36.46-.721.92-1.2 1.378-.24.23-.36.344-.6.458l-.119.115c-.24.229-.478.342-.717.456-.24.23-.478.343-.717.456-.357.113-.597.342-.836.456-.238.113-.477.227-.714.224-.239.114-.476.111-.714.109l-.118-.001c-.119-.002-.238-.003-.358.112-.118-.001-.238.113-.357.112l-.119-.001c-.238.113-.594.11-.832.107-.118 0-.236-.118-.355-.12-.122.347-.244.694-.485 1.04l-.607 1.268-.484.923-.242.46-.001.117-.121.23c-.121.23-.241.346-.362.576l-.001.116-.001.116c0-.116.12-.115.24-.23.239-.229.479-.458.717-.572l.121-.23.24-.114c.119-.114.238-.113.358-.228 0 0 .118.001.12-.115.238-.113.478-.343.835-.455a14.315 14.315 0 0 1 1.909-.908c.238-.113.596-.226.834-.339l.119.001c.239-.113.477-.227.833-.223.358-.113.714-.109 1.071-.221.237.002.594.006.948.125.12.001.118.117.237.119l.235.234c.117.117.116.233.115.349-.001.116.115.349.114.465l-.006.58-.001.115c-.002.232-.124.462-.125.578-.123.463-.365.924-.607 1.385-.121.23-.361.46-.482.69l-.12.116c-.12.114-.121.23-.24.229-.24.23-.48.575-.72.804l-.002.116c-.12.115-.24.345-.48.459l-.359.344-.36.344-.359.344-.12.115-.12.114c-.238.114-.358.229-.358.229-.479.343-1.076.684-1.554 1.027-.717.456-1.313.682-1.909.908l-.238.113c-.358.113-.596.226-.954.339-.476.11-.952.222-1.309.334-.237-.002-.476.111-.832.108-.237-.003-.475-.005-.711-.124-.119 0-.119 0-.237-.002l-.12-.001-.118-.001-.119-.002c-.118 0-.236-.118-.354-.12-.118-.116-.237-.117-.354-.235l-.121.231-.121.23-.12.115c-.001.116-.12.115-.121.23-.12.116-.241.346-.361.461l-.842 1.035c-.721.92-1.442 1.724-2.044 2.53 0 .115-.12.114-.12.114l-.12.114v.116l-.002.116c1.196-.799 2.626-1.364 3.938-1.93.834-.34 1.669-.679 2.266-1.02l.357-.113 1.788-.677c.357-.113.713-.109.952-.222h.118c.238.003.356.004.595-.11l.119.002.95.01c.355.003.71.123.947.241.118.001.236.119.472.237 0 0 .119.001.118.117l.235.234c.117.117.116.233.115.35l-.001.115-.001.116-.004.348c-.003.347-.125.578-.127.81-.123.462-.364.807-.487 1.154l-.12.115c-.12.114-.24.229-.24.345l-.12.115-.36.344c-.24.23-.48.575-.84.803-.359.344-.717.572-1.076.8-.717.457-1.551.796-2.267 1.136-.596.226-1.192.452-2.024.56-.714.224-1.428.333-2.26.44-.952.222-2.139.21-3.325.082-.593-.006-1.186-.128-1.66-.248-.118-.002-.236-.119-.354-.12l-.12-.001c-.118-.001-.354-.12-.473-.12-.118-.002-.117-.118-.236-.12-.119 0-.119 0-.237-.002-.12 0-.118-.117-.237-.118l-1.199 1.147-.12.115-.359.344-1.077.8-.24.23c-.598.457-1.197 1.03-1.795 1.489l-.12.114-.239.114-.36.344c-.118-.001-.12.114-.238.113.476-.11.953-.338 1.31-.45l.358-.112.595-.11a66.372 66.372 0 0 1 4.521-.998c.713-.108 1.427-.217 2.259-.324.119 0 .237.002.356.003l.119.001.593.006.119.002h.119c.95.01 1.895.368 2.84.957.235.118.47.353.588.47l.118.117c.117.117.235.234.351.467l.35.699c-.002.116-.003.232.114.349v.116l-.006.463c-.004.464-.365.924-.606 1.27-.121.23-.36.46-.482.69l-.6.573-.12.115c-.359.344-.836.571-1.314.914-.239.114-.597.342-1.075.569-.118-.001-.238.113-.238.113h-.119l-.12.114c-.238.113-.357.112-.596.226-.238.113-.477.227-.714.224-.478.227-1.072.337-1.666.331-.594.11-1.307.103-2.018-.02-.475-.005-.948-.126-1.423-.13a11.451 11.451 0 0 1-2.131-.602c-.355-.12-.829-.24-1.182-.476-.355-.12-.59-.353-.827-.472-.117-.117-.47-.352-.707-.47-.119-.002-.118-.118-.236-.119l-.235-.234-.706-.703-.235-.234-.117-.117-.118-.117-.235-.234s.001-.116-.117-.118l-.24.23-.24.23-.12.114-.717.456s-.12.115-.12.231c-.12.115-.36.228-.717.34l-.238.114-.716.34c-.238.114-.358.229-.477.227l-1.193.568-.239.113a.919.919 0 0 1-.596.226l-.238.114-.12.114H6.78c-.596.225-1.193.567-1.907.791-.358.113-.715.225-1.31.335-.237-.003-.476.11-.713.108-.119 0-.356-.003-.475-.004l-.237-.003c-.356-.003-.714.109-.951.106l-.712-.007c-.119-.001-.238-.002-.355-.12-.118-.116-.117-.232-.115-.348 0-.116.002-.232.122-.347.12-.114.238-.113.357-.112l1.068.01.357.004c.356.004.95-.106 1.545-.216.238.003.476-.11.714-.108.357-.113.595-.226.833-.224l.716-.34.243-.577.716-.34c.118 0 .238-.114.357-.113l.119.001.12-.115.118.002h.119l.12-.114.12-.115.716-.34c.12-.115.238-.114.358-.228l.12-.115.238-.114.12-.114c-.117-.117-.117-.117-.116-.233l-.118-.117c-.117-.117-.116-.233-.233-.35-.118-.118-.117-.233-.234-.35-.118-.118-.234-.35-.352-.468l.001-.116c-.117-.117-.116-.233-.235-.234-.235-.234-.35-.583-.465-.932-.234-.35-.35-.7-.463-1.164-.115-.349-.23-.814-.226-1.161-.11-.813-.222-1.51-.214-2.32.01-.928-.102-1.625-.094-2.436l.005-.464.002-.231.006-.58c.006-.58.13-1.042.372-1.503.243-.577.485-1.038.727-1.5.361-.46.6-.69.96-1.033z"/></g></g></svg>