<svg width="375" height="210" viewBox="0 0 375 210" fill="none" xmlns="http://www.w3.org/2000/svg">
<path d="M-91.3139 69.9646C-90.4601 57.0203 -86.6179 44.5019 -82.5195 32.1537C-75.6035 11.5451 -67.3214 -8.9784 -53.5748 -25.84C-39.8283 -42.7016 -19.7634 -55.5607 2.00916 -55.9865C13.9627 -56.242 25.7455 -52.8356 36.6744 -48.0667C45.2981 -44.3197 53.7509 -39.5507 60.1546 -32.5676C65.9606 -26.2658 69.8028 -18.4311 72.962 -10.4261C83.9763 17.8469 86.2817 50.974 72.1936 77.8845C62.3746 96.4493 45.3835 110.756 26.5993 120.294C7.72979 129.832 -13.0182 134.941 -33.7661 138.688C-42.8167 140.307 -52.1233 141.754 -61.2593 140.562C-66.7237 139.881 -76.6281 136.985 -80.7265 131.961C-90.4601 120.124 -93.5338 103.262 -91.3139 69.9646Z" fill="#F4D3FC"/>
<path d="M16.8084 105.721C16.3784 104.662 15.1124 104.209 14.1651 104.726C11.1876 105.992 8.14652 107.569 5.32834 109.321C4.38098 109.838 4.03879 111.192 4.75541 112.115C4.89078 112.402 5.00225 112.49 5.22519 112.665C5.894 113.19 6.80161 113.182 7.46237 112.8C10.0815 111.072 12.836 109.631 15.7259 108.476C16.7608 107.847 17.1269 106.692 16.8084 105.721Z" fill="#F2E96C"/>
<path d="M19.8435 123.427C19.9789 123.714 20.2018 123.889 20.4248 124.064C20.9821 124.502 21.8022 124.605 22.5744 124.311C23.5217 123.793 23.9754 122.527 23.4578 121.58C22.5102 119.574 21.8492 117.432 21.6738 115.131C21.6419 114.024 20.6386 113.236 19.532 113.268C18.4254 113.3 17.6373 114.304 17.6692 115.41C17.8049 118.221 18.5376 120.959 19.8435 123.427Z" fill="#DEF9FA"/>
<path d="M2.40856 129.559C2.85443 129.909 3.47543 130.037 4.07253 129.965C6.83509 129.431 9.50204 128.102 11.7231 126.421C12.6466 125.705 12.7022 124.487 12.097 123.651C11.3804 122.727 10.1623 122.672 9.32641 123.277C7.56706 124.599 5.47332 125.658 3.30786 126.12C2.22513 126.351 1.54851 127.442 1.7795 128.524C1.71584 128.835 2.07415 129.297 2.40856 129.559Z" fill="#F2E96C"/>
<path d="M-3.18597 152.743C-2.20666 153.332 -0.924907 153.078 -0.423423 152.21C0.165625 151.23 -0.0892732 149.949 -0.957119 149.447C-3.58456 147.744 -5.42391 145.037 -6.18054 142.099C-6.41153 141.017 -7.58988 140.451 -8.67262 140.682C-9.75535 140.913 -10.3205 142.092 -10.0895 143.174C-9.17359 146.598 -7.0635 149.878 -4.27677 152.067C-3.96627 152.13 -3.52038 152.481 -3.18597 152.743Z" fill="#DBB2D2"/>
<path d="M13.8587 145.043C12.7837 143.658 12.1944 142.113 11.9793 140.322C11.9473 139.215 10.9441 138.427 9.83749 138.459C8.73085 138.491 7.94276 139.494 7.97472 140.601C8.17401 143.101 9.16943 145.505 10.7141 147.44C10.8256 147.527 10.9371 147.615 11.0485 147.702C11.7174 148.228 12.7364 148.307 13.5723 147.702C14.3206 147.208 14.5753 145.966 13.8587 145.043Z" fill="#F2E96C"/>
<path d="M38.3707 133.114C38.7051 133.377 39.2386 133.616 39.8357 133.544C40.9423 133.512 41.7304 132.509 41.6984 131.402L41.2918 125.495C41.2598 124.388 40.2566 123.6 39.15 123.632C38.0433 123.664 37.2553 124.667 37.2872 125.774L37.6939 131.681C37.7656 132.278 37.9248 132.764 38.3707 133.114Z" fill="#F2E96C"/>
<path d="M28.8326 131.029C28.4026 129.971 27.1367 129.517 26.1894 130.034L22.8377 131.547C21.7789 131.978 21.3252 133.243 21.8428 134.191C21.9782 134.477 22.1136 134.764 22.448 135.027C23.0053 135.465 23.8254 135.568 24.5976 135.273L27.9492 133.76C28.8966 133.243 29.3502 131.977 28.8326 131.029Z" fill="#DBB2D2"/>
<path d="M18.7728 164.946C17.9687 164.134 17.5147 162.876 17.7933 161.833C18.0718 160.79 17.3313 159.668 16.2883 159.389C15.2453 159.111 14.1229 159.851 13.8443 160.894C13.335 163.378 14.1792 166.205 16.0981 167.892L16.2096 167.98C16.9898 168.593 18.2955 168.537 18.9085 167.757C19.609 166.865 19.4656 165.671 18.7728 164.946Z" fill="#DEF9FA"/>
<path d="M2.06409 108.199L-0.28507 102.928C-0.715093 101.87 -1.981 101.416 -2.92836 101.934C-3.98719 102.364 -4.44087 103.629 -3.92328 104.577L-1.57413 109.847C-1.43875 110.134 -1.30339 110.42 -0.96898 110.683C-0.411635 111.121 0.408409 111.224 1.18064 110.93C1.92896 110.436 2.49411 109.258 2.06409 108.199Z" fill="#F9D9E3"/>
<path d="M30.6859 112.837C30.471 113.57 30.8771 114.43 31.4345 114.867C31.6574 115.043 31.8803 115.218 32.1908 115.281C33.2338 115.56 34.3563 114.819 34.5234 113.689L34.969 111.515C35.2476 110.472 34.507 109.35 33.3765 109.183C32.3335 108.904 31.211 109.645 31.044 110.775L30.6859 112.837Z" fill="#F2E96C"/>
<path d="M9.63414 95.5791C9.68195 95.9772 9.92879 96.3513 10.2632 96.614C10.7091 96.9643 11.4415 97.1792 12.1262 96.996C13.2089 96.765 13.7741 95.5866 13.5431 94.5039C12.8104 91.7652 12.6508 88.7558 13.4228 85.9374C13.7014 84.8944 13.0723 83.8595 11.9179 83.4934C10.8749 83.2149 9.7285 83.7563 9.47386 84.9984C8.46309 88.3502 8.60676 92.0682 9.63414 95.5791Z" fill="#DEF9FA"/>
<path d="M62.8211 141.686C63.4102 140.707 63.0677 139.537 62.176 138.836C59.7714 137.308 57.0167 136.225 54.1983 135.453C53.1553 135.175 52.0328 135.915 51.7542 136.958C51.5394 137.691 51.9455 138.551 52.5028 138.988C52.7258 139.164 52.9487 139.339 53.2592 139.402C55.6557 140.023 57.9885 140.954 60.0586 142.22C60.9503 142.921 62.2321 142.666 62.8211 141.686Z" fill="#F9D9E3"/>
<path d="M62.0557 130.27C63.1384 130.039 63.9265 129.036 63.6955 127.953C63.4645 126.87 62.4613 126.082 61.3786 126.313L55.5669 127.516C54.4841 127.747 53.696 128.75 53.927 129.833C54.0863 130.318 54.3331 130.692 54.6675 130.955C55.1134 131.305 55.7344 131.433 56.3315 131.361L62.0557 130.27Z" fill="#DBB2D2"/>
<path d="M47.1791 101.794C47.3563 102.923 48.4853 103.654 49.5258 103.366C52.7135 102.812 56.0341 101.971 59.1775 100.908C60.218 100.62 60.8599 99.3801 60.3728 98.3176C60.3063 98.0076 60.2178 97.897 60.0406 97.6756C59.5093 97.0115 58.6238 96.8123 57.8933 97.0338C54.949 98.1188 51.9384 98.8938 48.8613 99.359C47.7102 99.7354 47.0904 100.776 47.1791 101.794Z" fill="#F2E96C"/>
<path d="M48.2624 83.8627C48.1959 83.5528 48.0188 83.3314 47.8417 83.11C47.3989 82.5566 46.6241 82.2689 45.805 82.3797C44.7645 82.6675 44.0341 83.7966 44.322 84.8371C44.787 87.0065 44.9422 89.2424 44.5882 91.5226C44.3669 92.6073 45.1639 93.6034 46.2487 93.8247C47.3334 94.046 48.3295 93.249 48.5508 92.1642C49.0598 89.397 48.971 86.5634 48.2624 83.8627Z" fill="#DEF9FA"/>
<path d="M66.6364 81.8688C66.2821 81.426 65.7066 81.1604 65.1088 81.0941C62.2974 80.9836 59.3974 81.6701 56.8517 82.7993C55.7891 83.2864 55.4572 84.4598 55.8557 85.4116C56.3428 86.4742 57.5161 86.8062 58.468 86.4076C60.4825 85.5219 62.7626 84.9683 64.9763 85.0124C66.0832 85.0345 66.9908 84.1268 67.0128 83.0199C67.1456 82.7321 66.9021 82.2008 66.6364 81.8688Z" fill="#F2E96C"/>
<path d="M85.0993 85.4315C85.0329 85.1216 84.9443 85.0109 84.7672 84.7895C84.2358 84.1254 83.461 83.8377 82.6198 84.1477C80.1183 84.8785 77.6168 85.6092 75.0489 86.03C73.9199 86.2072 73.3001 87.2477 73.3888 88.266C73.566 89.395 74.6065 90.0148 75.6248 89.9262C78.392 89.5275 81.0927 88.8189 83.8155 87.911C84.856 87.6231 85.4978 86.3834 85.0993 85.4315Z" fill="#DEF9FA"/>
<path d="M77.3713 60.5717C76.5522 59.7748 75.2461 59.7307 74.5599 60.4613C73.763 61.2804 73.7188 62.5865 74.4494 63.2728C76.6191 65.5306 77.7926 68.5855 77.8593 71.6183C77.8372 72.7252 78.8556 73.5442 79.9625 73.5663C81.0694 73.5883 81.8884 72.5699 81.9104 71.463C81.7994 67.921 80.493 64.2463 78.2791 61.4793C77.9913 61.3465 77.637 60.9038 77.3713 60.5717Z" fill="#DBB2D2"/>
<path d="M59.0196 64.1816C59.7503 65.7755 59.9718 67.4136 59.7727 69.2068C59.5514 70.2915 60.3484 71.2877 61.4332 71.5089C62.5179 71.7302 63.5141 70.9332 63.7353 69.8484C64.1115 67.369 63.6907 64.8011 62.6279 62.5653C62.5393 62.4546 62.4508 62.3439 62.3622 62.2332C61.8308 61.5692 60.8568 61.2593 59.9049 61.6579C59.0637 61.9679 58.5325 63.1191 59.0196 64.1816Z" fill="#F2E96C"/>
<path d="M32.4329 70.2051C32.1672 69.873 31.7023 69.5189 31.1046 69.4525C30.0198 69.2312 29.0237 70.0282 28.8024 71.113L27.851 76.9574C27.6297 78.0421 28.4267 79.0383 29.5115 79.2596C30.5962 79.4808 31.5923 78.6838 31.8136 77.5991L32.7651 71.7547C32.8314 71.1569 32.7871 70.6478 32.4329 70.2051Z" fill="#F2E96C"/>
<path d="M41.2441 74.4105C41.4213 75.5395 42.5503 76.2699 43.5908 75.9821L47.1991 75.2734C48.3281 75.0962 49.0586 73.9671 48.7707 72.9267C48.7043 72.6168 48.6378 72.3068 48.3722 71.9748C47.9294 71.4214 47.1545 71.1337 46.3355 71.2444L42.7271 71.9531C41.6866 72.241 40.9562 73.3701 41.2441 74.4105Z" fill="#DBB2D2"/>
<path d="M92.6469 68.3186C92.8241 69.4476 93.7539 70.1559 94.8829 69.9787L99.4875 69.3807C100.616 69.2035 101.325 68.2736 101.148 67.1446C101.081 66.8347 100.926 66.4141 100.749 66.1928C100.306 65.6394 99.5314 65.3516 98.9116 65.4845L94.307 66.0826C93.2887 66.1712 92.5583 67.3003 92.6469 68.3186Z" fill="#F9D9E3"/>
<path d="M58.7745 43.6822C59.3723 44.6562 59.5273 45.9844 59.0182 46.9364C58.5092 47.8884 58.9741 49.1502 59.9261 49.6592C60.8781 50.1683 62.1399 49.7033 62.6489 48.7514C63.7114 46.449 63.534 43.5047 62.0506 41.4239L61.9621 41.3132C61.3422 40.5385 60.0582 40.2951 59.2834 40.915C58.398 41.6234 58.2652 42.8189 58.7745 43.6822Z" fill="#DEF9FA"/>
<path d="M62.0999 102.745L63.1851 108.412C63.3623 109.541 64.4913 110.271 65.5318 109.984C66.6608 109.806 67.3912 108.677 67.1034 107.637L66.0182 101.97C65.9517 101.66 65.8853 101.35 65.6196 101.018C65.1768 100.464 64.402 100.177 63.5829 100.287C62.7417 100.597 61.9227 101.616 62.0999 102.745Z" fill="#F9D9E3"/>
<path d="M35.2904 91.7004C35.6667 91.0363 35.4674 90.1065 35.0246 89.5531C34.8475 89.3317 34.6704 89.1104 34.3826 88.9776C33.4306 88.4685 32.1688 88.9335 31.7483 89.9961L30.8187 92.0107C30.3096 92.9626 30.7746 94.2245 31.8372 94.645C32.7892 95.1541 34.051 94.6891 34.4715 93.6264L35.2904 91.7004Z" fill="#F2E96C"/>
<path d="M79.8982 99.5778C78.4813 97.8069 76.7323 96.3017 74.7398 95.1728C73.7879 94.6637 72.5482 94.9295 72.0391 95.8814C71.53 96.8334 71.7958 98.0731 72.7477 98.5822C74.4524 99.5782 75.9136 100.951 77.1534 102.5C77.8618 103.386 79.0573 103.518 80.0313 102.921C80.9167 102.212 81.0495 101.017 80.4517 100.043C80.2524 100.02 80.0753 99.7991 79.8982 99.5778Z" fill="#DBB2D2"/>
<path d="M51.851 113.305C51.8953 112.907 51.7403 112.486 51.4746 112.154C51.1204 111.711 50.4562 111.335 49.7478 111.357C48.6409 111.335 47.8219 112.354 47.7999 113.461C47.8887 116.294 47.3576 119.261 45.9631 121.829C45.4541 122.781 45.8305 123.932 46.871 124.552C47.8229 125.061 49.0626 124.795 49.5938 123.644C51.3425 120.611 52.0506 116.958 51.851 113.305Z" fill="#DEF9FA"/>
<path d="M93.1568 78.2583C92.9355 79.3431 93.4226 80.4056 94.4853 80.8261C97.5182 81.6671 100.905 82.0432 104.071 81.6887C105.2 81.5115 105.908 80.5817 105.93 79.4748C105.974 79.0763 105.709 78.7443 105.443 78.4123C105 77.8589 104.425 77.5933 103.606 77.704C100.949 78.0141 98.1598 77.7045 95.614 77.0184C94.662 76.5093 93.5773 77.1957 93.1568 78.2583Z" fill="#F2E96C"/>
<path d="M89.5238 47.3989C90.0552 48.9706 90.0554 50.7859 89.3914 52.2249C88.9708 53.2875 89.3473 54.4386 90.4099 54.8591C91.4725 55.2797 92.6236 54.9032 93.0442 53.8406C94.1287 51.339 94.2613 48.3283 93.3313 45.8047C93.2428 45.694 93.1763 45.3841 93.0877 45.2734C92.5564 44.6093 91.5823 44.2995 90.7411 44.6094C89.6786 45.0966 89.2359 46.3584 89.5238 47.3989Z" fill="#DBB2D2"/>
<path d="M10.5821 56.2824C9.78523 57.1015 9.85173 58.3191 10.5602 59.2045C12.5527 61.241 14.988 62.9233 17.5561 64.3177C18.508 64.8268 19.7698 64.3618 20.2789 63.4099C20.6552 62.7457 20.4559 61.8159 20.0131 61.2625C19.836 61.0412 19.6589 60.8198 19.3711 60.687C17.1794 59.536 15.1204 58.0973 13.3936 56.3928C12.6851 55.5074 11.379 55.4632 10.5821 56.2824Z" fill="#F9D9E3"/>
<path d="M8.72346 67.5726C7.61658 67.5506 6.62046 68.3476 6.59841 69.4545C6.57636 70.5614 7.37339 71.5575 8.48027 71.5796L14.4131 71.734C15.52 71.7561 16.5161 70.9591 16.5382 69.8522C16.4939 69.343 16.3389 68.9224 16.0732 68.5904C15.719 68.1477 15.1434 67.882 14.5456 67.8157L8.72346 67.5726Z" fill="#DBB2D2"/>
<path d="M111.065 62.2957C111.773 63.1812 113.079 63.2253 113.876 62.4062C115.116 61.2328 116.82 60.4136 118.503 59.7936C119.543 59.5057 120.185 58.266 119.897 57.2255C119.831 56.9156 119.654 56.6942 119.565 56.5836C119.034 55.9195 118.259 55.6317 117.418 55.9417C115.226 56.606 113.079 57.7795 111.286 59.3957C110.489 60.2148 110.445 61.5209 111.065 62.2957Z" fill="#F9D9E3"/>
<path d="M102.563 48.0398C101.766 48.859 101.633 50.0544 102.452 50.8513C103.272 51.6482 104.467 51.7809 105.264 50.9617C107.057 49.3455 108.673 47.508 110.023 45.3384C110.51 44.5857 110.421 43.5674 109.89 42.9033C109.801 42.7926 109.624 42.5713 109.425 42.5491C108.584 41.9515 107.256 42.1066 106.636 43.1471C105.529 44.9403 104.135 46.6007 102.563 48.0398Z" fill="#F2E96C"/>
<path d="M296.579 46.6567C296.776 45.531 295.944 44.4749 294.866 44.4111C291.67 43.9051 288.256 43.6285 284.938 43.6187C283.86 43.5549 282.852 44.5208 282.97 45.6838C282.933 45.9985 282.981 46.1319 283.077 46.3986C283.365 47.1987 284.139 47.6734 284.901 47.6998C288.038 47.6244 291.138 47.8637 294.2 48.4178C295.411 48.4335 296.334 47.649 296.579 46.6567Z" fill="#F2E96C"/>
<path d="M289.76 63.2763C289.723 63.5911 289.819 63.8578 289.915 64.1245C290.155 64.7913 290.795 65.3139 291.606 65.4738C292.684 65.5375 293.74 64.7051 293.804 63.6274C294.065 61.4241 294.64 59.258 295.712 57.2145C296.272 56.2594 295.84 55.0592 294.885 54.4993C293.93 53.9394 292.729 54.3718 292.169 55.3268C290.794 57.7812 289.962 60.4915 289.76 63.2763Z" fill="#DEF9FA"/>
<path d="M271.727 59.2264C271.919 59.7598 272.378 60.1971 272.923 60.4531C275.548 61.4661 278.514 61.7534 281.288 61.5073C282.451 61.3897 283.144 60.3866 283.074 59.357C282.957 58.194 281.954 57.5007 280.924 57.5703C278.732 57.7576 276.395 57.5448 274.314 56.7877C273.274 56.4092 272.122 56.975 271.743 58.0154C271.524 58.2448 271.583 58.8263 271.727 59.2264Z" fill="#F2E96C"/>
<path d="M255.406 49.8891C255.369 50.2038 255.417 50.3372 255.513 50.6039C255.801 51.4041 256.441 51.9267 257.338 51.9052C259.941 52.0219 262.544 52.1386 265.111 52.5701C266.236 52.7672 267.159 51.9828 267.404 50.9904C267.601 49.8647 266.817 48.942 265.824 48.6968C263.077 48.18 260.292 47.978 257.422 47.9574C256.344 47.8936 255.336 48.8595 255.406 49.8891Z" fill="#DEF9FA"/>
<path d="M254.687 75.9124C255.204 76.9313 256.426 77.3951 257.312 76.9254C258.331 76.4077 258.794 75.1859 258.325 74.3004C257.001 71.4626 256.877 68.1924 257.794 65.3007C258.173 64.2604 257.474 63.1562 256.433 62.7777C255.393 62.3992 254.289 63.0983 253.91 64.1387C252.871 67.5266 252.92 71.4263 254.121 74.7603C254.35 74.9789 254.543 75.5124 254.687 75.9124Z" fill="#DBB2D2"/>
<path d="M273.22 78.4259C273.044 76.6815 273.364 75.0596 274.131 73.427C274.691 72.4719 274.259 71.2717 273.304 70.7118C272.349 70.1518 271.149 70.5842 270.589 71.5393C269.432 73.7642 269 76.3304 269.283 78.7896C269.332 78.923 269.38 79.0563 269.428 79.1897C269.716 79.9899 270.538 80.5978 271.567 80.5282C272.463 80.5067 273.338 79.5888 273.22 78.4259Z" fill="#F2E96C"/>
<path d="M300.327 81.3161C300.471 81.7162 300.797 82.2015 301.341 82.4575C302.296 83.0174 303.497 82.585 304.056 81.6299L306.845 76.4064C307.405 75.4514 306.973 74.2512 306.018 73.6912C305.063 73.1313 303.862 73.5637 303.302 74.5188L300.514 79.7423C300.258 80.2865 300.135 80.7827 300.327 81.3161Z" fill="#F2E96C"/>
<path d="M293.348 74.4892C293.545 73.3635 292.712 72.3074 291.635 72.2437L287.991 71.7484C286.865 71.5513 285.809 72.3838 285.745 73.4614C285.708 73.7762 285.671 74.091 285.815 74.4911C286.055 75.1579 286.695 75.6805 287.506 75.8403L291.15 76.3356C292.228 76.3993 293.284 75.5668 293.348 74.4892Z" fill="#DBB2D2"/>
<path d="M242.734 63.6453C242.931 62.5196 242.28 61.5489 241.154 61.3518L236.603 60.43C235.478 60.2328 234.507 60.8839 234.31 62.0096C234.272 62.3244 234.283 62.7725 234.379 63.0392C234.619 63.706 235.26 64.2287 235.889 64.3032L240.44 65.225C241.432 65.4702 242.489 64.6377 242.734 63.6453Z" fill="#F9D9E3"/>
<path d="M266.829 97.9049C266.578 96.79 266.86 95.4829 267.65 94.7465C268.439 94.0101 268.407 92.6657 267.67 91.8764C266.934 91.087 265.589 91.1193 264.8 91.8557C263.051 93.6913 262.267 96.535 262.999 98.9835L263.047 99.1168C263.383 100.05 264.519 100.696 265.453 100.359C266.52 99.9749 267.032 98.8865 266.829 97.9049Z" fill="#DEF9FA"/>
<path d="M282.766 40.9359L283.57 35.2221C283.767 34.0964 282.935 33.0403 281.857 32.9766C280.731 32.7795 279.675 33.6119 279.611 34.6896L278.807 40.4034C278.77 40.7181 278.733 41.0329 278.877 41.433C279.117 42.0998 279.757 42.6224 280.568 42.7823C281.465 42.7607 282.569 42.0616 282.766 40.9359Z" fill="#F9D9E3"/>
<path d="M304.569 60.0505C303.998 60.5574 303.886 61.5017 304.126 62.1685C304.222 62.4352 304.319 62.702 304.548 62.9206C305.284 63.71 306.629 63.6777 307.37 62.8079L308.901 61.2018C309.69 60.4654 309.658 59.121 308.788 58.3797C308.052 57.5903 306.707 57.6226 305.966 58.4924L304.569 60.0505Z" fill="#F2E96C"/>
<path d="M264.899 38.1822C265.668 40.316 266.836 42.3056 268.357 44.0177C269.094 44.807 270.353 44.9561 271.142 44.2197C271.931 43.4833 272.081 42.2242 271.344 41.4349C270.053 39.9414 269.113 38.1705 268.441 36.3035C268.056 35.2366 266.968 34.7248 265.853 34.9758C264.786 35.3601 264.274 36.4486 264.525 37.5635C264.707 37.6488 264.803 37.9155 264.899 38.1822Z" fill="#DBB2D2"/>
<path d="M295.877 34.2535C295.707 34.6163 295.717 35.0644 295.861 35.4645C296.054 35.9979 296.561 36.5686 297.238 36.7765C298.279 37.155 299.383 36.4559 299.761 35.4155C300.593 32.7052 302.054 30.0695 304.203 28.0897C304.993 27.3534 305.008 26.1424 304.224 25.2196C303.488 24.4303 302.229 24.2812 301.354 25.199C298.719 27.5043 296.869 30.7323 295.877 34.2535Z" fill="#DEF9FA"/>
<path d="M245.463 54.074C246.023 53.119 245.905 51.956 245.035 51.2147C242.437 49.4388 239.353 47.9885 236.243 47.3011C235.117 47.104 234.146 47.7551 233.768 48.7955C233.597 49.1583 233.741 49.5583 233.885 49.9584C234.126 50.6252 234.584 51.0626 235.395 51.2224C238.01 51.7872 240.549 52.9816 242.737 54.4535C243.473 55.2429 244.721 54.9438 245.463 54.074Z" fill="#F2E96C"/>
<path d="M238.93 84.452C238.935 82.7929 239.521 81.0749 240.614 79.9276C241.356 79.0579 241.372 77.8469 240.502 77.1056C239.632 76.3642 238.421 76.3485 237.68 77.2183C235.845 79.2353 234.747 82.0417 234.811 84.7304C234.859 84.8638 234.822 85.1785 234.87 85.3119C235.159 86.112 235.98 86.72 236.876 86.6984C238.039 86.5808 238.866 85.5296 238.93 84.452Z" fill="#DBB2D2"/>
<path d="M316.507 101.552C317.526 101.035 317.857 99.8609 317.472 98.794C316.245 96.223 314.484 93.8441 312.504 91.6946C311.767 90.9052 310.423 90.9376 309.634 91.674C309.063 92.1809 308.951 93.1252 309.191 93.792C309.288 94.0587 309.384 94.3255 309.613 94.5441C311.315 96.3415 312.799 98.3684 313.882 100.539C314.267 101.606 315.489 102.07 316.507 101.552Z" fill="#F9D9E3"/>
<path d="M321.914 91.4682C322.955 91.8467 324.155 91.4143 324.534 90.3739C324.912 89.3336 324.48 88.1333 323.439 87.7548L317.875 85.6916C316.834 85.3131 315.634 85.7455 315.255 86.7859C315.133 87.2821 315.144 87.7302 315.288 88.1303C315.48 88.6637 315.939 89.101 316.483 89.357L321.914 91.4682Z" fill="#DBB2D2"/>
<path d="M223.358 63.394C222.973 62.3272 221.752 61.8633 220.733 62.3811C219.18 63.091 217.303 63.3155 215.51 63.3586C214.433 63.2949 213.424 64.2607 213.361 65.3384C213.323 65.6531 213.42 65.9198 213.468 66.0532C213.756 66.8533 214.396 67.376 215.292 67.3545C217.581 67.4339 219.992 67.0172 222.211 66.0671C223.23 65.5493 223.694 64.3276 223.358 63.394Z" fill="#F9D9E3"/>
<path d="M226.797 79.6324C227.816 79.1146 228.328 78.0262 227.81 77.0074C227.292 75.9886 226.204 75.4767 225.185 75.9944C222.966 76.9446 220.843 78.1614 218.864 79.7784C218.16 80.3334 217.915 81.3257 218.203 82.1258C218.251 82.2592 218.348 82.5259 218.529 82.6112C219.132 83.4486 220.439 83.7311 221.362 82.9466C222.989 81.6072 224.845 80.4864 226.797 79.6324Z" fill="#F2E96C"/>
<path d="M369.406 60.8891C369.369 61.2038 369.417 61.3372 369.513 61.6039C369.801 62.4041 370.441 62.9267 371.338 62.9052C373.941 63.0219 376.544 63.1386 379.111 63.5701C380.236 63.7672 381.159 62.9828 381.404 61.9904C381.601 60.8647 380.817 59.942 379.824 59.6968C377.077 59.18 374.292 58.978 371.422 58.9574C370.344 58.8936 369.336 59.8595 369.406 60.8891Z" fill="#DEF9FA"/>
<path d="M368.687 86.9124C369.204 87.9313 370.426 88.3951 371.312 87.9254C372.331 87.4077 372.794 86.1859 372.325 85.3004C371.001 82.4626 370.877 79.1924 371.794 76.3007C372.173 75.2604 371.474 74.1562 370.433 73.7777C369.393 73.3992 368.289 74.0983 367.91 75.1387C366.871 78.5266 366.92 82.4263 368.121 85.7603C368.35 85.9789 368.543 86.5124 368.687 86.9124Z" fill="#DBB2D2"/>
<path d="M356.734 74.6453C356.931 73.5196 356.28 72.5489 355.154 72.3518L350.603 71.43C349.478 71.2328 348.507 71.8839 348.31 73.0096C348.272 73.3244 348.283 73.7725 348.379 74.0392C348.619 74.706 349.26 75.2287 349.889 75.3032L354.44 76.225C355.432 76.4702 356.489 75.6377 356.734 74.6453Z" fill="#F9D9E3"/>
<path d="M380.829 108.905C380.578 107.79 380.86 106.483 381.65 105.746C382.439 105.01 382.407 103.666 381.67 102.876C380.934 102.087 379.589 102.119 378.8 102.856C377.051 104.691 376.267 107.535 376.999 109.983L377.047 110.117C377.383 111.05 378.519 111.696 379.453 111.359C380.52 110.975 381.032 109.886 380.829 108.905Z" fill="#DEF9FA"/>
<path d="M359.463 65.074C360.023 64.119 359.905 62.956 359.035 62.2147C356.437 60.4388 353.353 58.9885 350.243 58.3011C349.117 58.104 348.146 58.7551 347.768 59.7955C347.597 60.1583 347.741 60.5583 347.885 60.9584C348.126 61.6252 348.584 62.0626 349.395 62.2224C352.01 62.7872 354.549 63.9816 356.737 65.4535C357.473 66.2429 358.721 65.9438 359.463 65.074Z" fill="#F2E96C"/>
<path d="M352.93 95.452C352.935 93.7929 353.521 92.0749 354.614 90.9276C355.356 90.0579 355.372 88.8469 354.502 88.1056C353.632 87.3642 352.421 87.3485 351.68 88.2183C349.845 90.2353 348.747 93.0417 348.811 95.7304C348.859 95.8638 348.822 96.1785 348.87 96.3119C349.159 97.112 349.98 97.72 350.876 97.6984C352.039 97.5808 352.866 96.5296 352.93 95.452Z" fill="#DBB2D2"/>
<path d="M337.358 74.394C336.973 73.3272 335.752 72.8633 334.733 73.3811C333.18 74.091 331.303 74.3155 329.51 74.3586C328.433 74.2949 327.424 75.2607 327.361 76.3384C327.323 76.6531 327.42 76.9198 327.468 77.0532C327.756 77.8533 328.396 78.376 329.292 78.3545C331.581 78.4339 333.992 78.0172 336.211 77.0671C337.23 76.5493 337.694 75.3276 337.358 74.394Z" fill="#F9D9E3"/>
<path d="M340.797 90.6324C341.816 90.1146 342.328 89.0262 341.81 88.0074C341.292 86.9886 340.204 86.4767 339.185 86.9944C336.966 87.9446 334.843 89.1614 332.864 90.7784C332.16 91.3334 331.915 92.3257 332.203 93.1258C332.251 93.2592 332.348 93.5259 332.529 93.6112C333.132 94.4486 334.439 94.7311 335.362 93.9466C336.989 92.6072 338.845 91.4864 340.797 90.6324Z" fill="#F2E96C"/>
<path d="M194.937 53.0934C195.134 51.9677 194.301 50.9116 193.224 50.8479C190.028 50.3418 186.614 50.0653 183.296 50.0554C182.218 49.9916 181.21 50.9575 181.327 52.1205C181.29 52.4352 181.338 52.5686 181.434 52.8353C181.723 53.6354 182.496 54.1101 183.259 54.1365C186.396 54.0611 189.496 54.3004 192.558 54.8545C193.769 54.8702 194.692 54.0857 194.937 53.0934Z" fill="#F2E96C"/>
<path d="M188.118 69.713C188.08 70.0278 188.177 70.2945 188.273 70.5612C188.513 71.228 189.153 71.7507 189.964 71.9105C191.042 71.9742 192.098 71.1418 192.162 70.0641C192.422 67.8608 192.998 65.6947 194.07 63.6512C194.63 62.6961 194.197 61.4959 193.242 60.936C192.287 60.3761 191.087 60.8085 190.527 61.7635C189.151 64.2179 188.32 66.9282 188.118 69.713Z" fill="#DEF9FA"/>
<path d="M170.085 65.6631C170.277 66.1965 170.736 66.6339 171.28 66.8898C173.905 67.9028 176.871 68.1901 179.646 67.944C180.808 67.8264 181.502 66.8233 181.432 65.7937C181.314 64.6307 180.311 63.9374 179.282 64.007C177.089 64.1943 174.753 63.9815 172.672 63.2244C171.631 62.8459 170.479 63.4117 170.101 64.4521C169.882 64.6815 169.941 65.263 170.085 65.6631Z" fill="#F2E96C"/>
<path d="M153.764 56.3258C153.726 56.6405 153.774 56.7739 153.87 57.0406C154.159 57.8408 154.799 58.3634 155.695 58.3419C158.299 58.4586 160.902 58.5753 163.468 59.0068C164.594 59.2039 165.517 58.4195 165.762 57.4271C165.959 56.3015 165.174 55.3787 164.182 55.1336C161.435 54.6168 158.65 54.4147 155.78 54.3941C154.702 54.3303 153.694 55.2962 153.764 56.3258Z" fill="#DEF9FA"/>
<path d="M153.044 82.3491C153.562 83.368 154.784 83.8318 155.669 83.3621C156.688 82.8444 157.152 81.6226 156.682 80.7371C155.359 77.8993 155.235 74.6291 156.152 71.7375C156.531 70.6971 155.831 69.5929 154.791 69.2144C153.751 68.8359 152.647 69.535 152.268 70.5754C151.229 73.9633 151.278 77.863 152.479 81.197C152.708 81.4156 152.9 81.9491 153.044 82.3491Z" fill="#DBB2D2"/>
<path d="M171.578 84.8626C171.402 83.1182 171.721 81.4963 172.489 79.8637C173.049 78.9086 172.617 77.7084 171.662 77.1485C170.707 76.5885 169.506 77.0209 168.946 77.976C167.789 80.2009 167.358 82.7671 167.641 85.2263C167.689 85.3597 167.737 85.4931 167.785 85.6264C168.074 86.4266 168.895 87.0345 169.925 86.9649C170.821 86.9434 171.696 86.0256 171.578 84.8626Z" fill="#F2E96C"/>
<path d="M198.685 87.7528C198.829 88.1529 199.155 88.6383 199.699 88.8942C200.654 89.4541 201.854 89.0217 202.414 88.0666L205.203 82.8432C205.763 81.8881 205.33 80.6879 204.375 80.1279C203.42 79.568 202.22 80.0004 201.66 80.9555L198.871 86.179C198.615 86.7232 198.493 87.2194 198.685 87.7528Z" fill="#F2E96C"/>
<path d="M191.705 80.9259C191.902 79.8002 191.07 78.7441 189.992 78.6804L186.349 78.1851C185.223 77.988 184.167 78.8205 184.103 79.8982C184.066 80.2129 184.028 80.5277 184.173 80.9278C184.413 81.5946 185.053 82.1172 185.864 82.277L189.508 82.7723C190.586 82.8361 191.642 82.0035 191.705 80.9259Z" fill="#DBB2D2"/>
<path d="M141.091 70.082C141.289 68.9564 140.637 67.9856 139.512 67.7885L134.961 66.8667C133.835 66.6695 132.864 67.3206 132.667 68.4463C132.63 68.7611 132.641 69.2092 132.737 69.4759C132.977 70.1427 133.617 70.6654 134.247 70.7399L138.798 71.6617C139.79 71.9069 140.846 71.0744 141.091 70.082Z" fill="#F9D9E3"/>
<path d="M165.186 104.342C164.935 103.227 165.218 101.92 166.007 101.183C166.797 100.447 166.764 99.1024 166.028 98.3131C165.292 97.5237 163.947 97.556 163.158 98.2924C161.408 100.128 160.625 102.972 161.356 105.42L161.404 105.554C161.741 106.487 162.877 107.132 163.811 106.796C164.878 106.412 165.389 105.323 165.186 104.342Z" fill="#DEF9FA"/>
<path d="M181.124 47.3726L181.928 41.6588C182.125 40.5331 181.292 39.477 180.215 39.4133C179.089 39.2162 178.033 40.0486 177.969 41.1263L177.165 46.8401C177.128 47.1548 177.09 47.4696 177.235 47.8697C177.475 48.5365 178.115 49.0591 178.926 49.219C179.822 49.1974 180.926 48.4983 181.124 47.3726Z" fill="#F9D9E3"/>
<path d="M202.926 66.4872C202.356 66.9942 202.244 67.9384 202.484 68.6052C202.58 68.872 202.676 69.1387 202.906 69.3573C203.642 70.1467 204.986 70.1144 205.728 69.2446L207.258 67.6385C208.048 66.9021 208.015 65.5577 207.146 64.8164C206.409 64.027 205.065 64.0593 204.324 64.9291L202.926 66.4872Z" fill="#F2E96C"/>
<path d="M163.257 44.6189C164.025 46.7527 165.194 48.7423 166.715 50.4544C167.451 51.2437 168.71 51.3928 169.5 50.6564C170.289 49.92 170.438 48.6609 169.702 47.8716C168.41 46.3781 167.471 44.6072 166.798 42.7402C166.414 41.6734 165.326 41.1615 164.211 41.4125C163.144 41.7969 162.632 42.8853 162.883 44.0002C163.064 44.0855 163.161 44.3522 163.257 44.6189Z" fill="#DBB2D2"/>
<path d="M194.235 40.6902C194.064 41.053 194.075 41.5011 194.219 41.9012C194.411 42.4347 194.918 43.0053 195.596 43.2132C196.636 43.5918 197.74 42.8926 198.119 41.8522C198.95 39.142 200.412 36.5062 202.561 34.5265C203.35 33.7901 203.366 32.5791 202.582 31.6563C201.845 30.867 200.586 30.7179 199.712 31.6357C197.077 33.941 195.226 37.169 194.235 40.6902Z" fill="#DEF9FA"/>
<path d="M143.821 60.5107C144.38 59.5557 144.263 58.3927 143.393 57.6514C140.795 55.8755 137.711 54.4252 134.6 53.7378C133.475 53.5407 132.504 54.1918 132.125 55.2322C131.955 55.595 132.099 55.995 132.243 56.3951C132.483 57.0619 132.942 57.4993 133.753 57.6591C136.367 58.224 138.907 59.4183 141.095 60.8902C141.831 61.6796 143.079 61.3805 143.821 60.5107Z" fill="#F2E96C"/>
<path d="M137.288 90.8887C137.292 89.2296 137.879 87.5116 138.972 86.3644C139.714 85.4946 139.729 84.2836 138.859 83.5423C137.99 82.801 136.779 82.7852 136.037 83.655C134.203 85.672 133.104 88.4784 133.169 91.1671C133.217 91.3005 133.18 91.6152 133.228 91.7486C133.516 92.5487 134.338 93.1567 135.234 93.1351C136.397 93.0175 137.224 91.9663 137.288 90.8887Z" fill="#DBB2D2"/>
<path d="M214.865 107.989C215.884 107.471 216.214 106.298 215.83 105.231C214.602 102.66 212.841 100.281 210.862 98.1313C210.125 97.3419 208.781 97.3743 207.991 98.1107C207.421 98.6176 207.309 99.5619 207.549 100.229C207.645 100.495 207.741 100.762 207.971 100.981C209.673 102.778 211.157 104.805 212.24 106.976C212.625 108.043 213.846 108.507 214.865 107.989Z" fill="#F9D9E3"/>
<path d="M220.272 97.9049C221.312 98.2834 222.513 97.851 222.891 96.8106C223.27 95.7703 222.837 94.57 221.797 94.1915L216.232 92.1283C215.192 91.7498 213.992 92.1822 213.613 93.2226C213.491 93.7188 213.501 94.1669 213.645 94.567C213.838 95.1004 214.297 95.5377 214.841 95.7937L220.272 97.9049Z" fill="#DBB2D2"/>
<path d="M121.715 69.8308C121.331 68.7639 120.109 68.3001 119.09 68.8178C117.538 69.5277 115.66 69.7522 113.868 69.7953C112.79 69.7316 111.782 70.6974 111.718 71.7751C111.681 72.0898 111.777 72.3565 111.825 72.4899C112.114 73.2901 112.754 73.8127 113.65 73.7912C115.939 73.8706 118.35 73.4539 120.569 72.5038C121.588 71.986 122.052 70.7643 121.715 69.8308Z" fill="#F9D9E3"/>
<path d="M125.155 86.0691C126.174 85.5513 126.686 84.4629 126.168 83.4441C125.65 82.4253 124.562 81.9134 123.543 82.4311C121.324 83.3813 119.201 84.5981 117.222 86.2151C116.518 86.7701 116.273 87.7624 116.561 88.5625C116.609 88.6959 116.705 88.9626 116.887 89.0479C117.49 89.8853 118.797 90.1678 119.72 89.3833C121.346 88.0439 123.203 86.9231 125.155 86.0691Z" fill="#F2E96C"/>
<path d="M377.386 121.583C377.152 121.796 377.101 121.928 376.998 122.192C376.691 122.986 376.832 123.8 377.523 124.371C379.413 126.166 381.302 127.961 382.957 129.969C383.678 130.856 384.889 130.869 385.724 130.28C386.611 129.559 386.624 128.348 386.035 127.513C384.299 125.321 382.329 123.343 380.175 121.446C379.403 120.691 378.009 120.759 377.386 121.583Z" fill="#DEF9FA"/>
<path d="M359.783 140.762C359.506 141.871 360.124 143.022 361.101 143.248C362.21 143.525 363.361 142.906 363.587 141.93C364.448 138.919 366.498 136.369 369.086 134.786C370.054 134.249 370.25 132.957 369.713 131.989C369.175 131.021 367.883 130.825 366.915 131.362C363.909 133.239 361.39 136.216 360.111 139.521C360.141 139.837 359.936 140.365 359.783 140.762Z" fill="#DBB2D2"/>
<path d="M372.13 154.81C373.141 153.377 374.445 152.362 376.095 151.633C377.144 151.279 377.605 150.089 377.251 149.04C376.896 147.991 375.707 147.531 374.658 147.885C372.325 148.806 370.317 150.461 368.919 152.504C368.868 152.636 368.817 152.768 368.766 152.901C368.459 153.694 368.681 154.692 369.504 155.314C370.195 155.885 371.457 155.766 372.13 154.81Z" fill="#F2E96C"/>
<path d="M358.799 123.663C359.686 122.942 359.83 121.782 359.11 120.895L356.278 117.216C355.557 116.329 354.397 116.184 353.51 116.905C353.275 117.118 352.99 117.463 352.888 117.728C352.632 118.389 352.773 119.203 353.199 119.672L356.031 123.352C356.62 124.188 357.963 124.251 358.799 123.663Z" fill="#F9D9E3"/>
<path d="M354.534 165.329C355.075 164.323 356.145 163.521 357.224 163.482C358.303 163.444 359.16 162.407 359.121 161.328C359.083 160.25 358.046 159.393 356.968 159.431C354.443 159.671 351.987 161.304 350.934 163.633L350.883 163.765C350.525 164.69 350.96 165.923 351.886 166.281C352.943 166.69 354.044 166.203 354.534 165.329Z" fill="#DEF9FA"/>
<path d="M367.134 118.224C368.183 117.87 368.857 116.915 368.686 115.785C367.888 112.74 366.51 109.623 364.612 107.065C363.891 106.178 362.732 106.034 361.764 106.571C361.397 106.733 361.243 107.13 361.09 107.526C360.834 108.187 360.894 108.819 361.402 109.471C363.005 111.611 364.14 114.178 364.827 116.724C364.866 117.803 366.004 118.395 367.134 118.224Z" fill="#F2E96C"/>
<path d="M342.286 136.881C343.377 135.631 344.946 134.718 346.524 134.569C347.654 134.398 348.46 133.494 348.289 132.364C348.118 131.234 347.214 130.428 346.084 130.599C343.377 130.919 340.707 132.318 338.994 134.391C338.942 134.523 338.708 134.736 338.657 134.868C338.35 135.662 338.572 136.659 339.263 137.231C340.218 137.904 341.531 137.652 342.286 136.881Z" fill="#DBB2D2"/>
<path d="M344.332 110.77C344.741 109.713 344.123 108.561 343.014 108.284C341.377 107.803 339.811 106.741 338.43 105.599C337.658 104.844 336.263 104.913 335.509 105.685C335.274 105.898 335.172 106.162 335.121 106.295C334.814 107.088 334.955 107.902 335.646 108.473C337.322 110.034 339.416 111.3 341.714 112.037C342.823 112.314 343.974 111.696 344.332 110.77Z" fill="#F9D9E3"/>
<path d="M336.284 125.287C337.393 125.564 338.493 125.078 338.77 123.969C339.047 122.86 338.56 121.76 337.452 121.483C335.153 120.746 332.752 120.273 330.198 120.197C329.303 120.154 328.467 120.743 328.16 121.536C328.109 121.668 328.007 121.933 328.088 122.116C327.994 123.144 328.796 124.214 330.007 124.227C332.113 124.282 334.25 124.652 336.284 125.287Z" fill="#F2E96C"/>
<path d="M186 116.395L175.047 115.279L172.814 103L168.07 114.442L156 111.442L164.512 120.512L158.86 130L169.326 125.186L177.349 133L175.884 121.907L186 116.395Z" fill="url(#paint0_linear)"/>
<path d="M306.863 157.851C306.776 157.772 306.69 157.694 306.603 157.616L306.517 157.537C306.344 157.38 306.252 157.218 306.155 156.973C306.064 156.811 306.053 156.645 306.043 156.478C306.028 156.227 306.094 155.972 306.165 155.801C306.242 155.712 306.237 155.629 306.313 155.54L306.389 155.452C306.466 155.364 306.466 155.364 306.542 155.275L306.618 155.187C306.771 155.01 306.929 154.917 307.087 154.823C307.244 154.73 307.402 154.637 307.56 154.543C307.875 154.357 308.196 154.253 308.598 154.145C309 154.037 309.407 154.012 309.728 153.909L309.891 153.899C309.972 153.894 310.054 153.889 310.135 153.884L310.217 153.879L310.38 153.869L310.705 153.849C310.787 153.844 310.868 153.839 310.95 153.834L311.031 153.829C311.112 153.824 311.275 153.814 311.357 153.809L311.438 153.804C311.601 153.795 311.845 153.78 312.095 153.848C312.176 153.843 312.258 153.838 312.339 153.833C312.42 153.828 312.502 153.823 312.583 153.818L312.665 153.813L312.914 153.882L313.164 153.95C313.245 153.945 313.326 153.94 313.413 154.019L313.494 154.014L313.576 154.009L313.657 154.004C313.739 153.999 313.825 154.077 313.907 154.072L313.988 154.067C314.237 154.136 314.487 154.204 314.736 154.273C314.986 154.341 315.235 154.41 315.571 154.557C315.739 154.63 315.907 154.704 315.993 154.782L316.161 154.856L316.248 154.934L316.329 154.929L316.06 154.527L315.79 154.125C315.703 154.046 315.698 153.963 315.612 153.885L315.087 153.331L315.082 153.247L314.904 153.007L314.813 152.845C314.634 152.605 314.461 152.448 314.283 152.208C314.024 151.972 313.846 151.732 313.586 151.497L313.321 151.178L313.148 151.021L312.975 150.864C312.975 150.864 312.975 150.864 312.98 150.948L312.904 151.036C312.823 151.041 312.828 151.125 312.746 151.13L312.665 151.134L312.583 151.139L312.426 151.233L312.344 151.238L312.268 151.326C312.029 151.424 311.794 151.606 311.555 151.704C311.158 151.896 310.68 152.093 310.12 152.294C309.56 152.496 308.995 152.614 308.593 152.722C308.354 152.821 308.028 152.841 307.708 152.944C307.463 152.959 307.224 153.057 306.898 153.077C306.252 153.2 305.595 153.156 305.102 153.103C304.857 153.118 304.608 153.049 304.359 152.981L304.277 152.986C304.196 152.991 304.114 152.996 304.028 152.917C303.946 152.922 303.946 152.922 303.865 152.927C303.702 152.937 303.534 152.864 303.366 152.79C303.198 152.717 303.03 152.643 302.776 152.491C302.531 152.506 302.445 152.428 302.44 152.345L302.358 152.349L302.272 152.271L302.267 152.188C302.18 152.109 302.089 151.947 302.083 151.864L302.078 151.781C301.987 151.619 301.977 151.452 301.961 151.202C301.951 151.035 301.946 150.952 302.017 150.78C302.007 150.613 302.078 150.441 302.231 150.264C302.231 150.264 302.231 150.264 302.226 150.181C302.302 150.093 302.302 150.093 302.379 150.004L302.455 149.916C302.842 149.557 303.234 149.282 303.549 149.096C303.946 148.904 304.262 148.717 304.501 148.619C304.664 148.609 304.822 148.516 304.985 148.506L305.147 148.496C305.712 148.378 306.364 148.338 307.02 148.382C307.265 148.367 307.514 148.435 307.758 148.42L307.921 148.41C308.003 148.405 308.084 148.4 308.171 148.479C308.252 148.474 308.252 148.474 308.333 148.469C308.415 148.464 308.578 148.454 308.664 148.532C308.995 148.596 309.326 148.659 309.575 148.728C309.825 148.796 310.156 148.86 310.405 148.928C310.654 148.997 310.822 149.07 310.99 149.144C310.904 149.065 310.817 148.987 310.649 148.914C310.486 148.923 310.313 148.767 310.227 148.688C310.222 148.605 310.14 148.61 310.135 148.526C310.049 148.448 309.881 148.374 309.789 148.213C309.703 148.134 309.616 148.056 309.53 147.977L309.443 147.899L308.842 147.433L308.486 146.953L307.886 146.487L307.799 146.409C307.718 146.414 307.713 146.33 307.631 146.335L307.539 146.173L307.372 146.1C307.285 146.021 307.198 145.943 307.031 145.87L306.944 145.791C306.949 145.875 306.878 146.046 306.802 146.135C306.725 146.223 306.725 146.223 306.649 146.311L306.572 146.4C306.496 146.488 306.42 146.577 306.343 146.665C306.109 146.847 305.957 147.023 305.799 147.117C305.565 147.298 305.331 147.48 305.091 147.578C304.694 147.77 304.297 147.962 303.738 148.163C303.178 148.365 302.613 148.483 302.129 148.596C301.646 148.71 301.071 148.661 300.419 148.701C300.338 148.706 300.256 148.711 300.17 148.632L300.088 148.637L300.007 148.642C299.925 148.647 299.758 148.574 299.676 148.579C299.096 148.447 298.597 148.31 298.088 148.006L298.002 147.927C297.915 147.849 297.915 147.849 297.829 147.771C297.742 147.692 297.737 147.609 297.732 147.525C297.64 147.364 297.549 147.202 297.538 147.035C297.533 146.951 297.528 146.868 297.523 146.785C297.518 146.701 297.594 146.613 297.589 146.529C297.584 146.446 297.661 146.358 297.737 146.269L297.813 146.181C297.89 146.093 298.042 145.916 298.119 145.827C298.271 145.651 298.505 145.469 298.816 145.199C299.131 145.012 299.447 144.826 299.686 144.727C300.083 144.536 300.485 144.427 300.806 144.324C301.371 144.206 302.022 144.166 302.516 144.22C302.76 144.205 303.091 144.268 303.335 144.253C303.748 144.312 304.241 144.366 304.659 144.507C304.74 144.502 304.827 144.581 304.99 144.571L304.903 144.493L304.817 144.414C304.735 144.419 304.73 144.336 304.649 144.341C304.394 144.189 304.053 143.958 303.799 143.807C303.717 143.812 303.631 143.733 303.544 143.655C303.544 143.655 303.544 143.655 303.463 143.66L302.938 143.106C302.684 142.954 302.43 142.802 302.175 142.65C302.094 142.655 302.089 142.571 302.007 142.576L301.926 142.581L301.666 142.346L301.325 142.116C301.239 142.037 301.071 141.964 300.984 141.885L300.903 141.89C300.908 141.974 300.831 142.062 300.755 142.151C300.755 142.151 300.755 142.151 300.679 142.239C300.602 142.327 300.45 142.504 300.373 142.592C300.216 142.686 300.063 142.863 299.981 142.868L299.905 142.956L299.829 143.044L299.747 143.049C299.59 143.143 299.437 143.319 299.198 143.418C298.882 143.604 298.643 143.703 298.485 143.796C298.007 143.993 297.528 144.189 297.126 144.297C296.806 144.401 296.561 144.416 296.159 144.524C295.996 144.534 295.757 144.632 295.594 144.642L295.431 144.652C295.187 144.667 294.943 144.682 294.698 144.697C294.373 144.717 294.047 144.737 293.798 144.668C293.635 144.678 293.553 144.683 293.385 144.61C293.222 144.619 293.054 144.546 292.887 144.473C292.805 144.477 292.8 144.394 292.719 144.399C292.632 144.321 292.551 144.326 292.546 144.242L292.372 144.085C292.281 143.923 292.189 143.762 292.103 143.683C291.919 143.36 291.818 143.031 291.884 142.776C291.95 142.521 292.021 142.349 292.169 142.089C292.245 142 292.322 141.912 292.398 141.824L292.393 141.74C292.469 141.652 292.469 141.652 292.545 141.563L292.622 141.475C292.78 141.382 292.851 141.21 293.004 141.033C293.238 140.851 293.472 140.67 293.787 140.483C294.027 140.385 294.184 140.291 294.429 140.276L294.51 140.271C294.994 140.158 295.401 140.133 295.808 140.109C296.297 140.079 296.872 140.127 297.447 140.176C297.36 140.098 297.279 140.102 297.192 140.024L297.111 140.029C296.943 139.956 296.775 139.882 296.607 139.809C296.52 139.73 296.439 139.735 296.358 139.74L296.276 139.745L296.108 139.672L296.027 139.677L295.94 139.598L295.859 139.603C295.696 139.613 295.447 139.545 295.355 139.383L295.111 139.398L294.943 139.324C294.439 139.104 293.94 138.967 293.523 138.825L293.528 138.908C293.533 138.992 293.533 138.992 293.538 139.075C293.543 139.159 293.467 139.247 293.472 139.33C293.477 139.414 293.395 139.419 293.401 139.502L293.324 139.59C293.248 139.679 293.172 139.767 293.095 139.856C293.019 139.944 292.942 140.032 292.866 140.121C292.484 140.563 292.098 140.921 291.711 141.279C291.4 141.55 291.003 141.741 290.688 141.928C290.53 142.021 290.449 142.026 290.286 142.036C290.128 142.129 289.965 142.139 289.884 142.144C289.721 142.154 289.558 142.164 289.395 142.174L289.314 142.179C289.069 142.194 288.657 142.136 288.392 141.817C288.219 141.66 288.128 141.498 288.041 141.42L288.036 141.336C288.031 141.253 287.95 141.258 287.944 141.174C287.939 141.091 287.848 140.929 287.843 140.846C287.827 140.596 287.899 140.424 287.965 140.169C288.036 139.997 288.112 139.909 288.184 139.737C288.179 139.653 288.26 139.648 288.255 139.565C288.331 139.477 288.408 139.388 288.56 139.211C288.713 139.035 288.952 138.936 289.11 138.843C289.344 138.661 289.583 138.563 289.828 138.548C290.067 138.45 290.393 138.43 290.632 138.332C290.795 138.322 291.039 138.307 291.202 138.297C291.12 138.302 291.039 138.307 290.952 138.228L290.372 138.096L290.041 138.033C290.046 138.116 289.965 138.121 289.884 138.126C289.802 138.131 289.802 138.131 289.721 138.136L289.639 138.141L289.558 138.146C289.476 138.151 289.395 138.156 289.314 138.161L289.232 138.166L289.151 138.171C289.069 138.176 288.988 138.181 288.906 138.186C288.581 138.206 288.255 138.226 288.097 138.319C287.771 138.339 287.369 138.447 286.718 138.487L286.636 138.492L286.474 138.502C286.392 138.507 286.229 138.517 286.148 138.522C285.985 138.532 285.822 138.541 285.654 138.468C285.405 138.4 285.16 138.414 284.993 138.341C284.743 138.272 284.575 138.199 284.484 138.037C284.397 137.959 284.392 137.875 284.31 137.88C284.224 137.802 284.214 137.635 284.209 137.552C284.204 137.468 284.199 137.385 284.193 137.301C284.188 137.218 284.265 137.13 284.26 137.046C284.255 136.963 284.331 136.874 284.407 136.786C284.239 136.713 284.321 136.708 284.316 136.624C284.55 136.443 284.784 136.261 285.023 136.163C285.104 136.158 285.262 136.064 285.344 136.059L285.425 136.054C285.588 136.044 285.664 135.956 285.827 135.946C285.99 135.936 286.234 135.921 286.479 135.906C286.56 135.901 286.723 135.891 286.809 135.97C286.891 135.965 286.972 135.96 287.059 136.038C287.222 136.028 287.308 136.107 287.39 136.102L287.471 136.097C287.639 136.17 287.888 136.239 288.138 136.307C288.306 136.381 288.474 136.454 288.728 136.606C288.983 136.758 289.237 136.91 289.405 136.983C289.492 137.062 289.66 137.135 289.746 137.214C289.833 137.292 289.919 137.371 290.011 137.532C290.016 137.616 290.097 137.611 290.021 137.699L290.433 137.758L291.176 137.88C291.426 137.948 291.675 138.017 291.925 138.085C292.174 138.154 292.423 138.222 292.591 138.296C292.673 138.291 292.673 138.291 292.759 138.369C293.09 138.433 293.426 138.58 293.675 138.648C293.757 138.643 293.925 138.717 294.006 138.712C293.752 138.56 293.497 138.408 293.324 138.251L293.238 138.173C292.978 137.937 292.719 137.702 292.383 137.555L292.54 137.462C292.286 137.31 291.94 136.996 291.675 136.677C291.416 136.442 291.069 136.128 290.8 135.726C290.708 135.564 290.616 135.403 290.525 135.241C290.438 135.162 290.428 134.996 290.337 134.834C290.321 134.583 290.306 134.333 290.454 134.073C290.53 133.985 290.606 133.896 290.688 133.891C290.764 133.803 290.927 133.793 291.085 133.7C291.329 133.685 291.573 133.67 291.818 133.655L291.899 133.65C292.306 133.625 292.647 133.856 292.988 134.086C293.329 134.316 293.67 134.547 294.016 134.86C294.189 135.017 294.276 135.096 294.368 135.257L294.454 135.336C294.627 135.493 294.719 135.655 294.81 135.816C294.983 135.973 295.075 136.135 295.167 136.297C295.263 136.542 295.436 136.699 295.528 136.861C295.62 137.023 295.711 137.184 295.721 137.351C295.813 137.513 295.823 137.68 295.833 137.847L295.838 137.93C295.844 138.014 295.849 138.097 295.935 138.175C295.94 138.259 296.027 138.337 296.032 138.421L296.037 138.504C296.129 138.666 296.144 138.916 296.154 139.083C296.159 139.166 296.083 139.255 296.088 139.338C296.337 139.407 296.587 139.475 296.841 139.627L297.762 139.989L298.434 140.283L298.77 140.43L298.852 140.425L299.019 140.499C299.187 140.572 299.274 140.65 299.442 140.724L299.523 140.719L299.605 140.714C299.523 140.719 299.518 140.636 299.432 140.557C299.259 140.4 299.086 140.243 298.994 140.082L298.826 140.008L298.734 139.846C298.648 139.768 298.643 139.684 298.556 139.606C298.556 139.606 298.551 139.523 298.47 139.528C298.378 139.366 298.205 139.209 298.108 138.964C297.839 138.561 297.564 138.076 297.375 137.669C297.284 137.507 297.187 137.262 297.096 137.1L297.09 137.017C296.999 136.855 296.907 136.693 296.892 136.443C296.795 136.197 296.78 135.947 296.683 135.702C296.673 135.535 296.658 135.285 296.724 135.03C296.719 134.946 296.8 134.941 296.795 134.858C296.872 134.77 296.948 134.681 296.948 134.681C297.024 134.593 297.106 134.588 297.187 134.583C297.269 134.578 297.426 134.485 297.508 134.48C297.671 134.47 297.752 134.465 297.915 134.455L297.996 134.45C298.159 134.44 298.327 134.513 298.409 134.508C298.739 134.572 299.075 134.719 299.411 134.866C299.579 134.939 299.752 135.096 299.92 135.17L300.007 135.248C300.093 135.326 300.175 135.322 300.18 135.405C300.353 135.562 300.607 135.714 300.78 135.871L300.862 135.866C300.948 135.944 301.116 136.017 301.208 136.179C301.294 136.258 301.381 136.336 301.468 136.415C301.554 136.493 301.641 136.571 301.727 136.65C301.814 136.728 301.9 136.807 301.987 136.885L302.073 136.964L302.16 137.042C302.251 137.204 302.338 137.282 302.338 137.282C302.603 137.601 302.872 138.003 303.137 138.322C303.493 138.802 303.682 139.209 303.87 139.617L303.961 139.778C304.058 140.024 304.15 140.185 304.246 140.431C304.348 140.759 304.45 141.088 304.547 141.333C304.557 141.5 304.649 141.662 304.664 141.912C304.674 142.079 304.684 142.246 304.613 142.417C304.618 142.501 304.618 142.501 304.623 142.584L304.628 142.668L304.633 142.751L304.638 142.834C304.643 142.918 304.567 143.006 304.572 143.09C304.496 143.178 304.501 143.261 304.425 143.35L304.593 143.423L304.761 143.497L304.847 143.575C304.929 143.57 304.934 143.654 305.015 143.649C305.102 143.727 305.27 143.8 305.356 143.879L306.125 144.418C306.807 144.879 307.407 145.344 308.003 145.727C308.084 145.722 308.089 145.805 308.089 145.805L308.176 145.883L308.257 145.878L308.339 145.873C307.718 145.074 307.249 144.098 306.786 143.206C306.506 142.637 306.226 142.068 305.957 141.666L305.86 141.42C305.672 141.013 305.483 140.606 305.295 140.199C305.198 139.954 305.183 139.704 305.091 139.542L305.086 139.459C305.076 139.292 305.071 139.208 304.979 139.047L304.974 138.963C304.964 138.796 304.949 138.546 304.934 138.296C304.918 138.046 304.984 137.791 305.056 137.619C305.051 137.535 305.127 137.447 305.198 137.275C305.198 137.275 305.193 137.192 305.275 137.187C305.275 137.187 305.351 137.098 305.427 137.01C305.504 136.922 305.585 136.917 305.666 136.912L305.748 136.907L305.829 136.902C305.911 136.897 305.992 136.892 306.074 136.887C306.318 136.872 306.486 136.945 306.649 136.936C306.98 136.999 307.234 137.151 307.483 137.219L307.57 137.298C307.656 137.376 307.743 137.455 307.824 137.45L307.911 137.528C307.997 137.607 308.084 137.685 308.171 137.763C308.344 137.92 308.598 138.072 308.776 138.313C309.036 138.548 309.214 138.788 309.392 139.028C309.748 139.509 310.028 140.078 310.303 140.563C310.491 140.97 310.68 141.377 310.797 141.956C310.99 142.447 311.102 142.942 311.219 143.521C311.423 144.178 311.474 145.012 311.443 145.851C311.469 146.268 311.413 146.69 311.352 147.029C311.357 147.112 311.28 147.201 311.285 147.284L311.291 147.368C311.296 147.451 311.224 147.623 311.229 147.706C311.235 147.79 311.153 147.794 311.158 147.878C311.163 147.961 311.163 147.961 311.168 148.045C311.173 148.128 311.092 148.133 311.097 148.216L311.962 149.001L312.049 149.079L312.308 149.315L312.924 150.03C313.011 150.109 313.011 150.109 313.097 150.187C313.449 150.584 313.881 150.977 314.232 151.374L314.319 151.452L314.41 151.614C314.497 151.692 314.584 151.771 314.67 151.849C314.675 151.933 314.757 151.928 314.762 152.011C314.66 151.682 314.477 151.359 314.38 151.114L314.283 150.868L314.176 150.456C313.876 149.554 313.571 148.568 313.25 147.332C313.138 146.836 313.026 146.341 312.909 145.762C312.904 145.679 312.899 145.595 312.894 145.512L312.889 145.428C312.878 145.261 312.873 145.178 312.863 145.011L312.858 144.928L312.853 144.844C312.812 144.177 313.016 143.495 313.382 142.803C313.454 142.631 313.606 142.455 313.683 142.366C313.683 142.366 313.683 142.366 313.759 142.278C313.835 142.189 313.912 142.101 314.069 142.008C314.227 141.914 314.385 141.821 314.543 141.728C314.624 141.723 314.706 141.718 314.782 141.629C314.782 141.629 314.782 141.629 314.863 141.624C314.945 141.619 315.108 141.609 315.189 141.605C315.515 141.585 315.856 141.815 316.11 141.967C316.278 142.04 316.451 142.197 316.619 142.271C316.792 142.428 316.879 142.506 317.052 142.663L317.138 142.741C317.398 142.977 317.581 143.3 317.846 143.619C317.938 143.781 318.116 144.021 318.299 144.345C318.304 144.428 318.391 144.507 318.391 144.507L318.396 144.59L318.482 144.668C318.574 144.83 318.579 144.914 318.67 145.075C318.762 145.237 318.854 145.399 318.864 145.566C319.047 145.89 319.154 146.302 319.179 146.719C319.286 147.131 319.317 147.631 319.266 148.136C319.286 148.47 319.225 148.809 319.246 149.142C319.195 149.648 319.067 150.241 318.93 150.668C318.864 150.924 318.803 151.262 318.655 151.522C318.589 151.777 318.436 151.954 318.365 152.126C318.289 152.214 318.141 152.475 318.07 152.646C318.075 152.73 317.994 152.735 317.999 152.818C317.922 152.906 317.846 152.995 317.846 152.995C317.693 153.172 317.541 153.348 317.388 153.525L317.235 153.702L317.159 153.79L317.083 153.879C317.006 153.967 317.006 153.967 316.93 154.055C316.93 154.055 316.848 154.06 316.854 154.144L317.027 154.301L317.2 154.457L317.286 154.536L317.642 155.016C317.642 155.016 317.729 155.095 317.81 155.09C317.897 155.168 317.989 155.33 318.085 155.575L318.177 155.737L318.452 156.223C318.543 156.385 318.63 156.463 318.635 156.546L319.093 157.356L319.185 157.517C319.271 157.596 319.363 157.758 319.373 157.924L319.465 158.086L319.551 158.165L319.556 158.248C319.744 158.655 320.014 159.057 320.208 159.548C320.304 159.793 320.401 160.038 320.508 160.45C320.518 160.617 320.61 160.779 320.62 160.946C320.625 161.029 320.635 161.196 320.64 161.279L320.65 161.446C320.666 161.696 320.762 161.942 320.773 162.108C320.783 162.275 320.793 162.442 320.803 162.609C320.808 162.692 320.813 162.776 320.737 162.864C320.661 162.952 320.579 162.957 320.498 162.962C320.416 162.967 320.335 162.972 320.248 162.894C320.162 162.815 320.157 162.732 320.152 162.649C320.136 162.398 320.121 162.148 320.106 161.898L320.091 161.648C320.075 161.398 319.968 160.985 319.862 160.573C319.851 160.407 319.76 160.245 319.75 160.078C319.653 159.833 319.561 159.671 319.551 159.504C319.459 159.342 319.368 159.18 319.276 159.019L318.859 158.877L318.584 158.391C318.579 158.308 318.492 158.229 318.487 158.146L318.482 158.062L318.396 157.984L318.391 157.901L318.386 157.817L318.299 157.739L318.212 157.66C318.121 157.499 318.029 157.337 317.938 157.175C317.851 157.096 317.846 157.013 317.759 156.935L317.673 156.856L317.581 156.694L317.495 156.616C317.418 156.704 317.418 156.704 317.337 156.709L317.261 156.798C317.184 156.886 317.103 156.891 317.027 156.979C316.95 157.068 316.869 157.073 316.792 157.161C316.716 157.249 316.558 157.343 316.482 157.431L316.401 157.436C316.324 157.524 316.243 157.529 316.248 157.613C316.095 157.79 315.856 157.888 315.617 157.986C315.383 158.168 315.143 158.266 314.823 158.37C314.584 158.468 314.263 158.571 314.019 158.586C313.454 158.704 312.97 158.817 312.4 158.852C311.749 158.892 311.265 159.005 310.695 159.04C310.614 159.045 310.532 159.05 310.369 159.06L310.207 159.07C310.044 159.08 309.962 159.085 309.799 159.095C309.392 159.12 309.061 159.056 308.725 158.909C308.308 158.767 307.972 158.62 307.636 158.473C307.295 158.243 307.122 158.086 306.863 157.851Z" fill="#D1F3F5"/>
<path d="M245.433 99.1978L242.077 101.092L238.958 98.0339L239.914 102.262L235.859 103.844L240.124 104.716L240.426 108.569L242.444 105.079L246.315 105.691L243.655 102.817L245.433 99.1978Z" fill="url(#paint1_linear)"/>
<path d="M117.722 103.363L113.342 105.835L109.271 101.844L110.519 107.363L105.226 109.427L110.792 110.565L111.187 115.594L113.821 111.039L118.874 111.838L115.402 108.087L117.722 103.363Z" fill="url(#paint2_linear)"/>
<path d="M256.722 124.996L252.342 127.468L248.271 123.477L249.519 128.996L244.226 131.06L249.792 132.198L250.187 137.227L252.821 132.672L257.874 133.471L254.402 129.72L256.722 124.996Z" fill="url(#paint3_linear)"/>
<path d="M298.275 106.075L295.516 107.632L292.951 105.118L293.737 108.594L290.402 109.895L293.909 110.612L294.158 113.78L295.817 110.91L299.001 111.414L296.813 109.05L298.275 106.075Z" fill="url(#paint4_linear)"/>
<path d="M117.572 147.152C117.493 147.17 117.414 147.188 117.335 147.206L117.256 147.224C117.098 147.259 116.97 147.247 116.792 147.204C116.663 147.192 116.565 147.131 116.466 147.07C116.318 146.979 116.199 146.84 116.13 146.731C116.111 146.653 116.061 146.622 116.042 146.544L116.022 146.465C116.002 146.387 116.002 146.387 115.982 146.308L115.963 146.229C115.923 146.072 115.933 145.946 115.943 145.819C115.953 145.692 115.963 145.565 115.972 145.439C115.992 145.185 116.061 144.962 116.16 144.691C116.259 144.419 116.407 144.178 116.476 143.955L116.535 143.859C116.565 143.811 116.595 143.762 116.624 143.714L116.654 143.666L116.713 143.57L116.832 143.377C116.861 143.329 116.891 143.28 116.921 143.232L116.95 143.184C116.98 143.136 117.039 143.039 117.069 142.991L117.098 142.943C117.158 142.847 117.246 142.702 117.385 142.588C117.414 142.54 117.444 142.491 117.474 142.443C117.503 142.395 117.533 142.347 117.562 142.299L117.592 142.25L117.73 142.136L117.869 142.022C117.898 141.974 117.928 141.925 118.007 141.908L118.036 141.859L118.066 141.811L118.096 141.763C118.125 141.715 118.204 141.697 118.234 141.649L118.264 141.6C118.402 141.486 118.54 141.372 118.678 141.258C118.817 141.143 118.955 141.029 119.172 140.897C119.281 140.831 119.389 140.765 119.468 140.747L119.577 140.681L119.656 140.663L119.686 140.615L119.35 140.608L119.014 140.601C118.935 140.619 118.886 140.588 118.807 140.606L118.283 140.683L118.234 140.653L118.027 140.658L117.898 140.645C117.691 140.651 117.533 140.687 117.326 140.692C117.089 140.746 116.881 140.751 116.644 140.804L116.358 140.828L116.2 140.863L116.042 140.899C116.042 140.899 116.042 140.899 116.091 140.929L116.111 141.008C116.082 141.056 116.131 141.087 116.101 141.135L116.072 141.183L116.042 141.231L116.032 141.358L116.003 141.406L116.022 141.485C115.983 141.66 115.993 141.865 115.953 142.04C115.904 142.342 115.825 142.691 115.716 143.089C115.607 143.488 115.449 143.855 115.351 144.127C115.311 144.302 115.193 144.494 115.123 144.718C115.035 144.862 114.995 145.037 114.877 145.23C114.689 145.646 114.403 146.001 114.175 146.26C114.086 146.405 113.948 146.519 113.81 146.633L113.78 146.681C113.751 146.729 113.721 146.778 113.642 146.796C113.613 146.844 113.613 146.844 113.583 146.892C113.524 146.988 113.415 147.054 113.306 147.12C113.198 147.187 113.089 147.253 112.902 147.336C112.813 147.481 112.734 147.499 112.684 147.469L112.655 147.517L112.576 147.535L112.526 147.504C112.447 147.522 112.319 147.51 112.27 147.479L112.22 147.449C112.092 147.437 111.993 147.376 111.845 147.285C111.746 147.224 111.697 147.194 111.628 147.085C111.529 147.024 111.46 146.915 111.421 146.758C111.421 146.758 111.421 146.758 111.371 146.728C111.351 146.649 111.351 146.649 111.332 146.571L111.312 146.492C111.263 146.13 111.263 145.798 111.282 145.544C111.332 145.243 111.352 144.989 111.391 144.814C111.45 144.718 111.46 144.591 111.519 144.495L111.579 144.398C111.737 144.031 111.974 143.645 112.26 143.29C112.349 143.145 112.487 143.031 112.576 142.886L112.635 142.79C112.665 142.742 112.695 142.693 112.774 142.676C112.803 142.627 112.803 142.627 112.833 142.579C112.863 142.531 112.922 142.435 113.001 142.417C113.169 142.254 113.337 142.092 113.475 141.978C113.613 141.863 113.781 141.701 113.919 141.587C114.057 141.472 114.166 141.406 114.275 141.34C114.196 141.358 114.117 141.376 114.008 141.442C113.949 141.538 113.791 141.574 113.712 141.592C113.662 141.562 113.633 141.61 113.583 141.579C113.504 141.597 113.396 141.663 113.267 141.651C113.188 141.669 113.109 141.687 113.03 141.704L112.951 141.722L112.448 141.878L112.033 141.888L111.53 142.044L111.451 142.062C111.421 142.11 111.372 142.079 111.342 142.128L111.214 142.115L111.105 142.181C111.026 142.199 110.947 142.217 110.838 142.283L110.759 142.301C110.809 142.331 110.878 142.44 110.898 142.519C110.917 142.597 110.917 142.597 110.937 142.676L110.957 142.754C110.977 142.833 110.996 142.911 111.016 142.99C111.026 143.195 111.065 143.352 111.056 143.479C111.065 143.684 111.075 143.89 111.036 144.065C110.986 144.366 110.937 144.668 110.828 145.066C110.72 145.464 110.562 145.832 110.433 146.151C110.305 146.471 110.048 146.778 109.811 147.164C109.781 147.212 109.752 147.26 109.673 147.278L109.643 147.326L109.614 147.374C109.584 147.422 109.475 147.489 109.446 147.537C109.14 147.813 108.863 148.042 108.488 148.21L108.409 148.228C108.33 148.246 108.33 148.246 108.251 148.263C108.172 148.281 108.123 148.251 108.073 148.221C107.945 148.208 107.816 148.196 107.718 148.135C107.668 148.105 107.619 148.074 107.57 148.044C107.52 148.014 107.501 147.935 107.451 147.905C107.402 147.874 107.382 147.796 107.362 147.717L107.343 147.639C107.323 147.56 107.283 147.403 107.264 147.324C107.224 147.167 107.214 146.962 107.185 146.678C107.204 146.425 107.224 146.171 107.264 145.996C107.313 145.695 107.412 145.423 107.481 145.2C107.639 144.832 107.876 144.447 108.103 144.188C108.192 144.043 108.36 143.881 108.449 143.736C108.646 143.526 108.873 143.267 109.12 143.086C109.15 143.038 109.229 143.02 109.288 142.924L109.209 142.942L109.13 142.96C109.101 143.008 109.051 142.978 109.022 143.026C108.834 143.11 108.567 143.211 108.38 143.295C108.35 143.344 108.271 143.361 108.192 143.379C108.192 143.379 108.192 143.379 108.163 143.428L107.639 143.504C107.452 143.588 107.264 143.672 107.076 143.756C107.047 143.804 106.997 143.774 106.968 143.822L106.938 143.87L106.701 143.924L106.435 144.026C106.356 144.044 106.247 144.11 106.168 144.127L106.138 144.176C106.188 144.206 106.207 144.285 106.227 144.363C106.227 144.363 106.227 144.363 106.247 144.442C106.267 144.52 106.306 144.677 106.326 144.756C106.316 144.883 106.355 145.04 106.326 145.088L106.346 145.166L106.365 145.245L106.336 145.293C106.326 145.42 106.365 145.577 106.326 145.752C106.306 146.005 106.266 146.18 106.257 146.307C106.178 146.657 106.099 147.007 106 147.278C105.931 147.501 105.842 147.646 105.743 147.917C105.684 148.014 105.644 148.189 105.585 148.285L105.526 148.381C105.437 148.526 105.348 148.671 105.259 148.815C105.141 149.008 105.022 149.201 104.884 149.315C104.825 149.411 104.795 149.46 104.686 149.526C104.627 149.622 104.518 149.688 104.41 149.754C104.38 149.802 104.331 149.772 104.301 149.82C104.222 149.838 104.193 149.886 104.143 149.856L103.985 149.892C103.857 149.879 103.729 149.867 103.65 149.885C103.393 149.86 103.166 149.787 103.047 149.647C102.929 149.508 102.86 149.399 102.771 149.212C102.751 149.133 102.731 149.055 102.712 148.976L102.662 148.946C102.643 148.867 102.643 148.867 102.623 148.789L102.603 148.71C102.613 148.583 102.544 148.475 102.504 148.317C102.494 148.112 102.485 147.907 102.504 147.653C102.544 147.478 102.554 147.352 102.643 147.207L102.672 147.159C102.801 146.839 102.949 146.598 103.097 146.357C103.275 146.068 103.531 145.761 103.788 145.454C103.709 145.472 103.68 145.52 103.601 145.538L103.571 145.586C103.462 145.652 103.354 145.718 103.245 145.784C103.166 145.802 103.136 145.85 103.107 145.899L103.077 145.947L102.969 146.013L102.939 146.061L102.86 146.079L102.83 146.127C102.771 146.223 102.633 146.338 102.505 146.325L102.416 146.47L102.307 146.536C101.981 146.734 101.705 146.963 101.458 147.143L101.507 147.173C101.557 147.204 101.557 147.204 101.606 147.234C101.655 147.264 101.675 147.343 101.724 147.373C101.774 147.404 101.744 147.452 101.793 147.482L101.813 147.561C101.833 147.639 101.853 147.718 101.872 147.796C101.892 147.875 101.912 147.953 101.932 148.032C102.03 148.425 102.08 148.787 102.129 149.149C102.159 149.433 102.109 149.735 102.089 149.988C102.08 150.115 102.05 150.163 101.991 150.26C101.981 150.386 101.922 150.483 101.892 150.531C101.833 150.627 101.773 150.724 101.714 150.82L101.685 150.868C101.596 151.013 101.398 151.224 101.112 151.247C100.954 151.283 100.825 151.27 100.746 151.288L100.697 151.258C100.648 151.227 100.618 151.276 100.569 151.245C100.519 151.215 100.391 151.202 100.342 151.172C100.194 151.081 100.124 150.972 100.006 150.833C99.9369 150.724 99.9172 150.645 99.8481 150.537C99.7987 150.506 99.8283 150.458 99.7789 150.428C99.7592 150.349 99.7395 150.271 99.7 150.113C99.6605 149.956 99.7 149.781 99.7099 149.655C99.7001 149.449 99.7396 149.274 99.8284 149.13C99.868 148.955 99.9865 148.762 100.026 148.587C100.085 148.491 100.174 148.346 100.233 148.25C100.204 148.298 100.174 148.346 100.095 148.364L99.789 148.641L99.6211 148.803C99.6705 148.834 99.6409 148.882 99.6112 148.93C99.5816 148.978 99.5816 148.978 99.552 149.026L99.5224 149.075L99.4927 149.123C99.4631 149.171 99.4335 149.219 99.4039 149.267L99.3742 149.316L99.3446 149.364C99.315 149.412 99.2854 149.46 99.2557 149.508C99.1372 149.701 99.0187 149.894 99.0088 150.021C98.8903 150.214 98.7916 150.485 98.5546 150.87L98.5249 150.919L98.4657 151.015C98.436 151.063 98.3768 151.16 98.3472 151.208C98.2879 151.304 98.2287 151.401 98.12 151.467C97.9818 151.581 97.8929 151.726 97.7843 151.792C97.6461 151.906 97.5374 151.972 97.4091 151.959C97.3301 151.977 97.2807 151.947 97.2511 151.995C97.1721 152.013 97.0734 151.952 97.024 151.922C96.9746 151.892 96.9253 151.861 96.8759 151.831C96.8265 151.801 96.8068 151.722 96.7574 151.692C96.7081 151.661 96.6883 151.583 96.6686 151.504C96.56 151.57 96.5896 151.522 96.5402 151.492C96.5304 151.287 96.5205 151.081 96.56 150.906C96.5897 150.858 96.5996 150.731 96.6292 150.683L96.6588 150.635C96.7181 150.539 96.6983 150.46 96.7576 150.364C96.8168 150.267 96.9057 150.123 96.9946 149.978C97.0242 149.93 97.0835 149.833 97.1624 149.816C97.1921 149.767 97.2217 149.719 97.3007 149.701C97.3599 149.605 97.4389 149.587 97.4686 149.539L97.4982 149.491C97.6068 149.425 97.7451 149.31 97.8833 149.196C97.9919 149.13 98.1005 149.064 98.2881 148.98C98.4758 148.896 98.6634 148.812 98.772 148.746C98.851 148.728 98.9596 148.662 99.0386 148.644C99.1176 148.627 99.1966 148.609 99.3249 148.621C99.3743 148.652 99.4039 148.603 99.4237 148.682L99.6212 148.471L99.9865 148.098C100.125 147.984 100.263 147.87 100.401 147.755C100.54 147.641 100.678 147.527 100.786 147.461C100.816 147.413 100.816 147.413 100.895 147.395C101.063 147.232 101.28 147.1 101.418 146.986C101.448 146.938 101.557 146.872 101.586 146.823C101.399 146.907 101.211 146.991 101.053 147.027L100.974 147.045C100.737 147.098 100.5 147.152 100.283 147.284L100.293 147.157C100.105 147.241 99.7891 147.313 99.5028 147.336C99.2658 147.389 98.9498 147.461 98.6141 147.454C98.4858 147.441 98.3574 147.429 98.2291 147.416C98.1501 147.434 98.0513 147.373 97.923 147.361C97.7749 147.27 97.6268 147.179 97.5379 146.992C97.5182 146.913 97.4985 146.834 97.5281 146.786C97.5083 146.708 97.5676 146.611 97.5775 146.485C97.6664 146.34 97.7552 146.195 97.8441 146.051L97.8737 146.003C98.0219 145.762 98.2885 145.66 98.5551 145.558C98.8217 145.456 99.0883 145.354 99.4043 145.283C99.5622 145.247 99.6412 145.229 99.7696 145.242L99.8486 145.224C100.007 145.188 100.135 145.201 100.263 145.213C100.421 145.178 100.55 145.19 100.678 145.203C100.856 145.245 101.014 145.21 101.142 145.222C101.27 145.235 101.399 145.247 101.497 145.308C101.626 145.32 101.725 145.381 101.823 145.442L101.873 145.472C101.922 145.502 101.971 145.533 102.05 145.515C102.1 145.545 102.179 145.527 102.228 145.558L102.278 145.588C102.406 145.6 102.554 145.692 102.653 145.752C102.702 145.783 102.722 145.861 102.771 145.891C102.909 145.777 103.048 145.663 103.235 145.579L103.808 145.201L104.242 144.936L104.46 144.804L104.489 144.756L104.598 144.69C104.707 144.624 104.786 144.606 104.894 144.54L104.924 144.492L104.953 144.444C104.924 144.492 104.874 144.461 104.795 144.479C104.637 144.515 104.479 144.551 104.351 144.538L104.242 144.604L104.114 144.592C104.035 144.61 103.986 144.579 103.907 144.597C103.907 144.597 103.857 144.567 103.828 144.615C103.699 144.603 103.541 144.638 103.364 144.595C103.028 144.588 102.643 144.551 102.337 144.496C102.208 144.483 102.031 144.44 101.902 144.428L101.853 144.397C101.725 144.385 101.596 144.372 101.448 144.281C101.271 144.239 101.122 144.148 100.945 144.105C100.846 144.044 100.698 143.953 100.579 143.814C100.53 143.783 100.56 143.735 100.51 143.705C100.491 143.626 100.471 143.548 100.471 143.548C100.451 143.469 100.481 143.421 100.51 143.373C100.54 143.325 100.55 143.198 100.579 143.15C100.639 143.053 100.668 143.005 100.728 142.909L100.757 142.86C100.816 142.764 100.925 142.698 100.955 142.65C101.123 142.487 101.34 142.355 101.557 142.223C101.666 142.157 101.824 142.121 101.932 142.055L102.011 142.037C102.09 142.02 102.12 141.971 102.169 142.002C102.327 141.966 102.515 141.882 102.673 141.846L102.702 141.798C102.781 141.78 102.89 141.714 103.018 141.727C103.097 141.709 103.176 141.691 103.255 141.673C103.334 141.655 103.413 141.637 103.492 141.62C103.571 141.602 103.65 141.584 103.729 141.566L103.808 141.548L103.887 141.53C104.016 141.543 104.095 141.525 104.095 141.525C104.381 141.502 104.717 141.509 105.003 141.486C105.418 141.475 105.724 141.53 106.03 141.585L106.158 141.598C106.336 141.641 106.464 141.653 106.642 141.696C106.869 141.769 107.096 141.842 107.274 141.885C107.373 141.946 107.501 141.958 107.649 142.049C107.748 142.11 107.847 142.171 107.916 142.28C107.965 142.31 107.965 142.31 108.015 142.34L108.064 142.371L108.113 142.401L108.163 142.431C108.212 142.462 108.232 142.54 108.281 142.571C108.301 142.649 108.35 142.68 108.37 142.758L108.479 142.692L108.587 142.626L108.666 142.608C108.696 142.56 108.745 142.59 108.775 142.542C108.854 142.524 108.962 142.458 109.041 142.44L109.654 142.219C110.187 142.015 110.69 141.86 111.145 141.674C111.174 141.626 111.224 141.656 111.224 141.656L111.303 141.639L111.332 141.59L111.362 141.542C110.661 141.576 109.92 141.453 109.229 141.36C108.795 141.292 108.36 141.225 108.024 141.218L107.847 141.175C107.541 141.119 107.235 141.064 106.929 141.009C106.751 140.966 106.603 140.875 106.474 140.862L106.425 140.832C106.326 140.771 106.277 140.741 106.149 140.729L106.099 140.698C106 140.638 105.852 140.547 105.704 140.456C105.556 140.364 105.438 140.225 105.369 140.116C105.319 140.086 105.299 140.007 105.23 139.899C105.23 139.899 105.181 139.868 105.211 139.82C105.211 139.82 105.191 139.742 105.171 139.663C105.151 139.584 105.181 139.536 105.211 139.488L105.24 139.44L105.27 139.392C105.3 139.343 105.329 139.295 105.359 139.247C105.448 139.102 105.556 139.036 105.616 138.94C105.783 138.778 105.971 138.694 106.109 138.579L106.188 138.561C106.267 138.544 106.346 138.526 106.376 138.478L106.455 138.46C106.534 138.442 106.613 138.424 106.692 138.406C106.85 138.37 107.037 138.286 107.245 138.281C107.482 138.228 107.689 138.222 107.896 138.217C108.311 138.206 108.746 138.274 109.131 138.311C109.437 138.367 109.743 138.422 110.118 138.586C110.473 138.672 110.799 138.806 111.174 138.97C111.629 139.116 112.122 139.42 112.586 139.771C112.833 139.923 113.05 140.123 113.218 140.292C113.268 140.323 113.287 140.401 113.337 140.432L113.386 140.462C113.435 140.492 113.505 140.601 113.554 140.632C113.603 140.662 113.574 140.71 113.623 140.74C113.672 140.771 113.672 140.771 113.722 140.801C113.771 140.831 113.741 140.88 113.791 140.91L114.581 140.731L114.66 140.714L114.897 140.66L115.548 140.596C115.627 140.578 115.627 140.578 115.706 140.56C116.072 140.519 116.467 140.43 116.832 140.389L116.911 140.371L117.039 140.383C117.118 140.365 117.197 140.347 117.276 140.33C117.326 140.36 117.355 140.312 117.405 140.342C117.178 140.269 116.921 140.244 116.743 140.201L116.565 140.158L116.289 140.055C115.657 139.866 114.976 139.646 114.146 139.336C113.821 139.202 113.495 139.068 113.12 138.904C113.07 138.873 113.021 138.843 112.972 138.813L112.922 138.782C112.823 138.722 112.774 138.691 112.675 138.631L112.626 138.6L112.577 138.57C112.182 138.327 111.876 137.94 111.629 137.456C111.56 137.347 111.52 137.19 111.5 137.112C111.5 137.112 111.5 137.112 111.481 137.033C111.461 136.954 111.441 136.876 111.451 136.749C111.461 136.622 111.471 136.496 111.481 136.369C111.51 136.321 111.54 136.273 111.52 136.194C111.52 136.194 111.52 136.194 111.55 136.146C111.58 136.098 111.639 136.001 111.668 135.953C111.787 135.76 112.054 135.658 112.241 135.574C112.35 135.508 112.508 135.473 112.616 135.407C112.774 135.371 112.853 135.353 113.011 135.317L113.09 135.299C113.327 135.246 113.584 135.271 113.87 135.248C113.999 135.26 114.206 135.255 114.463 135.28C114.512 135.31 114.591 135.292 114.591 135.292L114.641 135.323L114.72 135.305C114.848 135.317 114.897 135.348 115.026 135.36C115.154 135.373 115.282 135.385 115.381 135.446C115.638 135.471 115.914 135.574 116.161 135.726C116.438 135.829 116.734 136.011 117 136.242C117.198 136.363 117.366 136.533 117.563 136.654C117.83 136.884 118.116 137.193 118.304 137.441C118.422 137.58 118.59 137.75 118.679 137.937C118.797 138.077 118.837 138.234 118.906 138.343C118.925 138.421 119.014 138.609 119.083 138.717C119.133 138.748 119.103 138.796 119.153 138.826C119.172 138.905 119.192 138.983 119.192 138.983C119.231 139.141 119.271 139.298 119.31 139.455L119.35 139.612L119.37 139.69L119.389 139.769C119.409 139.847 119.409 139.847 119.429 139.926C119.429 139.926 119.399 139.974 119.449 140.004L119.607 139.969L119.765 139.933L119.844 139.915L120.258 139.904C120.258 139.904 120.337 139.887 120.367 139.838C120.446 139.821 120.574 139.833 120.752 139.876L120.88 139.888L121.265 139.926C121.394 139.938 121.473 139.92 121.522 139.951L122.164 140.013L122.292 140.026C122.371 140.008 122.5 140.02 122.598 140.081L122.727 140.093L122.806 140.076L122.855 140.106C123.161 140.161 123.497 140.168 123.852 140.254C124.03 140.297 124.208 140.34 124.484 140.443C124.583 140.504 124.711 140.516 124.81 140.577C124.859 140.607 124.958 140.668 125.007 140.698L125.106 140.759C125.254 140.85 125.432 140.893 125.531 140.954C125.63 141.014 125.728 141.075 125.827 141.136C125.876 141.166 125.926 141.196 125.945 141.275C125.965 141.353 125.936 141.402 125.906 141.45C125.876 141.498 125.847 141.546 125.768 141.564C125.689 141.582 125.639 141.552 125.59 141.521C125.442 141.43 125.294 141.339 125.146 141.248L124.998 141.157C124.849 141.066 124.573 140.963 124.297 140.859C124.198 140.798 124.069 140.786 123.971 140.725C123.793 140.682 123.665 140.67 123.566 140.609C123.438 140.597 123.309 140.584 123.181 140.572L122.934 140.752L122.549 140.715C122.5 140.684 122.421 140.702 122.371 140.672L122.322 140.642L122.243 140.659L122.193 140.629L122.144 140.599L122.065 140.617L121.986 140.634C121.858 140.622 121.729 140.609 121.601 140.597C121.522 140.615 121.473 140.584 121.394 140.602L121.315 140.62L121.186 140.608L121.107 140.626C121.127 140.704 121.127 140.704 121.097 140.752L121.117 140.831C121.137 140.909 121.107 140.958 121.127 141.036C121.147 141.115 121.117 141.163 121.137 141.241C121.157 141.32 121.147 141.447 121.167 141.525L121.137 141.573C121.157 141.652 121.127 141.7 121.176 141.731C121.216 141.888 121.176 142.063 121.137 142.238C121.147 142.443 121.107 142.618 121.038 142.841C120.999 143.016 120.929 143.239 120.84 143.384C120.682 143.751 120.554 144.071 120.347 144.408C120.11 144.794 119.981 145.113 119.774 145.451C119.744 145.499 119.715 145.547 119.655 145.644L119.596 145.74C119.537 145.836 119.507 145.885 119.448 145.981C119.3 146.222 119.132 146.384 118.915 146.517C118.668 146.697 118.451 146.829 118.233 146.961C117.967 147.063 117.809 147.099 117.572 147.152Z" fill="#F7F1CC"/>
<defs>
<linearGradient id="paint0_linear" x1="156" y1="118" x2="186" y2="118" gradientUnits="userSpaceOnUse">
<stop stop-color="#CDA948"/>
<stop offset="1" stop-color="#E6CF33"/>
</linearGradient>
<linearGradient id="paint1_linear" x1="237.184" y1="105.718" x2="245.757" y2="99.6563" gradientUnits="userSpaceOnUse">
<stop stop-color="#CDA948"/>
<stop offset="1" stop-color="#E6CF33"/>
</linearGradient>
<linearGradient id="paint2_linear" x1="106.956" y1="111.873" x2="118.145" y2="103.962" gradientUnits="userSpaceOnUse">
<stop stop-color="#CDA948"/>
<stop offset="1" stop-color="#E6CF33"/>
</linearGradient>
<linearGradient id="paint3_linear" x1="245.956" y1="133.506" x2="257.145" y2="125.595" gradientUnits="userSpaceOnUse">
<stop stop-color="#CDA948"/>
<stop offset="1" stop-color="#E6CF33"/>
</linearGradient>
<linearGradient id="paint4_linear" x1="291.492" y1="111.436" x2="298.541" y2="106.452" gradientUnits="userSpaceOnUse">
<stop stop-color="#CDA948"/>
<stop offset="1" stop-color="#E6CF33"/>
</linearGradient>
</defs>
</svg>
