<svg xmlns="http://www.w3.org/2000/svg" width="307" height="779" viewBox="0 0 307 779"><defs><linearGradient id="bjela" x1="57" x2="123.25" y1="491.77" y2="491.77" gradientUnits="userSpaceOnUse"><stop offset="0" stop-color="#cda948"/><stop offset="1" stop-color="#e6cf33"/></linearGradient><linearGradient id="bjelb" x1="223.43" x2="264.43" y1="354.7" y2="354.7" gradientUnits="userSpaceOnUse"><stop offset="0" stop-color="#cda948"/><stop offset="1" stop-color="#e6cf33"/></linearGradient><linearGradient id="bjelc" x1="277.35" x2="304.78" y1="764.95" y2="764.95" gradientUnits="userSpaceOnUse"><stop offset="0" stop-color="#cda948"/><stop offset="1" stop-color="#e6cf33"/></linearGradient></defs><g><g><path fill="#d1f3f5" d="M.852 156.017c1.06-16.032 5.83-31.538 10.917-46.832C20.354 83.66 30.635 58.24 47.7 37.355 64.765 16.472 89.673.546 116.701.018c14.839-.317 29.466 3.902 43.033 9.809 10.705 4.641 21.198 10.548 29.148 19.197 7.207 7.805 11.977 17.509 15.898 27.424 13.673 35.018 16.535 76.049-.954 109.379-12.189 22.994-33.281 40.715-56.599 52.528-23.425 11.813-49.18 18.142-74.937 22.783-11.235 2.004-22.788 3.797-34.13 2.32-6.783-.843-19.078-4.43-24.165-10.653-12.083-14.661-15.9-35.545-13.143-76.787z"/></g><g transform="rotate(148.62 87 495)"><path fill="url(#bjela)" d="M57 495.394l24.19 2.525 4.93 27.778 10.477-25.884 26.654 6.787-18.797-20.518 12.48-21.465-23.11 10.89-17.719-17.677 3.236 25.095z"/></g><g transform="rotate(116.41 246.5 356)"><path fill="url(#bjelb)" d="M223.43 356.947l14.97 1.562 3.05 17.191 6.485-16.019 16.495 4.2-11.633-12.697 7.724-13.284-14.303 6.74-10.965-10.94 2.003 15.53z"/></g><g transform="rotate(59.48 292.5 766)"><path fill="url(#bjelc)" d="M277.35 766.452l10.015 1.046 2.041 11.5 4.338-10.716 11.036 2.81-7.783-8.495 5.167-8.887-9.568 4.509-7.336-7.319 1.34 10.39z"/></g></g></svg>