<svg xmlns="http://www.w3.org/2000/svg" width="386" height="496" viewBox="0 0 386 496"><defs><linearGradient id="n8mya" x1="31" x2="61" y1="178" y2="178" gradientUnits="userSpaceOnUse"><stop offset="0" stop-color="#cda948"/><stop offset="1" stop-color="#e6cf33"/></linearGradient></defs><g><g><path fill="#f7f1cc" d="M349.83 487.77l-.712-.472-.237-.157c-.475-.315-.755-.672-1.078-1.228-.28-.357-.366-.755-.452-1.154-.128-.598-.062-1.237.047-1.678.151-.24.108-.44.26-.681l.152-.241.303-.483.152-.24c.304-.483.65-.766.996-1.049l1.04-.849c.692-.565 1.428-.932 2.358-1.34.93-.409 1.903-.618 2.638-.984l.39-.084.583-.125.195-.042.389-.084.778-.167.584-.126.195-.041.778-.168.195-.042c.389-.083.973-.209 1.6-.135a12155.61 12155.61 0 0 0 1.167-.25l.194-.042.627.073.626.074c.195-.042.39-.083.627.074l.195-.042.194-.042.195-.041c.194-.042.432.115.626.073l.195-.041 1.88.221c.626.074 1.253.148 2.117.38.432.115.864.23 1.101.388l.432.116.238.157.194-.042-.798-.87-.797-.872c-.238-.157-.28-.357-.518-.514l-1.467-1.144-.043-.2-.518-.514-.28-.356c-.518-.515-.993-.83-1.51-1.344-.712-.472-1.23-.987-1.942-1.459l-.756-.672-.474-.315-.475-.315.043.2-.152.24c-.195.043-.152.242-.346.284l-.195.041-.195.042-.346.283-.195.042-.151.241c-.541.325-1.04.849-1.58 1.174-.888.607-1.97 1.257-3.246 1.948-1.276.691-2.596 1.184-3.526 1.592-.54.325-1.319.492-2.054.858-.584.126-1.125.45-1.903.618-1.514.534-3.114.669-4.324.72-.584.126-1.21.052-1.837-.022l-.195.042c-.194.042-.389.084-.626-.074l-.39.084c-.389.084-.82-.032-1.253-.148-.432-.115-.864-.231-1.533-.504-.584.125-.821-.032-.864-.231l-.195.041-.237-.157-.043-.2c-.237-.157-.518-.514-.56-.713l-.043-.2c-.28-.356-.366-.755-.495-1.352-.085-.4-.128-.598-.02-1.039-.085-.398.024-.839.328-1.32l-.043-.2.303-.482.152-.242a15.97 15.97 0 0 1 2.339-2.379c.887-.607 1.58-1.173 2.12-1.498.39-.084.736-.366 1.125-.45l.39-.084c1.319-.492 2.876-.826 4.475-.961.584-.126 1.21-.052 1.794-.178l.39-.083c.194-.042.388-.084.626.074l.39-.084c.194-.042.583-.125.82.032.821.032 1.643.064 2.27.138.626.074 1.447.106 2.073.18a9.58 9.58 0 0 1 1.491.305c-.237-.158-.475-.315-.907-.43-.389.083-.864-.232-1.101-.39-.043-.199-.238-.157-.28-.356-.238-.158-.67-.274-.95-.63l-.712-.473-.238-.157-1.619-.903-1.035-1.029-1.62-.903-.237-.157c-.194.042-.237-.158-.432-.116l-.28-.357-.432-.115c-.237-.158-.475-.315-.907-.43l-.237-.158c.043.199-.066.64-.218.88l-.304.483-.151.24-.456.724c-.498.524-.801 1.006-1.147 1.29-.499.523-.997 1.047-1.538 1.372-.887.608-1.774 1.215-3.05 1.907-1.277.691-2.596 1.183-3.721 1.633-1.125.45-2.53.544-4.086.878-.195.042-.39.084-.627-.073l-.195.041-.194.042c-.195.042-.627-.074-.821-.032-1.448-.106-2.701-.253-4.04-.8l-.237-.157-.475-.315c-.238-.158-.28-.357-.323-.556-.28-.357-.56-.714-.646-1.112l-.129-.598c-.043-.2.109-.44.066-.64s.109-.44.26-.681l.153-.241c.151-.242.455-.724.607-.965.303-.482.801-1.006 1.451-1.771.693-.566 1.385-1.132 1.926-1.457.888-.607 1.818-1.016 2.553-1.382 1.32-.492 2.876-.827 4.087-.879.583-.125 1.405-.093 1.988-.218 1.016-.01 2.226-.062 3.285.128.195-.042.432.115.821.032l-.237-.158-.238-.157c-.194.042-.237-.158-.432-.116-.67-.273-1.576-.704-2.245-.977-.195.042-.432-.115-.67-.273l-.194.042-1.468-1.144-2.008-.82c-.195.042-.237-.157-.432-.115l-.195.042-.712-.473-.907-.43c-.237-.158-.67-.274-.906-.431l-.195.042c.043.2-.109.44-.26.681l-.152.241-.607.965c-.347.283-.65.765-.845.807l-.152.24-.151.242-.195.042c-.346.283-.65.765-1.19 1.09-.694.566-1.234.89-1.58 1.173-1.083.65-2.165 1.3-3.095 1.708-.735.366-1.319.492-2.249.9-.39.084-.93.408-1.32.492l-.388.084-1.752.376c-.778.167-1.556.334-2.183.26-.39.084-.584.126-1.016.01-.389.084-.821-.032-1.253-.147-.195.042-.237-.158-.432-.116-.237-.157-.432-.115-.475-.315l-.475-.315c-.28-.356-.56-.713-.798-.87-.56-.714-.926-1.47-.86-2.11.066-.639.175-1.08.436-1.761l.455-.723-.043-.2.304-.482.152-.24c.346-.284.455-.724.758-1.206.499-.524.997-1.048 1.69-1.614.54-.325.887-.608 1.47-.733l.195-.042c1.125-.45 2.097-.66 3.07-.869 1.168-.25 2.573-.344 3.978-.437-.238-.158-.432-.116-.67-.274l-.194.042-1.296-.347c-.238-.157-.432-.115-.627-.074l-.194.042-.432-.115-.195.041-.237-.157-.195.042c-.39.083-1.016.01-1.296-.347l-.584.125-.432-.115c-1.296-.347-2.549-.495-3.607-.685l.042.2.086.398c.043.2-.109.44-.066.64s-.152.241-.109.44l-.152.241-.455.724-.455.723c-.76 1.206-1.56 2.212-2.362 3.218-.65.765-1.538 1.373-2.23 1.939-.346.283-.541.325-.93.408-.347.283-.736.367-.93.409l-1.168.25-.195.042c-.583.126-1.599.136-2.354-.536-.475-.315-.755-.672-.993-.83l-.042-.199c-.043-.199-.238-.157-.28-.356-.043-.2-.324-.556-.367-.756-.128-.598-.02-1.038.047-1.678.109-.44.26-.681.37-1.122-.043-.199.151-.24.109-.44l.607-.964c.303-.483.844-.807 1.19-1.09.498-.524 1.04-.85 1.623-.975.541-.324 1.32-.492 1.86-.816l1.362-.293c-.194.042-.389.084-.626-.074l-1.448-.106-.821-.032c.043.2-.152.241-.346.283l-.39.084-.194.042-.195.041-.584.126-.194.042-.195.042-.583.125c-.779.167-1.557.335-1.903.617-.779.168-1.709.576-3.266.91l-.194.042-.39.084-.778.167c-.389.084-.778.168-1.21.052-.627-.074-1.21.052-1.642-.064-.627-.074-1.059-.19-1.34-.546-.237-.158-.28-.357-.474-.315-.237-.158-.323-.556-.366-.756l-.128-.597c-.043-.2.108-.44.066-.64-.043-.2.109-.44.26-.682-.432-.115-.237-.157-.28-.356.498-.524.996-1.049 1.537-1.373.195-.042.541-.325.736-.367l.194-.042c.39-.083.541-.324.93-.408l1.557-.335c.195-.041.584-.125.821.032.195-.041.39-.083.627.074.389-.083.626.074.821.032l.195-.042c.432.116 1.058.19 1.685.264.432.115.864.231 1.533.504.67.273 1.34.547 1.771.662.237.158.67.273.907.43.237.158.475.316.755.672.043.2.237.158.086.399l1.015-.01 1.837.022 1.88.222c.627.074 1.253.148 1.685.263.195-.041.195-.041.432.116.822.032 1.686.263 2.312.337.195-.042.627.074.821.032-.67-.273-1.339-.546-1.813-.861l-.238-.158c-.712-.472-1.424-.944-2.288-1.176l.346-.283c-.67-.273-1.619-.903-2.374-1.574-.712-.473-1.662-1.103-2.46-1.974l-.84-1.07c-.238-.157-.324-.556-.604-.913-.128-.598-.257-1.196.004-1.877.151-.241.303-.482.498-.524.152-.241.54-.325.887-.608l1.751-.376.195-.042c.973-.209 1.88.222 2.787.652.906.43 1.813.861 2.763 1.491.475.315.712.473.992.83l.238.157c.475.315.755.672 1.035 1.028.475.315.755.672 1.035 1.029.324.556.798.87 1.079 1.228.28.356.56.713.646 1.112.28.357.366.755.451 1.154l.043.2c.043.198.086.398.323.555.043.2.28.357.323.556l.043.2c.28.356.409.954.494 1.353.043.199-.108.44-.066.64.627.073 1.254.147 1.923.42l2.355.537 1.728.462.864.232.194-.042.432.115c.432.116.67.274 1.102.39l.194-.043.195-.041c-.195.041-.238-.158-.475-.315-.475-.315-.95-.63-1.23-.987l-.432-.116-.28-.356c-.238-.158-.28-.357-.518-.515 0 0-.043-.199-.237-.157-.28-.357-.755-.672-1.078-1.228a24.591 24.591 0 0 1-2.242-2.854c-.28-.357-.604-.913-.884-1.27l-.043-.199c-.28-.357-.56-.714-.689-1.311-.323-.556-.451-1.154-.774-1.71-.086-.399-.215-.997-.148-1.637-.043-.199.151-.24.109-.44l.303-.482c.152-.241.346-.283.54-.325.195-.042.542-.325.736-.366l.973-.21.195-.041c.39-.084.821.032 1.016-.01.82.032 1.685.263 2.549.495.432.115.907.43 1.339.546l.237.157c.238.158.432.116.475.315.475.315 1.144.588 1.62.903l.194-.042c.237.158.67.274.95.63l.712.473.712.472.712.473.237.157.238.158c.28.356.518.514.518.514.755.671 1.553 1.542 2.308 2.214 1.035 1.029 1.638 1.942 2.242 2.854l.28.357c.323.556.603.913.926 1.469.366.755.732 1.51 1.055 2.067.086.398.366.755.494 1.353.086.399.172.797.063 1.238l.086.398.042.2.043.199.043.199c.043.2-.109.44-.066.64-.152.24-.11.44-.26.681l.431.116.432.115.238.158c.194-.042.237.157.432.116.237.157.67.273.906.43l2.052 1.019c1.813.861 3.432 1.764 5.009 2.468.194-.042.237.157.237.157l.237.158.195-.042.195-.042c-1.79-1.7-3.278-3.882-4.722-5.865-.883-1.27-1.767-2.54-2.565-3.41l-.323-.557-1.81-2.738c-.323-.556-.451-1.154-.732-1.51l-.042-.2c-.086-.399-.129-.598-.41-.955l-.042-.2-.343-1.594c-.128-.597-.062-1.237.047-1.677-.043-.2.109-.44.218-.881 0 0-.043-.2.151-.241l.304-.483c.152-.24.346-.283.541-.324l.195-.042.194-.042.584-.125c.584-.126 1.016-.01 1.405-.094.821.032 1.49.305 2.117.38l.237.157c.238.157.475.315.67.273l.237.157.713.473c.474.315 1.144.588 1.661 1.102.713.472 1.23.987 1.748 1.5 1.035 1.03 1.919 2.299 2.76 3.37.603.912 1.206 1.825 1.7 3.178.647 1.112 1.098 2.266 1.593 3.62.732 1.51 1.16 3.503 1.394 5.538.214.996.233 2.035.21 2.873.043.2-.109.44-.066.64l.043.2c.043.199-.066.64-.024.838.043.2-.151.242-.109.44l.086.4c.043.199-.152.24-.109.44l2.374 1.575.238.157.712.472 1.748 1.501.474.315c.993.83 2.18 1.617 3.172 2.446l.238.157.28.357.712.473c.043.199.238.157.28.356-.365-.755-.926-1.468-1.249-2.024l-.323-.557-.409-.954a114.127 114.127 0 0 1-3.378-7.197 163.985 163.985 0 0 1-1.398-3.661l-.128-.598-.043-.2-.214-.996-.043-.199-.043-.2c-.343-1.594-.102-3.313.529-5.117.109-.44.412-.922.564-1.163l.152-.242c.152-.24.303-.482.65-.765l1.039-.849c.194-.041.389-.083.54-.324l.195-.042.778-.167c.779-.168 1.686.263 2.355.536.432.116.907.43 1.339.546l1.187.788.237.157c.713.473 1.273 1.186 2.028 1.858.28.357.798.87 1.359 1.584.042.2.28.357.28.357l.043.2.237.157c.28.357.323.556.603.913.28.357.56.713.647 1.112.56.713.969 1.668 1.183 2.665.409.954.666 2.15.728 3.387.171.798.148 1.637.32 2.434a19.651 19.651 0 0 1-.203 3.796c-.066.64-.089 1.479-.35 2.16-.066.64-.37 1.122-.478 1.563-.152.24-.413.922-.522 1.363.043.199-.151.24-.108.44l-.304.482-.91 1.447-.304.482-.152.241-.152.241-.303.483s-.195.041-.152.24l.475.316.475.315.237.157 1.036 1.029s.237.157.431.115c.238.158.518.515.841 1.07l.28.357.841 1.07c.28.357.518.515.56.714l1.402 1.784.28.357c.238.157.518.514.603.913l.28.356.238.158.043.2c.603.912 1.401 1.783 2.047 2.895.323.556.647 1.112 1.055 2.067.086.398.366.755.452 1.154l.171.797.086.398c.128.598.451 1.154.537 1.553l.257 1.196c.043.2.086.398-.066.64-.152.24-.346.282-.541.324-.195.042-.39.084-.627-.074-.237-.157-.28-.356-.323-.556l-.385-1.793-.129-.598c-.128-.598-.537-1.553-.946-2.507-.085-.399-.366-.756-.451-1.154-.323-.556-.603-.913-.69-1.312l-.84-1.07-1.058-.19-.841-1.07c-.043-.2-.28-.357-.323-.556l-.043-.2-.238-.157-.042-.199-.043-.2-.238-.157-.237-.157-.84-1.07c-.238-.158-.281-.357-.518-.515l-.238-.157-.28-.357-.237-.157c-.152.24-.152.24-.347.283l-.152.24c-.151.242-.346.284-.498.525-.151.24-.346.283-.498.524-.152.24-.498.524-.65.765l-.194.042c-.152.24-.347.283-.304.482-.303.482-.844.807-1.385 1.132-.498.524-1.04.848-1.775 1.215-.54.325-1.276.691-1.86.817-1.32.492-2.444.942-3.806 1.235-1.557.334-2.681.784-4.043 1.077l-.779.167-.389.084c-.39.084-.584.125-.973.21-.973.208-1.794.176-2.658-.055-1.059-.19-1.923-.421-2.787-.652-.906-.43-1.381-.746-2.093-1.218z"/></g><g><g><path fill="#f2e96c" d="M129.98 65.55c.24-1.796-1.107-3.544-2.777-3.712a99.963 99.963 0 0 0-15.396-1.879c-1.67-.168-3.173 1.322-2.926 3.198-.04.503.043.72.206 1.155.491 1.303 1.714 2.113 2.896 2.202 4.845.07 9.652.644 14.418 1.72 1.873.1 3.256-1.104 3.578-2.683z"/></g><g><path fill="#def9fa" d="M119.687 90.886c-.039.496.122.923.284 1.35.404 1.068 1.41 1.933 2.656 2.234 1.648.166 3.213-1.086 3.25-2.786.275-3.466 1.033-6.855 2.555-10.02.8-1.476.074-3.399-1.415-4.341-1.488-.942-3.295-.331-4.097 1.145a29.239 29.239 0 0 0-3.233 12.418z"/></g><g><path fill="#f2e96c" d="M91.388 84.35c.327.865 1.06 1.594 1.915 2.037 4.108 1.783 8.703 2.424 12.97 2.198 1.789-.118 2.802-1.682 2.637-3.336-.248-1.87-1.835-3.042-3.42-2.993-3.374.166-6.993-.317-10.247-1.656-1.627-.67-3.374.166-3.899 1.81-.324.354-.2 1.29.044 1.94z"/></g><g><path fill="#def9fa" d="M65.924 69.754c-.04.503.042.72.206 1.153.49 1.302 1.51 2.18 2.893 2.2 4.028.345 8.057.691 12.046 1.54 1.75.385 3.131-.818 3.454-2.395.24-1.794-1.024-3.322-2.57-3.776-4.275-.997-8.589-1.49-13.024-1.698-1.668-.168-3.17 1.32-3.005 2.976z"/></g><g><path fill="#dbb2d2" d="M65.148 110.644c.835 1.626 2.701 2.425 4.01 1.742 1.506-.75 2.138-2.634 1.382-4.048-2.149-4.522-2.513-9.648-1.29-14.12.514-1.606-.6-3.377-2.188-4.031-1.588-.655-3.213.373-3.726 1.98-1.382 5.24-1.095 11.348.896 16.64.358.355.677 1.202.916 1.837z"/></g><g><path fill="#f2e96c" d="M93.736 114.739c-.366-2.76.03-5.299 1.108-7.827.8-1.472.075-3.39-1.41-4.33-1.484-.94-3.286-.33-4.085 1.142-1.638 3.438-2.152 7.458-1.584 11.352l.241.64c.484 1.278 1.768 2.286 3.33 2.238 1.363.02 2.643-1.374 2.4-3.215z"/></g><g><path fill="#f2e96c" d="M136.125 119.004c.244.645.77 1.435 1.62 1.875 1.495.947 3.312.333 4.117-1.15l3.984-8.131c.805-1.484.074-3.417-1.422-4.364-1.496-.947-3.313-.333-4.118 1.15l-3.983 8.131c-.363.85-.523 1.63-.198 2.49z"/></g><g><path fill="#dbb2d2" d="M124.942 108.718c.24-1.785-1.101-3.52-2.764-3.687l-5.636-1.012c-1.744-.383-3.323.882-3.36 2.598-.04.5-.08 1 .165 1.647.407 1.079 1.422 1.952 2.68 2.256l5.637 1.011c1.662.167 3.24-1.097 3.278-2.813z"/></g><g><path fill="#f9d9e3" d="M46.086 91.859c.24-1.784-.817-3.373-2.56-3.755l-7.055-1.747c-1.744-.382-3.2.598-3.44 2.381-.04.5.002 1.216.165 1.647.407 1.079 1.422 1.951 2.395 2.108l7.055 1.747c1.54.451 3.12-.813 3.44-2.381z"/></g><g><path fill="#def9fa" d="M83.738 145.075c-.445-1.777-.087-3.825 1.076-4.941 1.163-1.116 1.039-3.242-.128-4.533-1.168-1.292-3.217-1.322-4.38-.206-2.566 2.795-3.602 7.241-2.35 11.154l.08.213c.566 1.495 2.335 2.583 3.74 2.108 1.606-.543 2.326-2.232 1.962-3.795z"/></g><g><path fill="#f9d9e3" d="M108.612 56.338l.907-8.957c.237-1.763-1.088-3.477-2.73-3.643-1.724-.378-3.285.87-3.322 2.566l-.906 8.958c-.04.493-.078.987.163 1.627.403 1.065 1.406 1.927 2.648 2.228 1.362.02 3.003-1.016 3.24-2.779z"/></g><g><path fill="#f2e96c" d="M142.484 85.82c-.849.773-.968 2.27-.56 3.347.162.43.325.861.69 1.224 1.176 1.301 3.24 1.331 4.33-.01l2.263-2.465c1.172-1.125 1.046-3.268-.332-4.502-1.177-1.301-3.241-1.331-4.331.01z"/></g><g><path fill="#dbb2d2" d="M80.739 51.692a31.192 31.192 0 0 0 5.525 9.34c1.152 1.278 3.056 1.587 4.204.482 1.148-1.106 1.304-3.067.152-4.346-2.025-2.415-3.536-5.242-4.65-8.204-.638-1.693-2.305-2.559-3.97-2.233-1.585.538-2.296 2.21-1.858 3.97.278.145.437.568.597.991z"/></g><g><path fill="#def9fa" d="M129.224 45.626c-.242.567-.2 1.281.044 1.926.325.861 1.136 1.8 2.188 2.172 1.62.665 3.276-.38 3.799-2.014 1.125-4.263 3.22-8.37 6.41-11.39 1.172-1.124 1.128-3.05-.13-4.566-1.175-1.301-3.117-1.615-4.409-.207-3.917 3.51-6.578 8.535-7.902 14.08z"/></g><g><path fill="#f2e96c" d="M50.396 77.087c.804-1.482.559-3.335-.816-4.564-4.082-2.976-8.89-5.464-13.695-6.743-1.736-.381-3.188.594-3.71 2.222-.24.566.003 1.21.246 1.854.406 1.073 1.134 1.795 2.385 2.097 4.039 1.055 7.998 3.104 11.433 5.572 1.173 1.298 3.07.898 4.157-.438z"/></g><g><path fill="#dbb2d2" d="M40.325 124.124c-.086-2.628.715-5.313 2.323-7.065 1.085-1.332 1.041-3.25-.33-4.476-1.372-1.227-3.225-1.325-4.31.008-2.693 3.084-4.215 7.463-3.966 11.726.08.214.041.71.122.924.486 1.285 1.777 2.298 3.146 2.317 1.772-.116 2.978-1.731 3.015-3.434z"/></g><g><path fill="#f9d9e3" d="M161.195 150.866c1.508-.75 1.942-2.568 1.304-4.262-1.991-4.1-4.776-7.93-7.878-11.415-1.153-1.28-3.178-1.31-4.327-.204-.833.76-.95 2.231-.551 3.29.16.423.319.847.676 1.203 2.665 2.917 5.012 6.18 6.764 9.644.637 1.694 2.505 2.494 4.012 1.744z"/></g><g><path fill="#dbb2d2" d="M169.615 135.136c1.617.664 3.435.05 3.957-1.582.522-1.63-.209-3.564-1.826-4.229l-8.654-3.615c-1.618-.665-3.435-.05-3.957 1.58-.16.782-.119 1.495.125 2.14.325.86 1.053 1.582 1.903 2.022z"/></g><g><path fill="#f9d9e3" d="M15.819 91.399c-.658-1.75-2.58-2.575-4.132-1.8-2.369 1.053-5.27 1.3-8.05 1.26C1.961 90.69.452 92.19.414 93.93c-.04.507.125.944.207 1.163.493 1.312 1.516 2.197 2.906 2.217 3.556.27 7.275-.257 10.665-1.657 1.551-.775 2.202-2.723 1.627-4.254z"/></g><g><path fill="#f2e96c" d="M21.264 116.715c1.552-.775 2.284-2.503 1.423-4.182-.861-1.679-2.58-2.573-4.13-1.799-3.39 1.4-6.614 3.237-9.592 5.73-1.06.854-1.385 2.443-.892 3.755.082.218.246.655.533.804.983 1.391 3.027 1.928 4.414.717 2.448-2.066 5.264-3.764 8.244-5.025z"/></g></g><g><g><path fill="#f2e96c" d="M179.813 52.85a2.73 2.73 0 0 0-2.923 3.036 106.38 106.38 0 0 0 1.469 15.562c.193 1.685 1.918 3.091 3.638 2.715.484.006.672-.09 1.048-.284 1.128-.581 1.635-1.863 1.47-3.053a74.396 74.396 0 0 1-1.412-14.57c-.3-1.885-1.73-3.19-3.29-3.405z"/></g><g><path fill="#def9fa" d="M207.387 59.99c.49.006.87-.19 1.25-.386.952-.49 1.574-1.586 1.598-2.89-.196-1.706-1.752-3.228-3.411-3.147-3.43-.04-6.887-.58-10.293-1.923-1.608-.72-3.32.162-3.913 1.759-.594 1.597.391 3.413 1.999 4.134 4.114 1.752 8.47 2.604 12.77 2.453z"/></g><g><path fill="#f2e96c" d="M205.324 88.508c.753-.388 1.29-1.175 1.53-2.065.823-4.255.46-8.921-.657-13.199-.49-1.79-2.19-2.703-3.726-2.423-1.723.376-2.5 2.053-2.118 3.645.872 3.382 1.179 7.055.596 10.42-.292 1.683.872 3.383 2.543 3.8.405.301 1.267.113 1.832-.178z"/></g><g><path fill="#def9fa" d="M194.594 115.727c.484.005.672-.092 1.049-.285 1.129-.582 1.745-1.664 1.471-3.055-.522-4.069-1.045-8.138-1.084-12.2-.005-1.785-1.435-3.09-2.997-3.306-1.75-.12-2.93 1.254-3.034 2.839-.041 4.36.402 8.724 1.141 13.192.194 1.687 1.92 3.094 3.454 2.815z"/></g><g><path fill="#dbb2d2" d="M234.635 111.366c1.423-.998 1.801-3.022.837-4.351-1.074-1.534-3.078-2.064-4.309-1.166-3.996 2.59-8.985 3.344-13.678 2.377-1.702-.425-3.206.876-3.503 2.597-.296 1.72 1.08 3.359 2.782 3.784 5.488 1.078 11.465.336 16.257-2.144.273-.402 1.04-.8 1.614-1.097z"/></g><g><path fill="#f2e96c" d="M234.234 81.945c-2.616.573-5.18.342-7.882-.593-1.61-.723-3.326.162-3.92 1.763-.596 1.602.391 3.422 2.002 4.145 3.713 1.45 7.749 1.697 11.427.835l.571-.295c1.144-.59 1.848-1.988 1.462-3.601-.277-1.41-1.917-2.636-3.66-2.254z"/></g><g><path fill="#f2e96c" d="M232.843 39.649c.569-.293 1.217-.884 1.459-1.78.591-1.589-.39-3.396-1.991-4.113l-8.684-3.494c-1.601-.717-3.306.162-3.898 1.751-.591 1.59.39 3.397 1.99 4.114l8.685 3.494c.895.31 1.681.418 2.44.028z"/></g><g><path fill="#dbb2d2" d="M223.598 51.63a2.742 2.742 0 0 0-2.936 3.05l.232 5.77c.006 1.79 1.55 3.3 3.198 3.219.486.005.972.011 1.539-.28.944-.487 1.562-1.574 1.586-2.866l-.233-5.77c-.194-1.693-1.739-3.203-3.386-3.122z"/></g><g><path fill="#f9d9e3" d="M218.123 132.112c-1.757-.12-3.05 1.06-3.045 2.85l-.168 7.258c.005 1.79 1.252 3.198 3.009 3.318.486.005 1.162-.086 1.54-.28.944-.487 1.562-1.574 1.505-2.57l.168-7.258c.104-1.59-1.44-3.1-3.009-3.318z"/></g><g><path fill="#def9fa" d="M265.712 87.425c-1.631.583-3.7.358-5.038-.76-1.337-1.119-3.377-.842-4.38.45-1.004 1.293-.59 3.403.748 4.522 3.273 2.445 7.821 3.2 11.355 1.636l.19-.098c1.332-.687 2.007-2.584 1.24-3.997-.875-1.615-2.674-2.238-4.115-1.753z"/></g><g><path fill="#f9d9e3" d="M174.277 75.582l-8.945-.305a2.77 2.77 0 0 0-2.963 3.082c.005 1.81 1.564 3.336 3.227 3.255l8.946.305c.49.005.982.011 1.554-.284.953-.492 1.576-1.59 1.6-2.897-.277-1.41-1.646-3.035-3.419-3.156z"/></g><g><path fill="#f2e96c" d="M199.14 37.6c.922.808 2.383.824 3.328.338.378-.195.756-.39 1.026-.785.997-1.283.585-3.38-.933-4.393l-2.847-2.124c-1.329-1.11-3.357-.835-4.245.648-.998 1.283-.586 3.379.932 4.392z"/></g><g><path fill="#dbb2d2" d="M174.311 103.715a25.416 25.416 0 0 0 8.018-6.502c1.012-1.308.896-3.338-.452-4.47-1.348-1.132-3.323-1.155-4.334.153-1.94 2.311-4.404 4.109-7.088 5.498-1.534.794-2.022 2.615-1.331 4.348.882 1.634 2.695 2.263 4.339 1.674.081-.304.465-.502.848-.7z"/></g><g><path fill="#def9fa" d="M161.292 57.031c.596.207 1.273.115 1.84-.178.757-.39 1.485-1.278 1.618-2.372.292-1.69-1.066-3.3-2.746-3.719-4.333-.847-8.724-2.692-12.306-5.723-1.33-1.111-3.17-.933-4.357.448-.998 1.284-.884 3.278.744 4.493 4.207 3.735 9.6 6.09 15.207 7.051z"/></g><g><path fill="#f2e96c" d="M202.635 130.093c-1.602-.718-3.337-.339-4.227 1.149-1.994 4.37-3.362 9.447-3.565 14.437.006 1.798 1.257 3.21 2.94 3.629.597.207 1.166-.086 1.735-.38.948-.488 1.488-1.28 1.511-2.578.15-4.192 1.277-8.373 2.92-12.048 1-1.287.208-3.193-1.314-4.21z"/></g><g><path fill="#dbb2d2" d="M251.174 133.505c-2.526.27-5.298-.361-7.34-1.886-1.525-1.018-3.372-.84-4.264.651-.892 1.49-.587 3.395.937 4.413 3.566 2.543 8.134 3.796 12.208 3.243.19-.098.679-.092.869-.19 1.139-.587 1.841-1.98 1.565-3.383-.494-1.807-2.318-2.929-3.975-2.848z"/></g><g><path fill="#f9d9e3" d="M260.171 10.045c-1.074-1.533-2.966-1.859-4.5-1.066-3.611 2.391-6.782 5.598-9.54 9.114-1.01 1.306-.593 3.44.754 4.57.935.821 2.415.839 3.373.343.383-.198.767-.397 1.04-.799 2.293-3.014 5-5.72 8.036-7.813 1.533-.793 1.91-2.816.837-4.349z"/></g><g><path fill="#dbb2d2" d="M243.443 3.951c.293-1.692-.688-3.5-2.369-3.918-1.68-.418-3.385.46-3.678 2.152l-1.627 9.058c-.293 1.693.688 3.5 2.37 3.918.785.109 1.462.017 2.03-.276.758-.39 1.298-1.182 1.539-2.077z"/></g><g><path fill="#f9d9e3" d="M222.118 161.972c-1.497.771-1.866 2.74-.818 4.232 1.478 2.286 2.316 5.156 2.86 7.925.191 1.68 1.908 3.08 3.541 3 .482.006.856-.187 1.044-.283 1.122-.579 1.735-1.657 1.464-3.04a27.42 27.42 0 0 0-3.777-10.501c-1.048-1.492-3.004-2.009-4.314-1.333z"/></g><g><path fill="#f2e96c" d="M246.383 153.136c-1.048-1.492-2.817-2.105-4.208-1.134-1.39.97-1.867 2.74-.818 4.233 2.017 3.28 4.41 6.367 7.363 9.165 1.02.998 2.575 1.214 3.698.635.187-.097.562-.29.641-.585 1.095-1.072 1.17-3.144-.253-4.443-2.443-2.298-4.62-4.988-6.423-7.87z"/></g></g><g><g><path fill="#f2e96c" d="M210.739 204.466c1.413-1.212 1.589-3.372.437-4.536a92.529 92.529 0 0 0-10.393-10.975c-1.151-1.163-3.313-.966-4.41.609-.375.357-.461.572-.635 1.003-.52 1.292-.147 2.665.688 3.465a64.673 64.673 0 0 1 9.76 10.248c1.353 1.238 3.226 1.183 4.553.186z"/></g><g><path fill="#def9fa" d="M186.184 217.404c-.37.352-.541.775-.712 1.2-.428 1.059-.259 2.336.48 3.335 1.137 1.145 3.185 1.163 4.381-.102 2.591-2.458 5.494-4.559 8.824-6.018 1.622-.623 2.392-2.53 1.91-4.165-.482-1.635-2.274-2.289-3.896-1.665a32.175 32.175 0 0 0-10.987 7.415z"/></g><g><path fill="#f2e96c" d="M169.255 194.042c-.346.86-.29 1.866.055 2.731 1.895 3.897 4.94 7.23 8.333 9.704 1.437 1.02 3.28.461 4.288-.895 1.095-1.571.694-3.443-.542-4.388-2.674-1.964-5.088-4.573-6.638-7.605-.775-1.516-2.674-1.964-4.2-1.044-.488.067-1.036.853-1.296 1.497z"/></g><g><path fill="#def9fa" d="M159.618 166.343c-.374.357-.46.572-.634 1.002-.52 1.29-.348 2.587.687 3.46 2.82 2.76 5.639 5.52 8.083 8.637 1.064 1.377 2.936 1.322 4.262.326 1.412-1.21 1.5-3.152.638-4.456-2.56-3.405-5.494-6.454-8.716-9.361-1.15-1.162-3.31-.966-4.32.392z"/></g><g><path fill="#dbb2d2" d="M131.95 196.48c-.479 1.75.39 3.513 1.852 3.807 1.657.366 3.428-.672 3.822-2.213 1.464-4.762 4.697-8.875 8.688-11.508 1.49-.9 1.857-2.933 1.099-4.414-.758-1.481-2.696-1.709-4.186-.81-4.637 3.12-8.602 7.929-10.712 13.176.028.492-.31 1.331-.563 1.961z"/></g><g><path fill="#f2e96c" d="M150.994 218.148c1.62-2.32 3.663-3.998 6.218-5.248 1.618-.622 2.385-2.525 1.904-4.156-.48-1.63-2.267-2.283-3.885-1.66-3.604 1.593-6.756 4.323-9 7.627l-.256.634c-.512 1.269-.23 2.827.99 3.757 1.02.858 2.95.592 4.03-.954z"/></g><g><path fill="#f2e96c" d="M180.171 249.425c-.258.64-.402 1.564-.06 2.423.485 1.643 2.285 2.3 3.916 1.674l8.609-3.7c1.63-.626 2.404-2.543 1.92-4.187-.485-1.643-2.285-2.3-3.915-1.674l-8.61 3.7c-.858.42-1.516.912-1.86 1.764z"/></g><g><path fill="#dbb2d2" d="M178.633 233.916c1.407-1.204 1.582-3.35.435-4.505l-3.582-4.256c-1.06-1.37-3.126-1.388-4.332-.11-.374.354-.747.709-1.006 1.35-.432 1.07-.26 2.36.484 3.369l3.582 4.256c1.147 1.155 3.213 1.174 4.42-.104z"/></g><g><path fill="#f9d9e3" d="M130.124 169.467c1.407-1.204 1.696-3.061.636-4.43l-4.154-5.691c-1.06-1.37-2.838-1.529-4.245-.325-.373.355-.833.923-1.005 1.35-.431 1.07-.26 2.36.37 3.08l4.153 5.692c.86 1.295 2.925 1.314 4.245.324z"/></g><g><path fill="#def9fa" d="M123.598 234.505c.883-1.622 2.562-2.953 4.211-3.08 1.65-.127 3.017-1.816 3.018-3.517.002-1.7-1.533-2.99-3.182-2.863-3.868.532-7.71 3.262-9.448 7.002l-.085.212c-.599 1.483-.004 3.402 1.39 3.91 1.591.582 3.298-.254 4.096-1.664z"/></g><g><path fill="#f9d9e3" d="M200.505 183.79l6.84-6.231c1.391-1.19 1.563-3.31.43-4.45-1.049-1.353-3.09-1.372-4.283-.11l-6.84 6.232c-.37.35-.738.7-.994 1.334-.427 1.057-.258 2.33.479 3.327 1.02.858 2.977 1.087 4.368-.102z"/></g><g><path fill="#f2e96c" d="M206.922 228.458c-1.175.061-2.293 1.123-2.724 2.19-.173.428-.345.855-.317 1.355-.002 1.715 1.544 3.015 3.292 2.673l3.41-.469c1.662-.128 3.04-1.83 2.84-3.618.002-1.715-1.544-3.014-3.292-2.673z"/></g><g><path fill="#dbb2d2" d="M182.707 162.255c-1.35 3.357-2.11 6.93-2.196 10.509-.001 1.684 1.233 3.1 2.862 2.973 1.629-.126 3.09-1.517 3.09-3.201.115-3.088.903-6.169 2.084-9.107.675-1.678.002-3.369-1.485-4.154-1.573-.575-3.258.252-4.13 1.859.113.281-.056.701-.225 1.12z"/></g><g><path fill="#def9fa" d="M223.048 189.551c-.573.28-1.032.848-1.29 1.488-.345.853-.375 2.066.168 3 .772 1.505 2.747 1.737 4.266.823 3.782-2.536 8.193-4.352 12.688-4.668 1.66-.128 2.95-1.615 3.039-3.542.001-1.713-1.257-3.152-3.204-2.884-5.383.237-10.854 2.4-15.667 5.783z"/></g><g><path fill="#f2e96c" d="M142.96 161.059c1.628-.626 2.716-2.183 2.517-3.965-1.052-4.78-2.99-9.64-5.757-13.58-1.056-1.363-2.827-1.521-4.342-.61-.572.28-.83.919-1.087 1.558-.43 1.064-.374 2.061.368 3.065 2.34 3.296 3.936 7.298 4.846 11.293-.002 1.71 1.711 2.58 3.454 2.239z"/></g><g><path fill="#dbb2d2" d="M104.509 190.242c1.74-2.045 4.194-3.586 6.618-3.92 1.74-.34 3.023-1.82 2.826-3.597-.198-1.778-1.537-2.998-3.277-2.659-4.163.673-8.327 3.052-11.067 6.437-.086.212-.457.564-.543.777-.514 1.274-.23 2.84.795 3.701 1.424 1.008 3.449.529 4.648-.74z"/></g><g><path fill="#f9d9e3" d="M178.168 289.571c1.659.366 3.234-.744 3.91-2.424 1.295-4.343 1.804-8.974 1.835-13.54.002-1.686-1.516-2.963-3.146-2.837-1.153.06-2.25 1.104-2.672 2.153-.17.42-.338.84-.31 1.332.025 3.864-.427 7.793-1.47 11.507-.675 1.68.195 3.443 1.853 3.81z"/></g><g><path fill="#dbb2d2" d="M194.92 283.26c.771 1.504 2.572 2.162 4.09 1.249 1.516-.914 2.29-2.832 1.52-4.336l-4.082-8.093c-.771-1.504-2.572-2.162-4.09-1.249-.657.493-1.116 1.06-1.374 1.699-.344.852-.288 1.851.055 2.71z"/></g><g><path fill="#f9d9e3" d="M107.676 149.255c.696-1.735-.199-3.557-1.905-3.935-2.516-.676-4.887-2.293-6.968-4.054-1.155-1.17-3.325-.973-4.542.322-.376.36-.55.793-.637 1.01-.522 1.3-.35 2.608.69 3.488a22.752 22.752 0 0 0 9.223 5.38c1.706.378 3.53-.693 4.14-2.211z"/></g><g><path fill="#f2e96c" d="M95.125 172.004c1.705.378 3.441-.476 3.935-2.284.493-1.808-.199-3.555-1.905-3.933-3.527-1.047-7.228-1.66-11.19-1.624-1.388-.013-2.719.99-3.24 2.29-.088.217-.262.65-.146.942-.205 1.665.98 3.344 2.86 3.288a33.635 33.635 0 0 1 9.686 1.321z"/></g></g><g><path fill="url(#n8mya)" d="M61 176.395l-10.954-1.116L47.815 163l-4.744 11.442-12.07-3 8.512 9.07L33.86 190l10.466-4.814L52.349 193l-1.465-11.093z"/></g><g><path fill="#d1f3f5" d="M86.863 272.85l-.26-.235-.086-.078c-.173-.157-.265-.319-.362-.564-.091-.162-.102-.329-.112-.495-.015-.25.051-.506.122-.678.077-.088.072-.171.148-.26l.076-.088.153-.177.076-.088c.153-.177.31-.27.469-.364l.473-.28c.315-.186.636-.29 1.038-.398.402-.108.81-.133 1.13-.236l.163-.01.244-.015.082-.005.163-.01.325-.02.245-.015.081-.005.326-.02.081-.005c.163-.01.407-.025.657.044l.244-.015.244-.015.082-.005.25.069.249.068c.081-.005.162-.01.249.069l.081-.005.082-.005.081-.005c.082-.005.168.073.25.068l.081-.005.748.206c.25.068.499.137.835.284.168.073.336.147.422.225l.168.073.087.079.081-.005-.27-.402-.27-.402c-.086-.079-.09-.162-.177-.24l-.525-.555-.005-.083-.178-.24-.091-.162c-.179-.24-.352-.397-.53-.637-.26-.236-.437-.476-.697-.711l-.265-.32-.173-.156-.173-.157.005.084-.076.088c-.081.005-.076.088-.158.093l-.081.005-.082.005-.157.094-.082.005-.076.088c-.24.098-.474.28-.713.378-.397.192-.875.389-1.435.59-.56.202-1.125.32-1.527.428-.24.099-.565.118-.885.222-.245.015-.484.113-.81.133-.646.123-1.303.08-1.796.026-.245.015-.494-.054-.743-.122l-.082.005c-.081.005-.163.01-.25-.069l-.162.01c-.163.01-.331-.063-.499-.137a4.64 4.64 0 0 1-.59-.299c-.245.015-.331-.063-.336-.147l-.082.005-.086-.078-.005-.083c-.087-.079-.178-.24-.184-.324l-.005-.084c-.091-.161-.101-.328-.117-.578-.01-.167-.015-.25.056-.422-.01-.167.061-.339.214-.516l-.005-.083.153-.177.076-.088a6.55 6.55 0 0 1 1.094-.82c.397-.192.713-.379.952-.477.163-.01.32-.103.484-.113l.162-.01a7.052 7.052 0 0 1 1.873-.115c.245-.015.494.054.738.04l.163-.01c.082-.006.163-.01.25.068l.162-.01c.082-.005.245-.015.331.063.331.064.662.127.911.196.25.068.58.132.83.2.25.069.417.142.585.216a1.128 1.128 0 0 0-.34-.23c-.164.01-.337-.148-.423-.226-.005-.083-.087-.078-.092-.162-.086-.078-.254-.152-.346-.314l-.26-.235-.086-.078-.6-.466-.357-.48-.6-.466-.087-.079c-.081.005-.086-.078-.168-.073l-.092-.162-.167-.073a1.13 1.13 0 0 0-.341-.23l-.087-.08c.005.084-.066.256-.142.345l-.153.176-.077.089-.228.265c-.235.181-.387.358-.545.452-.234.181-.468.363-.708.461-.397.192-.793.384-1.353.585-.56.202-1.125.32-1.609.433-.483.113-1.058.065-1.71.105-.081.005-.163.01-.25-.069l-.08.005-.082.005c-.081.005-.25-.068-.33-.063-.581-.133-1.08-.27-1.589-.573l-.086-.079-.173-.157c-.087-.078-.092-.161-.097-.245-.092-.162-.183-.323-.194-.49l-.015-.25c-.005-.084.071-.172.066-.256-.005-.083.072-.171.148-.26l.076-.088.306-.354c.152-.176.386-.358.697-.628.316-.187.631-.374.87-.472.397-.192.8-.3 1.12-.403a5.876 5.876 0 0 1 1.71-.104c.244-.015.575.048.82.033.412.059.905.112 1.323.254.081-.005.168.074.33.064l-.086-.079-.086-.078c-.082.005-.087-.078-.168-.074-.255-.151-.596-.382-.85-.534-.082.005-.168-.073-.255-.152l-.081.005-.525-.554-.763-.455c-.081.005-.086-.079-.168-.074l-.081.005-.26-.235-.341-.23c-.087-.079-.254-.152-.34-.23l-.082.004c.005.084-.072.172-.148.26l-.076.089-.306.353c-.158.094-.31.27-.392.275l-.076.089-.076.088-.082.005c-.157.093-.31.27-.55.369-.315.186-.554.284-.712.378-.478.196-.957.393-1.359.501-.32.104-.565.119-.967.227-.163.01-.402.108-.565.118l-.163.01-.733.045c-.325.02-.651.04-.9-.03-.163.01-.245.016-.413-.058-.163.01-.33-.063-.498-.137-.082.005-.087-.078-.168-.073-.087-.078-.168-.074-.173-.157l-.174-.157c-.091-.162-.183-.323-.27-.402-.183-.324-.284-.652-.218-.907.066-.256.137-.427.285-.687l.229-.266-.005-.083.152-.177.077-.088c.158-.093.229-.265.382-.442a7.14 7.14 0 0 1 .783-.55c.24-.098.397-.192.642-.207l.081-.005c.484-.113.89-.138 1.298-.163.488-.03 1.064.02 1.639.068-.087-.079-.168-.074-.255-.152l-.081.005-.504-.22c-.087-.079-.168-.074-.25-.069l-.08.005-.169-.073-.081.005-.087-.079-.081.005c-.163.01-.412-.058-.504-.22l-.244.015-.168-.074c-.504-.22-1.003-.357-1.42-.5l.005.084.01.167c.005.083-.071.172-.066.255.005.084-.077.089-.071.172l-.077.088-.229.265-.229.266c-.382.441-.768.8-1.155 1.158-.31.27-.708.462-1.023.649-.158.093-.24.098-.402.108a.869.869 0 0 1-.402.108l-.489.03-.081.005c-.245.015-.657-.044-.922-.362-.173-.157-.264-.319-.35-.397l-.006-.084c-.005-.083-.086-.078-.092-.162-.005-.083-.096-.245-.101-.328-.016-.25.056-.422.122-.677.071-.172.147-.26.219-.432-.005-.084.076-.089.07-.172l.306-.354c.153-.176.392-.275.55-.368.234-.182.473-.28.718-.295.239-.098.565-.118.804-.216l.57-.035c-.082.005-.163.01-.25-.069l-.58-.132-.33-.063c.004.083-.077.088-.158.093l-.163.01-.082.005-.081.005-.244.015-.082.005-.081.005-.245.015c-.325.02-.651.04-.809.133-.326.02-.728.128-1.38.168l-.08.005-.163.01-.326.02c-.163.01-.326.02-.494-.054-.25-.069-.494-.054-.662-.127-.249-.069-.417-.142-.508-.304-.087-.078-.092-.162-.174-.157-.086-.078-.096-.245-.101-.328l-.016-.25c-.005-.084.072-.172.067-.256-.006-.083.07-.172.147-.26-.168-.073-.086-.078-.091-.162.234-.182.468-.363.707-.462.081-.005.24-.098.32-.103l.082-.005c.163-.01.24-.098.402-.108l.652-.04c.081-.005.244-.015.33.064.082-.005.163-.01.25.068.163-.01.25.069.33.064l.082-.005c.168.073.417.142.667.21.168.074.336.147.59.299.255.152.51.304.677.377.087.079.255.152.341.23.087.079.173.157.265.32.005.083.086.078.01.166l.412.059.743.122.749.205c.249.069.498.137.666.21.082-.004.082-.004.168.074.331.064.667.21.916.279.082-.005.25.069.331.064-.254-.152-.509-.304-.682-.461l-.086-.079c-.26-.235-.52-.47-.855-.617l.157-.093c-.254-.152-.6-.466-.865-.785-.26-.235-.606-.549-.875-.95l-.275-.486c-.087-.079-.097-.246-.188-.407-.016-.25-.031-.5.117-.761.076-.088.152-.177.234-.182.076-.088.239-.098.397-.191l.733-.045.081-.005c.407-.025.748.205 1.09.436.34.23.681.46 1.027.774.173.157.26.235.351.397l.087.079c.173.157.265.318.356.48.173.157.265.319.357.48.096.246.27.403.36.565.093.162.184.323.194.49.092.162.102.329.112.496l.005.083c.006.083.01.167.097.245.005.084.092.162.097.245l.005.084c.091.162.107.412.117.579.005.083-.071.172-.066.255.25.068.499.137.753.289l.921.362.672.294.336.147.081-.005.168.073c.168.074.255.152.423.226l.081-.005.082-.005c-.082.005-.087-.079-.173-.157-.173-.157-.346-.314-.438-.476l-.168-.073-.092-.162c-.086-.078-.091-.162-.178-.24 0 0-.005-.084-.086-.079-.092-.161-.265-.318-.362-.564-.27-.402-.544-.887-.733-1.294-.091-.162-.188-.407-.28-.57l-.005-.083c-.091-.161-.183-.323-.198-.573-.097-.246-.112-.496-.209-.741a2.124 2.124 0 0 1 .041-.672c-.005-.084.076-.089.071-.172l.153-.177c.076-.088.158-.093.24-.098.08-.005.238-.098.32-.103l.407-.025.081-.005c.163-.01.331.063.413.058.33.064.666.21 1.002.358.168.073.341.23.51.303l.086.079c.086.078.168.073.173.157.173.157.427.309.6.465l.082-.005c.086.079.254.152.346.314l.26.235.259.236.26.235.086.079.087.078c.091.162.178.24.178.24.264.319.534.721.799 1.04.356.48.545.887.733 1.294l.091.162c.097.245.189.407.285.653.102.328.204.657.3.902.01.167.103.329.118.579.01.167.02.334-.051.505l.01.167.005.084.005.083.005.083c.005.084-.071.172-.066.256-.076.088-.071.171-.147.26l.167.073.168.074.087.078c.081-.005.087.078.168.073.087.079.254.152.341.23l.769.54c.682.46 1.282.926 1.878 1.308.081-.005.086.079.086.079l.087.078.081-.005.082-.005c-.621-.799-1.09-1.775-1.553-2.668-.28-.568-.56-1.137-.83-1.54l-.096-.245-.565-1.22c-.097-.246-.112-.496-.204-.658l-.005-.084c-.01-.166-.015-.25-.107-.412l-.005-.083-.04-.667c-.016-.25.05-.506.122-.677-.005-.084.07-.172.142-.344 0 0-.005-.083.077-.088l.152-.177c.077-.088.158-.093.24-.098l.08-.005.082-.005.245-.015c.244-.015.412.058.575.048.33.064.585.216.834.284l.087.079c.086.078.173.157.254.152l.087.078.26.235c.173.157.427.31.605.55.26.235.438.475.616.715.356.48.636 1.05.911 1.535.188.407.377.814.494 1.393.193.49.305.986.422 1.565.204.657.255 1.491.224 2.33.026.417-.03.84-.091 1.178.005.083-.072.172-.067.255l.006.083c.005.084-.067.256-.062.339.006.083-.076.088-.07.172l.01.167c.004.083-.077.088-.072.171l.865.785.087.078.26.235.615.716.173.157c.352.397.784.79 1.135 1.187l.087.078.091.162.26.235c.005.083.087.078.092.162-.102-.329-.285-.652-.382-.898l-.097-.245-.107-.412c-.3-.902-.605-1.888-.926-3.124-.112-.496-.224-.991-.34-1.57l-.016-.25-.005-.084-.026-.417-.005-.083-.005-.084c-.04-.667.163-1.349.53-2.041.07-.172.223-.349.3-.437l.076-.088c.076-.089.153-.177.31-.27l.474-.28c.081-.005.163-.01.239-.099l.081-.005.326-.02c.326-.02.667.21.921.363.168.073.341.23.51.304l.432.392.086.078c.26.235.443.56.708.878.092.162.27.402.453.726.005.083.091.161.091.161l.006.084.086.078c.092.162.097.245.188.407.092.162.184.324.194.49.183.324.29.736.315 1.154.107.412.138.912.087 1.417.02.334-.04.672-.02 1.006a8.05 8.05 0 0 1-.316 1.526c-.066.255-.127.594-.275.854-.066.255-.219.432-.29.604a2.604 2.604 0 0 0-.295.52c.005.084-.076.089-.071.172a531.213 531.213 0 0 0-.611.707l-.153.177-.076.088-.076.088-.153.177s-.082.005-.077.089l.174.156.173.157.086.079.356.48s.087.079.168.074c.087.078.178.24.275.485l.092.162.275.486c.091.161.178.24.183.323l.458.81.092.161c.086.079.178.24.188.407l.092.162.086.079.005.083c.189.407.458.81.652 1.3.096.245.193.49.3.902.01.167.102.329.112.496l.02.333.01.167c.016.25.112.495.123.662l.03.5c.005.084.01.168-.066.256s-.158.093-.24.098c-.08.005-.162.01-.249-.068-.086-.079-.091-.162-.096-.246l-.046-.75-.015-.25c-.016-.25-.123-.663-.23-1.075-.01-.166-.101-.328-.111-.495-.097-.245-.189-.407-.199-.574l-.275-.486-.417-.141-.275-.486c-.005-.083-.092-.162-.097-.245l-.005-.084-.086-.078-.005-.083-.005-.084-.087-.078-.087-.079-.274-.485c-.087-.079-.092-.162-.178-.24l-.087-.079-.092-.162-.086-.078c-.076.088-.076.088-.158.093l-.076.089c-.077.088-.158.093-.234.181-.077.089-.158.094-.235.182-.076.088-.234.182-.31.27l-.081.005c-.077.088-.158.093-.153.177-.153.177-.392.275-.631.373-.234.182-.474.28-.794.384-.24.098-.56.201-.804.216-.565.118-1.049.231-1.619.266-.651.04-1.135.153-1.705.188l-.326.02-.162.01-.408.025a2.215 2.215 0 0 1-1.074-.186 13.08 13.08 0 0 1-1.089-.436 5.965 5.965 0 0 1-.773-.622z"/></g></g></svg>