<svg xmlns="http://www.w3.org/2000/svg" width="1633" height="109" viewBox="0 0 1633 109"><g><g><g><path fill="#cfb0d0" d="M17.312 23.012l.545-.255.181-.086c.363-.17.68-.208 1.133-.199.317-.037.588.057.859.151.406.142.767.416.992.642.09.18.225.227.314.406l.09.18.179.359.089.18c.179.358.222.67.266.982l.13.935c.087.623.038 1.2-.057 1.909-.095.708-.325 1.37-.374 1.946l-.092.265-.138.397-.046.132-.092.265-.184.529-.139.397-.046.132-.184.53-.046.131c-.092.265-.23.662-.504 1.012l-.138.397-.138.397-.046.132-.274.35-.274.35c-.046.132-.092.264-.273.349l-.046.132-.046.133-.046.132c-.046.132-.228.217-.274.35l-.046.132-.821 1.05c-.274.349-.547.699-1.003 1.134-.227.217-.455.434-.636.52l-.228.217-.182.085-.046.132.816-.16.816-.162c.181-.085.317-.038.498-.123l1.225-.463.136.047.498-.123.317-.038c.499-.123.862-.294 1.36-.417.545-.255 1.044-.378 1.589-.634l.68-.208.363-.17.363-.17-.135-.048-.09-.18c.046-.131-.09-.179-.043-.31l.046-.133.046-.133-.044-.311.046-.133-.089-.179c.003-.444-.13-.935-.128-1.38-.04-.755-.035-1.643.016-2.664.052-1.02.239-1.994.334-2.702.002-.444.186-.974.235-1.55.138-.397.141-.84.325-1.37.233-1.106.737-2.117 1.149-2.864.138-.397.412-.746.685-1.096l.046-.132c.047-.133.093-.265.274-.35l.092-.265c.092-.264.32-.482.548-.7.227-.217.455-.434.864-.737.138-.396.32-.482.455-.434l.046-.133.182-.085.135.047c.182-.085.499-.123.634-.076l.136.048c.317-.038.588.056.994.197.271.095.407.142.632.369.271.094.496.32.675.68l.135.047.18.359.089.18c.311.85.488 1.652.574 2.276.041.756.128 1.38.125 1.823-.092.265-.049.577-.14.841l-.093.265c-.187.973-.555 2.032-1.06 3.043-.137.397-.41.747-.549 1.143l-.092.265c-.046.132-.092.265-.274.35l-.092.264c-.046.133-.138.397-.32.482-.32.482-.64.965-.913 1.314-.273.35-.593.832-.867 1.182-.273.35-.501.567-.729.784.182-.085.363-.17.591-.387.092-.265.455-.435.637-.52.135.047.181-.086.317-.038.181-.085.409-.303.726-.34l.545-.256.181-.085 1.136-.644.997-.246 1.135-.643.182-.085c.046-.132.181-.085.227-.217l.317-.038.228-.218c.182-.085.363-.17.591-.387l.181-.086c-.135-.047-.36-.273-.45-.453l-.178-.359-.09-.18-.268-.538c-.133-.49-.312-.85-.355-1.162-.133-.491-.266-.982-.263-1.426-.041-.756-.082-1.512-.03-2.532.051-1.02.238-1.994.379-2.835.14-.841.598-1.72.967-2.779.046-.132.092-.264.274-.35l.046-.131.046-.133c.046-.132.273-.35.32-.482.593-.832 1.14-1.531 1.959-2.136l.181-.085.363-.17c.182-.086.317-.039.453.009.317-.038.634-.076.905.018l.406.141c.136.048.225.227.36.274.136.048.226.227.315.406l.09.18.357.718c.18.359.312.85.534 1.52.087.624.174 1.248.171 1.692.041.756-.054 1.464-.102 2.04-.187.974-.556 2.032-.968 2.78-.138.396-.457.878-.596 1.275-.365.614-.777 1.36-1.279 1.928-.046.132-.227.218-.32.482l.182-.085.182-.085c.046-.132.181-.085.228-.218.409-.302 1-.69 1.409-.992.046-.133.227-.218.409-.303l.046-.132 1.225-.464 1.227-.908c.046-.132.182-.085.228-.217l.046-.132.545-.256.59-.387c.182-.086.41-.303.59-.388l.047-.132c-.135-.048-.225-.227-.314-.407l-.09-.179-.358-.718c-.043-.312-.222-.67-.176-.803l-.09-.18-.089-.179.046-.132c-.043-.312-.222-.67-.22-1.115-.086-.623-.083-1.068-.127-1.38.006-.888.01-1.776.106-2.484.048-.577.187-.974.281-1.682.092-.265.095-.709.187-.974l.092-.264.415-1.19c.184-.53.368-1.06.642-1.409.092-.265.138-.397.366-.614.092-.265.32-.482.547-.7.046-.132.182-.085.228-.217.181-.085.227-.218.363-.17l.363-.17c.317-.039.634-.077.816-.162.634-.076 1.222-.02 1.582.254.36.274.586.5.9.907l.268.538.136.047.179.36.09.179c.043.312.267.538.446.897.133.491.266.983.353 1.606-.003.444.04.756-.098 1.153l-.046.132c-.14.841-.37 1.503-.601 2.164-.276.794-.734 1.673-1.192 2.552.181-.085.227-.217.409-.302l.046-.133.683-.652c.181-.085.228-.218.274-.35l.046-.132.227-.218.046-.132.182-.085.046-.132c.092-.265.366-.615.683-.653l.138-.396.227-.218c.683-.652 1.23-1.352 1.732-1.919l-.136-.047-.27-.094c-.136-.048-.226-.227-.361-.274-.136-.047-.09-.18-.225-.227l-.09-.18-.268-.538-.268-.538c-.447-.898-.76-1.748-1.07-2.598-.223-.67-.264-1.426-.35-2.05-.044-.312.002-.444.094-.709-.043-.311.049-.576.095-.708l.276-.794.046-.132c.139-.397.504-1.012 1.184-1.22.364-.17.68-.208.862-.293l.136.047c.135.047.181-.085.317-.038.135.047.452.01.588.056.406.142.631.368.992.642.225.227.314.406.54.633.135.047.089.18.224.227l.358.718c.179.358.176.803.22 1.114.132.492.13.936-.009 1.333-.002.444-.186.973-.19 1.417l-.321.926c.046-.132.092-.265.273-.35l.594-.832.32-.482c-.136-.047-.09-.179-.044-.311l.092-.265.046-.132.046-.133.138-.396.046-.133.046-.132.139-.397c.184-.53.368-1.058.325-1.37.184-.53.279-1.238.647-2.296l.046-.133.092-.264.184-.53c.093-.264.185-.529.412-.746.274-.35.412-.747.64-.964.273-.35.501-.567.818-.605.182-.086.317-.038.363-.17.182-.086.453.009.588.056l.407.141c.135.047.225.227.36.274.136.047.225.227.315.406.227-.217.181-.085.317-.038.132.491.265.983.263 1.427-.046.132-.003.444-.05.576l-.045.132c-.092.265-.003.444-.095.71l-.368 1.057c-.046.133-.138.397-.32.483-.046.132-.092.264-.274.35-.092.264-.273.349-.32.481l-.045.133c-.228.217-.502.567-.775.917a7.987 7.987 0 0 1-.865.737c-.409.303-.818.605-1.046.823-.181.085-.409.302-.59.387-.182.085-.364.17-.68.208-.136-.047-.182.086-.272-.094l-.365.614-.686 1.097-.821 1.05c-.274.349-.547.699-.775.916-.046.132-.046.132-.228.217-.32.482-.774.917-1.048 1.267-.046.132-.274.35-.32.482.41-.303.818-.605 1.182-.775l.181-.085c.545-.256 1.09-.511 1.545-.946l.043.312c.41-.303 1.135-.643 1.816-.852.544-.255 1.27-.596 2.086-.757l.951-.114c.182-.085.453.01.77-.028.407.141.813.283 1.127.689.09.18.18.359.133.491.09.18-.002.444.041.756l-.415 1.19-.046.133c-.23.661-.82 1.05-1.411 1.437-.591.388-1.182.775-1.908 1.116-.363.17-.545.255-.862.293l-.181.085c-.363.17-.68.209-.998.247-.363.17-.68.208-.997.246-.452-.01-.815.16-1.132.199-.318.038-.635.076-.906-.019-.317.038-.588-.056-.859-.15l-.135-.048c-.136-.047-.271-.094-.453-.009-.135-.047-.317.038-.452-.01l-.136-.046c-.317.038-.723-.104-.994-.198-.136-.047-.225-.227-.36-.274-.274.35-.548.7-.957 1.002l-1.184 1.22-.91.87-.456.434-.046.133-.228.217c-.227.217-.409.303-.637.52l-.046.132-.046.133c.046-.133.182-.086.364-.17.363-.171.726-.341 1.043-.38l.227-.217.317-.038c.182-.085.317-.038.5-.123 0 0 .134.047.18-.085.318-.038.68-.208 1.133-.199a17.285 17.285 0 0 1 2.537-.303c.317-.038.77-.03 1.086-.067l.136.047c.317-.038.634-.076 1.04.065.453.01.86.151 1.312.16.271.095.678.236 1.038.51.136.047.09.18.225.227l.179.359c.09.18.043.311-.003.444-.046.132-.002.444-.048.576-.093.265-.139.397-.23.662l-.047.132c-.092.265-.32.482-.366.614-.32.482-.774.917-1.23 1.352-.227.217-.59.388-.818.605l-.182.085c-.181.085-.227.218-.363.17-.363.17-.772.473-1.135.644l-.046.132c-.182.085-.41.303-.726.34l-.545.256-.545.255-.544.256-.182.085-.181.085c-.318.038-.5.123-.5.123-.68.208-1.495.37-2.175.578-.997.246-1.767.275-2.537.303l-.317.038c-.452-.009-.77.03-1.222.02-.588-.056-1.176-.113-1.629-.122-.27-.094-.588-.057-.994-.198-.271-.094-.542-.189-.767-.415l-.271-.095-.136-.047-.135-.047-.135-.047c-.136-.047-.225-.227-.361-.274-.09-.18-.225-.227-.314-.406l-.228.217-.228.218-.181.085c-.046.132-.182.085-.228.217-.181.086-.409.303-.59.388l-1.364.86c-1.18.776-2.316 1.42-3.316 2.11-.046.132-.182.085-.182.085l-.181.085-.046.132-.046.132c1.677-.454 3.533-.55 5.254-.692 1.087-.067 2.173-.134 2.99-.295l.452.01 2.309-.087c.452.01.859.15 1.176.113l.135.047c.271.094.407.142.724.104l.135.047 1.084.377c.407.142.767.415.992.642.136.047.225.227.45.453 0 0 .135.047.09.18l.178.359c.09.18.044.312-.002.444l-.046.132-.046.132-.139.397c-.138.397-.365.615-.458.88-.32.481-.728.784-1.002 1.134l-.182.085c-.181.085-.363.17-.409.302l-.181.085-.545.256c-.363.17-.772.473-1.271.596-.545.255-1.043.378-1.542.501-.997.247-2.084.313-3.035.427-.77.029-1.54.058-2.534-.14-.905-.019-1.764-.17-2.758-.367-1.177-.113-2.532-.585-3.84-1.189-.678-.235-1.31-.604-1.806-.925-.135-.047-.224-.226-.36-.273l-.135-.048c-.136-.047-.36-.273-.496-.32-.136-.048-.09-.18-.225-.227l-.271-.095c-.136-.047-.09-.179-.225-.226l-1.816.851-.181.085-.545.256-1.542.501-.363.17c-.862.294-1.77.72-2.631 1.013l-.182.085-.317.038-.545.255c-.135-.047-.181.086-.317.038.588.057 1.223-.02 1.675-.01l.453.01.723.103c1.629.122 3.393.29 5.564.602.859.15 1.718.301 2.712.499l.407.141.135.048.678.235.135.048.136.047c1.084.377 2.03 1.151 2.884 2.19.225.227.403.586.493.765l.09.18c.089.18.178.359.222.67l.13.936c-.046.132-.092.264-.003.444l-.046.132-.184.53c-.184.529-.775.916-1.184 1.219-.228.217-.591.388-.819.605l-.907.426-.182.085c-.545.255-1.179.331-1.859.54-.317.037-.816.16-1.45.236-.135-.047-.317.038-.317.038l-.135-.047-.182.085c-.317.038-.452-.009-.77.029-.317.038-.634.076-.905-.018-.634.075-1.357-.028-2.035-.264-.723-.103-1.536-.386-2.303-.802-.542-.188-1.038-.51-1.58-.698a13.836 13.836 0 0 1-2.209-1.51c-.36-.274-.856-.595-1.17-1.002-.361-.273-.54-.632-.765-.859-.09-.18-.404-.586-.629-.812-.135-.047-.09-.18-.225-.227l-.179-.359-.536-1.077-.18-.358-.089-.18-.09-.18-.178-.358s.046-.133-.09-.18l-.363.17-.363.17-.181.086-.997.246s-.182.085-.228.217c-.182.086-.499.124-.951.114l-.317.038-.952.114c-.317.038-.498.123-.634.076l-1.585.19-.317.038a1.11 1.11 0 0 1-.77.029l-.317.038-.181.085-.136-.047c-.77.028-1.585.19-2.49.171-.453-.01-.905-.018-1.629-.122-.27-.094-.588-.056-.859-.15l-.542-.19-.27-.094c-.407-.141-.86-.15-1.131-.245l-.813-.283c-.135-.047-.271-.094-.36-.274-.09-.179-.044-.311.002-.444.046-.132.092-.264.274-.35.181-.085.317-.037.452.01l1.22.424.407.142c.406.141 1.13.245 1.853.349.271.094.588.056.86.15.452.01.769-.029 1.04.066l.95-.114.502-.567.951-.114c.136.047.317-.038.453.009l.135.047.182-.085.136.047.135.047.182-.085.181-.085.951-.114c.182-.085.317-.038.499-.123l.181-.085.318-.038.181-.085c-.09-.18-.09-.18-.043-.312l-.09-.18c-.09-.179-.043-.311-.133-.49-.09-.18-.043-.312-.132-.492-.09-.18-.133-.491-.223-.67l.046-.133c-.09-.18-.043-.312-.179-.359-.178-.359-.176-.803-.173-1.247-.133-.491-.13-.935-.082-1.512.003-.444.052-1.02.19-1.417.187-.973.328-1.814.65-2.74.369-1.059.51-1.9.832-2.826l.184-.529.092-.265.23-.661c.23-.662.55-1.144 1.006-1.579.5-.567.956-1.002 1.411-1.436.591-.388.954-.559 1.499-.814z"/></g><g><path fill="#f7f1cc" d="M1596.83 100.77l-.712-.472-.237-.157c-.475-.315-.755-.672-1.078-1.228-.28-.357-.366-.755-.452-1.154-.128-.598-.062-1.237.047-1.678.151-.24.108-.44.26-.681l.152-.241.303-.483.152-.24c.304-.483.65-.766.996-1.049l1.04-.849c.692-.565 1.428-.932 2.358-1.34.93-.409 1.903-.618 2.638-.984l.39-.084.583-.125.195-.042.389-.084.778-.167.584-.126.195-.041.778-.168.195-.042c.389-.083.973-.209 1.6-.135a12155.61 12155.61 0 0 0 1.167-.25l.194-.042.627.073.626.074c.195-.042.39-.083.627.074l.195-.042.194-.042.195-.041c.194-.042.432.115.626.073l.195-.041 1.88.221c.626.074 1.253.148 2.117.38.432.115.864.23 1.101.388l.432.116.238.157.194-.042-.798-.87-.797-.872c-.238-.157-.28-.357-.518-.514l-1.467-1.144-.043-.2-.518-.514-.28-.356c-.518-.515-.993-.83-1.51-1.344-.712-.472-1.23-.987-1.942-1.459l-.756-.672-.474-.315-.475-.315.043.2-.152.24c-.195.043-.152.242-.346.284l-.195.041-.195.042-.346.283-.195.042-.151.241c-.541.325-1.04.849-1.58 1.174-.888.607-1.97 1.257-3.246 1.948-1.276.691-2.596 1.184-3.526 1.592-.54.325-1.319.492-2.054.858-.584.126-1.125.45-1.903.618-1.514.534-3.114.669-4.324.72-.584.126-1.21.052-1.837-.022l-.195.042c-.194.042-.389.084-.626-.074l-.39.084c-.389.084-.82-.032-1.253-.148-.432-.115-.864-.231-1.533-.504-.584.125-.821-.032-.864-.231l-.195.041-.237-.157-.043-.2c-.237-.157-.518-.514-.56-.713l-.043-.2c-.28-.356-.366-.755-.495-1.352-.085-.4-.128-.598-.02-1.039-.085-.398.024-.839.328-1.32l-.043-.2.303-.482.152-.242a15.97 15.97 0 0 1 2.339-2.379c.887-.607 1.58-1.173 2.12-1.498.39-.084.736-.366 1.125-.45l.39-.084c1.319-.492 2.876-.826 4.475-.961.584-.126 1.21-.052 1.794-.178l.39-.083c.194-.042.388-.084.626.074l.39-.084c.194-.042.583-.125.82.032.821.032 1.643.064 2.27.138.626.074 1.447.106 2.073.18a9.58 9.58 0 0 1 1.491.305c-.237-.158-.475-.315-.907-.43-.389.083-.864-.232-1.101-.39-.043-.199-.238-.157-.28-.356-.238-.158-.67-.274-.95-.63l-.712-.473-.238-.157-1.619-.903-1.035-1.029-1.62-.903-.237-.157c-.194.042-.237-.158-.432-.116l-.28-.357-.432-.115c-.237-.158-.475-.315-.907-.43l-.237-.158c.043.199-.066.64-.218.88l-.304.483-.151.24-.456.724c-.498.524-.801 1.006-1.147 1.29-.499.523-.997 1.047-1.538 1.372-.887.608-1.774 1.215-3.05 1.907-1.277.691-2.596 1.183-3.721 1.633-1.125.45-2.53.544-4.086.878-.195.042-.39.084-.627-.073l-.195.041-.194.042c-.195.042-.627-.074-.821-.032-1.448-.106-2.701-.253-4.04-.8l-.237-.157-.475-.315c-.238-.158-.28-.357-.323-.556-.28-.357-.56-.714-.646-1.112l-.129-.598c-.043-.2.109-.44.066-.64s.109-.44.26-.681l.153-.241c.151-.242.455-.724.607-.965.303-.482.801-1.006 1.451-1.771.693-.566 1.385-1.132 1.926-1.457.888-.607 1.818-1.016 2.553-1.382 1.32-.492 2.876-.827 4.087-.879.583-.125 1.405-.093 1.988-.218 1.016-.01 2.226-.062 3.285.128.195-.042.432.115.821.032l-.237-.158-.238-.157c-.194.042-.237-.158-.432-.116-.67-.273-1.576-.704-2.245-.977-.195.042-.432-.115-.67-.273l-.194.042-1.468-1.144-2.008-.82c-.195.042-.237-.157-.432-.115l-.195.042-.712-.473-.907-.43c-.237-.158-.67-.274-.906-.431l-.195.042c.043.2-.109.44-.26.681l-.152.241-.607.965c-.347.283-.65.765-.845.807l-.152.24-.151.242-.195.042c-.346.283-.65.765-1.19 1.09-.694.566-1.234.89-1.58 1.173-1.083.65-2.165 1.3-3.095 1.708-.735.366-1.319.492-2.249.9-.39.084-.93.408-1.32.492l-.388.084-1.752.376c-.778.167-1.556.334-2.183.26-.39.084-.584.126-1.016.01-.389.084-.821-.032-1.253-.147-.195.042-.237-.158-.432-.116-.237-.157-.432-.115-.475-.315l-.475-.315c-.28-.356-.56-.713-.798-.87-.56-.714-.926-1.47-.86-2.11.066-.639.175-1.08.436-1.761l.455-.723-.043-.2.304-.482.152-.24c.346-.284.455-.724.758-1.206.499-.524.997-1.048 1.69-1.614.54-.325.887-.608 1.47-.733l.195-.042c1.125-.45 2.097-.66 3.07-.869 1.168-.25 2.573-.344 3.978-.437-.238-.158-.432-.116-.67-.274l-.194.042-1.296-.347c-.238-.157-.432-.115-.627-.074l-.194.042-.432-.115-.195.041-.237-.157-.195.042c-.39.083-1.016.01-1.296-.347l-.584.125-.432-.115c-1.296-.347-2.549-.495-3.607-.685l.042.2.086.398c.043.2-.109.44-.066.64s-.152.241-.109.44l-.152.241-.455.724-.455.723c-.76 1.206-1.56 2.212-2.362 3.218-.65.765-1.538 1.373-2.23 1.939-.346.283-.541.325-.93.408-.347.283-.736.367-.93.409l-1.168.25-.195.042c-.583.126-1.599.136-2.354-.536-.475-.315-.755-.672-.993-.83l-.042-.199c-.043-.199-.238-.157-.28-.356-.043-.2-.324-.556-.367-.756-.128-.598-.02-1.038.047-1.678.109-.44.26-.681.37-1.122-.043-.199.151-.24.109-.44l.607-.964c.303-.483.844-.807 1.19-1.09.498-.524 1.04-.85 1.623-.975.541-.324 1.32-.492 1.86-.816l1.362-.293c-.194.042-.389.084-.626-.074l-1.448-.106-.821-.032c.043.2-.152.241-.346.283l-.39.084-.194.042-.195.041-.584.126-.194.042-.195.042-.583.125c-.779.167-1.557.335-1.903.617-.779.168-1.709.576-3.266.91l-.194.042-.39.084-.778.167c-.389.084-.778.168-1.21.052-.627-.074-1.21.052-1.642-.064-.627-.074-1.059-.19-1.34-.546-.237-.158-.28-.357-.474-.315-.237-.158-.323-.556-.366-.756l-.128-.597c-.043-.2.108-.44.066-.64-.043-.2.109-.44.26-.682-.432-.115-.237-.157-.28-.356.498-.524.996-1.049 1.537-1.373.195-.042.541-.325.736-.367l.194-.042c.39-.083.541-.324.93-.408l1.557-.335c.195-.041.584-.125.821.032.195-.041.39-.083.627.074.389-.083.626.074.821.032l.195-.042c.432.116 1.058.19 1.685.264.432.115.864.231 1.533.504.67.273 1.34.547 1.771.662.237.158.67.273.907.43.237.158.475.316.755.672.043.2.237.158.086.4l1.015-.01 1.837.021 1.88.222c.627.074 1.253.148 1.685.263.195-.041.195-.041.432.116.822.032 1.686.263 2.312.337.195-.042.627.074.821.032-.67-.273-1.339-.546-1.813-.861l-.238-.158c-.712-.472-1.424-.944-2.288-1.176l.346-.283c-.67-.273-1.619-.903-2.374-1.574-.712-.473-1.662-1.103-2.46-1.974l-.84-1.07c-.238-.157-.324-.556-.604-.913-.128-.598-.257-1.196.004-1.877.151-.241.303-.482.498-.524.152-.241.54-.325.887-.608l1.751-.376.195-.042c.973-.209 1.88.222 2.787.652.906.43 1.813.861 2.763 1.491.475.315.712.473.992.83l.238.157c.475.315.755.672 1.035 1.028.475.315.755.672 1.035 1.029.324.556.798.87 1.079 1.228.28.356.56.713.646 1.112.28.357.366.755.451 1.154l.043.2c.043.198.086.398.323.555.043.2.28.357.323.556l.043.2c.28.356.409.954.494 1.353.043.199-.108.44-.066.64.627.073 1.254.147 1.923.42l2.355.537 1.728.462.864.232.194-.042.432.115c.432.116.67.274 1.102.39l.194-.043.195-.041c-.195.041-.238-.158-.475-.315-.475-.315-.95-.63-1.23-.987l-.432-.116-.28-.356c-.238-.158-.28-.357-.518-.515 0 0-.043-.199-.237-.157-.28-.357-.755-.672-1.078-1.228a24.591 24.591 0 0 1-2.242-2.854c-.28-.357-.604-.913-.884-1.27l-.043-.199c-.28-.357-.56-.713-.689-1.311-.323-.556-.451-1.154-.774-1.71-.086-.399-.215-.997-.148-1.636-.043-.2.151-.242.109-.44l.303-.483c.152-.241.346-.283.54-.325.195-.042.542-.325.736-.366l.973-.21.195-.041c.39-.084.821.032 1.016-.01.82.032 1.685.263 2.549.495.432.115.907.43 1.339.546l.237.157c.238.158.432.116.475.315.475.315 1.144.588 1.62.903l.194-.042c.237.158.67.274.95.63l.712.473.712.472.712.473.237.157.238.158c.28.356.518.514.518.514.755.671 1.553 1.542 2.308 2.214 1.035 1.029 1.638 1.942 2.242 2.854l.28.357c.323.556.603.913.926 1.469.366.755.732 1.51 1.055 2.067.086.398.366.755.494 1.353.086.399.172.797.063 1.238l.086.398.042.2.043.199.043.199c.043.2-.109.44-.066.64-.152.24-.11.44-.26.681l.431.116.432.115.238.158c.194-.042.237.157.432.116.237.157.67.273.906.43l2.052 1.019c1.813.861 3.432 1.764 5.009 2.468.194-.042.237.157.237.157l.237.158.195-.042.195-.042c-1.79-1.7-3.278-3.882-4.722-5.865-.883-1.27-1.767-2.54-2.565-3.41l-.323-.557-1.81-2.738c-.323-.556-.451-1.154-.732-1.51l-.042-.2c-.086-.399-.129-.598-.41-.955l-.042-.2-.343-1.594c-.128-.597-.062-1.237.047-1.677-.043-.2.109-.44.218-.881 0 0-.043-.2.151-.241l.304-.483c.152-.24.346-.283.541-.324l.195-.042.194-.042.584-.125c.584-.126 1.016-.01 1.405-.094.821.032 1.49.305 2.117.38l.237.157c.238.157.475.315.67.273l.237.157.713.473c.474.315 1.144.588 1.661 1.102.713.472 1.23.987 1.748 1.5 1.035 1.03 1.919 2.299 2.76 3.37.603.912 1.206 1.825 1.7 3.178.647 1.112 1.098 2.266 1.593 3.62.732 1.51 1.16 3.503 1.394 5.538.214.996.233 2.035.21 2.873.043.2-.109.44-.066.64l.043.2c.043.199-.066.64-.024.838.043.2-.151.242-.109.44l.086.4c.043.199-.152.24-.109.44l2.374 1.575.238.157.712.472 1.748 1.501.474.315c.993.83 2.18 1.617 3.172 2.446l.238.157.28.357.712.473c.043.199.238.157.28.356-.365-.755-.926-1.468-1.249-2.024l-.323-.557-.409-.954a114.127 114.127 0 0 1-3.378-7.197 163.985 163.985 0 0 1-1.398-3.661l-.128-.598-.043-.2-.214-.996-.043-.199-.043-.2c-.343-1.594-.102-3.313.529-5.117.109-.44.412-.922.564-1.163l.152-.242c.152-.24.303-.482.65-.765l1.039-.849c.194-.041.389-.083.54-.324l.195-.042.778-.167c.779-.168 1.686.263 2.355.536.432.116.907.43 1.339.546l1.187.788.237.157c.713.473 1.273 1.186 2.028 1.858.28.357.798.87 1.359 1.584.042.2.28.357.28.357l.043.2.237.157c.28.357.323.556.603.913.28.357.56.713.647 1.112.56.713.969 1.668 1.183 2.665.409.954.666 2.15.728 3.387.171.798.148 1.637.32 2.434a19.651 19.651 0 0 1-.203 3.796c-.066.64-.089 1.479-.35 2.16-.066.64-.37 1.122-.478 1.563-.152.24-.413.922-.522 1.363.043.199-.151.24-.108.44l-.304.482-.91 1.447-.304.482-.152.241-.152.241-.303.483s-.195.041-.152.24l.475.316.475.315.237.157 1.036 1.029s.237.157.431.115c.238.158.518.515.841 1.07l.28.357.841 1.07c.28.357.518.515.56.714l1.402 1.784.28.357c.238.157.518.514.603.913l.28.356.238.158.043.2c.603.912 1.401 1.783 2.047 2.895.323.556.647 1.112 1.055 2.067.086.398.366.755.452 1.154l.171.797.086.398c.128.598.451 1.154.537 1.553l.257 1.196c.043.2.086.398-.066.64-.152.24-.346.282-.541.324-.195.042-.39.084-.627-.074-.237-.157-.28-.356-.323-.556l-.385-1.793-.129-.598c-.128-.598-.537-1.553-.946-2.507-.085-.399-.366-.756-.451-1.154-.323-.556-.603-.913-.69-1.312l-.84-1.07-1.058-.19-.841-1.07c-.043-.2-.28-.357-.323-.556l-.043-.2-.238-.157-.042-.199-.043-.2-.238-.157-.237-.157-.84-1.07c-.238-.158-.281-.357-.518-.515l-.238-.157-.28-.357-.237-.157c-.152.24-.152.24-.347.283l-.152.24c-.151.242-.346.284-.498.525-.151.24-.346.283-.498.524-.152.24-.498.524-.65.765l-.194.042c-.152.24-.347.283-.304.482-.303.482-.844.807-1.385 1.132-.498.524-1.04.848-1.775 1.215-.54.325-1.276.691-1.86.817-1.32.492-2.444.942-3.806 1.235-1.557.334-2.681.784-4.043 1.077l-.779.167-.389.084c-.39.084-.584.125-.973.21-.973.208-1.794.176-2.658-.055-1.059-.19-1.923-.421-2.787-.652-.906-.43-1.381-.746-2.093-1.218z"/></g></g></g></svg>