<svg xmlns="http://www.w3.org/2000/svg" width="224" height="228" viewBox="0 0 224 228"><g><g transform="rotate(102.37 112 114)"><path fill="#f7f1cc" d="M2.576 152.557c1.04-15.742 5.72-30.966 10.711-45.983 8.424-25.062 18.511-50.02 35.255-70.526C65.284 15.542 89.722-.096 116.242-.614c14.56-.31 28.911 3.832 42.222 9.632 10.504 4.557 20.799 10.356 28.599 18.848 7.071 7.664 11.751 17.192 15.599 26.927 13.415 34.383 16.223 74.669-.936 107.395-11.959 22.577-32.654 39.975-55.533 51.575-22.983 11.599-48.254 17.812-73.525 22.369-11.023 1.968-22.359 3.728-33.486 2.279-6.656-.829-18.72-4.35-23.711-10.46-11.855-14.396-15.6-34.901-12.895-75.394z"/></g></g></svg>