<svg xmlns="http://www.w3.org/2000/svg" width="320" height="925" viewBox="0 0 320 925"><defs><linearGradient id="gu0da" x1="125.6" x2="191.85" y1="566.26" y2="566.26" gradientUnits="userSpaceOnUse"><stop offset="0" stop-color="#cda948"/><stop offset="1" stop-color="#e6cf33"/></linearGradient><linearGradient id="gu0db" x1="-2.57" x2="38.43" y1="392.7" y2="392.7" gradientUnits="userSpaceOnUse"><stop offset="0" stop-color="#cda948"/><stop offset="1" stop-color="#e6cf33"/></linearGradient><linearGradient id="gu0dc" x1="100.97" x2="128.4" y1="12.69" y2="12.69" gradientUnits="userSpaceOnUse"><stop offset="0" stop-color="#cda948"/><stop offset="1" stop-color="#e6cf33"/></linearGradient></defs><g><g transform="rotate(102.37 208 811)"><path fill="#f7f1cc" d="M98.576 849.557c1.04-15.742 5.72-30.966 10.711-45.983 8.424-25.062 18.511-50.02 35.254-70.526 16.744-20.506 41.182-36.144 67.701-36.662 14.56-.31 28.911 3.832 42.222 9.632 10.504 4.557 20.799 10.356 28.599 18.848 7.071 7.664 11.751 17.192 15.599 26.927 13.415 34.383 16.223 74.669-.936 107.395-11.959 22.577-32.654 39.975-55.533 51.575-22.983 11.599-48.254 17.812-73.525 22.369-11.023 1.968-22.359 3.728-33.486 2.279-6.656-.829-18.72-4.35-23.711-10.46-11.855-14.396-15.6-34.901-12.895-75.394z"/></g><g transform="rotate(116.41 162 568.5)"><path fill="url(#gu0da)" d="M125.6 569.884l24.19 2.525 4.93 27.778 10.477-25.884 26.654 6.787-18.797-20.518 12.48-21.465-23.11 10.89-17.719-17.677 3.235 25.095z"/></g><g transform="rotate(116.41 20.5 394)"><path fill="url(#gu0db)" d="M-2.57 394.947l14.97 1.562 3.05 17.191 6.485-16.019 16.495 4.2-11.633-12.697 7.724-13.284-14.303 6.74L9.253 371.7l2.003 15.53z"/></g><g transform="rotate(59.48 116.5 14)"><path fill="url(#gu0dc)" d="M100.97 14.192l10.015 1.046 2.041 11.5 4.338-10.716 11.036 2.81-7.783-8.495 5.167-8.887-9.568 4.509-7.336-7.319 1.34 10.39z"/></g></g></svg>