<svg xmlns="http://www.w3.org/2000/svg" width="122" height="125" viewBox="0 0 122 125"><g><g transform="rotate(102.37 61 62.5)"><path fill="#f7f1cc" d="M.763 83.214c.565-8.542 3.104-16.803 5.813-24.951 4.57-13.6 10.045-27.143 19.13-38.27C34.79 8.865 48.053.38 62.443.099c7.9-.169 15.687 2.08 22.91 5.226 5.7 2.473 11.287 5.62 15.519 10.228 3.837 4.159 6.377 9.329 8.465 14.611 7.279 18.657 8.803 40.518-.508 58.276-6.49 12.251-17.72 21.692-30.134 27.986-12.472 6.294-26.184 9.666-39.897 12.139-5.982 1.067-12.133 2.023-18.17 1.236-3.612-.45-10.158-2.36-12.867-5.676-6.433-7.811-8.465-18.938-6.998-40.911z"/></g></g></svg>