<svg xmlns="http://www.w3.org/2000/svg" width="1390" height="292" viewBox="0 0 1390 292"><defs><linearGradient id="r0lja" x1="1150" x2="1180" y1="180" y2="180" gradientUnits="userSpaceOnUse"><stop offset="0" stop-color="#cda948"/><stop offset="1" stop-color="#e6cf33"/></linearGradient><linearGradient id="r0ljb" x1="138.46" x2="166.19" y1="258.58" y2="258.58" gradientUnits="userSpaceOnUse"><stop offset="0" stop-color="#cda948"/><stop offset="1" stop-color="#e6cf33"/></linearGradient><linearGradient id="r0ljc" x1="187.72" x2="207.17" y1="183.55" y2="183.56" gradientUnits="userSpaceOnUse"><stop offset="0" stop-color="#cda948"/><stop offset="1" stop-color="#e6cf33"/></linearGradient></defs><g><g><g><path fill="#f4d3fc" d="M.852 156.017c1.06-16.032 5.83-31.538 10.917-46.832C20.354 83.66 30.635 58.24 47.7 37.355 64.765 16.472 89.673.546 116.701.018c14.839-.317 29.466 3.902 43.033 9.809 10.705 4.641 21.198 10.548 29.148 19.197 7.207 7.805 11.977 17.509 15.898 27.424 13.673 35.018 16.535 76.049-.954 109.379-12.189 22.994-33.281 40.715-56.599 52.528-23.425 11.813-49.18 18.142-74.937 22.783-11.235 2.004-22.788 3.797-34.13 2.32-6.783-.843-19.078-4.43-24.165-10.653-12.083-14.661-15.9-35.545-13.143-76.787z"/></g><g><g><path fill="#f2e96c" d="M108.306 168.314c-.572-1.46-2.317-2.059-3.64-1.314a94.82 94.82 0 0 0-12.346 6.622c-1.324.745-1.827 2.636-.855 3.901.182.395.334.514.64.752.915.713 2.173.678 3.097.13a66.291 66.291 0 0 1 11.544-6.231c1.448-.902 1.98-2.517 1.56-3.86z"/></g><g><path fill="#def9fa" d="M112.42 193.19c.183.397.49.636.796.875.767.598 1.907.721 2.989.289 1.33-.75 1.99-2.533 1.29-3.844-1.276-2.782-2.15-5.761-2.343-8.976-.02-1.547-1.4-2.623-2.943-2.55-1.542.074-2.662 1.499-2.642 3.046.128 3.929 1.088 7.741 2.853 11.16z"/></g><g><path fill="#f2e96c" d="M88.186 201.808c.61.475 1.469.636 2.298.52 3.843-.815 7.57-2.736 10.688-5.133a2.805 2.805 0 0 0 .578-3.866c-.973-1.267-2.661-1.312-3.834-.448-2.468 1.886-5.395 3.416-8.408 4.115-1.507.35-2.469 1.887-2.172 3.388-.095.433.392 1.067.85 1.424z"/></g><g><path fill="#def9fa" d="M62.013 202.856c.181.395.334.514.639.752.916.713 2.05.836 3.098.13 3.173-1.844 6.346-3.687 9.7-5.135 1.478-.626 2.01-2.242 1.59-3.585-.573-1.462-2.165-1.941-3.518-1.472-3.631 1.486-7.081 3.368-10.502 5.526-1.324.745-1.828 2.637-1.007 3.784z"/></g><g><path fill="#dbb2d2" d="M80.304 234.02c1.356.803 3.154.41 3.874-.823.845-1.392.517-3.188-.685-3.87-3.636-2.326-6.148-6.083-7.141-10.193-.3-1.517-1.934-2.28-3.453-1.927-1.52.354-2.335 2.026-2.036 3.542 1.205 4.79 4.083 9.345 7.93 12.35.433.08 1.05.561 1.51.922z"/></g><g><path fill="#f2e96c" d="M104.142 223.21c-1.468-1.913-2.256-4.06-2.517-6.564-.02-1.549-1.401-2.626-2.945-2.552-1.543.074-2.664 1.5-2.644 3.049.223 3.496 1.558 6.838 3.67 9.506l.46.36c.92.718 2.34.802 3.518-.067 1.054-.712 1.437-2.458.458-3.733z"/></g><g><path fill="#f2e96c" d="M138.245 206.684c.46.358 1.196.677 2.028.561 1.539-.074 2.657-1.495 2.636-3.039l-.436-8.236c-.02-1.544-1.398-2.618-2.937-2.544-1.54.073-2.657 1.495-2.637 3.039l.436 8.236c.087.832.298 1.505.91 1.983z"/></g><g><path fill="#dbb2d2" d="M125.064 203.646c-.574-1.464-2.322-2.063-3.648-1.317l-4.687 2.197c-1.48.627-2.137 2.404-1.439 3.71.182.396.364.792.822 1.15.764.595 1.9.718 2.98.287l4.686-2.197c1.326-.746 1.984-2.523 1.286-3.83z"/></g><g><path fill="#f9d9e3" d="M57.247 228.238c-.574-1.465-2.045-2.103-3.525-1.475l-6.071 2.39c-1.48.627-2.167 2.127-1.593 3.591.182.396.517.911.823 1.15.764.595 1.9.718 2.702.325l6.071-2.39c1.356-.47 2.014-2.246 1.593-3.591z"/></g><g><path fill="#def9fa" d="M111.002 250.956c-1.102-1.115-1.707-2.863-1.296-4.33.411-1.467-.596-3.018-2.043-3.38-1.447-.362-3.027.703-3.437 2.17-.764 3.49.35 7.422 2.986 9.733l.153.12c1.074.837 2.894.724 3.765-.384.995-1.266.822-2.934-.128-3.929z"/></g><g><path fill="#f9d9e3" d="M87.703 171.853l-3.16-7.32c-.576-1.473-2.331-2.075-3.663-1.325-1.486.63-2.146 2.416-1.445 3.73l3.16 7.32c.182.399.364.797.825 1.156.767.598 1.908.722 2.991.288 1.055-.711 1.868-2.377 1.292-3.849z"/></g><g><path fill="#f2e96c" d="M127.625 178.441c-.314 1.028.231 2.216.996 2.812.306.238.612.477 1.042.557 1.442.361 3.018-.701 3.275-2.282l.666-3.043c.41-1.462-.594-3.008-2.161-3.212-1.443-.36-3.019.702-3.275 2.283z"/></g><g><path fill="#dbb2d2" d="M64.572 181.974a24.03 24.03 0 0 0 8.36 4.218c1.452.364 3.067-.428 3.48-1.902.412-1.475-.32-3.072-1.772-3.436-2.626-.768-5.031-2.132-7.186-3.815-1.232-.961-2.905-.728-4.058.425-.999 1.272-.825 2.948.282 4.069.279-.04.587.201.894.441z"/></g><g><path fill="#def9fa" d="M98.182 154.389c.058.554.393 1.07.852 1.427.612.477 1.625.758 2.58.484 1.51-.35 2.321-2.01 2.024-3.514-.959-3.802-1.115-7.996.02-11.948.41-1.463-.442-2.89-2.038-3.37-1.443-.362-3.048.424-3.43 2.164-1.477 4.702-1.359 9.886-.008 14.757z"/></g><g><path fill="#f2e96c" d="M53.374 214.849c-.02-1.545-.997-2.816-2.565-3.02-4.371-.094-9.086.563-13.283 2.132-1.482.628-2.17 2.131-1.872 3.637.057.555.517.913.976 1.27.766.597 1.627.759 2.707.327 3.519-1.334 7.401-1.875 11.064-1.822 1.445.361 2.716-.941 2.973-2.524z"/></g><g><path fill="#dbb2d2" d="M68.075 255.684c-1.188-1.946-1.726-4.406-1.249-6.584.258-1.585-.595-3.015-2.165-3.219-1.57-.204-3.024.703-3.281 2.288-.735 3.763-.024 7.888 1.989 10.987.153.12.335.516.488.636.92.717 2.336.8 3.389.091 1.3-1.026 1.529-2.888.83-4.199z"/></g><g><path fill="#f9d9e3" d="M172.38 218.48c.844-1.392.391-3.028-.84-3.99-3.328-2.084-7.154-3.533-11.077-4.543-1.452-.364-3.038.707-3.45 2.18-.316 1.036.232 2.233 1.002 2.834.308.24.615.48 1.048.562 3.336.81 6.577 2.056 9.443 3.78 1.23.962 3.028.57 3.873-.823z"/></g><g><path fill="#dbb2d2" d="M171.307 202.598c1.51-.351 2.628-1.772 2.33-3.278-.297-1.505-1.675-2.578-3.185-2.227l-8.106 1.831c-1.51.351-2.627 1.772-2.33 3.278.21.673.546 1.19 1.005 1.547.612.477 1.473.639 2.304.523z"/></g><g><path fill="#f9d9e3" d="M34.203 242.303c-1.218-.95-2.997-.562-3.833.813-1.33 2.003-3.393 3.688-5.484 5.098-1.322.743-1.825 2.63-1.13 3.932.182.394.486.632.639.75.913.712 2.045.834 3.091.13a23.747 23.747 0 0 0 7.272-6.746c.836-1.375.51-3.147-.555-3.977z"/></g><g><path fill="#f2e96c" d="M50.235 258.94c.836-1.375.663-3.03-.679-3.822-1.342-.792-2.997-.561-3.833.814-1.948 2.788-3.592 5.814-4.778 9.195-.437 1.18-.018 2.52.896 3.232.153.118.457.356.733.317 1.313.517 3.063-.146 3.595-1.759.968-2.792 2.364-5.503 4.066-7.977z"/></g></g><g><g><path fill="#f2e96c" d="M145.056 153.088c.27 1.587 1.862 2.64 3.309 2.261a89.288 89.288 0 0 0 13.425-3.21c1.447-.377 2.317-2.1 1.616-3.602-.1-.437-.225-.594-.477-.909-.756-.944-1.996-1.245-3.011-.953a62.403 62.403 0 0 1-12.563 3.039c-1.6.5-2.443 1.943-2.299 3.374z"/></g><g><path fill="#def9fa" d="M146.458 128.29c-.1-.433-.35-.746-.6-1.06-.627-.782-1.71-1.202-2.845-1.068-1.44.376-2.433 1.933-2.011 3.39.69 3.037.95 6.158.505 9.328-.285 1.507.843 2.916 2.355 3.25 1.511.336 2.88-.75 3.165-2.258.651-3.846.47-7.799-.57-11.582z"/></g><g><path fill="#f2e96c" d="M172.127 125.585c-.504-.63-1.312-1.016-2.147-1.123-3.925-.224-7.957.666-11.486 2.186-1.472.656-1.912 2.292-1.336 3.636a2.842 2.842 0 0 0 3.665 1.46c2.792-1.192 5.962-1.912 9.052-1.795 1.544.058 2.792-1.192 2.8-2.742.18-.4-.17-1.15-.548-1.622z"/></g><g><path fill="#def9fa" d="M197.869 130.564c-.1-.436-.225-.593-.477-.908-.755-.944-1.842-1.366-3.01-.952-3.476.963-6.953 1.925-10.528 2.452-1.572.22-2.416 1.664-2.271 3.094.27 1.587 1.735 2.481 3.154 2.382 3.854-.49 7.61-1.418 11.39-2.623 1.447-.378 2.318-2.1 1.742-3.445z"/></g><g><path fill="#dbb2d2" d="M187 95.806c-1.15-1.127-2.959-1.22-3.894-.222-1.087 1.118-1.122 2.93-.096 3.9 3.05 3.189 4.735 7.46 4.889 11.672-.008 1.536 1.418 2.698 2.951 2.756 1.533.058 2.646-1.336 2.654-2.873-.225-4.92-2.108-10.055-5.229-13.95-.4-.192-.9-.816-1.275-1.283z"/></g><g><path fill="#f2e96c" d="M161.508 100.766c1.047 2.238 1.388 4.525 1.147 7.018-.285 1.506.842 2.913 2.353 3.247 1.51.335 2.877-.75 3.162-2.256.472-3.445-.164-7.032-1.685-10.172l-.376-.47a2.948 2.948 0 0 0-3.423-.86c-1.162.41-1.876 2.001-1.178 3.493z"/></g><g><path fill="#f2e96c" d="M124.402 109.251c-.376-.47-1.03-.976-1.864-1.084-1.514-.336-2.885.754-3.17 2.264l-1.206 8.142c-.286 1.51.844 2.92 2.358 3.257 1.515.335 2.885-.754 3.17-2.264l1.206-8.142c.08-.833.009-1.546-.494-2.173z"/></g><g><path fill="#dbb2d2" d="M136.785 114.987c.27 1.584 1.859 2.634 3.303 2.257l5.015-.903c1.57-.22 2.565-1.783 2.142-3.246-.099-.435-.197-.87-.575-1.341-.628-.786-1.714-1.207-2.853-1.073l-5.015.904c-1.444.377-2.44 1.939-2.017 3.402z"/></g><g><path fill="#f9d9e3" d="M208.42 106.483c.27 1.584 1.58 2.598 3.15 2.378l6.405-.724c1.57-.22 2.538-1.504 2.268-3.088-.099-.435-.323-1.027-.575-1.341-.628-.785-1.714-1.207-2.575-1.036l-6.405.723c-1.417.1-2.412 1.661-2.268 3.088z"/></g><g><path fill="#def9fa" d="M161.178 72.204c.85 1.373 1.093 3.228.405 4.543-.688 1.314-.017 3.085 1.317 3.818 1.333.733 3.076.116 3.764-1.2 1.43-3.183 1.124-7.292-.98-10.23l-.125-.156c-.877-1.095-2.666-1.466-3.73-.62-1.216.966-1.376 2.629-.651 3.845z"/></g><g><path fill="#f9d9e3" d="M165.8 154.504l1.621 7.92c.27 1.576 1.852 2.621 3.29 2.246 1.564-.22 2.555-1.774 2.134-3.23l-1.621-7.92c-.099-.433-.197-.866-.573-1.335-.626-.782-1.707-1.201-2.842-1.067-1.162.411-2.278 1.81-2.01 3.386z"/></g><g><path fill="#f2e96c" d="M128.468 139.225c.51-.92.214-2.224-.414-3.01-.251-.313-.502-.627-.906-.82-1.337-.735-3.085-.116-3.649 1.36l-1.254 2.794c-.69 1.319-.016 3.095 1.473 3.71 1.336.734 3.084.115 3.649-1.36z"/></g><g><path fill="#dbb2d2" d="M190.617 150.234a26.07 26.07 0 0 0-7.23-6.241c-1.327-.73-3.038-.392-3.723.918-.686 1.309-.293 3.036 1.035 3.766 2.38 1.425 4.43 3.366 6.178 5.547.998 1.247 2.656 1.46 3.992.654 1.211-.962 1.37-2.618.524-3.985-.277-.036-.526-.347-.776-.659z"/></g><g><path fill="#def9fa" d="M151.453 169.334c.053-.556-.171-1.147-.548-1.618-.502-.628-1.435-1.17-2.421-1.156-1.542-.058-2.662 1.345-2.67 2.892.181 3.963-.498 8.098-2.388 11.653-.69 1.319-.142 2.937 1.32 3.83 1.336.734 3.057.393 3.774-1.203 2.373-4.197 3.285-9.286 2.933-14.398z"/></g><g><path fill="#f2e96c" d="M209.111 120.279c-.286 1.51.414 3.006 1.901 3.62 4.238 1.248 8.96 1.856 13.358 1.439 1.567-.22 2.534-1.501 2.542-3.047.054-.555-.323-1.025-.7-1.496-.627-.783-1.433-1.168-2.57-1.034-3.691.368-7.58-.133-11.136-1.153-1.336-.735-2.831.197-3.395 1.671z"/></g><g><path fill="#dbb2d2" d="M204.013 77.38c.77 2.207.808 4.74-.086 6.732-.564 1.472-.017 3.088 1.47 3.7 1.486.614 3.08.117 3.642-1.356 1.458-3.464 1.58-7.663.236-11.207-.125-.157-.224-.59-.35-.747-.752-.94-2.113-1.396-3.276-.984-1.468.653-2.058 2.403-1.636 3.862z"/></g><g><path fill="#f9d9e3" d="M94.001 89.716c-1.086 1.118-.97 2.811.03 4.058 2.8 2.877 6.205 5.273 9.79 7.272 1.328.73 3.065.115 3.751-1.195.508-.913.213-2.209-.411-2.988-.25-.312-.5-.624-.9-.815-3.059-1.652-5.939-3.7-8.364-6.11-1-1.247-2.809-1.34-3.896-.222z"/></g><g><path fill="#dbb2d2" d="M91.408 105.469c-1.541-.058-2.912 1.03-2.92 2.577-.008 1.546 1.122 2.958 2.663 3.016l8.263.361c1.542.058 2.912-1.031 2.92-2.577-.072-.713-.296-1.305-.673-1.775-.502-.627-1.309-1.013-2.142-1.12z"/></g><g><path fill="#f9d9e3" d="M234.117 98.121c1.009 1.262 2.836 1.357 3.933.225 1.71-1.618 4.076-2.728 6.416-3.557 1.449-.38 2.321-2.106 1.897-3.575-.099-.437-.351-.753-.477-.91-.757-.947-1.846-1.37-3.016-.955-3.05.88-6.03 2.475-8.503 4.702-1.098 1.132-1.133 2.966-.25 4.07z"/></g><g><path fill="#f2e96c" d="M222.237 78.249c-1.098 1.13-1.259 2.807-.097 3.947 1.161 1.14 2.835 1.356 3.933.225 2.473-2.227 4.695-4.769 6.538-7.784.665-1.046.52-2.479-.236-3.425-.126-.158-.378-.473-.657-.509-1.188-.86-3.042-.675-3.887.771-1.511 2.493-3.427 4.791-5.594 6.775z"/></g></g><g><g><path fill="#f2e96c" d="M1248.98 67.55c.24-1.796-1.107-3.544-2.777-3.712a99.963 99.963 0 0 0-15.396-1.879c-1.67-.168-3.173 1.322-2.926 3.198-.04.503.043.72.206 1.155.491 1.303 1.715 2.113 2.896 2.202 4.845.07 9.652.644 14.418 1.72 1.873.1 3.256-1.104 3.578-2.683z"/></g><g><path fill="#def9fa" d="M1238.687 92.886c-.039.496.122.923.284 1.35.404 1.068 1.41 1.933 2.656 2.234 1.648.166 3.213-1.086 3.25-2.786.275-3.466 1.033-6.855 2.555-10.02.8-1.476.074-3.399-1.415-4.341-1.488-.942-3.295-.331-4.097 1.145a29.239 29.239 0 0 0-3.233 12.418z"/></g><g><path fill="#f2e96c" d="M1210.388 86.35c.327.865 1.06 1.594 1.915 2.037 4.108 1.783 8.703 2.424 12.97 2.198 1.789-.118 2.802-1.682 2.637-3.336-.248-1.87-1.835-3.042-3.42-2.993-3.374.166-6.993-.317-10.247-1.656-1.627-.67-3.374.166-3.899 1.81-.324.354-.2 1.29.044 1.94z"/></g><g><path fill="#def9fa" d="M1184.924 71.754c-.04.503.042.72.206 1.153.49 1.302 1.51 2.18 2.893 2.2 4.028.345 8.057.691 12.046 1.54 1.75.385 3.131-.818 3.454-2.395.24-1.794-1.024-3.322-2.57-3.776-4.275-.997-8.589-1.49-13.024-1.698-1.668-.168-3.17 1.32-3.005 2.976z"/></g><g><path fill="#dbb2d2" d="M1184.148 112.644c.835 1.626 2.701 2.425 4.01 1.742 1.506-.75 2.138-2.634 1.382-4.048-2.149-4.522-2.513-9.648-1.29-14.12.514-1.606-.6-3.377-2.188-4.031-1.588-.655-3.213.373-3.726 1.98-1.382 5.24-1.095 11.348.896 16.64.358.355.677 1.202.916 1.837z"/></g><g><path fill="#f2e96c" d="M1212.736 116.739c-.366-2.76.03-5.299 1.108-7.827.8-1.472.075-3.39-1.41-4.33-1.484-.94-3.286-.33-4.085 1.142-1.638 3.438-2.152 7.458-1.584 11.352l.241.64c.484 1.278 1.768 2.286 3.33 2.238 1.363.02 2.643-1.374 2.4-3.215z"/></g><g><path fill="#f2e96c" d="M1255.125 121.004c.244.645.77 1.435 1.62 1.875 1.495.947 3.312.333 4.117-1.15l3.984-8.131c.805-1.484.074-3.417-1.422-4.364-1.496-.947-3.313-.333-4.118 1.15l-3.983 8.131c-.363.85-.523 1.63-.198 2.49z"/></g><g><path fill="#dbb2d2" d="M1243.942 110.718c.24-1.785-1.101-3.52-2.764-3.687l-5.636-1.012c-1.744-.383-3.323.882-3.36 2.598-.04.5-.08 1 .165 1.647.407 1.079 1.422 1.952 2.68 2.256l5.637 1.011c1.662.167 3.24-1.097 3.278-2.813z"/></g><g><path fill="#f9d9e3" d="M1165.086 93.859c.24-1.784-.817-3.373-2.56-3.755l-7.055-1.747c-1.744-.382-3.2.598-3.44 2.381-.04.5.002 1.216.165 1.647.407 1.079 1.422 1.951 2.395 2.108l7.055 1.747c1.54.451 3.12-.813 3.44-2.381z"/></g><g><path fill="#def9fa" d="M1202.738 147.075c-.445-1.777-.087-3.825 1.076-4.941 1.163-1.116 1.039-3.242-.128-4.533-1.168-1.292-3.217-1.322-4.38-.206-2.566 2.795-3.602 7.241-2.35 11.154l.08.213c.566 1.495 2.335 2.583 3.74 2.108 1.606-.543 2.326-2.232 1.962-3.795z"/></g><g><path fill="#f9d9e3" d="M1227.612 58.338l.907-8.957c.237-1.763-1.088-3.477-2.73-3.643-1.724-.378-3.285.87-3.322 2.566l-.906 8.958c-.04.493-.078.987.163 1.627.403 1.065 1.406 1.927 2.648 2.228 1.362.02 3.003-1.016 3.24-2.779z"/></g><g><path fill="#f2e96c" d="M1261.484 87.82c-.849.773-.968 2.27-.56 3.347.162.43.325.861.69 1.224 1.176 1.301 3.24 1.331 4.33-.01l2.263-2.465c1.172-1.125 1.046-3.268-.332-4.502-1.177-1.301-3.241-1.331-4.331.01z"/></g><g><path fill="#dbb2d2" d="M1199.739 53.692a31.192 31.192 0 0 0 5.525 9.34c1.152 1.278 3.056 1.587 4.204.482 1.148-1.106 1.304-3.067.152-4.346-2.025-2.415-3.536-5.242-4.65-8.204-.638-1.693-2.305-2.559-3.97-2.233-1.585.538-2.296 2.21-1.858 3.97.278.145.437.568.597.991z"/></g><g><path fill="#def9fa" d="M1248.224 47.626c-.242.567-.2 1.281.044 1.926.325.861 1.136 1.8 2.188 2.172 1.62.665 3.276-.38 3.799-2.014 1.125-4.263 3.22-8.37 6.41-11.39 1.172-1.124 1.128-3.05-.13-4.566-1.175-1.301-3.117-1.615-4.409-.207-3.917 3.51-6.578 8.535-7.902 14.08z"/></g><g><path fill="#f2e96c" d="M1169.396 79.087c.804-1.482.559-3.335-.816-4.564-4.082-2.976-8.89-5.464-13.695-6.743-1.736-.381-3.188.594-3.71 2.222-.24.566.003 1.21.246 1.854.406 1.073 1.134 1.795 2.385 2.097 4.039 1.055 7.998 3.104 11.433 5.572 1.173 1.298 3.07.898 4.157-.438z"/></g><g><path fill="#dbb2d2" d="M1159.325 126.124c-.086-2.628.715-5.313 2.323-7.065 1.085-1.332 1.041-3.25-.33-4.476-1.372-1.227-3.225-1.325-4.31.008-2.693 3.084-4.215 7.463-3.966 11.726.08.214.041.71.122.924.486 1.285 1.777 2.298 3.146 2.317 1.772-.116 2.978-1.731 3.015-3.434z"/></g><g><path fill="#f9d9e3" d="M1280.195 152.866c1.508-.75 1.942-2.568 1.304-4.262-1.991-4.1-4.776-7.93-7.878-11.415-1.153-1.28-3.178-1.31-4.327-.204-.833.76-.95 2.231-.551 3.29.16.423.319.847.676 1.203 2.665 2.917 5.012 6.18 6.764 9.644.637 1.694 2.505 2.494 4.012 1.744z"/></g><g><path fill="#dbb2d2" d="M1288.615 137.136c1.617.664 3.435.05 3.957-1.582.522-1.63-.209-3.564-1.826-4.229l-8.654-3.615c-1.618-.665-3.435-.05-3.957 1.58-.16.782-.119 1.495.125 2.14.325.86 1.053 1.582 1.903 2.022z"/></g><g><path fill="#f9d9e3" d="M1134.819 93.399c-.658-1.75-2.58-2.575-4.132-1.8-2.369 1.053-5.27 1.3-8.05 1.26-1.676-.17-3.185 1.331-3.223 3.071-.04.507.125.944.207 1.163.493 1.312 1.516 2.197 2.906 2.217 3.556.27 7.275-.257 10.665-1.657 1.551-.775 2.202-2.723 1.627-4.254z"/></g><g><path fill="#f2e96c" d="M1140.264 118.715c1.552-.775 2.284-2.503 1.423-4.182-.861-1.679-2.58-2.573-4.13-1.799-3.39 1.4-6.614 3.237-9.592 5.73-1.06.854-1.385 2.443-.892 3.755.082.218.246.655.533.804.983 1.391 3.027 1.928 4.414.717 2.448-2.066 5.264-3.764 8.244-5.025z"/></g></g><g><g><path fill="#f2e96c" d="M1298.813 54.85a2.73 2.73 0 0 0-2.923 3.036 106.38 106.38 0 0 0 1.469 15.562c.193 1.685 1.918 3.091 3.638 2.715.484.006.672-.09 1.048-.284 1.128-.581 1.635-1.863 1.47-3.053a74.396 74.396 0 0 1-1.412-14.57c-.3-1.885-1.73-3.19-3.29-3.405z"/></g><g><path fill="#def9fa" d="M1326.387 61.99c.49.006.87-.19 1.25-.386.952-.49 1.574-1.586 1.598-2.89-.196-1.706-1.752-3.228-3.411-3.147-3.43-.04-6.887-.58-10.293-1.923-1.607-.72-3.32.162-3.913 1.759-.594 1.597.391 3.413 1.999 4.134 4.114 1.752 8.47 2.604 12.77 2.453z"/></g><g><path fill="#f2e96c" d="M1324.324 90.508c.753-.388 1.29-1.175 1.53-2.065.823-4.255.46-8.921-.657-13.199-.49-1.79-2.19-2.703-3.726-2.423-1.723.376-2.5 2.053-2.118 3.645.872 3.382 1.179 7.055.596 10.42-.292 1.683.872 3.383 2.543 3.8.405.301 1.267.113 1.832-.178z"/></g><g><path fill="#def9fa" d="M1313.594 117.727c.484.005.672-.092 1.049-.285 1.129-.582 1.745-1.664 1.471-3.055-.522-4.069-1.045-8.138-1.084-12.2-.005-1.785-1.435-3.09-2.997-3.306-1.75-.12-2.93 1.254-3.034 2.839-.041 4.36.402 8.724 1.141 13.192.194 1.687 1.92 3.094 3.454 2.815z"/></g><g><path fill="#dbb2d2" d="M1353.635 113.366c1.423-.998 1.801-3.022.837-4.351-1.074-1.534-3.078-2.064-4.309-1.166-3.996 2.59-8.985 3.344-13.678 2.377-1.702-.425-3.206.876-3.503 2.597-.296 1.72 1.08 3.359 2.782 3.784 5.488 1.078 11.465.336 16.257-2.144.273-.402 1.04-.8 1.614-1.097z"/></g><g><path fill="#f2e96c" d="M1353.234 83.945c-2.616.573-5.18.342-7.882-.593-1.61-.723-3.326.162-3.92 1.763-.596 1.602.391 3.422 2.002 4.145 3.713 1.45 7.749 1.697 11.427.835l.571-.295c1.144-.59 1.848-1.988 1.462-3.601-.277-1.41-1.917-2.636-3.66-2.254z"/></g><g><path fill="#f2e96c" d="M1351.843 41.649c.568-.293 1.217-.884 1.459-1.78.591-1.589-.39-3.396-1.991-4.113l-8.684-3.494c-1.601-.717-3.306.162-3.898 1.751-.591 1.59.39 3.397 1.99 4.114l8.685 3.494c.895.31 1.681.418 2.44.028z"/></g><g><path fill="#dbb2d2" d="M1342.598 53.63a2.742 2.742 0 0 0-2.936 3.05l.232 5.77c.006 1.79 1.55 3.3 3.198 3.219.486.005.972.011 1.539-.28.944-.487 1.562-1.574 1.586-2.866l-.233-5.77c-.194-1.693-1.739-3.203-3.386-3.122z"/></g><g><path fill="#f9d9e3" d="M1337.123 134.112c-1.757-.12-3.05 1.06-3.045 2.85l-.168 7.258c.005 1.79 1.252 3.198 3.009 3.318.486.005 1.162-.086 1.54-.28.944-.487 1.562-1.574 1.505-2.57l.168-7.258c.104-1.59-1.44-3.1-3.009-3.318z"/></g><g><path fill="#def9fa" d="M1384.712 89.425c-1.631.583-3.7.358-5.038-.76-1.337-1.119-3.377-.842-4.38.45-1.004 1.293-.59 3.403.748 4.522 3.273 2.445 7.821 3.2 11.355 1.636l.19-.098c1.332-.687 2.007-2.584 1.24-3.997-.875-1.615-2.674-2.238-4.115-1.753z"/></g><g><path fill="#f9d9e3" d="M1293.277 77.582l-8.945-.305a2.77 2.77 0 0 0-2.963 3.082c.005 1.81 1.564 3.336 3.227 3.255l8.946.305c.49.005.982.011 1.554-.284.953-.492 1.576-1.59 1.6-2.897-.277-1.41-1.646-3.035-3.419-3.156z"/></g><g><path fill="#f2e96c" d="M1318.14 39.6c.922.808 2.383.824 3.328.338.378-.195.756-.39 1.026-.785.997-1.283.585-3.38-.933-4.393l-2.847-2.124c-1.329-1.11-3.357-.835-4.245.648-.998 1.283-.586 3.379.932 4.392z"/></g><g><path fill="#dbb2d2" d="M1293.311 105.715a25.416 25.416 0 0 0 8.018-6.502c1.012-1.308.896-3.338-.452-4.47-1.348-1.132-3.323-1.155-4.334.153-1.94 2.311-4.404 4.109-7.088 5.498-1.534.794-2.022 2.615-1.331 4.348.882 1.634 2.695 2.263 4.339 1.674.081-.304.465-.502.848-.7z"/></g><g><path fill="#def9fa" d="M1280.292 59.031c.596.207 1.273.115 1.84-.178.757-.39 1.485-1.278 1.618-2.372.292-1.69-1.066-3.3-2.746-3.719-4.333-.847-8.724-2.692-12.306-5.723-1.33-1.111-3.17-.933-4.357.448-.998 1.284-.884 3.278.744 4.493 4.207 3.735 9.6 6.09 15.207 7.051z"/></g><g><path fill="#f2e96c" d="M1321.635 132.093c-1.602-.718-3.337-.339-4.227 1.149-1.994 4.37-3.362 9.447-3.565 14.437.006 1.798 1.257 3.21 2.94 3.629.597.207 1.166-.086 1.735-.38.948-.488 1.488-1.28 1.511-2.578.15-4.192 1.277-8.373 2.92-12.048 1-1.287.208-3.193-1.314-4.21z"/></g><g><path fill="#dbb2d2" d="M1370.174 135.505c-2.526.27-5.298-.361-7.34-1.886-1.525-1.018-3.372-.84-4.264.651-.892 1.49-.587 3.395.937 4.413 3.566 2.543 8.134 3.796 12.208 3.243.19-.098.679-.092.869-.19 1.139-.587 1.841-1.98 1.565-3.383-.494-1.807-2.318-2.929-3.975-2.848z"/></g><g><path fill="#f9d9e3" d="M1379.171 12.045c-1.074-1.533-2.966-1.859-4.5-1.066-3.611 2.391-6.782 5.598-9.54 9.114-1.01 1.306-.593 3.44.754 4.57.935.821 2.415.839 3.373.343.383-.198.767-.397 1.04-.799 2.293-3.014 5-5.72 8.036-7.813 1.533-.793 1.91-2.816.837-4.349z"/></g><g><path fill="#dbb2d2" d="M1362.443 5.951c.293-1.692-.688-3.5-2.369-3.918-1.68-.418-3.385.46-3.678 2.152l-1.627 9.058c-.293 1.693.688 3.5 2.37 3.918.785.109 1.462.017 2.03-.276.758-.39 1.298-1.182 1.539-2.077z"/></g><g><path fill="#f9d9e3" d="M1341.118 163.972c-1.497.771-1.866 2.74-.818 4.232 1.478 2.286 2.316 5.156 2.86 7.925.191 1.68 1.908 3.08 3.541 3 .482.006.856-.187 1.044-.283 1.122-.579 1.735-1.657 1.464-3.04a27.42 27.42 0 0 0-3.777-10.501c-1.048-1.492-3.004-2.009-4.314-1.333z"/></g><g><path fill="#f2e96c" d="M1365.383 155.136c-1.048-1.492-2.817-2.105-4.208-1.134-1.39.97-1.867 2.74-.818 4.233 2.017 3.28 4.41 6.367 7.363 9.165 1.02.998 2.575 1.214 3.698.635.187-.097.562-.29.641-.585 1.095-1.072 1.17-3.144-.253-4.443-2.443-2.298-4.62-4.988-6.423-7.87z"/></g></g><g><g><path fill="#f2e96c" d="M1329.739 206.466c1.413-1.212 1.589-3.372.437-4.536a92.529 92.529 0 0 0-10.393-10.975c-1.151-1.163-3.313-.966-4.41.609-.375.357-.461.572-.635 1.003-.52 1.292-.147 2.665.688 3.465a64.673 64.673 0 0 1 9.76 10.248c1.353 1.238 3.226 1.183 4.553.186z"/></g><g><path fill="#def9fa" d="M1305.184 219.404c-.37.352-.541.775-.712 1.2-.428 1.059-.259 2.336.48 3.335 1.137 1.145 3.185 1.163 4.381-.102 2.591-2.458 5.494-4.559 8.824-6.018 1.622-.623 2.392-2.53 1.91-4.165-.482-1.635-2.274-2.289-3.896-1.665a32.175 32.175 0 0 0-10.987 7.415z"/></g><g><path fill="#f2e96c" d="M1288.255 196.042c-.346.86-.29 1.866.055 2.731 1.895 3.897 4.94 7.23 8.333 9.704 1.437 1.02 3.28.461 4.288-.895 1.095-1.571.694-3.443-.542-4.388-2.674-1.964-5.088-4.573-6.638-7.605-.775-1.516-2.674-1.964-4.2-1.044-.488.067-1.036.853-1.296 1.497z"/></g><g><path fill="#def9fa" d="M1278.618 168.343c-.374.357-.46.572-.634 1.002-.52 1.29-.348 2.587.687 3.46 2.82 2.76 5.639 5.52 8.083 8.637 1.064 1.377 2.936 1.322 4.262.326 1.412-1.21 1.5-3.152.638-4.456-2.56-3.405-5.494-6.454-8.716-9.361-1.15-1.162-3.31-.966-4.32.392z"/></g><g><path fill="#dbb2d2" d="M1250.95 198.48c-.479 1.75.39 3.513 1.852 3.807 1.657.366 3.428-.672 3.822-2.213 1.464-4.762 4.697-8.875 8.688-11.508 1.49-.9 1.857-2.933 1.099-4.414-.758-1.481-2.696-1.709-4.186-.81-4.637 3.12-8.602 7.929-10.712 13.176.028.492-.31 1.331-.563 1.961z"/></g><g><path fill="#f2e96c" d="M1269.994 220.148c1.62-2.32 3.663-3.998 6.218-5.248 1.618-.622 2.385-2.525 1.904-4.156-.48-1.63-2.267-2.283-3.885-1.66-3.604 1.593-6.756 4.323-9 7.627l-.256.634c-.512 1.269-.23 2.827.99 3.757 1.02.858 2.95.592 4.03-.954z"/></g><g><path fill="#f2e96c" d="M1299.171 251.425c-.258.64-.402 1.564-.06 2.423.485 1.643 2.285 2.3 3.916 1.674l8.609-3.7c1.63-.626 2.404-2.543 1.92-4.187-.485-1.643-2.285-2.3-3.915-1.674l-8.61 3.7c-.858.42-1.516.912-1.86 1.764z"/></g><g><path fill="#dbb2d2" d="M1297.633 235.916c1.407-1.204 1.582-3.35.435-4.505l-3.582-4.256c-1.06-1.37-3.126-1.388-4.332-.11-.374.354-.747.709-1.006 1.35-.432 1.07-.26 2.36.484 3.369l3.582 4.256c1.147 1.155 3.213 1.174 4.42-.104z"/></g><g><path fill="#f9d9e3" d="M1249.124 171.467c1.407-1.204 1.696-3.061.636-4.43l-4.154-5.691c-1.06-1.37-2.838-1.529-4.245-.325-.373.355-.832.923-1.005 1.35-.431 1.07-.26 2.36.37 3.08l4.153 5.692c.86 1.295 2.925 1.314 4.245.324z"/></g><g><path fill="#def9fa" d="M1242.598 236.505c.883-1.622 2.562-2.953 4.211-3.08 1.65-.127 3.017-1.816 3.018-3.517.002-1.7-1.533-2.99-3.182-2.863-3.868.532-7.71 3.262-9.448 7.002l-.085.212c-.599 1.483-.004 3.402 1.39 3.91 1.591.582 3.298-.254 4.096-1.664z"/></g><g><path fill="#f9d9e3" d="M1319.505 185.79l6.84-6.231c1.391-1.19 1.563-3.31.43-4.45-1.049-1.353-3.09-1.372-4.283-.11l-6.84 6.232c-.37.35-.738.7-.994 1.334-.427 1.057-.258 2.33.479 3.327 1.02.858 2.977 1.087 4.368-.102z"/></g><g><path fill="#f2e96c" d="M1325.922 230.458c-1.175.061-2.293 1.123-2.724 2.19-.173.428-.345.855-.317 1.355-.002 1.715 1.544 3.015 3.292 2.673l3.41-.469c1.662-.128 3.04-1.83 2.84-3.618.002-1.715-1.544-3.014-3.292-2.673z"/></g><g><path fill="#dbb2d2" d="M1301.707 164.255c-1.35 3.357-2.11 6.93-2.196 10.509-.001 1.684 1.233 3.1 2.862 2.973 1.629-.126 3.09-1.517 3.09-3.201.115-3.088.903-6.169 2.084-9.107.675-1.678.002-3.369-1.485-4.154-1.573-.575-3.258.252-4.13 1.859.113.281-.056.701-.225 1.12z"/></g><g><path fill="#def9fa" d="M1342.048 191.551c-.573.28-1.032.848-1.29 1.488-.345.853-.375 2.066.168 3 .772 1.505 2.747 1.737 4.266.823 3.782-2.536 8.193-4.352 12.688-4.668 1.66-.128 2.95-1.615 3.039-3.542.001-1.713-1.257-3.152-3.204-2.884-5.383.237-10.854 2.4-15.667 5.783z"/></g><g><path fill="#f2e96c" d="M1261.96 163.059c1.628-.626 2.716-2.183 2.517-3.965-1.052-4.78-2.99-9.64-5.757-13.58-1.056-1.363-2.827-1.521-4.342-.61-.572.28-.83.919-1.087 1.558-.43 1.064-.374 2.061.368 3.065 2.34 3.296 3.936 7.298 4.846 11.293-.002 1.71 1.711 2.58 3.454 2.239z"/></g><g><path fill="#dbb2d2" d="M1223.509 192.242c1.74-2.045 4.194-3.586 6.618-3.92 1.739-.34 3.023-1.82 2.826-3.597-.198-1.778-1.537-2.998-3.277-2.659-4.163.673-8.327 3.052-11.067 6.437-.086.212-.457.564-.543.777-.514 1.274-.23 2.84.795 3.701 1.424 1.008 3.449.529 4.648-.74z"/></g><g><path fill="#f9d9e3" d="M1297.168 291.571c1.659.366 3.234-.744 3.91-2.424 1.295-4.343 1.804-8.974 1.835-13.54.002-1.686-1.516-2.963-3.146-2.837-1.153.06-2.25 1.104-2.672 2.153-.17.42-.338.84-.31 1.332.025 3.864-.427 7.793-1.47 11.507-.675 1.68.195 3.443 1.853 3.81z"/></g><g><path fill="#dbb2d2" d="M1313.92 285.26c.771 1.504 2.572 2.162 4.09 1.249 1.516-.914 2.29-2.832 1.52-4.336l-4.082-8.093c-.771-1.504-2.572-2.162-4.09-1.249-.657.493-1.116 1.06-1.374 1.699-.344.852-.288 1.851.055 2.71z"/></g><g><path fill="#f9d9e3" d="M1226.676 151.255c.696-1.735-.199-3.557-1.905-3.935-2.516-.676-4.887-2.293-6.967-4.054-1.156-1.17-3.326-.973-4.543.322-.376.36-.55.793-.637 1.01-.522 1.3-.35 2.608.69 3.488a22.752 22.752 0 0 0 9.223 5.38c1.706.378 3.53-.693 4.14-2.211z"/></g><g><path fill="#f2e96c" d="M1214.125 174.004c1.705.378 3.441-.476 3.935-2.284.493-1.808-.199-3.555-1.905-3.933-3.527-1.047-7.228-1.66-11.19-1.624-1.388-.013-2.719.99-3.24 2.29-.088.217-.262.65-.146.942-.205 1.665.98 3.344 2.86 3.288a33.635 33.635 0 0 1 9.686 1.321z"/></g></g><g><path fill="url(#r0lja)" d="M1180 178.395l-10.954-1.116-2.232-12.279-4.744 11.442-12.07-3 8.512 9.07-5.652 9.488 10.466-4.814 8.023 7.814-1.465-11.093z"/></g><g><path fill="#d1f3f5" d="M1205.863 274.85l-.26-.235-.086-.078c-.173-.157-.265-.319-.362-.564-.091-.162-.102-.329-.112-.495-.015-.25.051-.506.122-.678.077-.088.072-.171.148-.26l.076-.088.153-.177.076-.088c.153-.177.31-.27.469-.364l.473-.28c.315-.186.636-.29 1.038-.398.402-.108.81-.133 1.13-.236l.163-.01.244-.015.082-.005.163-.01.325-.02.245-.015.081-.005.326-.02.081-.005c.163-.01.407-.025.657.044l.244-.015.244-.015.082-.005.25.069.249.068c.081-.005.162-.01.249.069l.081-.005.082-.005.081-.005c.082-.005.168.073.25.068l.081-.005.748.206c.25.068.499.137.835.284.168.073.336.147.422.225l.168.073.087.079.081-.005-.27-.402-.27-.402c-.086-.079-.09-.162-.177-.24l-.525-.555-.005-.083-.178-.24-.091-.162c-.179-.24-.352-.397-.53-.637-.26-.236-.437-.476-.697-.711l-.265-.32-.173-.156-.173-.157.005.084-.076.088c-.081.005-.076.088-.158.093l-.081.005-.082.005-.157.094-.082.005-.076.088c-.24.098-.474.28-.713.378-.397.192-.875.389-1.435.59-.56.202-1.125.32-1.527.428-.24.099-.565.118-.885.222-.245.015-.484.113-.81.133-.646.123-1.303.08-1.796.026-.245.015-.494-.054-.743-.122l-.082.005c-.081.005-.163.01-.25-.069l-.162.01c-.163.01-.331-.063-.499-.137a4.64 4.64 0 0 1-.59-.299c-.245.015-.331-.063-.336-.147l-.082.005-.086-.078-.005-.083c-.087-.079-.178-.24-.184-.324l-.005-.084c-.091-.161-.101-.328-.117-.578-.01-.167-.015-.25.056-.422-.01-.167.061-.339.214-.516l-.005-.083.153-.177.076-.088a6.55 6.55 0 0 1 1.094-.82c.397-.192.713-.379.952-.477.163-.01.32-.103.483-.113l.163-.01a7.052 7.052 0 0 1 1.873-.115c.245-.015.494.054.738.04l.163-.01c.082-.006.163-.01.25.068l.162-.01c.082-.005.245-.015.331.063.331.064.662.127.911.196.25.068.58.132.83.2.25.069.417.142.585.216a1.128 1.128 0 0 0-.34-.23c-.164.01-.337-.148-.423-.226-.005-.083-.087-.078-.092-.162-.086-.078-.254-.152-.346-.314l-.26-.235-.086-.078-.6-.466-.357-.48-.6-.466-.087-.079c-.081.005-.086-.078-.168-.073l-.092-.162-.167-.073a1.13 1.13 0 0 0-.341-.23l-.087-.08c.005.084-.066.256-.142.345l-.153.176-.077.089-.229.265c-.234.181-.386.358-.544.452-.234.181-.468.363-.708.461-.397.192-.794.384-1.353.585-.56.202-1.125.32-1.609.433-.483.113-1.058.065-1.71.105-.081.005-.163.01-.25-.069l-.08.005-.082.005c-.081.005-.25-.068-.33-.063-.581-.133-1.08-.27-1.589-.573l-.086-.079-.173-.157c-.087-.078-.092-.161-.097-.245-.092-.162-.183-.323-.194-.49l-.015-.25c-.005-.084.071-.172.066-.256-.005-.083.072-.171.148-.26l.076-.088.306-.354c.152-.176.386-.358.697-.628.316-.187.631-.374.87-.472.397-.192.8-.3 1.12-.403a5.876 5.876 0 0 1 1.71-.104c.244-.015.575.048.82.033.412.059.905.112 1.323.254.081-.005.168.074.33.064l-.086-.079-.086-.078c-.082.005-.087-.078-.168-.074-.255-.151-.596-.382-.85-.534-.082.005-.168-.073-.255-.152l-.081.005-.525-.554-.763-.455c-.081.005-.086-.079-.168-.074l-.081.005-.26-.235-.341-.23c-.087-.079-.254-.152-.34-.23l-.082.004c.005.084-.072.172-.148.26l-.076.089-.306.353c-.158.094-.31.27-.392.275l-.076.089-.076.088-.082.005c-.157.093-.31.27-.55.369-.315.186-.554.284-.712.378-.478.196-.957.393-1.359.501-.32.104-.565.119-.967.227-.163.01-.402.108-.565.118l-.163.01-.733.045c-.325.02-.651.04-.9-.03-.163.01-.245.016-.413-.058-.163.01-.33-.063-.498-.137-.082.005-.087-.078-.168-.073-.087-.078-.168-.074-.174-.157l-.173-.157c-.091-.162-.183-.323-.27-.402-.183-.324-.284-.652-.218-.907.066-.256.137-.427.285-.687l.229-.266-.005-.083.152-.177.077-.088c.158-.093.229-.265.382-.442a7.14 7.14 0 0 1 .783-.55c.24-.098.397-.192.642-.207l.081-.005c.484-.113.89-.138 1.298-.163.488-.03 1.064.02 1.639.068-.087-.079-.168-.074-.255-.152l-.081.005-.504-.22c-.087-.079-.168-.074-.25-.069l-.08.005-.169-.073-.081.005-.087-.079-.081.005c-.163.01-.412-.058-.504-.22l-.244.015-.168-.074c-.504-.22-1.003-.357-1.42-.5l.005.084.01.167c.005.083-.071.172-.066.255.005.084-.077.089-.072.172l-.076.088-.229.265-.229.266c-.382.441-.768.8-1.155 1.158-.31.27-.708.462-1.023.649-.158.093-.24.098-.402.108a.869.869 0 0 1-.402.108l-.489.03-.081.005c-.245.015-.657-.044-.922-.362-.173-.157-.264-.319-.35-.397l-.006-.084c-.005-.083-.086-.078-.092-.162-.005-.083-.096-.245-.101-.328-.016-.25.056-.422.122-.677.071-.172.147-.26.219-.432-.005-.084.076-.089.07-.172l.306-.354c.153-.176.392-.275.55-.368.234-.182.473-.28.718-.295.239-.098.565-.118.804-.216l.57-.035c-.082.005-.163.01-.25-.069l-.58-.132-.33-.063c.004.083-.077.088-.158.093l-.163.01-.082.005-.081.005-.244.015-.082.005-.081.005-.245.015c-.325.02-.651.04-.809.133-.326.02-.728.128-1.38.168l-.08.005-.163.01-.326.02c-.163.01-.326.02-.494-.054-.25-.069-.494-.054-.662-.127-.249-.069-.417-.142-.508-.304-.087-.078-.092-.162-.174-.157-.086-.078-.096-.245-.101-.328l-.016-.25c-.005-.084.072-.172.067-.256-.006-.083.07-.172.147-.26-.168-.073-.086-.078-.091-.162.234-.182.468-.363.707-.462.081-.005.24-.098.32-.103l.082-.005c.163-.01.24-.098.402-.108l.652-.04c.081-.005.244-.015.33.064.082-.005.163-.01.25.068.163-.01.25.069.33.064l.082-.005c.168.073.417.142.667.21.168.074.336.147.59.299.255.152.51.304.677.377.087.079.255.152.341.23.087.079.173.157.265.32.005.083.086.078.01.166l.412.059.743.122.748.205c.25.069.5.137.667.21.082-.004.082-.004.168.074.331.064.667.21.916.279.082-.005.25.069.331.064-.254-.152-.509-.304-.682-.461l-.086-.079c-.26-.235-.52-.47-.855-.617l.157-.093c-.254-.152-.6-.466-.865-.785-.26-.235-.606-.549-.875-.95l-.275-.486c-.087-.079-.097-.246-.189-.407-.015-.25-.03-.5.118-.761.076-.088.152-.177.234-.182.076-.088.239-.098.397-.191l.733-.045.081-.005c.407-.025.748.205 1.09.436.34.23.681.46 1.027.774.173.157.26.235.351.397l.087.079c.173.157.265.318.356.48.173.157.265.319.357.48.096.246.27.403.36.565.093.162.184.323.194.49.092.162.102.329.112.496l.005.083c.005.083.01.167.097.245.005.084.092.162.097.245l.005.084c.091.162.107.412.117.579.005.083-.071.172-.066.255.25.068.499.137.753.289l.921.362.672.294.336.147.081-.005.168.073c.168.074.255.152.423.226l.081-.005.082-.005c-.082.005-.087-.079-.173-.157-.173-.157-.346-.314-.438-.476l-.168-.073-.092-.162c-.086-.078-.091-.162-.178-.24 0 0-.005-.084-.086-.079-.092-.161-.265-.318-.362-.564-.27-.402-.544-.887-.733-1.294-.091-.162-.188-.407-.28-.57l-.005-.083c-.091-.161-.183-.323-.198-.573-.097-.246-.112-.496-.209-.741a2.124 2.124 0 0 1 .041-.672c-.005-.084.076-.089.071-.172l.153-.177c.076-.088.158-.093.24-.098.08-.005.238-.098.32-.103l.407-.025.081-.005c.163-.01.331.063.413.058.33.064.666.21 1.002.358.168.073.341.23.51.304l.086.078c.086.078.168.073.173.157.173.157.427.309.6.465l.082-.005c.086.079.254.152.346.314l.26.236.259.235.26.235.086.079.087.078c.091.162.178.24.178.24.264.319.534.721.799 1.04.356.48.544.887.733 1.294l.091.162c.097.245.189.407.285.653.102.328.204.657.3.902.01.167.102.329.118.579.01.167.02.334-.051.505l.01.167.005.084.005.083.005.083c.005.084-.071.172-.066.256-.076.088-.071.171-.147.26l.167.073.168.074.087.078c.081-.005.087.078.168.073.087.079.254.152.341.23l.769.54c.682.46 1.282.926 1.878 1.308.081-.005.086.079.086.079l.087.078.081-.005.082-.005c-.621-.799-1.09-1.775-1.553-2.668-.28-.568-.56-1.137-.83-1.54l-.096-.245-.565-1.22c-.097-.246-.112-.496-.204-.658l-.005-.084c-.01-.166-.015-.25-.107-.412l-.005-.083-.04-.667c-.016-.25.05-.506.122-.677-.005-.084.07-.172.142-.344 0 0-.005-.083.077-.088l.152-.177c.077-.088.158-.093.24-.098l.08-.005.082-.005.245-.015c.244-.015.412.058.575.048.33.064.585.216.834.284l.087.079c.086.078.173.157.254.152l.087.078.26.235c.173.157.427.31.605.55.26.235.438.475.616.715.356.48.636 1.05.911 1.535.188.407.377.814.494 1.393.193.49.305.986.422 1.565.204.657.255 1.491.224 2.33.026.417-.03.84-.091 1.178.005.083-.072.172-.067.255l.006.083c.005.084-.067.256-.062.339.006.083-.076.088-.07.172l.01.167c.004.083-.077.088-.072.171l.865.785.087.078.26.235.615.716.173.157c.352.397.784.79 1.135 1.187l.087.078.091.162.26.235c.005.083.087.078.092.162-.102-.329-.285-.652-.382-.898l-.097-.245-.107-.412c-.3-.902-.605-1.888-.926-3.124-.112-.496-.224-.991-.34-1.57l-.016-.25-.005-.084-.026-.417-.005-.083-.005-.084c-.04-.667.163-1.349.53-2.041.07-.172.223-.349.3-.437l.076-.088c.076-.089.153-.177.31-.27l.474-.28c.081-.005.163-.01.239-.099l.081-.005.326-.02c.326-.02.667.21.921.363.168.073.341.23.51.304l.432.392.086.078c.26.235.443.56.708.878.092.162.27.402.453.726.005.083.091.161.091.161l.006.084.086.078c.092.162.097.245.188.407.092.162.184.324.194.49.183.324.29.736.315 1.154.107.412.138.912.087 1.417.02.334-.04.672-.02 1.006a8.05 8.05 0 0 1-.316 1.526c-.066.255-.127.594-.275.854-.066.255-.219.432-.29.604a2.604 2.604 0 0 0-.295.52c.005.084-.076.089-.071.172a531.213 531.213 0 0 0-.611.707l-.153.177-.076.088-.076.088-.153.177s-.082.005-.077.089l.174.156.173.157.086.079.356.48s.087.079.168.074c.087.078.178.24.275.485l.092.162.275.486c.091.161.178.24.183.323l.458.81.092.161c.086.079.178.24.188.407l.092.162.086.079.005.083c.188.407.458.81.652 1.3.096.245.193.49.3.902.01.167.102.329.112.496l.02.333.01.167c.016.25.112.495.123.662l.03.5c.005.084.01.168-.066.256s-.158.093-.24.098c-.08.005-.162.01-.249-.068-.086-.079-.091-.162-.096-.246l-.046-.75-.015-.25c-.016-.25-.123-.663-.23-1.075-.01-.166-.101-.328-.111-.495-.097-.245-.189-.407-.199-.574l-.275-.486-.417-.141-.275-.486c-.005-.083-.092-.162-.097-.245l-.005-.084-.086-.078-.005-.083-.005-.084-.087-.078-.087-.079-.274-.485c-.087-.079-.092-.162-.178-.24l-.087-.079-.092-.162-.086-.078c-.076.088-.076.088-.158.093l-.076.089c-.077.088-.158.093-.234.181-.077.089-.158.094-.235.182-.076.088-.234.182-.31.27l-.081.005c-.077.088-.158.093-.153.177-.153.177-.392.275-.631.373-.234.182-.474.28-.794.384-.24.098-.56.201-.804.216-.565.118-1.049.231-1.619.266-.651.04-1.135.153-1.705.188l-.326.02-.162.01-.408.025a2.215 2.215 0 0 1-1.074-.186 13.08 13.08 0 0 1-1.089-.436 5.965 5.965 0 0 1-.773-.622z"/></g><g transform="rotate(144.74 151.5 260.5)"><path fill="url(#r0ljb)" d="M138.46 260.06l10.125 1.031 2.064 11.351 4.386-10.577 11.157 2.773-7.868-8.384 5.224-8.77-9.674 4.45-7.417-7.224 1.355 10.254z"/></g><g transform="rotate(144.74 197 185)"><path fill="url(#r0ljc)" d="M187.72 184.597l7.103.724 1.447 7.962 3.076-7.42 7.827 1.946-5.52-5.881 3.665-6.153-6.786 3.122-5.202-5.067.95 7.193z"/></g></g></g></svg>