<svg xmlns="http://www.w3.org/2000/svg" width="375" height="440" viewBox="0 0 375 440"><defs><linearGradient id="8lo7a" x1="266.46" x2="294.19" y1="258.58" y2="258.58" gradientUnits="userSpaceOnUse"><stop offset="0" stop-color="#cda948"/><stop offset="1" stop-color="#e6cf33"/></linearGradient><linearGradient id="8lo7b" x1="315.72" x2="335.17" y1="183.55" y2="183.56" gradientUnits="userSpaceOnUse"><stop offset="0" stop-color="#cda948"/><stop offset="1" stop-color="#e6cf33"/></linearGradient></defs><g><g><path fill="#cfb0d0" d="M17.312 412.012l.545-.255.181-.086c.363-.17.68-.208 1.133-.199.317-.037.588.057.859.151.406.142.767.416.992.642.09.18.225.227.314.406l.09.18.179.359.089.18c.179.358.222.67.266.982l.13.935c.087.623.038 1.2-.057 1.909-.095.708-.325 1.37-.374 1.946l-.092.265-.138.397-.046.132-.092.265-.184.529-.139.397-.046.132-.184.53-.046.131c-.092.265-.23.662-.504 1.012l-.138.397-.138.397-.046.132-.274.35-.274.35c-.046.132-.092.264-.273.349l-.046.132-.046.133-.046.132c-.046.132-.228.217-.274.35l-.046.132-.821 1.05c-.274.349-.547.699-1.003 1.134-.227.217-.455.434-.636.52l-.228.217-.182.085-.046.132.816-.16.816-.162c.181-.085.317-.038.498-.123l1.225-.463.136.047.498-.123.317-.038c.499-.123.862-.294 1.36-.417.545-.255 1.044-.378 1.589-.634l.68-.208.363-.17.363-.17-.135-.048-.09-.18c.046-.131-.09-.179-.043-.31l.046-.133.046-.133-.044-.311.046-.133-.089-.179c.003-.444-.13-.935-.128-1.38-.04-.755-.035-1.643.016-2.664.052-1.02.239-1.994.334-2.702.002-.444.186-.974.235-1.55.138-.397.141-.84.325-1.37.233-1.106.737-2.117 1.149-2.864.138-.397.412-.746.685-1.096l.046-.132c.047-.133.093-.265.274-.35l.092-.265c.092-.264.32-.482.548-.7.227-.217.455-.434.864-.737.138-.396.32-.482.455-.434l.046-.133.182-.085.135.047c.182-.085.499-.123.634-.076l.136.048c.317-.038.588.056.994.197.271.095.407.142.632.369.271.094.496.32.675.68l.135.047.18.359.089.18c.311.85.488 1.652.574 2.276.041.756.128 1.38.125 1.823-.092.265-.049.577-.14.841l-.093.265c-.187.973-.555 2.032-1.06 3.043-.137.397-.41.747-.549 1.143l-.092.265c-.046.132-.092.265-.274.35l-.092.264c-.046.133-.138.397-.32.482-.32.482-.64.965-.913 1.314-.273.35-.593.832-.867 1.182-.273.35-.501.567-.729.784.182-.085.363-.17.591-.387.092-.265.455-.435.637-.52.135.047.181-.086.317-.038.181-.085.409-.303.726-.34l.545-.256.181-.085 1.136-.644.997-.246 1.135-.643.182-.085c.046-.132.181-.085.227-.217l.317-.038.228-.218c.182-.085.363-.17.591-.388l.181-.085c-.135-.047-.36-.273-.45-.453l-.178-.359-.09-.18-.268-.538c-.133-.49-.312-.85-.355-1.162-.133-.491-.266-.982-.263-1.426-.041-.756-.082-1.512-.03-2.532.051-1.02.238-1.994.379-2.835.14-.841.598-1.72.967-2.779.046-.132.092-.264.274-.35l.046-.131.046-.133c.046-.132.273-.35.32-.482.593-.832 1.14-1.531 1.959-2.136l.181-.085.363-.17c.182-.086.317-.039.453.009.317-.038.634-.076.905.018l.406.141c.136.048.225.227.36.274.136.048.226.227.315.406l.09.18.357.718c.18.359.312.85.534 1.52.087.624.174 1.248.171 1.692.041.756-.054 1.464-.102 2.04-.187.974-.556 2.032-.968 2.78-.138.396-.457.878-.596 1.275-.365.614-.777 1.36-1.279 1.928-.046.132-.227.218-.32.482l.182-.085.182-.085c.046-.132.181-.085.228-.218.409-.302 1-.69 1.409-.992.046-.133.227-.218.409-.303l.046-.132 1.225-.464 1.227-.908c.046-.132.182-.085.228-.217l.046-.132.545-.256.59-.387c.182-.086.41-.303.59-.388l.047-.132c-.135-.048-.225-.227-.314-.407l-.09-.179-.358-.718c-.043-.312-.222-.67-.176-.803l-.09-.18-.089-.179.046-.132c-.043-.312-.222-.67-.22-1.115-.086-.623-.083-1.068-.127-1.38.006-.888.01-1.776.106-2.484.048-.577.187-.974.281-1.682.092-.265.095-.709.187-.974l.092-.264.415-1.19c.184-.53.368-1.06.642-1.409.092-.265.138-.397.366-.614.092-.265.32-.482.547-.7.046-.132.182-.085.228-.217.181-.085.227-.218.363-.17l.363-.17c.317-.039.634-.077.816-.162.634-.076 1.222-.02 1.582.254.36.274.586.5.9.907l.268.538.136.047.179.36.09.179c.043.312.267.538.446.897.133.491.266.983.353 1.606-.003.444.04.756-.098 1.153l-.046.132c-.14.841-.37 1.503-.601 2.164-.276.794-.734 1.673-1.192 2.552.181-.085.227-.217.409-.302l.046-.133.683-.652c.181-.085.228-.218.274-.35l.046-.132.227-.218.046-.132.182-.085.046-.132c.092-.265.366-.615.683-.653l.138-.396.227-.218c.683-.652 1.23-1.352 1.732-1.919l-.136-.047-.27-.094c-.136-.048-.226-.227-.361-.274-.136-.047-.09-.18-.225-.227l-.09-.18-.268-.538-.268-.538c-.447-.898-.76-1.748-1.07-2.598-.223-.67-.264-1.426-.35-2.05-.044-.312.002-.444.094-.709-.043-.311.049-.576.095-.708l.276-.794.046-.132c.139-.397.504-1.012 1.184-1.22.364-.17.68-.208.862-.293l.136.047c.135.047.181-.085.317-.038.135.047.452.01.588.056.406.142.631.368.992.642.225.227.314.406.54.633.135.047.089.18.224.227l.358.718c.179.358.176.803.22 1.114.132.492.13.936-.009 1.333-.002.444-.186.973-.19 1.417l-.321.926c.046-.132.092-.265.273-.35l.594-.832.32-.482c-.136-.047-.09-.179-.044-.311l.092-.265.046-.132.046-.133.138-.396.046-.133.046-.132.139-.397c.184-.53.368-1.058.325-1.37.184-.53.279-1.238.647-2.296l.046-.133.092-.264.184-.53c.093-.264.185-.529.412-.746.274-.35.412-.747.64-.964.273-.35.501-.567.818-.605.182-.086.317-.038.363-.17.182-.086.453.009.588.056l.407.141c.135.047.225.227.36.274.136.047.225.227.315.406.227-.217.181-.085.317-.038.132.491.265.983.263 1.427-.046.132-.003.444-.05.576l-.045.132c-.092.265-.003.444-.095.71l-.368 1.058c-.046.132-.138.396-.32.482-.046.132-.092.264-.274.35-.092.264-.273.349-.32.481l-.045.133c-.228.217-.502.567-.775.917a7.987 7.987 0 0 1-.865.737c-.409.303-.818.605-1.046.823-.181.085-.409.302-.59.387-.182.085-.364.17-.68.208-.136-.047-.182.086-.272-.094l-.365.614-.686 1.097-.821 1.05c-.274.349-.547.699-.775.916-.046.132-.046.132-.228.217-.32.482-.774.917-1.048 1.267-.046.132-.274.35-.32.482.41-.303.818-.605 1.182-.775l.181-.085c.545-.256 1.09-.511 1.545-.946l.043.312c.41-.303 1.135-.643 1.816-.852.544-.255 1.27-.596 2.086-.757l.951-.114c.182-.085.453.01.77-.028.407.141.813.283 1.127.689.09.18.18.359.133.491.09.18-.002.444.041.756l-.415 1.19-.046.133c-.23.661-.82 1.05-1.411 1.437-.591.388-1.182.775-1.908 1.116-.363.17-.545.255-.862.293l-.181.085c-.363.17-.68.209-.998.247-.363.17-.68.208-.997.246-.452-.01-.815.16-1.132.199-.318.038-.635.076-.906-.019-.317.038-.588-.056-.859-.15l-.135-.048c-.136-.047-.271-.094-.453-.009-.135-.047-.317.038-.452-.009l-.136-.047c-.317.038-.723-.104-.994-.198-.136-.047-.225-.227-.36-.274-.274.35-.548.7-.957 1.002l-1.184 1.22-.91.87-.456.434-.046.133-.228.217c-.227.217-.409.303-.637.52l-.046.132-.046.133c.046-.133.182-.086.364-.17.363-.17.726-.341 1.043-.38l.227-.217.317-.038c.182-.085.317-.038.5-.123 0 0 .134.047.18-.085.318-.038.68-.208 1.133-.199a17.285 17.285 0 0 1 2.537-.303c.317-.038.77-.03 1.086-.067l.136.047c.317-.038.634-.076 1.04.066.453.009.86.15 1.312.16.271.094.678.235 1.038.51.136.046.09.179.225.226l.179.359c.09.18.043.311-.003.444-.046.132-.002.444-.048.576-.093.265-.139.397-.23.662l-.047.132c-.092.265-.32.482-.366.614-.32.482-.774.917-1.23 1.352-.227.217-.59.388-.818.605l-.182.085c-.181.085-.227.218-.363.17-.363.17-.772.473-1.135.644l-.046.132c-.182.085-.41.303-.726.34l-.545.256-.545.255-.544.256-.182.085-.181.085c-.318.038-.5.123-.5.123-.68.208-1.495.37-2.175.578-.997.246-1.767.275-2.537.303l-.317.038c-.452-.009-.77.03-1.222.02-.588-.056-1.176-.113-1.629-.122-.27-.094-.588-.057-.994-.198-.271-.094-.542-.189-.767-.415l-.271-.095-.136-.047-.135-.047-.135-.047c-.136-.047-.225-.227-.361-.274-.09-.18-.225-.227-.314-.406l-.228.217-.228.218-.181.085c-.046.132-.182.085-.228.217-.181.086-.409.303-.59.388l-1.364.86c-1.18.776-2.316 1.42-3.316 2.11-.046.132-.182.085-.182.085l-.181.085-.046.132-.046.132c1.677-.454 3.533-.55 5.254-.692 1.087-.067 2.173-.134 2.99-.295l.452.01 2.309-.087c.452.01.859.15 1.176.113l.135.047c.271.094.407.142.724.104l.135.047 1.084.377c.407.142.767.415.992.642.136.047.225.227.45.453 0 0 .135.048.09.18l.178.359c.09.18.044.312-.002.444l-.046.132-.046.132-.139.397c-.138.397-.365.615-.458.88-.32.481-.728.784-1.002 1.134l-.182.085c-.181.085-.363.17-.409.302l-.181.086-.545.255c-.363.17-.772.473-1.271.596-.545.255-1.043.378-1.542.501-.997.247-2.084.313-3.035.427-.77.029-1.54.058-2.534-.14-.905-.019-1.764-.17-2.758-.367-1.177-.113-2.532-.585-3.84-1.189-.678-.235-1.31-.604-1.806-.925-.135-.047-.224-.226-.36-.273l-.135-.048c-.136-.047-.36-.273-.496-.32-.136-.048-.09-.18-.225-.227l-.271-.095c-.136-.047-.09-.179-.225-.226l-1.816.851-.181.085-.545.256-1.542.501-.363.17c-.862.294-1.77.72-2.631 1.013l-.182.085-.317.038-.545.255c-.135-.047-.181.086-.317.038.588.057 1.223-.02 1.675-.01l.453.01.723.103c1.629.122 3.393.29 5.564.602.859.15 1.718.301 2.712.499l.407.141.135.048.678.235.135.048.136.047c1.084.377 2.03 1.151 2.884 2.19.225.227.403.586.493.765l.09.18c.089.18.178.359.222.67l.13.936c-.046.132-.092.264-.003.444l-.046.132-.184.53c-.184.529-.775.916-1.184 1.219-.228.217-.591.388-.819.605l-.907.426-.182.085c-.545.255-1.179.331-1.859.54-.317.037-.816.16-1.45.236-.135-.047-.317.038-.317.038l-.135-.047-.182.085c-.317.038-.452-.009-.77.029-.317.038-.634.076-.905-.018-.634.075-1.357-.028-2.035-.264-.723-.103-1.536-.386-2.303-.802-.542-.188-1.038-.51-1.58-.698a13.836 13.836 0 0 1-2.209-1.51c-.36-.274-.856-.595-1.17-1.002-.361-.273-.54-.632-.765-.859-.09-.18-.404-.586-.629-.812-.135-.047-.09-.18-.225-.227l-.179-.359-.536-1.077-.18-.358-.089-.18-.09-.18-.178-.358s.046-.133-.09-.18l-.363.17-.363.17-.181.086-.997.246s-.182.085-.228.217c-.182.086-.499.124-.951.114l-.317.038-.952.114c-.317.038-.498.123-.634.076l-1.585.19-.317.038a1.11 1.11 0 0 1-.77.029l-.317.038-.181.085-.136-.047c-.77.028-1.585.19-2.49.171-.453-.01-.905-.018-1.629-.122-.27-.094-.588-.056-.859-.15l-.542-.19-.27-.094c-.407-.141-.86-.15-1.131-.245l-.813-.283c-.135-.047-.271-.094-.36-.274-.09-.179-.044-.311.002-.444.046-.132.092-.264.274-.35.181-.085.317-.037.452.01l1.22.424.407.142c.406.141 1.13.245 1.853.349.271.094.588.056.86.15.452.01.769-.029 1.04.066l.95-.114.502-.567.951-.114c.136.047.317-.038.453.009l.135.047.182-.085.136.047.135.047.182-.085.181-.085.951-.114c.182-.085.317-.038.499-.123l.181-.085.318-.038.181-.085c-.09-.18-.09-.18-.043-.312l-.09-.18c-.09-.179-.043-.311-.133-.49-.09-.18-.043-.312-.132-.492-.09-.18-.133-.491-.223-.67l.046-.133c-.09-.18-.043-.312-.179-.359-.178-.359-.176-.803-.173-1.247-.133-.491-.13-.935-.082-1.512.003-.444.052-1.02.19-1.417.187-.973.328-1.814.65-2.74.369-1.059.51-1.9.832-2.826l.184-.529.092-.265.23-.661c.23-.662.55-1.144 1.006-1.579.5-.567.956-1.002 1.411-1.436.591-.388.954-.558 1.499-.814z"/></g><g><path fill="#f4d3fc" d="M128.852 156.017c1.06-16.032 5.83-31.538 10.917-46.832 8.585-25.525 18.866-50.945 35.931-71.83C192.765 16.472 217.673.546 244.701.018c14.839-.317 29.466 3.902 43.033 9.809 10.705 4.641 21.198 10.548 29.148 19.197 7.207 7.805 11.977 17.509 15.898 27.424 13.673 35.018 16.535 76.049-.954 109.379-12.189 22.994-33.281 40.715-56.599 52.528-23.425 11.813-49.18 18.142-74.937 22.783-11.235 2.004-22.788 3.797-34.13 2.32-6.783-.843-19.078-4.43-24.165-10.653-12.083-14.661-15.9-35.545-13.143-76.787z"/></g><g><g><path fill="#f2e96c" d="M236.306 168.314c-.572-1.46-2.317-2.059-3.64-1.314a94.82 94.82 0 0 0-12.346 6.622c-1.324.745-1.827 2.636-.855 3.901.182.395.334.514.64.752.915.713 2.173.678 3.097.13a66.291 66.291 0 0 1 11.544-6.231c1.448-.902 1.98-2.517 1.56-3.86z"/></g><g><path fill="#def9fa" d="M240.42 193.19c.183.397.49.636.796.875.767.598 1.907.721 2.989.289 1.33-.75 1.99-2.533 1.29-3.844-1.276-2.782-2.15-5.761-2.343-8.976-.02-1.547-1.4-2.623-2.943-2.55-1.542.074-2.662 1.499-2.642 3.046.128 3.929 1.088 7.741 2.853 11.16z"/></g><g><path fill="#f2e96c" d="M216.186 201.808c.61.475 1.469.636 2.298.52 3.843-.815 7.57-2.736 10.688-5.133a2.805 2.805 0 0 0 .578-3.866c-.973-1.267-2.661-1.312-3.834-.448-2.468 1.886-5.395 3.416-8.408 4.115-1.507.35-2.469 1.887-2.172 3.388-.095.433.392 1.067.85 1.424z"/></g><g><path fill="#def9fa" d="M190.013 202.856c.181.395.334.514.639.752.916.713 2.05.836 3.098.13 3.173-1.844 6.346-3.687 9.7-5.135 1.478-.626 2.01-2.242 1.59-3.585-.573-1.462-2.165-1.941-3.518-1.472-3.631 1.486-7.081 3.368-10.502 5.526-1.324.745-1.828 2.637-1.007 3.784z"/></g><g><path fill="#dbb2d2" d="M208.304 234.02c1.356.803 3.154.41 3.874-.823.845-1.392.517-3.188-.685-3.87-3.636-2.326-6.148-6.083-7.141-10.193-.3-1.517-1.934-2.28-3.453-1.927-1.52.354-2.335 2.026-2.036 3.542 1.205 4.79 4.083 9.345 7.93 12.35.433.08 1.05.561 1.51.922z"/></g><g><path fill="#f2e96c" d="M232.142 223.21c-1.468-1.913-2.256-4.06-2.517-6.564-.02-1.549-1.401-2.626-2.945-2.552-1.543.074-2.664 1.5-2.644 3.049.223 3.496 1.558 6.838 3.67 9.506l.46.36c.92.718 2.34.802 3.518-.067 1.054-.712 1.437-2.458.458-3.733z"/></g><g><path fill="#f2e96c" d="M266.245 206.684c.46.358 1.196.677 2.028.561 1.539-.074 2.657-1.495 2.636-3.039l-.436-8.236c-.02-1.544-1.398-2.618-2.937-2.544-1.54.073-2.657 1.495-2.637 3.039l.436 8.236c.087.832.298 1.505.91 1.983z"/></g><g><path fill="#dbb2d2" d="M253.064 203.646c-.574-1.464-2.322-2.063-3.648-1.317l-4.687 2.197c-1.48.627-2.137 2.404-1.439 3.71.182.396.364.792.822 1.15.764.595 1.9.718 2.98.287l4.686-2.197c1.326-.746 1.984-2.523 1.286-3.83z"/></g><g><path fill="#f9d9e3" d="M185.247 228.238c-.574-1.465-2.045-2.103-3.525-1.475l-6.071 2.39c-1.48.627-2.167 2.127-1.593 3.591.182.396.517.911.823 1.15.764.595 1.9.718 2.702.325l6.071-2.39c1.356-.47 2.014-2.246 1.593-3.591z"/></g><g><path fill="#def9fa" d="M239.002 250.956c-1.102-1.115-1.707-2.863-1.296-4.33.411-1.467-.596-3.018-2.043-3.38-1.447-.362-3.027.703-3.437 2.17-.764 3.49.35 7.422 2.986 9.733l.153.12c1.074.837 2.894.724 3.765-.384.995-1.266.822-2.934-.128-3.929z"/></g><g><path fill="#f9d9e3" d="M215.703 171.853l-3.16-7.32c-.576-1.473-2.331-2.075-3.663-1.325-1.486.63-2.146 2.416-1.445 3.73l3.16 7.32c.182.399.364.797.825 1.156.767.598 1.908.722 2.991.288 1.055-.711 1.868-2.377 1.292-3.849z"/></g><g><path fill="#f2e96c" d="M255.625 178.441c-.314 1.028.231 2.216.996 2.812.306.238.612.477 1.042.557 1.442.361 3.018-.701 3.275-2.282l.666-3.043c.41-1.462-.594-3.008-2.161-3.212-1.443-.36-3.019.702-3.275 2.283z"/></g><g><path fill="#dbb2d2" d="M192.572 181.974a24.03 24.03 0 0 0 8.36 4.218c1.452.364 3.067-.428 3.48-1.902.412-1.475-.32-3.072-1.772-3.436-2.626-.768-5.031-2.132-7.186-3.815-1.232-.961-2.905-.728-4.058.425-.999 1.272-.825 2.948.282 4.069.279-.04.587.201.894.441z"/></g><g><path fill="#def9fa" d="M226.182 154.389c.058.554.393 1.07.852 1.427.612.477 1.625.758 2.58.484 1.51-.35 2.321-2.01 2.024-3.514-.959-3.802-1.115-7.996.02-11.948.41-1.463-.442-2.89-2.038-3.37-1.443-.362-3.048.424-3.43 2.164-1.477 4.702-1.359 9.886-.008 14.757z"/></g><g><path fill="#f2e96c" d="M181.374 214.849c-.02-1.545-.997-2.816-2.565-3.02-4.371-.094-9.086.563-13.283 2.132-1.482.628-2.17 2.131-1.872 3.637.057.555.517.913.976 1.27.766.597 1.627.759 2.707.327 3.519-1.334 7.401-1.875 11.064-1.822 1.445.361 2.716-.941 2.973-2.524z"/></g><g><path fill="#dbb2d2" d="M196.075 255.684c-1.188-1.946-1.726-4.406-1.249-6.584.258-1.585-.595-3.015-2.165-3.219-1.57-.204-3.024.703-3.281 2.288-.735 3.763-.024 7.888 1.989 10.987.153.12.335.516.488.636.92.717 2.336.8 3.389.091 1.3-1.026 1.529-2.888.83-4.199z"/></g><g><path fill="#f9d9e3" d="M300.38 218.48c.844-1.392.391-3.028-.84-3.99-3.328-2.084-7.154-3.533-11.077-4.543-1.452-.364-3.038.707-3.45 2.18-.316 1.036.232 2.233 1.002 2.834.308.24.615.48 1.048.562 3.336.81 6.577 2.056 9.443 3.78 1.23.962 3.028.57 3.873-.823z"/></g><g><path fill="#dbb2d2" d="M299.307 202.598c1.51-.351 2.628-1.772 2.33-3.278-.297-1.505-1.675-2.578-3.185-2.227l-8.106 1.831c-1.51.351-2.627 1.772-2.33 3.278.21.673.546 1.19 1.005 1.547.612.477 1.473.639 2.304.523z"/></g><g><path fill="#f9d9e3" d="M162.203 242.303c-1.218-.95-2.997-.562-3.833.813-1.33 2.003-3.393 3.688-5.484 5.098-1.322.743-1.825 2.63-1.13 3.932.182.394.486.632.639.75.913.712 2.045.834 3.091.13a23.747 23.747 0 0 0 7.272-6.746c.836-1.375.51-3.147-.555-3.977z"/></g><g><path fill="#f2e96c" d="M178.235 258.94c.836-1.375.663-3.03-.679-3.822-1.342-.792-2.997-.561-3.833.814-1.948 2.788-3.592 5.814-4.778 9.195-.437 1.18-.018 2.52.896 3.232.153.118.457.356.733.317 1.313.517 3.063-.146 3.595-1.759.968-2.792 2.364-5.503 4.066-7.977z"/></g></g><g><g><path fill="#f2e96c" d="M273.056 153.088c.27 1.587 1.862 2.64 3.309 2.261a89.288 89.288 0 0 0 13.425-3.21c1.447-.377 2.317-2.1 1.616-3.602-.1-.437-.225-.594-.477-.909-.756-.944-1.996-1.245-3.011-.953a62.403 62.403 0 0 1-12.563 3.039c-1.6.5-2.443 1.943-2.299 3.374z"/></g><g><path fill="#def9fa" d="M274.458 128.29c-.1-.433-.35-.746-.6-1.06-.627-.782-1.71-1.202-2.845-1.068-1.44.376-2.433 1.933-2.011 3.39.69 3.037.95 6.158.505 9.328-.285 1.507.843 2.916 2.355 3.25 1.511.336 2.88-.75 3.165-2.258.651-3.846.47-7.799-.57-11.582z"/></g><g><path fill="#f2e96c" d="M300.127 125.585c-.504-.63-1.312-1.016-2.147-1.123-3.925-.224-7.957.666-11.486 2.186-1.472.656-1.912 2.292-1.336 3.636a2.842 2.842 0 0 0 3.665 1.46c2.792-1.192 5.962-1.912 9.052-1.795 1.544.058 2.792-1.192 2.8-2.742.18-.4-.17-1.15-.548-1.622z"/></g><g><path fill="#def9fa" d="M325.869 130.564c-.1-.436-.225-.593-.477-.908-.755-.944-1.842-1.366-3.01-.952-3.476.963-6.953 1.925-10.528 2.452-1.572.22-2.416 1.664-2.271 3.094.27 1.587 1.735 2.481 3.154 2.382 3.854-.49 7.61-1.418 11.39-2.623 1.447-.378 2.318-2.1 1.742-3.445z"/></g><g><path fill="#dbb2d2" d="M315 95.806c-1.15-1.127-2.959-1.22-3.894-.222-1.087 1.118-1.122 2.93-.096 3.9 3.05 3.189 4.735 7.46 4.889 11.672-.008 1.536 1.418 2.698 2.951 2.756 1.533.058 2.646-1.336 2.654-2.873-.225-4.92-2.108-10.055-5.229-13.95-.4-.192-.9-.816-1.275-1.283z"/></g><g><path fill="#f2e96c" d="M289.508 100.766c1.047 2.238 1.388 4.525 1.147 7.018-.285 1.506.842 2.913 2.353 3.247 1.51.335 2.877-.75 3.162-2.256.472-3.445-.164-7.032-1.685-10.172l-.376-.47a2.948 2.948 0 0 0-3.423-.86c-1.162.41-1.876 2.001-1.178 3.493z"/></g><g><path fill="#f2e96c" d="M252.402 109.251c-.376-.47-1.03-.976-1.864-1.084-1.514-.336-2.885.754-3.17 2.264l-1.206 8.142c-.286 1.51.844 2.92 2.358 3.257 1.515.335 2.885-.754 3.17-2.264l1.206-8.142c.08-.833.009-1.546-.494-2.173z"/></g><g><path fill="#dbb2d2" d="M264.785 114.987c.27 1.584 1.859 2.634 3.303 2.257l5.015-.903c1.57-.22 2.565-1.783 2.142-3.246-.099-.435-.197-.87-.575-1.341-.628-.786-1.714-1.207-2.853-1.073l-5.015.904c-1.444.377-2.44 1.939-2.017 3.402z"/></g><g><path fill="#f9d9e3" d="M336.42 106.483c.27 1.584 1.58 2.598 3.15 2.378l6.405-.724c1.57-.22 2.538-1.504 2.268-3.088-.099-.435-.323-1.027-.575-1.341-.628-.785-1.714-1.207-2.575-1.036l-6.405.723c-1.417.1-2.412 1.661-2.268 3.088z"/></g><g><path fill="#def9fa" d="M289.178 72.204c.85 1.373 1.093 3.228.405 4.543-.688 1.314-.017 3.085 1.316 3.818 1.334.733 3.077.116 3.765-1.2 1.43-3.183 1.124-7.292-.98-10.23l-.125-.156c-.877-1.095-2.666-1.466-3.73-.62-1.216.966-1.376 2.629-.651 3.845z"/></g><g><path fill="#f9d9e3" d="M293.8 154.504l1.621 7.92c.27 1.576 1.852 2.621 3.29 2.246 1.564-.22 2.555-1.774 2.134-3.23l-1.621-7.92c-.099-.433-.197-.866-.573-1.335-.626-.782-1.707-1.201-2.842-1.067-1.162.411-2.278 1.81-2.01 3.386z"/></g><g><path fill="#f2e96c" d="M256.468 139.225c.51-.92.214-2.224-.414-3.01-.251-.313-.502-.627-.906-.82-1.336-.735-3.085-.116-3.649 1.36l-1.254 2.794c-.69 1.319-.016 3.095 1.473 3.71 1.336.734 3.084.115 3.649-1.36z"/></g><g><path fill="#dbb2d2" d="M318.617 150.234a26.07 26.07 0 0 0-7.23-6.241c-1.327-.73-3.038-.392-3.723.918-.686 1.309-.293 3.036 1.035 3.766 2.38 1.425 4.43 3.366 6.178 5.547.998 1.247 2.656 1.46 3.992.654 1.211-.962 1.37-2.618.524-3.985-.277-.036-.526-.347-.776-.659z"/></g><g><path fill="#def9fa" d="M279.453 169.334c.053-.556-.171-1.147-.548-1.618-.502-.628-1.435-1.17-2.421-1.156-1.542-.058-2.662 1.345-2.67 2.892.181 3.963-.498 8.098-2.388 11.653-.69 1.319-.142 2.937 1.32 3.83 1.336.734 3.057.393 3.774-1.203 2.373-4.197 3.285-9.286 2.933-14.398z"/></g><g><path fill="#f2e96c" d="M337.111 120.279c-.286 1.51.414 3.006 1.901 3.62 4.238 1.248 8.96 1.856 13.358 1.439 1.567-.22 2.534-1.501 2.542-3.047.054-.555-.323-1.025-.7-1.496-.627-.783-1.433-1.168-2.57-1.034-3.691.368-7.58-.133-11.136-1.153-1.336-.735-2.831.197-3.395 1.671z"/></g><g><path fill="#dbb2d2" d="M332.013 77.38c.77 2.207.808 4.74-.086 6.732-.564 1.472-.017 3.088 1.47 3.7 1.486.614 3.08.117 3.642-1.356 1.458-3.464 1.58-7.663.236-11.207-.125-.157-.224-.59-.35-.747-.752-.94-2.113-1.396-3.276-.984-1.468.653-2.058 2.403-1.636 3.862z"/></g><g><path fill="#f9d9e3" d="M222.001 89.716c-1.086 1.118-.97 2.811.03 4.058 2.8 2.877 6.205 5.273 9.79 7.272 1.328.73 3.065.115 3.751-1.195.508-.913.213-2.209-.411-2.988-.25-.312-.5-.624-.9-.815-3.059-1.652-5.939-3.7-8.364-6.11-1-1.247-2.809-1.34-3.896-.222z"/></g><g><path fill="#dbb2d2" d="M219.408 105.469c-1.541-.058-2.912 1.03-2.92 2.577-.008 1.546 1.122 2.958 2.663 3.016l8.263.361c1.542.058 2.912-1.031 2.92-2.577-.072-.713-.296-1.305-.673-1.775-.502-.627-1.309-1.013-2.142-1.12z"/></g><g><path fill="#f9d9e3" d="M362.117 98.121c1.009 1.262 2.836 1.357 3.933.225 1.71-1.618 4.076-2.728 6.416-3.557 1.449-.38 2.321-2.106 1.897-3.575-.099-.437-.351-.753-.477-.91-.757-.947-1.846-1.37-3.016-.955-3.05.88-6.03 2.475-8.503 4.702-1.098 1.132-1.133 2.966-.25 4.07z"/></g><g><path fill="#f2e96c" d="M350.237 78.249c-1.098 1.13-1.259 2.807-.097 3.947 1.161 1.14 2.835 1.356 3.933.225 2.473-2.227 4.695-4.769 6.538-7.784.665-1.046.52-2.479-.236-3.425-.126-.158-.378-.473-.657-.509-1.188-.86-3.042-.675-3.887.771-1.511 2.493-3.427 4.791-5.594 6.775z"/></g></g><g transform="rotate(144.74 279.5 260.5)"><path fill="url(#8lo7a)" d="M266.46 260.06l10.125 1.031 2.064 11.351 4.386-10.577 11.157 2.773-7.868-8.384 5.224-8.77-9.674 4.45-7.417-7.224 1.354 10.254z"/></g><g transform="rotate(144.74 325 185)"><path fill="url(#8lo7b)" d="M315.72 184.597l7.103.724 1.447 7.962 3.076-7.42 7.827 1.946-5.52-5.881 3.665-6.153-6.786 3.122-5.202-5.067.95 7.193z"/></g></g></svg>