<svg xmlns="http://www.w3.org/2000/svg" width="43" height="42" viewBox="0 0 43 42"><g><g><path fill="#f7f1cc" d="M25.83 33.393l-.292-.337-.098-.112c-.195-.225-.286-.444-.371-.768-.091-.219-.079-.431-.066-.644.018-.318.14-.631.257-.837.11-.1.116-.207.226-.307l.11-.1.22-.2.11-.1c.22-.201.433-.295.647-.39l.64-.281c.428-.189.849-.27 1.374-.346.525-.076 1.043-.046 1.464-.128l.208.012.311.018.104.006.207.012.415.025.311.018.104.006.415.024.103.006c.208.012.52.03.824.155l.311.018.311.018.104.007.305.124.305.124c.104.007.207.013.305.125l.104.006.103.006.104.006c.104.006.201.118.305.125l.104.006.915.373c.305.124.61.249 1.012.485.201.119.402.237.5.35l.201.118.098.112.103.006-.28-.55-.28-.549c-.097-.112-.091-.218-.189-.33l-.578-.78.006-.107-.19-.33-.09-.219c-.19-.33-.384-.555-.573-.886-.293-.337-.481-.668-.774-1.005l-.286-.443-.195-.224-.195-.225-.006.106-.11.1c-.104-.006-.11.1-.214.094l-.104-.006-.103-.006-.214.094-.104-.006-.11.1c-.317.089-.64.283-.958.37-.531.183-1.166.359-1.904.529-.739.17-1.471.234-1.996.31-.317.088-.732.064-1.153.145-.311-.018-.629.07-1.044.046-.836.058-1.66-.097-2.275-.24-.311-.018-.616-.142-.921-.267l-.104-.006c-.104-.006-.207-.012-.305-.124l-.207-.012c-.208-.012-.41-.13-.61-.25-.201-.118-.403-.236-.701-.467-.312-.018-.41-.13-.403-.236l-.104-.006-.097-.113.006-.106c-.097-.112-.189-.33-.183-.437l.007-.106c-.092-.219-.08-.431-.06-.75.012-.212.018-.319.134-.525.013-.212.129-.419.349-.62l.006-.105.22-.2.11-.1a8.341 8.341 0 0 1 1.508-.872c.53-.182.958-.37 1.275-.458.208.012.421-.082.629-.07l.207.012a8.966 8.966 0 0 1 2.386.14c.311.018.616.142.927.16l.208.013c.103.006.207.012.305.124l.207.012c.104.006.311.018.409.13.408.131.817.262 1.122.386.305.124.714.255 1.018.38.305.124.507.242.708.36-.098-.112-.195-.224-.396-.343-.208-.012-.403-.236-.5-.349.006-.106-.098-.112-.092-.218-.097-.112-.298-.23-.39-.45l-.292-.336-.098-.112-.688-.68-.378-.662-.689-.68-.097-.112c-.104-.006-.098-.112-.202-.118l-.09-.219-.202-.118c-.098-.112-.195-.225-.396-.343l-.098-.112c-.006.106-.122.312-.232.412l-.22.2-.11.1-.33.301c-.323.195-.543.395-.757.489-.323.194-.647.389-.964.477-.531.182-1.062.364-1.8.534-.74.17-1.472.234-2.1.303-.629.07-1.348-.078-2.178-.127-.104-.006-.208-.012-.305-.124l-.104-.006-.104-.007c-.103-.006-.305-.124-.408-.13-.714-.255-1.324-.504-1.921-.965l-.098-.112-.195-.225c-.097-.112-.091-.218-.085-.325-.091-.218-.182-.437-.17-.65l.019-.318c.006-.106.116-.206.122-.313.006-.106.116-.206.226-.306l.11-.1.44-.4c.22-.201.543-.396.977-.69.427-.188.854-.376 1.172-.464.53-.183 1.055-.258 1.477-.34.732-.064 1.562-.016 2.178.127.31.018.72.149 1.03.167.513.137 1.13.28 1.635.522.104.006.202.118.41.13l-.098-.112-.098-.112c-.104-.006-.097-.112-.201-.118-.299-.231-.695-.574-.994-.805-.104-.006-.201-.118-.299-.23l-.103-.006-.58-.78-.895-.693c-.104-.006-.098-.112-.202-.118l-.103-.006L21.61 13l-.396-.343c-.098-.112-.299-.23-.396-.343l-.104-.006c-.006.107-.116.207-.226.307l-.11.1-.44.4c-.213.095-.433.295-.537.289l-.11.1-.11.1-.104-.006c-.213.094-.433.295-.75.383-.428.188-.745.276-.959.37-.635.176-1.27.352-1.794.428-.421.082-.732.064-1.257.14-.208-.012-.525.076-.732.063l-.208-.012-.933-.054c-.415-.025-.83-.049-1.135-.173-.208-.012-.311-.018-.513-.137-.207-.012-.408-.13-.61-.249-.103-.006-.097-.112-.2-.118-.098-.112-.202-.118-.196-.225l-.195-.224c-.091-.219-.182-.437-.28-.55-.182-.436-.261-.868-.139-1.18.122-.313.239-.52.465-.826l.33-.3.006-.106.22-.2.11-.1c.213-.095.33-.301.55-.502.323-.194.646-.388 1.074-.576.317-.088.53-.183.842-.164l.104.006c.628-.07 1.147-.04 1.665-.01.623.037 1.342.186 2.062.334-.097-.112-.201-.118-.298-.23l-.104-.006-.604-.356c-.097-.112-.201-.118-.305-.124l-.104-.006-.2-.118-.105-.006-.097-.113-.104-.006c-.207-.012-.512-.136-.603-.355l-.312-.018-.2-.118c-.604-.356-1.214-.604-1.72-.847l-.007.106-.012.213c-.006.106-.116.206-.123.312-.006.106-.11.1-.116.207l-.11.1-.33.3-.33.3c-.549.502-1.092.896-1.636 1.29-.433.295-.964.477-1.392.665-.213.095-.317.088-.524.076a1.106 1.106 0 0 1-.525.076l-.623-.036-.103-.006c-.311-.018-.824-.155-1.11-.598-.195-.225-.286-.443-.384-.556l.006-.106c.006-.106-.097-.112-.091-.218.006-.107-.085-.325-.079-.431.019-.319.135-.525.257-.838.116-.206.226-.306.342-.513.007-.106.11-.1.117-.206l.44-.4c.22-.201.537-.29.75-.383.324-.195.641-.283.952-.264.318-.089.733-.064 1.05-.152l.726.042c-.104-.006-.207-.012-.305-.124l-.714-.255-.408-.13c-.006.106-.11.1-.214.093l-.207-.012-.104-.006-.104-.006-.311-.018-.104-.006-.103-.006-.312-.018c-.414-.025-.83-.049-1.043.045-.415-.024-.94.052-1.77.003l-.103-.006-.208-.012-.414-.024c-.208-.012-.415-.024-.617-.143-.305-.124-.616-.142-.817-.26C.831 5.282.63 5.163.54 4.945.44 4.834.447 4.727.344 4.72c-.098-.112-.086-.324-.08-.43l.02-.32C.29 3.866.4 3.766.405 3.66c.006-.106.116-.206.226-.306C.43 3.234.534 3.24.54 3.134c.324-.194.648-.389.965-.477.104.007.317-.088.421-.082l.104.007c.207.012.317-.088.525-.076l.83.048c.103.006.31.018.408.13.104.007.208.013.305.125.207.012.305.125.409.13l.103.007c.202.118.507.242.812.367.2.118.402.237.7.467.3.23.598.462.8.58.097.112.298.23.396.343.097.112.195.224.286.443-.006.106.098.112-.012.212l.512.137.921.267.915.373c.305.125.61.25.811.368.104.006.104.006.201.118.409.13.811.367 1.116.492.104.006.305.124.409.13-.299-.23-.598-.461-.793-.686l-.097-.112c-.293-.337-.585-.674-.987-.91l.213-.095c-.299-.23-.689-.68-.975-1.123-.292-.337-.682-.786-.963-1.335-.09-.219-.182-.437-.273-.656-.098-.112-.086-.324-.177-.543.019-.319.037-.637.264-.944.11-.1.22-.2.323-.194.11-.1.317-.088.531-.182l.934.054.103.006c.519.03.915.374 1.311.717.397.343.793.686 1.183 1.135.195.224.292.337.384.555l.097.112c.195.225.287.444.378.662.195.225.286.443.378.662.085.324.28.549.37.768.092.218.184.437.171.649.091.219.079.431.067.643l-.007.107c-.006.106-.012.212.085.324-.006.107.092.219.085.325l-.006.106c.091.219.073.538.06.75-.006.106-.116.206-.122.313.305.124.61.249.909.48l1.11.597.805.474.402.236.104.006.201.119c.201.118.299.23.5.349l.104.006.103.006c-.103-.006-.097-.112-.195-.225-.195-.224-.39-.449-.481-.667l-.201-.119-.092-.218c-.097-.113-.09-.219-.188-.331 0 0 .006-.106-.098-.112-.091-.219-.286-.444-.371-.768-.28-.55-.554-1.205-.73-1.748-.092-.219-.177-.544-.268-.762l.006-.107c-.091-.218-.183-.437-.164-.755-.085-.325-.066-.644-.152-.968.013-.213.031-.532.154-.844.006-.106.11-.1.116-.207l.22-.2c.11-.1.214-.094.317-.088.104.006.318-.088.421-.082l.519.03.104.006c.207.013.408.131.512.137.409.13.811.367 1.214.604.2.118.396.343.597.461l.098.113c.097.112.2.118.195.224.195.225.493.455.688.68l.104.006c.098.112.299.23.39.45l.293.336.292.337.293.337.097.112.098.112c.091.219.189.331.189.331.286.443.566.993.852 1.436.378.661.554 1.205.73 1.748l.092.219c.085.324.176.543.261.868.08.43.158.862.243 1.186-.012.213.08.431.06.75-.012.212-.024.425-.14.631l-.013.213-.006.106-.006.106-.007.106c-.006.107-.116.207-.122.313-.11.1-.116.206-.226.307l.201.118.201.118.098.113c.104.006.097.112.201.118.098.112.299.23.396.343l.89.798c.793.686 1.482 1.366 2.177 1.94.103.006.097.112.097.112l.098.112.103.006.104.006c-.664-1.105-1.108-2.41-1.558-3.609-.268-.761-.536-1.523-.816-2.072l-.085-.325-.529-1.63c-.085-.325-.066-.643-.158-.862l.007-.106c.012-.213.018-.319-.073-.537l.006-.107.05-.85c.019-.318.14-.63.257-.837.006-.106.116-.207.232-.413 0 0 .007-.106.11-.1l.22-.2c.11-.1.214-.095.318-.088l.103.006.104.006.311.018c.311.018.512.136.72.149.409.13.707.36 1.012.485l.098.112c.097.113.195.225.299.231l.097.112.293.337c.195.225.493.455.682.786.293.337.481.668.67.999.378.661.645 1.423.92 2.079.176.543.352 1.086.412 1.836.17.65.237 1.293.297 2.043.158.862.096 1.924-.07 2.98-.031.531-.166 1.056-.294 1.475-.007.106-.117.206-.123.313l-.006.106c-.006.106-.122.313-.129.419-.006.106-.11.1-.116.206l-.012.213c-.006.106-.11.1-.116.206l.975 1.123.097.112.293.337.67.999.195.224c.384.556.871 1.117 1.255 1.673l.098.112.091.218.292.337c-.006.106.098.112.092.219-.08-.431-.262-.868-.347-1.193l-.085-.325-.073-.537a59.568 59.568 0 0 1-.697-4.091 85.906 85.906 0 0 1-.193-2.037l.019-.318.006-.107.03-.53.007-.107.006-.106c.05-.85.41-1.682.98-2.501.115-.207.335-.407.445-.507l.11-.1c.11-.1.22-.2.434-.295l.64-.282c.104.006.208.012.318-.088l.104.006.415.024c.414.025.81.367 1.11.598.2.119.396.343.597.461l.487.562.098.112c.292.337.475.774.761 1.217.092.219.28.55.463.987-.006.106.091.218.091.218l-.006.106.098.113c.09.218.085.324.176.543.091.219.183.437.17.65.183.436.255.974.224 1.505.073.537.036 1.174-.105 1.806-.025.425-.154.843-.179 1.268a10.26 10.26 0 0 1-.63 1.882c-.122.313-.25.732-.477 1.038-.122.313-.342.513-.458.72-.11.1-.336.406-.453.613-.006.106-.11.1-.116.206l-.22.2-.66.601-.219.2-.11.1-.11.101-.22.2s-.103-.006-.11.1l.195.225.195.225.098.112.377.662s.098.112.202.118c.097.112.189.33.274.656l.09.218.275.656c.091.218.189.33.182.437l.457 1.092.091.219c.098.112.189.33.177.543l.09.219.098.112-.006.106c.177.543.457 1.093.627 1.742.085.325.17.65.243 1.187-.013.212.078.43.066.643l-.025.425-.012.213c-.019.318.066.643.054.856l-.038.637c-.006.106-.012.212-.122.313-.11.1-.213.094-.317.088-.104-.006-.208-.012-.305-.125-.098-.112-.091-.218-.085-.324l.056-.957.018-.318c.019-.319-.054-.856-.126-1.393.012-.213-.08-.431-.067-.644-.085-.325-.176-.543-.164-.756l-.274-.655-.506-.243-.274-.656c.006-.106-.091-.218-.085-.324l.006-.106-.097-.113.006-.106.006-.106-.097-.112-.098-.113-.274-.655c-.097-.113-.09-.219-.188-.331l-.098-.113-.091-.218-.098-.112c-.11.1-.11.1-.213.094l-.11.1c-.11.1-.214.094-.324.194-.11.1-.214.094-.323.195-.11.1-.324.194-.434.294l-.104-.006c-.11.1-.213.094-.22.2-.22.2-.537.289-.854.377-.324.194-.641.282-1.062.364-.318.088-.739.17-1.05.152-.732.063-1.36.133-2.087.09-.83-.048-1.458.022-2.184-.02l-.415-.025-.207-.012-.519-.03a2.82 2.82 0 0 1-1.33-.398c-.506-.242-.908-.48-1.31-.716a7.619 7.619 0 0 1-.885-.904z"/></g></g></svg>