<svg xmlns="http://www.w3.org/2000/svg" width="262" height="646" viewBox="0 0 262 646"><g><g><path fill="#f7f1cc" d="M35.939 633.964l-.402-.463-.134-.154c-.268-.308-.394-.609-.51-1.055-.126-.3-.109-.592-.092-.884.026-.437.194-.867.353-1.15.151-.138.16-.284.311-.422l.151-.137.302-.275.151-.138c.302-.275.596-.405.89-.534l.88-.388c.587-.258 1.165-.37 1.886-.475.721-.104 1.434-.063 2.012-.175l.285.016.428.025.142.009.285.016.57.034.428.025.142.008.57.033.143.009c.285.016.712.041 1.13.212a6125.147 6125.147 0 0 0 .856.05l.142.009.42.17.418.172c.143.008.285.016.42.17l.142.009.142.008.143.009c.142.008.276.162.419.17l.142.009 1.257.513c.419.17.838.341 1.39.667.277.162.554.325.688.48l.276.162.134.154.142.008-.384-.754-.385-.755c-.134-.154-.126-.3-.26-.454l-.795-1.072.009-.146-.26-.454-.125-.3c-.26-.455-.527-.764-.787-1.218-.402-.463-.66-.917-1.063-1.38l-.393-.609-.268-.309-.268-.308-.008.146-.151.137c-.143-.008-.152.138-.294.13l-.142-.009-.143-.008-.293.13-.143-.009-.151.138c-.436.12-.88.387-1.317.508-.73.25-1.601.492-2.616.726-1.014.234-2.02.321-2.741.425-.436.121-1.006.088-1.585.2-.427-.024-.863.097-1.433.063-1.148.08-2.28-.133-3.126-.33-.428-.024-.847-.195-1.266-.366l-.142-.008c-.143-.009-.285-.017-.419-.171l-.285-.017c-.285-.016-.561-.18-.838-.342a8.134 8.134 0 0 1-.963-.642c-.428-.025-.562-.179-.553-.325l-.143-.008-.134-.155.009-.146c-.134-.154-.26-.454-.25-.6l.008-.146c-.126-.3-.109-.592-.083-1.03.017-.292.026-.438.185-.721.017-.292.177-.576.479-.85l.008-.147.302-.275.151-.137a11.455 11.455 0 0 1 2.072-1.197c.73-.25 1.317-.509 1.753-.63.285.017.578-.113.863-.096l.285.017c1.006-.088 2.146-.021 3.277.191.428.025.847.196 1.274.221l.285.017c.143.008.285.017.42.171l.284.017c.143.008.428.025.562.179.561.18 1.122.358 1.541.53.42.17.98.35 1.4.52.419.172.695.334.972.497a1.976 1.976 0 0 0-.545-.471c-.285-.017-.553-.326-.687-.48.009-.146-.134-.154-.125-.3-.134-.154-.41-.317-.536-.617l-.402-.463-.134-.154-.946-.934-.519-.91-.946-.933-.134-.154c-.142-.009-.134-.155-.276-.163l-.126-.3-.276-.163c-.134-.154-.268-.308-.545-.471l-.134-.154c-.008.146-.168.43-.319.567l-.302.275-.15.138-.454.412c-.444.267-.746.543-1.04.672-.444.267-.889.534-1.325.654-.73.25-1.46.5-2.474.734-1.014.234-2.02.322-2.884.418-.863.095-1.852-.109-2.992-.175-.142-.009-.285-.017-.419-.171l-.142-.009-.143-.008c-.142-.008-.419-.171-.561-.18-.98-.35-1.818-.691-2.64-1.325l-.133-.154-.268-.309c-.134-.154-.126-.3-.117-.446-.125-.3-.25-.6-.234-.892l.026-.438c.008-.146.16-.284.168-.43.008-.146.16-.283.31-.42l.151-.138.605-.55c.302-.276.746-.543 1.342-.947.587-.259 1.174-.517 1.61-.638.73-.25 1.45-.355 2.029-.468 1.006-.087 2.146-.02 2.992.175.428.025.99.205 1.417.23.703.187 1.55.383 2.245.717.143.008.277.162.562.179l-.134-.154-.134-.154c-.143-.009-.134-.155-.277-.163-.41-.317-.954-.788-1.365-1.105-.142-.008-.276-.163-.41-.317l-.143-.008-.795-1.072-1.231-.95c-.143-.009-.134-.155-.277-.163l-.142-.008-.402-.463-.544-.471c-.134-.154-.41-.317-.545-.471l-.142-.009c-.009.146-.16.284-.31.421l-.152.138c-.15.138-.453.413-.604.55-.293.13-.595.405-.738.397l-.151.137-.151.138-.143-.009c-.293.13-.595.405-1.031.526-.587.258-1.023.38-1.317.509-.872.242-1.744.483-2.465.588-.578.112-1.006.087-1.727.192-.285-.017-.72.104-1.006.087l-.285-.017-1.282-.075c-.57-.033-1.14-.066-1.559-.237-.285-.017-.427-.025-.704-.188-.285-.016-.561-.179-.838-.342-.142-.008-.134-.154-.276-.162-.134-.154-.277-.163-.268-.309l-.268-.308c-.125-.3-.25-.6-.385-.755-.25-.6-.359-1.192-.19-1.622a4.42 4.42 0 0 1 .637-1.134l.453-.413.009-.146.302-.275.151-.138c.294-.129.453-.412.755-.688.445-.266.89-.533 1.476-.792.436-.12.73-.25 1.157-.225l.143.008c.863-.096 1.576-.054 2.288-.012.855.05 1.844.254 2.833.458-.134-.154-.276-.162-.41-.317l-.143-.008-.83-.488c-.133-.154-.276-.163-.418-.17l-.143-.01-.276-.162-.143-.008-.134-.154-.142-.009c-.285-.016-.704-.187-.83-.487l-.427-.025-.276-.163c-.83-.488-1.668-.83-2.363-1.163l-.008.146-.018.292c-.008.145-.16.283-.168.429-.008.146-.15.138-.16.284l-.15.137-.453.413-.453.413c-.756.688-1.502 1.23-2.249 1.772-.595.404-1.325.655-1.912.913-.293.13-.436.121-.72.104a1.52 1.52 0 0 1-.722.105l-.855-.05-.142-.009c-.428-.025-1.132-.212-1.525-.821-.268-.309-.393-.609-.527-.763l.008-.146c.009-.146-.134-.154-.125-.3.008-.146-.117-.446-.109-.592.026-.438.186-.722.354-1.151.16-.284.31-.421.47-.705.008-.146.15-.137.16-.283.15-.138.301-.275.604-.55.302-.276.738-.397 1.031-.526.445-.267.88-.388 1.308-.363.436-.12 1.006-.088 1.442-.208l.998.058c-.143-.008-.285-.017-.42-.171l-.98-.35-.561-.18c-.009.146-.151.138-.294.13l-.285-.017-.142-.008-.143-.009-.427-.025-.143-.008-.142-.008-.428-.025c-.57-.034-1.14-.067-1.433.062-.57-.033-1.291.071-2.43.005l-.143-.009-.285-.016-.57-.034c-.285-.016-.57-.033-.847-.196-.419-.17-.846-.196-1.123-.358-.419-.171-.695-.334-.82-.634-.134-.154-.126-.3-.268-.308-.134-.155-.117-.447-.109-.593l.026-.437c.008-.146.16-.284.168-.43.008-.146.16-.283.31-.421-.276-.163-.133-.154-.125-.3.445-.267.89-.534 1.325-.655.143.008.436-.12.579-.112l.142.008c.285.017.436-.121.721-.104l1.14.066c.143.009.428.025.562.18.142.008.285.016.418.17.285.017.42.171.562.18l.142.008c.277.163.696.334 1.115.504.276.163.553.326.963.643.41.316.82.633 1.097.796.134.154.41.317.545.471.134.154.268.309.393.609-.008.146.134.154-.017.292l.704.187 1.265.367 1.257.513c.419.17.838.342 1.114.504.143.009.143.009.277.163.561.18 1.114.505 1.533.675.143.009.419.171.561.18-.41-.317-.82-.634-1.088-.943l-.134-.154c-.402-.463-.804-.925-1.357-1.25l.294-.13c-.41-.317-.947-.934-1.34-1.543-.402-.462-.938-1.08-1.322-1.834l-.377-.9c-.134-.155-.117-.447-.242-.747.026-.438.051-.876.362-1.297.15-.138.302-.275.444-.267.151-.137.436-.12.73-.25l1.282.075.143.008c.712.042 1.257.513 1.801.984s1.089.943 1.625 1.56c.267.308.401.462.527.763l.134.154c.268.308.393.609.519.909.267.308.393.609.518.909.117.446.385.755.51 1.055.126.3.251.6.234.892.126.3.109.592.092.884l-.009.146c-.008.146-.017.292.117.446-.009.146.125.3.117.446l-.009.146c.126.3.1.738.083 1.03-.009.146-.16.284-.168.43.419.17.838.341 1.248.658l1.525.822 1.106.65.553.325.142.009.277.162c.276.163.41.317.686.48l.143.008.142.008c-.142-.008-.134-.154-.267-.308-.268-.309-.536-.617-.662-.918l-.276-.162-.126-.3c-.134-.155-.125-.3-.259-.455 0 0 .009-.146-.134-.154-.125-.3-.393-.609-.51-1.055a17.615 17.615 0 0 1-1.004-2.402c-.125-.3-.242-.746-.367-1.046l.008-.146c-.125-.3-.25-.6-.225-1.038-.117-.447-.091-.884-.208-1.33.017-.292.042-.73.21-1.16.01-.146.152-.137.16-.283l.302-.275c.151-.138.294-.13.436-.121.143.008.436-.121.579-.113l.712.042.143.008c.285.017.561.18.704.188.561.179 1.114.504 1.667.83.276.162.544.47.82.633l.135.154c.134.155.276.163.267.309.268.308.679.625.947.934l.142.008c.134.154.41.317.536.617l.402.463.402.463.402.463.134.154.134.154c.125.3.259.455.259.455.393.608.778 1.363 1.171 1.972.52.909.761 1.655 1.004 2.402l.125.3c.117.446.242.746.36 1.192.108.592.216 1.184.333 1.63-.017.292.108.593.083 1.03-.017.292-.034.584-.194.868l-.017.292-.009.146-.008.145-.009.146c-.008.146-.16.284-.168.43-.15.138-.16.283-.31.421l.276.163.277.162.134.155c.142.008.134.154.276.162.134.154.41.317.544.471l1.223 1.097c1.089.942 2.035 1.876 2.99 2.664.142.008.134.154.134.154l.134.155.142.008.143.008c-.912-1.517-1.522-3.31-2.141-4.957-.368-1.047-.736-2.093-1.12-2.848l-.117-.446-.727-2.24c-.117-.445-.091-.883-.217-1.183l.009-.146c.017-.292.025-.438-.1-.738l.008-.146.069-1.168c.025-.438.193-.867.353-1.15.008-.147.16-.284.32-.568 0 0 .008-.146.15-.137l.302-.276c.151-.137.294-.129.436-.12l.143.008.142.008.428.025c.427.025.704.188.989.204.56.18.971.497 1.39.668l.134.154c.134.154.268.308.41.317l.135.154.401.463c.268.308.679.625.938 1.08.402.462.661.917.92 1.371.52.91.887 1.956 1.264 2.857.242.746.484 1.492.567 2.522.234.892.325 1.776.408 2.806.216 1.184.131 2.644-.097 4.095-.042.73-.228 1.45-.404 2.026-.009.146-.16.284-.168.43l-.009.146c-.008.146-.168.43-.177.575-.008.146-.15.138-.16.284l-.016.291c-.009.146-.151.138-.16.284l1.34 1.543.134.154.402.463.92 1.372.268.308c.528.763 1.197 1.534 1.725 2.297l.134.155.125.3.402.463c-.009.146.134.154.125.3-.108-.592-.359-1.193-.476-1.639l-.117-.446-.1-.738a81.821 81.821 0 0 1-.958-5.62c-.09-.884-.182-1.768-.265-2.798l.026-.438.008-.146.043-.73.008-.146.009-.146c.068-1.167.564-2.31 1.345-3.435.16-.284.461-.56.612-.697l.151-.137c.151-.138.302-.275.596-.405l.88-.388c.143.009.286.017.437-.12l.142.008.57.033c.57.033 1.114.505 1.525.822.276.162.544.47.82.633l.67.772.134.154c.402.463.653 1.063 1.046 1.672.126.3.385.755.636 1.355-.009.146.125.3.125.3l-.008.146.134.154c.125.3.117.447.242.747.126.3.25.6.234.892.25.6.35 1.338.308 2.068.1.738.049 1.614-.145 2.481-.034.584-.211 1.16-.245 1.743a14.09 14.09 0 0 1-.866 2.585c-.168.43-.345 1.005-.655 1.426-.169.43-.47.705-.63.988-.151.138-.462.56-.621.843-.009.146-.151.137-.16.283l-.302.275-.906.826-.302.275-.151.138-.151.137-.302.276s-.143-.009-.151.137l.268.309.268.308.133.155.52.909s.133.154.276.162c.134.154.259.455.376.9l.125.301.377.9c.125.3.259.455.25.601l.628 1.501.125.3c.134.154.26.455.242.747l.126.3.134.154-.009.146c.242.746.627 1.501.861 2.393.117.447.234.893.334 1.63-.017.292.108.593.09.885l-.033.583-.017.292c-.026.438.091.884.074 1.176l-.051.876c-.009.146-.017.292-.168.43-.151.137-.294.128-.436.12-.143-.008-.285-.017-.42-.17-.133-.155-.125-.301-.116-.447.025-.438.05-.876.077-1.313l.025-.438c.026-.438-.074-1.176-.174-1.914.017-.292-.108-.592-.091-.884-.117-.446-.242-.746-.225-1.038l-.377-.9-.695-.334-.376-.901c.008-.146-.126-.3-.117-.446l.008-.146-.134-.154.009-.146.008-.146-.133-.155-.134-.154-.377-.9c-.134-.155-.125-.3-.259-.455l-.134-.154-.125-.3-.134-.155c-.151.138-.151.138-.294.13l-.15.137c-.152.138-.294.13-.445.267-.152.138-.294.13-.445.267-.151.138-.445.267-.596.404l-.142-.008c-.151.138-.294.13-.302.275-.302.275-.738.396-1.174.517-.445.267-.88.388-1.46.5-.435.122-1.014.234-1.441.21-1.006.087-1.87.183-2.867.125-1.14-.067-2.004.029-3.001-.03l-.57-.033-.285-.016-.712-.042a3.875 3.875 0 0 1-1.827-.546c-.696-.334-1.248-.659-1.801-.984-.545-.471-.813-.78-1.215-1.243z"/></g><g><path fill="#d1f3f5" d="M88.686 125.965c.854-12.945 4.696-25.463 8.794-37.811 6.916-20.609 15.199-41.132 28.945-57.994C140.172 13.298 160.237.44 182.01.013c11.954-.255 23.736 3.151 34.665 7.92 8.624 3.747 17.077 8.516 23.481 15.5 5.806 6.301 9.648 14.136 12.807 22.14 11.014 28.274 13.32 61.401-.768 88.311-9.819 18.565-26.811 32.872-45.595 42.41-18.87 9.538-39.617 14.647-60.365 18.394-9.05 1.619-18.357 3.066-27.493 1.874-5.465-.681-15.37-3.577-19.468-8.601-9.733-11.837-12.807-28.699-10.587-61.996z"/></g></g></svg>