<svg xmlns="http://www.w3.org/2000/svg" width="755" height="674" viewBox="0 0 755 674">
    <defs>
        <linearGradient id="hey5a" x1="201.41" x2="242.86" y1="490.97" y2="490.98" gradientUnits="userSpaceOnUse">
            <stop offset="0" stop-color="#cda948" />
            <stop offset="1" stop-color="#e6cf33" />
        </linearGradient>
        <linearGradient id="hey5b" x1="342.31" x2="383.67" y1="581.63" y2="581.63" gradientUnits="userSpaceOnUse">
            <stop offset="0" stop-color="#cda948" />
            <stop offset="1" stop-color="#e6cf33" />
        </linearGradient>
        <linearGradient id="hey5c" x1="165.47" x2="206.35" y1="526.86" y2="526.86" gradientUnits="userSpaceOnUse">
            <stop offset="0" stop-color="#cda948" />
            <stop offset="1" stop-color="#e6cf33" />
        </linearGradient>
        <linearGradient id="hey5d" x1="295.73" x2="336.61" y1="482.17" y2="482.17" gradientUnits="userSpaceOnUse">
            <stop offset="0" stop-color="#cda948" />
            <stop offset="1" stop-color="#e6cf33" />
        </linearGradient>
        <linearGradient id="hey5e" x1="194.94" x2="235.82" y1="571.55" y2="571.55" gradientUnits="userSpaceOnUse">
            <stop offset="0" stop-color="#cda948" />
            <stop offset="1" stop-color="#e6cf33" />
        </linearGradient>
        <linearGradient id="hey5f" x1="555.95" x2="597.02" y1="487.97" y2="487.98" gradientUnits="userSpaceOnUse">
            <stop offset="0" stop-color="#cda948" />
            <stop offset="1" stop-color="#e6cf33" />
        </linearGradient>
        <linearGradient id="hey5g" x1="397.55" x2="437.77" y1="512.88" y2="512.88" gradientUnits="userSpaceOnUse">
            <stop offset="0" stop-color="#cda948" />
            <stop offset="1" stop-color="#e6cf33" />
        </linearGradient>
        <linearGradient id="hey5h" x1="247.24" x2="288.12" y1="505.94" y2="505.94" gradientUnits="userSpaceOnUse">
            <stop offset="0" stop-color="#cda948" />
            <stop offset="1" stop-color="#e6cf33" />
        </linearGradient>
        <linearGradient id="hey5i" x1="480.18" x2="521.06" y1="573.45" y2="573.45" gradientUnits="userSpaceOnUse">
            <stop offset="0" stop-color="#cda948" />
            <stop offset="1" stop-color="#e6cf33" />
        </linearGradient>
        <linearGradient id="hey5j" x1="393.66" x2="434.54" y1="561.09" y2="561.09" gradientUnits="userSpaceOnUse">
            <stop offset="0" stop-color="#cda948" />
            <stop offset="1" stop-color="#e6cf33" />
        </linearGradient>
        <linearGradient id="hey5k" x1="361.33" x2="402.21" y1="466.01" y2="466.01" gradientUnits="userSpaceOnUse">
            <stop offset="0" stop-color="#cda948" />
            <stop offset="1" stop-color="#e6cf33" />
        </linearGradient>
    </defs>
    <g>
        <g>
            <g>
                <g>
                    <path fill="#f8e9f9" d="M697.185 125.95c-34.935 15.016-69.666 21.247-104.295 21.86l.92-46.58.919-46.58c34.628-.715 69.461-6.844 104.294-21.86a2347.625 2347.625 0 0 1-34.322 58.43c10.828 12.36 21.656 24.005 32.484 34.73z" />
                </g>
                <g>
                    <path fill="#e4c8de" d="M653.768 105.625l-61.392 12.564 2.247-63.639zm-399.81 349.351c7.049 30.542 16.446 57.612 23.495 88.155-125.848 49.644-149.241 71.198-255.578 74.671L.73 526.174c202.358-46.58 124.827-30.032 253.228-71.198zM57.423 337.3c-.92-33.403-1.839-66.704-2.758-100.107 206.24 8.376 235.25-49.849 368.351-56.591 1.021 33.301 4.903 63.742 5.822 97.144-132.283 16.14-267.121 85.397-371.415 59.554zm353.845 84.068c-.102-32.381-.102-64.864-.102-97.348 113.693-41.677 210.322 74.161 324.015 32.484.102 32.381.102 64.864.102 97.348-113.693 41.677-210.322-74.263-324.015-32.484zM717.41 537.819c-14.199 8.785-28.397 18.591-42.8 29.112 9.908 21.35 19.817 43.414 29.623 66.5-37.489-22.269-101.741-41.167-141.273-48.726 2.145-15.935 2.043-33.505 4.188-49.44 2.146-15.935 1.839-30.645 3.984-46.58 39.532 7.559 108.789 26.763 146.278 49.134z" />
                </g>
                <g>
                    <path fill="#f8e9f9" d="M372.554 223.818l1.838-97.45c96.736 43.413 189.588-70.994 286.221-27.58-.613 32.483-4.29 65.17-4.903 97.654-96.634-43.413-186.421 70.79-283.156 27.376zm-94.693 251.901l21.145 91.628c-81.004 65.886-196.127-16.344-277.131 49.644L.73 525.363c81.004-65.988 196.127 16.242 277.131-49.644zm56.387-212.982c.919 33.301 1.838 66.704 2.758 100.005-91.73 45.354-187.955-71.198-279.685-25.844-.92-33.403-11.032-66.499-11.952-99.8 91.73-45.354 197.149 70.892 288.879 25.639zM473.682 486.24v-97.45c92.956 41.677 175.897-74.365 268.853-32.688 0 32.483-7.15 64.967-7.15 97.45-92.956-41.677-168.747 74.263-261.703 32.688zm281.319 91.422c-13.586 9.908-27.274 20.838-40.962 32.483a1752.292 1752.292 0 0 1 33.709 63.844c-38.817-19.102-45.252-20.941-85.193-25.333 1.124-16.038 2.35-32.075 3.576-48.113 1.123-16.037 2.349-32.075 3.575-48.112 39.838 4.29 56.693 12.462 85.295 25.231z" />
                </g>
            </g>
            <g>
                <g>
                    <g>
                        <path fill="#dab1d1" d="M381.49 112.316l17.97-.19v-7.036h-17.97v7.036z" />
                    </g>
                    <g>
                        <path fill="#dab1d1" d="M381.01 100.717c6.37-.19 12.36-.38 18.445-.57V92.54c-6.085.285-12.075.666-18.065.95-.095 2.378-.19 4.755-.38 7.227z" />
                    </g>
                    <g>
                        <path fill="#dab1d1" d="M398.89 69.253c-.19-1.806-2.378-3.803-4.09-3.898a137.3 137.3 0 0 0-8.841-.285c-1.141 0-2.282.19-2.853 1.521-.38 1.046-1.046 2.092-1.236 3.138-.285 1.901-.285 3.803-.38 5.514h17.494c0-2.186.095-4.088-.095-5.99z" />
                    </g>
                    <g>
                        <path fill="#dab1d1" d="M381.49 89.028c6.085-.38 11.98-.761 17.97-1.237V79.9h-17.97v9.128z" />
                    </g>
                </g>
                <g>
                    <g>
                        <path fill="#fee54c" d="M355.906 40.443c.951-.38 1.807-.95 1.617-2.187-.095-1.14-1.046-1.52-2.092-1.616-2.377-.095-4.754-.19-7.13-.19v.095c-1.617.095-3.233 0-4.85.19-2.187.285-4.468.76-6.655 1.236-.38.095-.76.476-.951.856-.095.19.285.76.475.856 1.141.475 2.187 1.046 3.423 1.236 4.754.855 9.413.19 14.167 0 .665 0 1.33-.19 1.997-.476z" />
                    </g>
                    <g>
                        <path fill="#fee54c" d="M364.852 18.57c.475.57 1.14 1.045 1.806 1.425.856.476 1.807.476 2.662-.19.76-.665 1.046-1.616.666-2.567-.19-.666-.57-1.331-.95-1.997-2.948-4.088-5.896-8.176-8.938-12.17-.951-1.33-2.282-2.377-3.898-2.757-1.236-.285-1.997.38-1.902 1.997.19.475.38 1.236.76 1.996 2.378 5.42 6.18 9.793 9.794 14.262z" />
                    </g>
                    <g>
                        <path fill="#fee54c" d="M352.873 61.079c3.898-.19 7.32-1.522 10.744-2.853 1.33-.475 1.901-1.426 1.616-2.472-.285-1.046-1.236-1.616-2.662-1.236-2.472.666-4.944 1.331-7.321 2.187-1.617.57-3.233 1.426-4.85 2.282-.285.19-.475.665-.76 1.046.38.19.666.57 1.046.665.95.19 1.711.286 2.187.38z" />
                    </g>
                    <g>
                        <path fill="#fee54c" d="M321.773 9.546a3207.674 3207.674 0 0 0 30.9 16.924c1.806.95 3.708 1.616 5.705 2.187.855.285 1.806.285 2.662.095 1.426-.286 1.806-1.807.76-2.853-.665-.665-1.426-1.14-2.281-1.616-1.141-.666-2.377-1.236-3.613-1.807-10.554-5.704-21.108-11.409-31.661-17.019-3.518-1.901-7.226-3.232-11.695-2.852.285.285.38.475.475.57 2.472 2.663 5.61 4.564 8.748 6.37z" />
                    </g>
                    <g>
                        <path fill="#fee54c" d="M377.022 48.995c-1.426-4.469-1.902-9.033-1.046-13.691.38-1.712.95-3.423 1.807-4.944a110.342 110.342 0 0 1 6.18-9.603c2.567-3.708 4.849-7.416 5.8-11.885.19-.856.665-1.521 1.045-2.282.095 0 .286.095.476.095 2.947 7.321 7.891 13.691 9.032 21.868.76 5.705.856 11.41-.665 17.019-.666 2.187-1.807 4.374-3.138 6.18-1.997 2.662-4.374 5.04-6.655 7.416-1.236 1.141-2.663.856-3.804.095-3.993-2.567-7.606-5.61-9.032-10.268zm13.216-16.734c0 .285.475.76.76.856.286.095.951-.19 1.046-.476 1.236-2.472 1.427-5.039.57-7.606-.19 0-.38-.095-.57-.095-.57 1.807-1.236 3.518-1.806 5.324a3.565 3.565 0 0 0 0 1.997zm-5.8 19.301c.57-.095 1.426 0 1.807-.38 1.045-1.046 2.091-2.187 2.852-3.518.57-1.046.76-2.282 1.046-3.423-.285-.19-.57-.285-.856-.475a142.983 142.983 0 0 0-4.754 5.894c-.285.38 0 1.236-.095 1.902z" />
                    </g>
                    <g>
                        <path fill="#fee54c" d="M419.894 48.714c.666.095 1.331 0 1.902 0v.095c1.901-.19 3.898-.38 5.8-.665 2.852-.38 5.8-.856 8.652-1.426 1.236-.19 1.806-1.141 1.52-2.092-.284-.95-1.045-1.236-1.9-1.236-3.519.19-7.037.38-10.554.666-1.997.19-3.899.665-5.8 1.14-.856.19-1.521.856-1.331 1.902.095 1.141.76 1.521 1.711 1.616z" />
                    </g>
                    <g>
                        <path fill="#fee54c" d="M422.56 33.405c-.665.285-1.52.666-1.901 1.236-.38.57-.666 1.521-.57 2.187.095.95 1.045 1.331 1.996 1.236.95-.095 1.807-.38 2.662-.666 4.469-1.71 8.842-3.613 13.311-5.134 6.085-2.091 12.075-4.659 17.875-7.51 1.331-.666 2.472-1.522 3.708-2.378.285-.19.475-.57.856-1.14-.57-.096-1.046-.286-1.331-.286-1.807.285-3.613.38-5.42.95-4.944 1.617-9.983 3.233-14.832 5.04-5.61 2.092-11.03 4.278-16.354 6.465z" />
                    </g>
                    <g>
                        <path fill="#fee54c" d="M421.796 19.332c.285-.095.76-.285 1.236-.57 3.803-2.758 7.701-5.42 11.41-8.367 1.9-1.521 3.612-3.328 5.324-5.134.285-.286.38-.951.38-1.427 0-.095-.76-.38-1.046-.285-1.331.38-2.852.666-3.993 1.426-4.564 3.043-8.938 6.275-13.406 9.508-.666.476-1.331 1.141-1.712 1.902-.76 1.33.095 2.947 1.807 2.947z" />
                    </g>
                    <g>
                        <path fill="#fee54c" d="M411.435 59.74h1.236c1.141 0 2.282-.094 3.423 0 8.937.476 17.97.951 26.907 1.332 5.42.285 10.934 1.046 16.354-.19.38-.095.665-.38 1.045-.476-.285-.285-.475-.76-.76-.95-2.282-1.427-4.85-1.997-7.416-2.187-7.321-.666-14.642-1.141-22.344-1.807h-3.993c-4.944-.19-9.793-.38-14.737.476-1.807.285-2.567.95-2.472 1.996 0 1.141.95 1.712 2.757 1.807z" />
                    </g>
                </g>
            </g>
            <g>
                <g>
                    <g>
                        <path fill="#9acfd2" d="M485.601 449.466c-7.702-.856-13.882-4.945-18.826-10.744-1.996-2.377-4.183-3.328-7.131-3.423-6.465-.19-12.075 1.806-17.019 6.085-8.366 7.13-18.16 9.127-28.618 6.94-7.226-1.426-13.311-4.848-17.019-11.599-1.902-3.518-5.99-5.23-9.983-4.564-6.941 1.236-13.026 4.469-18.731 8.462-8.081 5.705-16.924 8.367-26.812 6.656-4.944-.856-9.222-3.043-12.55-6.75-8.557-9.604-19.871-9.699-28.999-1.712-3.993 3.518-8.272 6.56-13.501 7.701-10.268 2.092-19.206-1.236-27.668-6.94-2.662-1.807-5.514-3.518-8.462-4.945-3.898-1.901-7.606-1.426-10.839 1.617-1.901 1.711-4.183 3.137-5.8 5.134-2.376 2.947-6.18 5.23-10.553 6.75 36.795 79.39 84.144 140.906 141.952 139.956 59.804-1.046 114.664-67.41 160.206-150.51-3.327.666-6.655 2.188-10.268 4.47-8.937 5.419-18.731 8.557-29.379 7.416z" />
                    </g>
                    <g>
                        <path fill="#82bfc3" d="M365.037 587.906c-57.807.951-105.156-60.565-141.951-139.955-4.944 1.711-10.744 2.377-15.878 1.52-7.987 1.047-43.736 5.896-47.92 14.358-4.754 9.508 9.508 136.247 17.495 139.289 17.684 6.656 127.309 1.902 209.647 1.902 79.2 0 193.009 4.754 210.598-1.902 7.987-3.042 21.298-129.686 16.544-139.29-4.754-9.507-49.536-14.546-49.536-14.546s.095-.285.19-.856c-7.321.666-14.072-1.14-20.157-5.705-6.465-4.944-12.455-6.56-18.825-5.324-45.542 83.098-100.403 149.558-160.207 150.509z" />
                    </g>
                </g>
                <g>
                    <g>
                        <path fill="url(#hey5a)" d="M222.422 471.15l-5.99 15.878-15.022-1.236 12.265 9.888-4.754 14.547 12.74-8.557 12.836 9.128-5.23-14.072 13.597-10.078-16.829.95z" />
                    </g>
                    <g>
                        <path fill="url(#hey5b)" d="M374.732 561.66l-12.646 9.413-12.93-8.177 5.134 14.452-11.98 10.173 14.927-1.616 6.466 15.688 3.137-16.544 16.829.57-13.881-9.792z" />
                    </g>
                    <g>
                        <path fill="url(#hey5c)" d="M194.85 530.285l11.504-12.36L190 522.012l-6.56-15.593-3.043 16.734-14.927 1.521 13.881 7.511-1.996 15.118 10.934-10.65 14.262 6.561z" />
                    </g>
                    <g>
                        <path fill="url(#hey5d)" d="M325.11 478.749l7.7-12.836-14.261 6.56-10.934-10.743 1.996 15.213-13.881 7.51 14.927 1.522 3.043 16.639 6.56-15.498 16.354 4.088z" />
                    </g>
                    <g>
                        <path fill="url(#hey5e)" d="M219.47 566.703l-6.56-15.593-3.043 16.734-14.927 1.521 13.881 7.511-1.996 15.118 10.934-10.65 14.262 6.561-7.702-12.93 11.505-12.36z" />
                    </g>
                    <g>
                        <path fill="url(#hey5f)" d="M574.205 497.865l11.79 10.458-3.708-14.546 14.737-8.557-16.924-.856-1.712-16.734-7.796 15.117-14.642-2.947 11.029 11.22-6.37 13.976z" />
                    </g>
                    <g>
                        <path fill="#fffae0" d="M293.63 555.293l-6.56-15.593-3.043 16.734-14.927 1.521 13.881 7.511-1.996 15.118 10.934-10.65 14.262 6.561-7.702-12.93 11.505-12.36z" />
                    </g>
                    <g>
                        <path fill="url(#hey5g)" d="M435.866 498.335l-15.022 7.701-9.888-13.786.76 16.924-14.166 4.849 15.117 4.278 1.427 15.213 8.271-12.836 15.403 3.233-10.364-10.839z" />
                    </g>
                    <g>
                        <path fill="#fffae0" d="M478.747 524.576l13.787-7.511-14.928-1.521-3.042-16.734-6.466 15.593-16.448-4.089 11.6 12.36-7.702 12.931 14.262-6.56 10.934 10.649z" />
                    </g>
                    <g>
                        <path fill="url(#hey5h)" d="M274.337 511.266l13.787-7.511-14.928-1.521-3.042-16.734-6.466 15.593-16.448-4.088 11.6 12.36-7.702 12.93 14.262-6.56 10.934 10.649z" />
                    </g>
                    <g opacity=".2">
                        <path d="M514.686 468.004l-3.042-16.734-6.466 15.593-16.448-4.088 11.6 12.36-7.702 12.93 14.262-6.56 10.934 10.649-1.997-15.118 13.787-7.511z" />
                    </g>
                    <g>
                        <path fill="url(#hey5i)" d="M506.136 569.744l-3.042-16.734-6.466 15.593-16.448-4.088 11.6 12.36-7.702 12.93 14.262-6.56 10.934 10.649-1.997-15.118 13.787-7.511z" />
                    </g>
                    <g opacity=".2">
                        <path d="M601.874 569.365l-14.928-1.521-3.042-16.734-6.465 15.593-16.449-4.088 11.6 12.36-7.702 12.93 14.262-6.56 10.934 10.649-1.997-15.118z" />
                    </g>
                    <g>
                        <path fill="#fffae0" d="M539.406 537.414l-3.042-16.734-6.466 15.593-16.448-4.088 11.6 12.36-7.702 12.93 14.262-6.56 10.934 10.649-1.997-15.118 13.787-7.511z" />
                    </g>
                    <g>
                        <path fill="url(#hey5j)" d="M419.616 557.384l-3.042-16.734-6.466 15.593-16.448-4.089 11.6 12.36-7.702 12.931 14.262-6.56 10.934 10.649-1.997-15.118 13.787-7.511z" />
                    </g>
                    <g>
                        <path fill="url(#hey5k)" d="M402.214 463.825l-14.928-1.521-3.042-16.734-6.466 15.593-16.448-4.089 11.6 12.36-7.702 12.931 14.262-6.56 10.934 10.649-1.997-15.118z" />
                    </g>
                    <g>
                        <path fill="#fffae0" d="M344.31 535.705l10.934 10.649-1.997-15.118 13.787-7.511-14.928-1.521-3.042-16.734-6.466 15.593-16.448-4.088 11.6 12.36-7.702 12.93z" />
                    </g>
                </g>
            </g>
            <g>
                <g>
                    <g>
                        <path fill="#9acfd2" d="M226.698 434.159c4.088-3.613 8.747-7.131 13.786-9.033 7.702-2.947 14.547.951 21.108 4.944 3.898 2.377 7.891 4.944 12.17 6.561 6.94 2.567 13.31 1.141 18.92-3.898 13.121-11.885 28.904-11.695 41.835.285 6.75 6.275 17.684 6.56 26.241.285 7.321-5.419 15.498-8.462 24.245-10.173 6.941-1.426 15.878 1.616 18.635 7.511 3.518 7.701 14.262 10.078 21.678 8.747 5.039-.856 8.843-3.708 12.741-6.56 7.606-5.42 15.878-7.512 25.1-6.18 3.994.57 7.226 2.472 9.889 5.704 5.229 6.275 11.694 9.318 20.156 8.082 6.56-.951 12.455-3.518 17.875-7.131 5.99-3.898 12.55-5.419 19.301-5.419 13.501-25.481 26.146-52.198 37.746-79.105-7.226-3.043-16.639-6.656-23.294-9.128-3.328 2.282-7.036 3.708-11.22 4.088-6.18.666-11.694-.855-16.638-4.849-7.416-5.99-14.072-6.275-22.344-1.426-7.036 4.089-14.547 6.275-22.723 5.134-5.895-.855-10.554-4.183-14.167-8.747-1.426-1.901-3.138-2.662-5.42-2.852-1.331-.095-2.567-.095-3.708.095-21.772 29.664-46.112 50.296-72.069 50.677-25.291.38-46.968-18.636-65.223-46.874-4.849-.76-9.318-3.042-13.502-6.085-1.996-1.521-4.183-2.852-6.37-4.088-2.947-1.521-5.8-1.236-8.367.95-1.52 1.237-3.232 2.282-4.563 3.804-5.42 6.085-18.636 8.367-26.432 3.232-1.807-1.14-3.803-1.901-5.8-2.757-4.088-1.806-8.367-.665-11.029 2.472.57 2.662.856 4.184.856 4.184s-1.807.665-4.66 1.711c-.475.285-.95.57-1.52.57-9.128 3.423-25.862 9.698-32.612 13.216-3.423 1.712-2.852 15.118-.76 31.281 6.94 19.016 14.451 37.65 22.438 55.526 2.567-.856 5.134-2.472 7.701-4.754z" />
                    </g>
                    <g>
                        <path fill="#82bfc3" d="M536.46 428.365c3.328.476 6.56 2.853 9.508 4.754 3.993 2.662 7.701 5.8 12.93 5.99 2.568.095 5.04-.095 7.417-.665 5.229-24.53 16.638-82.433 9.127-86.236-1.806-.951-4.468-2.092-7.416-3.328-11.6 26.812-24.245 53.624-37.746 79.105 2.092-.095 4.183.095 6.18.38z" />
                    </g>
                    <g>
                        <path fill="#82bfc3" d="M218.998 439.006c-7.986-17.875-15.497-36.605-22.438-55.526 2.567 19.3 7.226 42.595 9.983 55.716 4.469 1.426 8.557 1.33 12.455-.19z" />
                    </g>
                    <g>
                        <path fill="#aed9db" d="M376.444 381.773c25.956-.38 50.296-21.013 72.069-50.677-3.423.38-6.655 1.807-9.508 4.088-6.655 5.23-14.166 6.466-22.248 4.564-5.515-1.33-10.078-4.088-12.74-9.413-1.332-2.757-4.47-4.183-7.512-3.803-5.42.76-10.173 3.043-14.642 5.99-6.37 4.184-13.216 5.99-20.822 4.374-3.803-.76-7.036-2.567-9.508-5.515-6.275-7.606-15.022-7.986-22.248-2.091-3.233 2.567-6.56 4.849-10.649 5.514-2.662.476-5.134.38-7.606 0 18.445 28.333 40.123 47.444 65.414 46.969z" />
                    </g>
                </g>
                <g>
                    <g opacity=".2">
                        <path d="M342.41 359.335l10.934 10.649-1.997-15.118 13.787-7.511-14.928-1.521-3.042-16.734-6.466 15.593-16.448-4.088 11.6 12.36-7.702 12.93z" />
                    </g>
                    <g opacity=".2">
                        <path d="M355.43 400.793l-6.56-15.593-3.043 16.734-14.927 1.521 13.881 7.511-1.996 15.118 10.934-10.65 14.261 6.561-7.7-12.93 11.504-12.36z" />
                    </g>
                    <g opacity=".2">
                        <path d="M304.945 386.339l-3.613-16.449-5.99 15.878-15.022-1.236 12.265 9.888-4.754 14.547 12.74-8.557 12.836 9.128-5.23-14.072 13.597-10.173z" />
                    </g>
                    <g opacity=".2">
                        <path d="M518.97 358.953l-6.56-15.593-3.043 16.734-14.927 1.521 13.881 7.511-1.996 15.118 10.934-10.65 14.261 6.561-7.7-12.93 11.504-12.36z" />
                    </g>
                    <g opacity=".2">
                        <path d="M536.744 402.02l-7.7 12.835 14.356-6.56 10.934 10.649-2.092-15.118 13.882-7.511-14.928-1.521-3.042-16.734-6.56 15.593-16.354-4.088z" />
                    </g>
                    <g opacity=".2">
                        <path d="M254.844 368.275l-14.928-1.521-3.042-16.734-6.465 15.593-16.449-4.089 11.6 12.36-7.702 12.931 14.262-6.56 10.934 10.649-1.997-15.118z" />
                    </g>
                    <g opacity=".2">
                        <path d="M453.836 348.684l-3.042-16.734-6.466 15.593-16.448-4.088 11.6 12.36-7.702 12.93 14.262-6.56 10.934 10.649-1.997-15.118 13.787-7.511z" />
                    </g>
                    <g opacity=".2">
                        <path d="M455.937 406.206l13.787-7.511-14.928-1.521-3.042-16.734-6.466 15.593-16.448-4.088 11.6 12.36-7.702 12.93 14.262-6.56 10.934 10.649z" />
                    </g>
                    <g opacity=".2">
                        <path d="M404.396 374.354l-3.042-16.734-6.466 15.593-16.448-4.089 11.6 12.36-7.702 12.931 14.262-6.56 10.934 10.649-1.997-15.118 13.787-7.511z" />
                    </g>
                </g>
            </g>
            <g>
                <g>
                    <g>
                        <path fill="#9acfd2" d="M455.171 324.536c3.043.57 5.515 2.092 7.512 4.659 3.803 4.944 8.747 7.511 15.212 6.751 5.134-.571 9.603-2.377 13.977-4.945 6.18-3.708 12.93-4.278 19.776-3.137 2.567.38 4.944 2.377 7.13 3.898 3.043 2.187 5.8 4.659 9.794 4.944 3.042.19 5.895-.095 8.557-1.141 2.377-10.744 19.206-87.186 11.504-96.314-6.56-7.796-32.041-11.98-43.64-13.501-14.262 34.038-31.662 69.882-51.533 98.691.475-.095 1.141-.095 1.711.095z" />
                    </g>
                    <g>
                        <path fill="#9acfd2" d="M224.226 242.863c-4.944 6.846 4.469 57.522 9.222 81.482 2.758-1.712 6.18-2.567 10.269-2.757 1.331.38 3.328.855 5.324 1.711 2.187.856 4.279 1.997 6.466 3.043 6.655 3.232 12.074 2.281 17.78-2.377 3.232-2.663 6.94-5.23 10.838-6.56 5.99-2.092 11.22 1.14 16.068 4.373 1.617 1.046 3.233 2.187 4.85 3.137-16.544-28.523-29.855-64.082-40.314-97.835-13.12 2.852-35.464 8.842-40.503 15.783z" />
                    </g>
                    <g>
                        <path fill="#aed9db" d="M323.964 324.631c10.363-8.747 22.533-8.177 32.136 1.331 5.04 4.944 13.501 5.515 20.157.951 5.799-3.993 12.17-6.085 18.92-7.226 5.325-.856 12.17 1.711 14.072 6.275 2.567 6.085 10.649 8.082 16.448 7.321 3.899-.57 6.941-2.662 9.984-4.659 5.419-3.613 11.314-5.134 17.684-4.373 19.776-28.714 37.271-64.558 51.532-98.691-3.518-.476-5.799-.666-5.799-.666s.19-1.331.57-3.613c-.38.095-.856.19-1.236.19-4.754.666-9.032-.38-12.931-3.328-5.894-4.468-11.029-4.468-17.209-.475-5.229 3.328-11.029 5.23-17.399 4.564-4.564-.476-8.272-2.948-11.124-6.37-1.141-1.427-2.472-1.997-4.279-2.092-3.803-.095-7.131 1.046-10.078 3.613-4.944 4.278-10.744 5.42-16.924 4.088-4.278-.856-7.891-2.852-10.078-6.846-1.141-2.091-3.518-3.137-5.895-2.662-4.088.666-7.701 2.662-11.029 4.944-4.754 3.328-9.983 4.944-15.878 3.899-2.947-.476-5.42-1.807-7.416-3.994-5.04-5.704-11.695-5.704-17.114-.95-2.377 2.091-4.85 3.898-7.987 4.563-6.085 1.236-11.41-.76-16.353-4.088-1.617-1.046-3.233-2.092-5.04-2.948-2.281-1.14-4.468-.855-6.465.951-1.14 1.046-2.472 1.902-3.422 3.043-3.994 4.754-14.167 6.94-20.252 3.232-1.426-.855-2.948-1.426-4.469-1.996-1.14-.476-2.377-.57-3.423-.476.57 4.279.951 6.846.951 6.846s-4.088.76-9.888 2.092c10.364 33.752 23.77 69.407 40.313 97.835 1.426.856 2.853 1.616 4.279 2.187 5.229 2.187 10.173 1.236 14.642-2.472z" />
                    </g>
                </g>
                <g>
                    <g opacity=".2">
                        <path d="M439.488 253.51l12.93 8.367-5.134-14.452 12.075-10.173-14.927 1.521-6.37-15.783-3.233 16.544-16.829-.666 13.786 9.888-4.944 14.072z" />
                    </g>
                    <g opacity=".2">
                        <path d="M511.74 300.195l-7.702 12.93 14.262-6.56 10.934 10.649-1.997-15.118 13.787-7.511-14.928-1.521-3.042-16.734-6.465 15.593-16.449-4.088z" />
                    </g>
                    <g opacity=".2">
                        <path d="M473.52 246.954l11.6 12.36-7.702 12.931 14.262-6.56 10.934 10.649-1.997-15.118 13.787-7.511-14.928-1.521-3.042-16.734-6.466 15.593z" />
                    </g>
                    <g opacity=".2">
                        <path d="M485.884 299.054l-13.787-7.511 1.997-15.213-10.934 10.744-14.262-6.56 7.701 12.835L445 305.804l16.449-4.088 6.465 15.498 3.042-16.64z" />
                    </g>
                    <g opacity=".2">
                        <path d="M355.906 287.364l-3.042-16.734-6.466 15.593-16.448-4.088 11.6 12.36-7.702 12.93 14.262-6.56 10.934 10.649-1.997-15.118 13.787-7.511z" />
                    </g>
                    <g opacity=".2">
                        <path d="M256.08 288.694l10.934-10.65 14.357 6.561-7.702-12.93 11.505-12.36-16.354 4.088-6.56-15.593-3.043 16.734-14.927 1.521 13.881 7.511z" />
                    </g>
                    <g opacity=".2">
                        <path d="M307.324 250.665l14.356 6.56-7.796-12.93 11.6-12.36-16.354 4.088-6.56-15.593-3.043 16.734-14.927 1.426 13.786 7.606-1.996 15.118z" />
                    </g>
                    <g opacity=".2">
                        <path d="M361.14 233.923l-6.56-15.593-3.043 16.734-14.927 1.521 13.881 7.511-1.996 15.118 10.934-10.65 14.262 6.561-7.702-12.93 11.505-12.36z" />
                    </g>
                    <g opacity=".2">
                        <path d="M386.525 290.594l10.934-10.65 14.262 6.561-7.702-12.93 11.505-12.36-16.354 4.088-6.56-15.593-3.043 16.734-14.927 1.521 13.881 7.511z" />
                    </g>
                </g>
            </g>
            <g>
                <g>
                    <path fill="#aed9db" d="M272.908 212.437c.665-.095 1.33-.19 2.091-.285 1.046.285 2.663.571 4.184 1.141 1.711.57 3.328 1.426 5.039 2.187 5.23 2.282 9.318 1.426 13.596-2.282 2.472-2.092 5.23-4.184 8.177-5.324 4.564-1.712 8.652.57 12.455 2.947 2.282 1.426 4.659 2.947 7.131 3.898 4.088 1.521 7.891.666 11.124-2.282 7.796-7.036 17.114-6.94 24.815.19 3.994 3.708 10.459 3.899 15.498.191 4.374-3.233 9.223-4.945 14.357-5.99 4.088-.856 9.413.95 11.029 4.468 2.092 4.564 8.462 5.99 12.836 5.135 2.947-.476 5.229-2.187 7.606-3.899 4.469-3.232 9.413-4.468 14.832-3.613 2.377.38 4.279 1.427 5.895 3.328 3.042 3.708 6.941 5.515 11.885 4.754 3.898-.57 7.321-2.092 10.648-4.183 4.659-2.948 9.794-3.708 15.118-2.948 1.997.285 3.898 1.712 5.61 2.853 2.376 1.616 4.563 3.422 7.606 3.517 2.187.095 4.278-.19 6.275-.95 3.138-21.773 9.222-72.925-.761-79.105-12.55-7.892-53.434-23.485-100.402-23.77v-.095l-32.897.19c-43.926 1.616-79.866 16.163-91.75 23.675-9.699 5.8-4.945 53.243-1.997 76.252z" />
                </g>
                <g>
                    <g opacity=".2">
                        <path d="M421.328 158.145l14.262-6.56 10.934 10.649-1.997-15.118 13.787-7.511-14.928-1.521-3.042-16.734-6.466 15.593-16.448-4.089 11.6 12.36z" />
                    </g>
                    <g opacity=".2">
                        <path d="M466.11 185.155l-7.702 12.93 14.262-6.56 10.934 10.649-1.997-15.118 13.787-7.511-14.928-1.521-3.042-16.734-6.465 15.593-16.449-4.089z" />
                    </g>
                    <g opacity=".2">
                        <path d="M390.898 185.725l14.262-6.56 10.934 10.649-1.997-15.118 13.787-7.511-14.928-1.521-3.042-16.734-6.466 15.593L387 160.434l11.6 12.36z" />
                    </g>
                    <g opacity=".2">
                        <path d="M348.872 183.442l-8.747 12.646 14.642-4.66 9.793 12.361-1.046-14.927 15.878-5.895-16.448-3.708 1.14-16.829-10.172 13.501-14.072-5.42z" />
                    </g>
                    <g opacity=".2">
                        <path d="M284.795 204.074l10.934-10.65 14.262 6.561-7.702-12.93 11.505-12.36-16.354 4.088-6.56-15.593-3.043 16.734-14.927 1.521 13.881 7.511z" />
                    </g>
                    <g opacity=".2">
                        <path d="M320.925 168.894l10.934-10.65 14.262 6.561-7.702-12.93 11.505-12.36-16.354 4.088-6.56-15.593-3.043 16.734-14.927 1.521 13.881 7.511z" />
                    </g>
                </g>
            </g>
        </g>
    </g>
</svg>