<svg xmlns="http://www.w3.org/2000/svg" width="204" height="125" viewBox="0 0 204 125">
    <defs>
        <linearGradient id="fwyla" x1="117" x2="137" y1="10" y2="10" gradientUnits="userSpaceOnUse">
            <stop offset="0" stop-color="#cda948" />
            <stop offset="1" stop-color="#e6cf33" />
        </linearGradient>
        <linearGradient id="fwylb" x1="1.38" x2="33.38" y1="78.38" y2="78.38" gradientUnits="userSpaceOnUse">
            <stop offset="0" stop-color="#cda948" />
            <stop offset="1" stop-color="#e6cf33" />
        </linearGradient>
        <linearGradient id="fwylc" x1="158" x2="204" y1="63" y2="63" gradientUnits="userSpaceOnUse">
            <stop offset="0" stop-color="#cda948" />
            <stop offset="1" stop-color="#e6cf33" />
        </linearGradient>
    </defs>
    <g>
        <g>
            <g>
                <g>
                    <path fill="#f2e96c" d="M39.342 61.344c-.95.043-1.938.824-2.095 1.618a46.526 46.526 0 0 0-1.626 7.354c-.158.794.578 1.368 1.59 1.09.267-.025.386-.082.625-.197.716-.342 1.198-.983 1.293-1.543.234-2.269.734-4.564 1.502-6.883.129-.884-.458-1.425-1.289-1.439z" />
                </g>
                <g>
                    <path fill="#def9fa" d="M50.92 65.14c.25-.024.471-.131.694-.239a2.479 2.479 0 0 0 1.231-1.37c.147-.75-.427-1.347-1.285-1.223-1.742.164-3.427.105-4.97-.313-.715-.236-1.716.247-2.25.99-.533.743-.293 1.5.423 1.736 1.845.563 3.943.713 6.157.419z" />
                </g>
                <g>
                    <path fill="#f2e96c" d="M48.064 79.307c.472-.226.886-.63 1.155-1.064 1.108-2.06 1.63-4.249 1.682-6.21.01-.82-.778-1.155-1.66-.936-1 .276-1.683 1.114-1.72 1.845a11.564 11.564 0 0 1-1.287 4.899c-.419.813-.046 1.551.802 1.654.175.12.675-.018 1.028-.188z" />
                </g>
                <g>
                    <path fill="#def9fa" d="M41.55 92.051c.266-.025.385-.082.622-.195.712-.341 1.22-.891 1.286-1.537.346-1.906.692-3.812 1.303-5.743.275-.849-.308-1.388-1.134-1.402-.944.043-1.808.764-2.111 1.523-.702 2.077-1.138 4.128-1.427 6.212-.157.791.574 1.362 1.462 1.142z" />
                </g>
                <g>
                    <path fill="#dbb2d2" d="M61.957 90.926c.828-.486 1.29-1.352 1.004-1.861-.311-.59-1.212-.715-1.933-.28-2.296 1.279-4.823 1.836-6.97 1.658-.767-.095-1.677.522-2.057 1.257-.38.734.064 1.353.832 1.449 2.517.185 5.522-.415 8.19-1.685.187-.182.614-.385.934-.538z" />
                </g>
                <g>
                    <path fill="#f2e96c" d="M63.51 77.408c-1.398.387-2.657.419-3.884.148-.709-.234-1.699.243-2.227.978-.528.734-.29 1.483.418 1.717 1.663.444 3.66.344 5.636-.226l.33-.16c.66-.318 1.215-.969 1.25-1.657.062-.605-.59-1.059-1.522-.8z" />
                </g>
                <g>
                    <path fill="#f2e96c" d="M64.134 56.514c.341-.165.769-.471 1.028-.894.546-.76.3-1.533-.432-1.773l-4.03-1.124c-.732-.24-1.755.254-2.3 1.014-.546.759-.3 1.532.432 1.773l4.029 1.124c.423.093.819.1 1.273-.12z" />
                </g>
                <g>
                    <path fill="#dbb2d2" d="M60.013 62.706c-.923.042-1.882.807-2.035 1.585l-.75 2.678c-.27.835.329 1.453 1.224 1.323.26-.024.519-.049.867-.217a2.58 2.58 0 0 0 1.284-1.424l.75-2.678c.153-.779-.445-1.397-1.34-1.267z" />
                </g>
                <g>
                    <path fill="#f9d9e3" d="M53.876 101.28c-.922.042-1.792.663-2.06 1.497l-1.19 3.39c-.268.834.186 1.42 1.107 1.377.26-.024.634-.105.866-.216.579-.28 1.074-.82 1.194-1.28l1.19-3.39c.296-.747-.302-1.364-1.107-1.378z" />
                </g>
                <g>
                    <path fill="#def9fa" d="M78.418 81.55c-.915.346-1.936.355-2.455-.072-.52-.427-1.599-.196-2.296.431-.697.628-.79 1.545-.27 1.972 1.313.915 3.52 1.01 5.545.129l.11-.054c.778-.375 1.395-1.255 1.208-1.843-.213-.672-1.038-.854-1.842-.562z" />
                </g>
                <g>
                    <path fill="#f9d9e3" d="M34.896 71.654l-4.456.33c-.875.038-1.785.765-1.93 1.505-.255.794.312 1.382 1.16 1.26l4.457-.329c.246-.023.492-.046.821-.205.55-.265 1.02-.779 1.218-1.353.061-.605-.396-1.246-1.27-1.208z" />
                </g>
                <g>
                    <path fill="#f2e96c" d="M47.825 54.676c.368.322 1.14.25 1.715-.028.23-.111.46-.222.662-.42.722-.649.818-1.596.165-1.98l-1.191-.826c-.538-.44-1.655-.2-2.35.535-.721.648-.818 1.595-.165 1.98z" />
                </g>
                <g>
                    <path fill="#dbb2d2" d="M32.768 85.316a21.682 21.682 0 0 0 4.779-3.102c.67-.594.891-1.436.393-1.844-.499-.407-1.453-.321-2.122.273-1.258 1.059-2.699 1.928-4.19 2.638-.853.405-1.34 1.189-1.242 1.879.204.64.997.815 1.875.49.081-.131.294-.233.507-.334z" />
                </g>
                <g>
                    <path fill="#def9fa" d="M28.708 61.619c.284.062.655-.018 1-.184.457-.221.975-.67 1.208-1.183.408-.795-.069-1.463-.893-1.563-2.163-.152-4.206-.76-5.645-1.96-.536-.44-1.535-.256-2.368.446-.72.647-.958 1.56-.28 2.03 1.664 1.49 4.16 2.28 6.978 2.414z" />
                </g>
                <g>
                    <path fill="#f2e96c" d="M46.85 99.47c-.73-.24-1.69.027-2.375.753-1.685 2.1-3.148 4.487-3.99 6.772-.264.818.18 1.394.996 1.493.281.062.62-.102.96-.267.567-.274.966-.664 1.17-1.257.697-1.918 1.902-3.884 3.302-5.648.711-.64.58-1.466-.063-1.847z" />
                </g>
                <g>
                    <path fill="#dbb2d2" d="M69.377 102.99c-1.342.258-2.679.121-3.51-.456-.636-.377-1.615-.198-2.292.522-.678.72-.8 1.561-.162 1.938 1.468.955 3.64 1.275 5.82.807.113-.054.364-.078.476-.132.673-.326 1.239-.99 1.302-1.609.009-.787-.768-1.195-1.634-1.07z" />
                </g>
                <g>
                    <path fill="#f9d9e3" d="M79.463 43.851c-.312-.59-1.188-.635-2.043-.228-2.087 1.18-4.07 2.68-5.897 4.29-.671.597-.761 1.473-.261 1.882.342.299 1.06.234 1.594-.02.214-.103.428-.204.616-.387 1.53-1.376 3.22-2.644 4.986-3.67.855-.408 1.317-1.275 1.005-1.867z" />
                </g>
                <g>
                    <path fill="#dbb2d2" d="M71.625 40.153c.406-.792.16-1.566-.66-1.666-.82-.1-1.846.396-2.251 1.187l-2.2 4.241c-.406.792-.16 1.567.66 1.667a2.41 2.41 0 0 0 1.108-.238c.455-.22.856-.613 1.116-1.036z" />
                </g>
                <g>
                    <path fill="#f9d9e3" d="M54.303 116.082c-.984.464-1.515 1.446-1.155 2.113.477 1.03.492 2.381.355 3.7-.162.81.595 1.393 1.545 1.259.276-.026.522-.142.645-.2.738-.348 1.264-.91 1.333-1.57.294-1.706.161-3.42-.464-4.904-.36-.667-1.398-.804-2.259-.398z" />
                </g>
                <g>
                    <path fill="#f2e96c" d="M66.449 112.661c-.359-.666-1.271-.861-2.223-.307-.952.553-1.511 1.444-1.153 2.11.624 1.48 1.493 2.845 2.73 4.036.421.427 1.275.441 2.011.094.123-.058.368-.174.461-.322.8-.587 1.178-1.6.574-2.15a10.614 10.614 0 0 1-2.4-3.46z" />
                </g>
            </g>
            <g>
                <g>
                    <path fill="#f2e96c" d="M144.997 108.483c.895.116 1.95-.507 2.234-1.285a50.789 50.789 0 0 0 2.776-7.17c.282-.777-.307-1.482-1.3-1.37-.253-.02-.375.017-.617.093-.727.225-1.287.793-1.472 1.344a35.4 35.4 0 0 1-2.58 6.714c-.27.873.185 1.52.959 1.674z" />
                </g>
                <g>
                    <path fill="#def9fa" d="M134.256 102.365c-.239-.019-.466.051-.694.121a2.44 2.44 0 0 0-1.396 1.168c-.266.728.174 1.424 1.004 1.446 1.672.133 3.25.48 4.635 1.163.635.359 1.66.044 2.29-.612.63-.655.533-1.456-.102-1.815-1.645-.88-3.598-1.389-5.737-1.47z" />
                </g>
                <g>
                    <path fill="#f2e96c" d="M139.613 88.862c-.48.15-.936.487-1.262.881a15.185 15.185 0 0 0-2.63 5.998c-.148.827.531 1.3 1.393 1.227.981-.11 1.763-.842 1.923-1.576a12.514 12.514 0 0 1 2.037-4.737c.53-.752.308-1.562-.468-1.809-.143-.15-.634-.096-.993.016z" />
                </g>
                <g>
                    <path fill="#def9fa" d="M148.422 77.582c-.252-.02-.373.018-.614.093-.723.224-1.292.696-1.464 1.338-.648 1.87-1.297 3.74-2.198 5.591-.402.812.052 1.457.821 1.61.89.116 1.82-.467 2.233-1.185 1.01-1.983 1.768-3.985 2.393-6.044.282-.775-.304-1.476-1.17-1.403z" />
                </g>
                <g>
                    <path fill="#dbb2d2" d="M128.442 75.028c-.873.342-1.463 1.122-1.28 1.676.194.637 1.03.912 1.794.602 2.41-.879 4.914-1.005 6.928-.467.716.224 1.69-.235 2.18-.898.49-.664.174-1.352-.541-1.577-2.367-.608-5.334-.52-8.096.29-.211.148-.653.277-.985.374z" />
                </g>
                <g>
                    <path fill="#f2e96c" d="M124.312 87.974c1.389-.15 2.584.032 3.698.513.63.355 1.647.045 2.272-.6.625-.647.528-1.437-.102-1.792-1.496-.729-3.401-.968-5.366-.734l-.34.103c-.678.207-1.313.765-1.464 1.448-.162.596.376 1.161 1.302 1.062z" />
                </g>
                <g>
                    <path fill="#f2e96c" d="M119.631 108.28c-.348.108-.801.344-1.116.726-.642.673-.542 1.494.104 1.861l3.594 1.82c.647.368 1.692.044 2.333-.63.642-.672.542-1.493-.104-1.86l-3.594-1.821c-.382-.166-.752-.24-1.217-.096z" />
                </g>
                <g>
                    <path fill="#dbb2d2" d="M124.902 103.09c.871.115 1.9-.495 2.175-1.256l1.158-2.578c.393-.797-.062-1.523-.922-1.545-.247-.019-.495-.038-.849.072a2.539 2.539 0 0 0-1.444 1.221l-1.158 2.579c-.276.76.18 1.486 1.04 1.507z" />
                </g>
                <g>
                    <path fill="#f9d9e3" d="M138.352 66.428c.87.114 1.79-.365 2.184-1.162l1.69-3.222c.393-.797.067-1.466-.803-1.58-.247-.02-.612-.002-.848.072-.59.183-1.145.645-1.336 1.09l-1.69 3.223c-.404.703.05 1.428.803 1.58z" />
                </g>
                <g>
                    <path fill="#def9fa" d="M110.453 81.03c.921-.191 1.886-.026 2.304.491.417.518 1.474.47 2.24-.041.764-.512 1.008-1.417.59-1.934-1.083-1.143-3.149-1.615-5.21-1.075l-.113.035c-.797.244-1.53 1.022-1.454 1.644.087.712.835 1.035 1.643.88z" />
                </g>
                <g>
                    <path fill="#f9d9e3" d="M151.3 99.12l4.27.43c.834.11 1.818-.463 2.082-1.18.377-.751-.058-1.438-.881-1.46l-4.27-.43c-.237-.018-.474-.037-.813.066a2.413 2.413 0 0 0-1.383 1.148c-.161.595.161 1.316.995 1.426z" />
                </g>
                <g>
                    <path fill="#f2e96c" d="M135.16 113.153c-.29-.389-1.026-.446-1.612-.264-.235.073-.469.146-.692.311-.787.532-1.038 1.472-.491 1.972l.976 1.036c.43.536 1.518.484 2.294-.14.787-.532 1.038-1.472.491-1.972z" />
                </g>
                <g>
                    <path fill="#dbb2d2" d="M155.8 85.976a20.892 20.892 0 0 0-5.095 2.267c-.742.476-1.1 1.272-.696 1.76.404.487 1.33.563 2.07.087 1.384-.836 2.908-1.454 4.454-1.906.883-.258 1.483-.952 1.51-1.652-.083-.667-.808-.975-1.702-.8-.1.116-.32.18-.541.244z" />
                </g>
                <g>
                    <path fill="#def9fa" d="M155.372 110.053c-.256-.112-.618-.094-.968.015-.467.145-1.03.51-1.335.987-.518.734-.184 1.488.573 1.73 2.003.522 3.816 1.484 4.962 2.94.429.534 1.397.52 2.298-.047.785-.53 1.163-1.411.607-2.001-1.308-1.788-3.516-3.009-6.137-3.624z" />
                </g>
                <g>
                    <path fill="#f2e96c" d="M145.003 69.62c.645.366 1.593.26 2.36-.354 1.94-1.829 3.72-3.985 4.9-6.144.386-.78.066-1.436-.683-1.676-.254-.11-.601-.002-.948.106-.58.18-1.02.505-1.312 1.067-.982 1.814-2.448 3.59-4.063 5.13-.778.523-.794 1.378-.254 1.87z" />
                </g>
                <g>
                    <path fill="#dbb2d2" d="M123.469 61.739c1.307-.03 2.543.335 3.226 1.058.536.488 1.488.474 2.248-.134.76-.609 1.017-1.435.481-1.923-1.219-1.211-3.21-1.904-5.342-1.806-.115.036-.356.017-.47.052-.69.213-1.335.786-1.5 1.397-.141.791.52 1.334 1.357 1.356z" />
                </g>
                <g>
                    <path fill="#f9d9e3" d="M102.272 117.89c.195.639 1.021.831 1.906.571 2.192-.817 4.342-1.97 6.361-3.26.743-.479.981-1.331.576-1.821-.274-.355-.969-.412-1.522-.25-.221.065-.443.13-.653.28-1.697 1.107-3.526 2.078-5.386 2.799-.885.26-1.476 1.042-1.282 1.68z" />
                </g>
                <g>
                    <path fill="#dbb2d2" d="M109.23 123.002c-.514.73-.415 1.553.338 1.793s1.8-.084 2.315-.814l2.786-3.902c.515-.73.415-1.552-.338-1.793a2.154 2.154 0 0 0-1.08.051c-.465.145-.908.472-1.224.855z" />
                </g>
                <g>
                    <path fill="#f9d9e3" d="M140.683 51.794c1-.307 1.665-1.213 1.445-1.949-.268-1.122-.048-2.495.309-3.808.291-.792-.315-1.51-1.225-1.532a1.746 1.746 0 0 0-.636.095c-.75.23-1.338.711-1.516 1.368-.571 1.68-.743 3.44-.416 5.046.22.735 1.165 1.048 2.04.78z" />
                </g>
                <g>
                    <path fill="#f2e96c" d="M128.151 52.829c.22.734 1.038 1.084 2.022.682.984-.403 1.66-1.212 1.44-1.946-.325-1.604-.9-3.13-1.85-4.543-.32-.503-1.114-.66-1.861-.43-.125.037-.374.114-.486.249-.848.46-1.376 1.424-.907 2.082a11.083 11.083 0 0 1 1.642 3.906z" />
                </g>
            </g>
            <g>
                <path fill="url(#fwyla)" d="M137 8.93l-7.302-.744L128.209 0l-3.162 7.628-8.047-2 5.674 6.046L118.907 18l6.977-3.21 5.349 5.21-.977-7.395z" />
            </g>
            <g transform="rotate(143.47 16.5 80.5)">
                <path fill="url(#fwylb)" d="M1.38 80.092l11.684 1.19 2.381 13.098 5.06-12.205 12.875 3.2-9.08-9.674L30.33 65.58l-11.163 5.135-8.558-8.335 1.563 11.833z" />
            </g>
            <g>
                <path fill="url(#fwylc)" d="M204 60.54l-16.795-1.712L183.78 40l-7.274 17.544-18.507-4.6 13.051 13.907-8.665 14.549 16.047-7.381L190.735 86l-2.247-17.01z" />
            </g>
        </g>
    </g>
</svg>