<svg xmlns="http://www.w3.org/2000/svg" width="201" height="116" viewBox="0 0 201 116"><defs><linearGradient id="quvva" x1="0" x2="20" y1="94" y2="94" gradientUnits="userSpaceOnUse"><stop offset="0" stop-color="#cda948"/><stop offset="1" stop-color="#e6cf33"/></linearGradient><linearGradient id="quvvb" x1="93.38" x2="125.38" y1="14.38" y2="14.38" gradientUnits="userSpaceOnUse"><stop offset="0" stop-color="#cda948"/><stop offset="1" stop-color="#e6cf33"/></linearGradient></defs><g><g><g><g><path fill="#f2e96c" d="M46.342 52.344c-.95.043-1.938.824-2.095 1.618a46.525 46.525 0 0 0-1.626 7.354c-.158.794.578 1.368 1.59 1.09.267-.025.386-.083.625-.197.716-.342 1.198-.983 1.293-1.543.234-2.27.734-4.564 1.502-6.883.129-.884-.458-1.425-1.289-1.439z"/></g><g><path fill="#def9fa" d="M57.92 56.14c.25-.024.471-.131.694-.239a2.479 2.479 0 0 0 1.231-1.37c.147-.75-.427-1.347-1.285-1.223-1.742.164-3.427.105-4.97-.313-.715-.236-1.716.247-2.25.99-.533.743-.293 1.5.423 1.736 1.845.563 3.943.713 6.157.419z"/></g><g><path fill="#f2e96c" d="M55.064 70.307c.472-.226.886-.63 1.155-1.064 1.108-2.06 1.63-4.249 1.682-6.21.01-.82-.778-1.155-1.66-.936-1 .276-1.683 1.114-1.72 1.845a11.564 11.564 0 0 1-1.287 4.899c-.42.813-.046 1.551.802 1.654.175.12.675-.018 1.028-.188z"/></g><g><path fill="#def9fa" d="M48.55 83.051c.266-.025.385-.082.622-.195.712-.341 1.22-.891 1.286-1.537.346-1.906.692-3.812 1.303-5.743.275-.849-.308-1.388-1.134-1.402-.944.043-1.808.764-2.111 1.523-.702 2.077-1.138 4.128-1.427 6.212-.157.791.574 1.362 1.461 1.142z"/></g><g><path fill="#dbb2d2" d="M68.957 81.926c.828-.486 1.29-1.352 1.004-1.861-.311-.59-1.212-.715-1.933-.28-2.296 1.279-4.823 1.836-6.97 1.658-.767-.095-1.677.522-2.057 1.257-.38.734.064 1.353.832 1.449 2.517.185 5.522-.415 8.19-1.685.187-.182.614-.385.934-.538z"/></g><g><path fill="#f2e96c" d="M70.51 68.408c-1.398.387-2.657.419-3.884.148-.709-.234-1.699.244-2.227.978-.528.734-.29 1.483.418 1.717 1.663.444 3.66.344 5.636-.226l.33-.159c.66-.318 1.215-.97 1.25-1.658.062-.605-.59-1.058-1.522-.8z"/></g><g><path fill="#f2e96c" d="M71.134 47.514c.341-.165.769-.471 1.028-.894.546-.76.3-1.533-.432-1.773l-4.03-1.124c-.732-.24-1.755.254-2.3 1.014-.546.76-.3 1.532.432 1.773l4.029 1.124c.423.093.819.1 1.273-.12z"/></g><g><path fill="#dbb2d2" d="M67.013 53.706c-.923.042-1.882.807-2.035 1.585l-.75 2.678c-.27.835.329 1.453 1.224 1.323.26-.024.519-.049.867-.216a2.58 2.58 0 0 0 1.284-1.425l.75-2.678c.153-.779-.445-1.397-1.34-1.267z"/></g><g><path fill="#f9d9e3" d="M60.876 92.28c-.922.042-1.792.663-2.06 1.497l-1.19 3.39c-.268.834.186 1.42 1.107 1.377.26-.024.634-.104.866-.216.579-.28 1.074-.82 1.194-1.28l1.19-3.39c.296-.747-.302-1.364-1.107-1.378z"/></g><g><path fill="#def9fa" d="M85.418 72.55c-.915.346-1.936.355-2.455-.072-.52-.427-1.599-.196-2.296.431-.697.628-.79 1.545-.27 1.972 1.313.915 3.52 1.01 5.545.129l.11-.054c.778-.375 1.395-1.255 1.208-1.843-.213-.672-1.038-.854-1.842-.562z"/></g><g><path fill="#f9d9e3" d="M41.896 62.654l-4.456.33c-.875.038-1.785.765-1.93 1.505-.255.794.312 1.382 1.16 1.26l4.457-.329c.246-.023.492-.046.821-.205.55-.265 1.02-.779 1.218-1.353.061-.605-.395-1.246-1.27-1.208z"/></g><g><path fill="#f2e96c" d="M54.825 45.676c.368.323 1.14.25 1.715-.028.23-.111.46-.222.662-.42.722-.649.818-1.596.165-1.98l-1.191-.826c-.538-.44-1.655-.2-2.35.535-.721.648-.818 1.595-.165 1.98z"/></g><g><path fill="#dbb2d2" d="M39.768 76.316a21.682 21.682 0 0 0 4.779-3.102c.67-.594.891-1.436.393-1.844-.499-.407-1.453-.321-2.122.273-1.258 1.059-2.699 1.928-4.19 2.638-.853.405-1.34 1.189-1.242 1.879.204.64.997.815 1.875.49.081-.131.294-.233.507-.334z"/></g><g><path fill="#def9fa" d="M35.708 52.619c.284.062.655-.018.999-.184.458-.221.976-.67 1.21-1.183.407-.795-.07-1.462-.894-1.563-2.163-.152-4.206-.76-5.645-1.96-.536-.44-1.535-.256-2.368.446-.72.647-.958 1.56-.28 2.03 1.664 1.49 4.16 2.28 6.978 2.414z"/></g><g><path fill="#f2e96c" d="M53.85 90.47c-.73-.24-1.69.027-2.375.753-1.685 2.1-3.148 4.487-3.99 6.772-.264.818.18 1.394.996 1.493.281.062.62-.102.96-.267.567-.274.966-.664 1.17-1.257.697-1.918 1.902-3.884 3.302-5.648.711-.64.58-1.466-.063-1.847z"/></g><g><path fill="#dbb2d2" d="M76.377 93.99c-1.342.258-2.679.121-3.51-.456-.636-.377-1.615-.198-2.292.522-.678.72-.8 1.561-.162 1.938 1.468.955 3.64 1.275 5.82.807.113-.054.364-.078.476-.132.673-.326 1.239-.99 1.302-1.609.009-.787-.768-1.195-1.634-1.07z"/></g><g><path fill="#f9d9e3" d="M86.463 34.851c-.312-.59-1.188-.635-2.043-.228-2.087 1.18-4.07 2.68-5.897 4.29-.671.597-.761 1.472-.261 1.881.342.3 1.06.235 1.594-.02.214-.102.428-.203.616-.386 1.53-1.377 3.22-2.644 4.986-3.67.855-.408 1.317-1.275 1.005-1.867z"/></g><g><path fill="#dbb2d2" d="M78.625 31.153c.406-.792.16-1.566-.66-1.666-.82-.1-1.846.396-2.251 1.188l-2.2 4.24c-.406.792-.16 1.567.66 1.667a2.41 2.41 0 0 0 1.108-.238c.455-.22.856-.613 1.116-1.036z"/></g><g><path fill="#f9d9e3" d="M61.303 107.082c-.984.464-1.515 1.446-1.155 2.113.477 1.03.492 2.381.355 3.7-.162.81.595 1.393 1.545 1.259.276-.026.522-.142.645-.2.738-.348 1.264-.91 1.333-1.57.294-1.706.161-3.42-.464-4.903-.36-.667-1.398-.805-2.259-.4z"/></g><g><path fill="#f2e96c" d="M73.449 103.661c-.359-.666-1.271-.861-2.223-.307s-1.511 1.444-1.153 2.11c.624 1.48 1.493 2.845 2.73 4.036.421.427 1.275.441 2.011.094.123-.058.368-.174.461-.322.8-.587 1.178-1.6.574-2.15a10.615 10.615 0 0 1-2.4-3.46z"/></g></g><g><g><path fill="#f2e96c" d="M151.997 99.483c.895.116 1.95-.507 2.234-1.285a50.789 50.789 0 0 0 2.776-7.17c.282-.777-.307-1.482-1.3-1.37-.253-.02-.375.017-.617.093-.727.225-1.287.793-1.472 1.344a35.401 35.401 0 0 1-2.58 6.714c-.27.873.185 1.52.959 1.674z"/></g><g><path fill="#def9fa" d="M141.256 93.365c-.239-.019-.466.051-.694.121a2.44 2.44 0 0 0-1.396 1.168c-.266.728.174 1.424 1.004 1.446 1.672.133 3.25.48 4.635 1.163.635.359 1.66.044 2.29-.611.63-.656.533-1.457-.102-1.816-1.645-.88-3.598-1.388-5.737-1.47z"/></g><g><path fill="#f2e96c" d="M146.613 79.862c-.48.15-.936.487-1.261.881a15.185 15.185 0 0 0-2.63 5.998c-.15.827.53 1.3 1.392 1.227.981-.11 1.763-.842 1.923-1.575a12.513 12.513 0 0 1 2.037-4.738c.53-.751.308-1.562-.468-1.808-.143-.151-.634-.096-.993.015z"/></g><g><path fill="#def9fa" d="M155.422 68.582c-.252-.02-.373.018-.614.093-.723.224-1.292.696-1.464 1.338-.648 1.87-1.297 3.74-2.198 5.591-.402.812.052 1.457.821 1.61.89.116 1.82-.467 2.233-1.185 1.01-1.983 1.768-3.985 2.393-6.044.282-.775-.304-1.476-1.17-1.403z"/></g><g><path fill="#dbb2d2" d="M135.442 66.028c-.873.342-1.463 1.122-1.28 1.676.194.637 1.03.912 1.794.602 2.41-.879 4.914-1.005 6.928-.467.716.224 1.69-.235 2.18-.898.49-.664.174-1.352-.541-1.577-2.367-.608-5.334-.52-8.096.29-.211.148-.653.277-.985.374z"/></g><g><path fill="#f2e96c" d="M131.312 78.974c1.389-.15 2.584.033 3.698.513.63.355 1.647.045 2.272-.6.625-.647.528-1.437-.102-1.792-1.496-.729-3.401-.968-5.366-.734l-.34.103c-.678.207-1.313.765-1.464 1.449-.162.595.376 1.16 1.302 1.06z"/></g><g><path fill="#f2e96c" d="M126.631 99.28c-.348.108-.801.344-1.116.726-.642.672-.542 1.494.104 1.861l3.594 1.82c.647.368 1.692.044 2.333-.63.642-.672.542-1.493-.104-1.86l-3.594-1.821c-.382-.166-.752-.24-1.217-.096z"/></g><g><path fill="#dbb2d2" d="M131.902 94.09c.871.115 1.9-.495 2.175-1.256l1.158-2.578c.393-.797-.062-1.523-.922-1.545-.247-.019-.495-.038-.849.072a2.539 2.539 0 0 0-1.444 1.221l-1.158 2.579c-.276.76.18 1.486 1.04 1.507z"/></g><g><path fill="#f9d9e3" d="M145.352 57.428c.87.114 1.79-.365 2.184-1.161l1.69-3.223c.393-.797.067-1.466-.803-1.58-.247-.02-.612-.002-.848.072-.59.183-1.145.645-1.336 1.09l-1.69 3.223c-.404.704.05 1.429.803 1.58z"/></g><g><path fill="#def9fa" d="M117.453 72.03c.921-.191 1.886-.026 2.304.491.417.518 1.474.47 2.24-.041.764-.512 1.008-1.417.59-1.934-1.083-1.143-3.149-1.615-5.21-1.075l-.113.035c-.797.244-1.53 1.022-1.454 1.644.087.712.835 1.035 1.643.88z"/></g><g><path fill="#f9d9e3" d="M158.3 90.12l4.27.43c.834.11 1.818-.463 2.082-1.18.377-.751-.058-1.438-.881-1.46l-4.27-.43c-.237-.018-.474-.037-.813.066a2.413 2.413 0 0 0-1.382 1.149c-.162.595.16 1.315.994 1.425z"/></g><g><path fill="#f2e96c" d="M142.16 104.153c-.29-.389-1.026-.446-1.612-.264-.235.073-.469.146-.692.311-.787.532-1.038 1.472-.491 1.972l.976 1.036c.43.536 1.518.484 2.294-.14.787-.532 1.038-1.472.491-1.972z"/></g><g><path fill="#dbb2d2" d="M162.8 76.977a20.892 20.892 0 0 0-5.095 2.266c-.742.476-1.1 1.272-.696 1.76.404.487 1.33.563 2.07.087 1.384-.836 2.908-1.454 4.454-1.906.883-.258 1.483-.952 1.51-1.652-.083-.667-.808-.975-1.702-.8-.1.116-.32.18-.541.245z"/></g><g><path fill="#def9fa" d="M162.372 101.053c-.256-.111-.618-.094-.968.015-.467.145-1.03.51-1.335.988-.518.733-.184 1.488.573 1.73 2.003.52 3.816 1.483 4.963 2.939.428.535 1.396.52 2.297-.047.785-.53 1.163-1.411.607-2.001-1.308-1.788-3.516-3.009-6.137-3.624z"/></g><g><path fill="#f2e96c" d="M152.003 60.62c.645.366 1.593.26 2.36-.354 1.94-1.829 3.72-3.985 4.9-6.144.386-.78.066-1.436-.683-1.675-.254-.11-.601-.003-.948.105-.58.18-1.02.505-1.312 1.067-.982 1.815-2.448 3.59-4.063 5.13-.778.524-.794 1.378-.254 1.87z"/></g><g><path fill="#dbb2d2" d="M130.469 52.739c1.307-.03 2.543.335 3.226 1.058.536.488 1.488.474 2.248-.134.76-.609 1.017-1.435.481-1.923-1.219-1.211-3.21-1.904-5.342-1.805-.115.035-.356.016-.47.051-.69.213-1.335.786-1.5 1.397-.141.791.52 1.334 1.357 1.356z"/></g><g><path fill="#f9d9e3" d="M109.272 108.89c.195.639 1.021.831 1.906.571 2.192-.817 4.343-1.97 6.361-3.26.743-.478.981-1.331.576-1.821-.274-.355-.969-.412-1.522-.25-.221.066-.443.13-.653.28-1.697 1.107-3.526 2.079-5.386 2.799-.885.26-1.476 1.042-1.282 1.68z"/></g><g><path fill="#dbb2d2" d="M116.23 114.002c-.514.73-.415 1.553.338 1.793s1.8-.084 2.315-.814l2.786-3.902c.515-.73.415-1.552-.338-1.793a2.154 2.154 0 0 0-1.08.051c-.465.145-.908.472-1.224.855z"/></g><g><path fill="#f9d9e3" d="M147.683 42.794c1-.306 1.665-1.213 1.445-1.949-.268-1.122-.048-2.494.309-3.808.291-.792-.315-1.51-1.225-1.532a1.746 1.746 0 0 0-.636.095c-.75.23-1.338.711-1.516 1.368-.571 1.68-.743 3.44-.416 5.046.22.735 1.165 1.048 2.04.78z"/></g><g><path fill="#f2e96c" d="M135.151 43.829c.22.734 1.038 1.084 2.022.682.984-.403 1.66-1.212 1.44-1.946-.325-1.604-.9-3.13-1.85-4.543-.32-.503-1.114-.66-1.861-.43-.125.037-.374.114-.486.249-.848.46-1.376 1.424-.907 2.082a11.083 11.083 0 0 1 1.642 3.906z"/></g></g><g><path fill="#f7f1cc" d="M173.771 58.894l-.227-.538-.076-.18c-.151-.358-.176-.667-.15-1.105-.025-.31.077-.568.178-.828.153-.389.432-.728.66-.938.177-.08.228-.21.406-.29l.177-.08.355-.16.177-.08c.355-.16.66-.19.963-.22l.912-.091c.608-.06 1.165.008 1.849.127.683.118 1.316.366 1.873.435l.254.1.38.148.126.05.253.1.506.198.38.149.127.05.506.198.127.05c.253.099.632.248.961.526l.38.15.38.148.126.05.33.278.328.279c.127.05.253.099.329.278l.127.05.126.05.127.05c.126.049.202.228.329.278l.126.05.987.835c.329.278.658.557 1.062 1.015.203.229.405.457.48.637l.203.229.076.179.126.05-.125-.798-.126-.797c-.076-.179-.025-.309-.1-.488l-.404-1.205.05-.13-.1-.488-.025-.309c-.1-.488-.252-.846-.353-1.334-.227-.538-.328-1.026-.555-1.564l-.176-.668-.152-.358-.151-.359-.051.13-.177.08c-.127-.05-.178.08-.304.03l-.127-.05-.127-.049-.303.03-.127-.05-.177.08c-.431-.019-.912.092-1.343.073a25.24 25.24 0 0 1-2.583-.116c-.988-.088-1.925-.306-2.608-.424-.431-.02-.937-.218-1.494-.287-.38-.15-.81-.168-1.317-.367-1.063-.267-2.025-.794-2.734-1.221-.38-.15-.708-.428-1.037-.706l-.127-.05c-.126-.05-.253-.1-.329-.278l-.253-.1c-.253-.099-.455-.328-.658-.557a7.733 7.733 0 0 1-.682-.866c-.38-.149-.456-.328-.405-.458l-.127-.05-.075-.178.05-.13c-.075-.18-.1-.488-.05-.618l.051-.13c-.024-.308.077-.568.23-.957.101-.259.152-.388.38-.598.102-.26.33-.47.685-.629l.051-.13.355-.16.177-.08a10.91 10.91 0 0 1 2.23-.472c.734-.01 1.342-.071 1.773-.052.253.1.557.069.81.168l.253.1c.937.217 1.95.614 2.911 1.14.38.15.709.428 1.089.577l.253.1c.126.049.253.099.329.278l.253.1c.126.049.38.148.455.327.456.329.911.657 1.24.935.33.279.785.607 1.113.885.33.279.532.508.734.737a1.882 1.882 0 0 0-.354-.588c-.253-.099-.404-.458-.48-.637.05-.13-.076-.18-.025-.309-.076-.179-.278-.408-.303-.717l-.227-.538-.076-.179-.581-1.125-.201-.976-.581-1.126-.076-.179c-.127-.05-.076-.18-.202-.229l-.025-.309-.203-.229c-.075-.179-.151-.358-.353-.587l-.076-.18c-.051.13-.28.34-.457.42l-.354.16-.178.08-.532.24c-.482.11-.836.27-1.14.3-.482.111-.963.222-1.394.202-.734.011-1.469.023-2.456-.066-.988-.088-1.925-.306-2.735-.474-.81-.168-1.646-.645-2.658-1.042-.127-.05-.253-.1-.33-.279l-.126-.05-.126-.049c-.127-.05-.33-.278-.456-.328-.784-.607-1.442-1.164-1.998-1.98l-.076-.18-.151-.358c-.076-.179-.025-.309.026-.438-.025-.31-.05-.618.052-.877l.152-.39c.05-.129.228-.209.28-.339.05-.13.227-.21.405-.29l.177-.08.71-.32c.355-.16.836-.27 1.495-.46.608-.06 1.216-.121 1.646-.102.735-.011 1.418.107 1.976.176.936.218 1.949.615 2.658 1.042.38.15.835.477 1.215.626.582.378 1.29.805 1.821 1.313.127.05.203.229.456.328l-.076-.18-.076-.178c-.126-.05-.075-.18-.202-.23-.278-.408-.632-.995-.91-1.403-.126-.05-.202-.229-.278-.408l-.126-.05-.404-1.205-.834-1.225c-.127-.05-.076-.179-.203-.228l-.126-.05-.227-.538-.354-.587c-.076-.18-.278-.408-.354-.588l-.127-.05c-.05.13-.228.21-.405.29l-.178.08-.71.32c-.303.03-.658.19-.785.141l-.177.08-.177.08-.127-.05c-.304.03-.659.19-1.09.172-.607.06-1.038.041-1.342.071-.86-.038-1.722-.077-2.406-.195-.557-.07-.937-.218-1.62-.337-.253-.099-.684-.118-.937-.217l-.253-.1-1.14-.446c-.506-.199-1.012-.397-1.34-.676-.254-.1-.38-.149-.583-.378-.253-.099-.455-.328-.658-.557-.126-.05-.075-.179-.202-.229-.076-.179-.202-.229-.151-.358l-.152-.359c-.025-.309-.05-.618-.126-.797-.05-.618.027-1.186.306-1.525a4.21 4.21 0 0 1 .913-.839l.533-.24.05-.13.355-.16.178-.08c.304-.03.532-.24.887-.4.481-.11.963-.22 1.57-.28.43.019.735-.012 1.115.137l.126.05c.81.168 1.443.416 2.076.664.76.298 1.595.775 2.43 1.252-.076-.18-.202-.229-.278-.408l-.127-.05-.607-.686c-.075-.18-.202-.23-.328-.279l-.127-.05-.202-.228-.127-.05-.076-.18-.126-.049c-.253-.1-.582-.378-.607-.687l-.38-.149-.202-.228c-.607-.687-1.265-1.244-1.796-1.752l-.05.13-.103.26c-.05.129-.228.209-.279.339-.05.13-.177.08-.228.21l-.177.08-.533.24-.532.24c-.887.4-1.723.67-2.56.94-.658.19-1.392.201-2 .262-.304.03-.431-.019-.684-.118-.304.03-.557-.07-.684-.119l-.76-.298-.126-.05c-.38-.148-.962-.526-1.138-1.193-.151-.359-.176-.668-.252-.847l.05-.13c.052-.13-.075-.179-.024-.309.05-.13.026-.438.077-.568.152-.389.38-.598.66-.938.228-.21.405-.29.633-.499.051-.13.178-.08.228-.21l.71-.32c.355-.16.785-.14 1.09-.17.48-.111.911-.092 1.291.057.43.02.937.218 1.368.237l.886.348c-.127-.05-.254-.1-.33-.279l-.784-.607-.455-.328c-.051.13-.178.08-.304.03l-.253-.099-.127-.05-.126-.049-.38-.149-.127-.05-.126-.05-.38-.148c-.506-.199-1.013-.397-1.317-.367-.506-.198-1.19-.317-2.202-.714l-.127-.05-.253-.099-.506-.198c-.253-.1-.507-.199-.709-.428-.329-.278-.708-.427-.91-.656-.33-.278-.532-.507-.557-.816-.076-.18-.025-.31-.151-.359-.076-.18.026-.438.076-.568l.153-.389c.05-.13.228-.21.279-.34.05-.129.228-.209.406-.289-.203-.229-.076-.18-.025-.309.481-.11.962-.22 1.393-.201.127.05.43.02.557.069l.127.05c.253.099.43.019.683.118l1.013.397c.127.05.38.149.455.328.127.05.254.1.33.279.253.099.328.278.455.328l.126.05c.203.228.532.507.86.785.203.23.405.458.683.866s.556.817.759 1.045c.075.18.278.409.353.588.076.18.152.358.177.667-.051.13.076.18-.102.26l.582.377 1.038.706.986.836c.33.278.658.557.86.786.127.05.127.05.203.229.455.328.86.786 1.189 1.064.126.05.329.279.455.328-.278-.408-.556-.816-.707-1.174l-.076-.18c-.227-.537-.455-1.075-.86-1.533l.305-.03c-.278-.409-.581-1.126-.758-1.793-.227-.538-.53-1.255-.655-2.052l-.075-.927c-.076-.179.026-.438 0-.747.153-.39.306-.778.712-1.068.177-.08.354-.16.48-.11.178-.08.431.02.735-.011l1.14.447.126.05c.633.247.987.835 1.34 1.422.354.588.708 1.175 1.011 1.892.152.359.227.538.252.847l.076.18c.152.358.176.667.201.975.152.359.177.668.202.977-.026.438.125.797.15 1.106.025.309.05.618-.052.877.025.309-.076.568-.178.827l-.051.13c-.05.13-.102.26-.026.438-.05.13.025.31-.026.439l-.05.13c.024.309-.128.697-.23.957-.05.13-.228.21-.279.339.329.279.658.557.936.965l1.138 1.194.81.916.404.458.127.05.202.228c.202.23.278.408.48.637l.127.05.126.05c-.126-.05-.075-.18-.151-.359-.152-.358-.303-.717-.328-1.026l-.202-.229-.025-.309c-.076-.179-.025-.309-.1-.488 0 0 .05-.13-.077-.18-.025-.308-.176-.667-.15-1.105-.126-.797-.2-1.724-.2-2.471-.024-.31.002-.748-.023-1.057l.05-.13c-.024-.308-.05-.617.103-1.006.026-.439.179-.827.205-1.266.101-.26.254-.648.533-.987.05-.13.177-.08.228-.21l.355-.16c.177-.08.304-.03.43.02.127.049.43.018.557.068l.633.248.127.05c.253.1.455.328.582.378.455.328.86.786 1.265 1.243.202.23.353.588.556.817l.076.179c.075.18.202.229.151.359.151.358.43.766.581 1.125l.127.05c.075.179.278.408.303.716l.227.538.227.538.227.538.076.18.076.178c.025.31.1.489.1.489.177.667.302 1.464.479 2.131.201.977.2 1.724.199 2.472l.025.309c-.026.438-.001.747-.027 1.186a23.224 23.224 0 0 0-.18 1.574c-.101.26-.076.569-.229.957-.101.26-.203.519-.431.729l-.102.259-.05.13-.052.13-.05.129c-.051.13-.229.21-.28.34-.177.08-.228.209-.405.289l.202.229.202.229.076.179c.127.05.076.18.203.229.075.179.278.408.353.587l.784 1.354c.707 1.175 1.288 2.3 1.92 3.296.127.05.076.18.076.18l.076.178.126.05.127.05c-.378-1.644-.4-3.448-.475-5.122-.023-1.056-.047-2.113-.173-2.91l.026-.438.003-2.243c.026-.438.179-.827.154-1.136l.05-.13c.102-.259.153-.388.128-.697l.05-.13.407-1.037c.153-.389.432-.728.66-.938.051-.13.229-.21.457-.42 0 0 .05-.129.177-.08l.355-.16c.177-.08.304-.03.43.02l.127.05.127.05.38.148c.38.15.581.378.835.477.455.329.733.737 1.062 1.015l.076.18c.076.179.151.358.278.408l.076.179.227.538c.151.358.43.766.53 1.255.227.537.328 1.026.428 1.514.202.976.226 2.032.3 2.959 0 .747-.002 1.495-.23 2.452-.053.877-.231 1.704-.46 2.662-.154 1.136-.662 2.432-1.297 3.679-.254.648-.635 1.247-.965 1.716-.05.13-.228.21-.279.339l-.05.13c-.052.13-.28.339-.33.468-.052.13-.178.08-.229.21l-.102.26c-.05.129-.177.08-.228.209l.758 1.793.075.179.228.538.428 1.514.152.358c.252.847.63 1.743.883 2.59l.075.18.025.308.227.538c-.05.13.076.18.025.309.077-.568.027-1.186.053-1.625l.026-.438.128-.698c.18-1.575.41-3.28.792-5.373.179-.827.357-1.655.586-2.612l.153-.389.05-.13.255-.647.05-.13.051-.13c.407-1.037 1.193-1.925 2.233-2.714.228-.21.583-.37.76-.45l.178-.08c.177-.08.355-.16.659-.19l.911-.09c.127.049.254.098.431.018l.127.05.506.198c.506.199.86.786 1.138 1.195.202.228.354.587.556.816l.379.896.076.18c.227.537.277 1.155.453 1.823.025.308.126.797.175 1.414-.05.13.025.31.025.31l-.05.129.075.18c.025.308-.026.438 0 .747.024.308.05.617-.053.877.05.618-.077 1.315-.331 1.963-.128.698-.433 1.476-.865 2.204-.203.519-.533.988-.736 1.506a13.432 13.432 0 0 1-1.548 2.085c-.28.34-.609.809-1.015 1.098-.279.34-.634.5-.862.71-.177.08-.583.369-.811.578-.05.13-.178.08-.228.21l-.355.16-1.065.48-.354.16-.178.08-.177.08-.355.16s-.127-.05-.177.08l.151.359.152.358.075.18.202.976s.075.18.202.229c.076.179.1.488.075.926l.025.31.074.926c.025.309.101.488.05.618l.125 1.544.025.31c.075.179.1.487-.001.747l.024.309.076.179-.05.13c-.002.747.124 1.544.072 2.421-.026.438-.052.877-.18 1.575-.1.26-.076.568-.178.827l-.203.519-.102.26c-.152.388-.178.827-.28 1.086l-.305.778c-.05.13-.101.259-.279.339-.177.08-.304.03-.43-.02-.127-.049-.254-.099-.33-.278-.075-.18-.024-.309.027-.438l.457-1.167.153-.389c.152-.389.28-1.087.407-1.785.102-.259.077-.568.179-.827.026-.439 0-.747.102-1.007l-.074-.926-.532-.508-.074-.926c.05-.13-.025-.31.026-.439l.05-.13-.075-.179.05-.13.051-.13-.075-.178-.076-.18-.075-.926c-.076-.18-.025-.31-.1-.489l-.076-.179-.025-.309-.076-.179c-.177.08-.177.08-.304.03l-.177.08c-.178.08-.304.03-.482.11-.177.08-.304.031-.481.111s-.481.11-.659.19l-.126-.05c-.178.08-.304.031-.355.16-.355.16-.786.142-1.216.122-.482.11-.912.091-1.47.023-.43-.02-.987-.089-1.367-.237-.936-.218-1.747-.386-2.633-.734-1.012-.397-1.823-.565-2.709-.913l-.506-.198-.253-.1-.633-.247a3.69 3.69 0 0 1-1.493-1.035 21.876 21.876 0 0 1-1.34-1.423c-.354-.587-.506-.946-.733-1.483z"/></g><g><path fill="url(#quvva)" d="M20 92.93l-7.302-.744L11.209 84l-3.162 7.628-8.047-2 5.674 6.046L1.907 102l6.977-3.21 5.349 5.21-.977-7.395z"/></g><g transform="rotate(143.47 108.5 16.5)"><path fill="url(#quvvb)" d="M93.38 16.092l11.684 1.19 2.381 13.098 5.06-12.205 12.875 3.2-9.08-9.674L122.33 1.58l-11.163 5.135-8.558-8.335 1.563 11.833z"/></g></g></g></svg>