<svg xmlns="http://www.w3.org/2000/svg" width="200" height="134" viewBox="0 0 200 134"><defs><linearGradient id="6uqsa" x1="180" x2="200" y1="102" y2="102" gradientUnits="userSpaceOnUse"><stop offset="0" stop-color="#cda948"/><stop offset="1" stop-color="#e6cf33"/></linearGradient><linearGradient id="6uqsb" x1="81" x2="123" y1="21" y2="21" gradientUnits="userSpaceOnUse"><stop offset="0" stop-color="#cda948"/><stop offset="1" stop-color="#e6cf33"/></linearGradient></defs><g><g><g><path fill="#cfb0d0" d="M26.43 51.258l-.266.228-.088.076c-.178.152-.35.222-.606.287-.172.07-.339.059-.505.048a1.605 1.605 0 0 1-.656-.207c-.078-.087-.162-.093-.24-.18l-.078-.087-.156-.174-.078-.087c-.155-.174-.228-.342-.3-.51l-.218-.505c-.145-.337-.207-.668-.263-1.08-.057-.413-.03-.82-.091-1.151l.01-.163.017-.245.005-.08.011-.164.022-.325.016-.245.005-.081.022-.326.006-.081c.01-.163.027-.407.126-.646l.016-.244.017-.244.005-.082.1-.238.1-.239c.005-.081.01-.163.099-.239l.005-.08.006-.082.005-.082c.006-.081.094-.157.1-.238l.005-.082.3-.716c.099-.239.198-.477.387-.792.094-.157.188-.314.277-.39l.094-.157.089-.076.005-.082-.433.217-.433.216c-.089.076-.172.07-.26.146l-.617.45-.083-.005-.261.146-.172.07c-.261.146-.439.298-.7.444-.266.228-.527.374-.794.601l-.35.223-.177.151-.177.152.083.005.078.087c-.006.082.078.087.072.169l-.005.081-.005.082.072.168-.005.081.078.087c.067.25.217.505.284.755.14.418.274.918.403 1.499.129.58.175 1.156.23 1.569.068.25.046.575.108.906-.016.244.05.494.03.82.04.656-.087 1.302-.203 1.785-.017.244-.116.483-.216.722l-.005.081c-.006.081-.011.163-.1.239l-.01.162c-.011.163-.106.32-.2.478a4.64 4.64 0 0 1-.371.547c-.017.245-.105.32-.189.315l-.005.081-.089.076-.083-.005c-.09.076-.261.146-.345.14l-.083-.005c-.172.07-.339.06-.589.042-.167-.01-.25-.016-.411-.109-.167-.01-.329-.103-.485-.277l-.083-.006-.156-.174-.078-.087a6.55 6.55 0 0 1-.674-1.19c-.14-.417-.285-.754-.352-1.004.01-.163-.062-.331-.051-.494l.01-.163a7.052 7.052 0 0 1 .125-1.872c.017-.244.116-.483.132-.727l.011-.163c.006-.081.011-.163.1-.239l.01-.162c.006-.082.017-.245.106-.32.105-.32.21-.64.31-.88.099-.238.204-.558.304-.797.1-.238.194-.396.288-.553a1.127 1.127 0 0 0-.272.31c-.01.162-.189.314-.277.39-.084-.006-.09.075-.172.07-.09.076-.183.233-.356.303l-.266.228-.089.076-.538.536-.522.293-.538.536-.089.076c-.005.082-.089.076-.094.157l-.172.07-.094.158a1.13 1.13 0 0 0-.272.309l-.089.076c.084.005.245.098.323.185l.156.174.078.087.234.26c.15.256.306.43.379.598.15.255.3.51.368.76.14.419.279.837.408 1.418.129.58.174 1.156.225 1.65.05.494-.07 1.058-.114 1.71-.005.08-.01.162-.1.238l-.005.081-.005.082c-.006.081-.1.239-.105.32-.205.559-.404 1.036-.77 1.502l-.089.076-.177.152c-.09.076-.173.07-.256.065-.172.07-.344.14-.511.13l-.25-.018c-.083-.005-.161-.092-.245-.098-.083-.005-.161-.092-.24-.179l-.077-.087-.312-.348c-.156-.174-.306-.429-.535-.771-.145-.337-.29-.674-.357-.923-.14-.419-.196-.831-.258-1.162a5.876 5.876 0 0 1 .114-1.71c.016-.244.121-.564.137-.808.11-.402.227-.885.42-1.28.006-.082.095-.158.106-.32l-.09.075-.088.076c-.005.082-.089.076-.094.157-.183.233-.455.543-.638.776-.005.081-.094.157-.183.233l-.005.081-.616.45-.55.7c-.005.08-.088.075-.094.156l-.005.082-.266.227-.272.31c-.089.075-.183.232-.272.308l-.005.082c.083.005.16.092.239.18l.078.086.312.348c.072.168.228.342.223.424l.078.087.078.086-.006.082c.073.168.229.342.296.592.145.337.212.586.285.755.134.5.268.999.324 1.411.062.331.046.576.102.988-.01.163.057.413.046.576l-.011.163-.049.732c-.022.326-.043.651-.143.89-.01.163-.016.244-.11.402-.011.162-.105.32-.2.477-.005.081-.088.076-.094.157-.089.076-.094.157-.177.152l-.178.152c-.172.07-.344.14-.433.216-.344.14-.683.2-.928.102a2.526 2.526 0 0 1-.645-.37l-.234-.261-.084-.006-.155-.173-.078-.087c-.073-.169-.234-.261-.39-.435a7.14 7.14 0 0 1-.446-.847c-.067-.25-.14-.419-.124-.663l.006-.081c-.051-.494-.024-.901.003-1.308.032-.489.154-1.053.275-1.617-.089.076-.094.157-.183.233l-.005.081-.283.472c-.089.076-.094.157-.1.239l-.005.081-.094.157-.006.082-.088.076-.006.081c-.01.163-.11.402-.282.472l-.017.244-.094.157c-.283.472-.482.95-.676 1.345l.084.006.167.011c.083.006.16.093.244.098.084.006.078.087.162.093l.078.087.233.26.234.261c.39.435.696.864 1.003 1.293.228.343.368.76.513 1.098.073.168.067.25.056.412a.869.869 0 0 1 .057.413l-.033.488-.005.082c-.016.244-.127.645-.477.867-.177.152-.35.222-.438.298l-.084-.005c-.083-.006-.088.075-.172.07-.083-.006-.255.065-.339.06-.25-.018-.411-.11-.656-.208-.161-.093-.24-.18-.4-.272-.084-.006-.078-.087-.162-.092l-.312-.348c-.155-.174-.223-.424-.295-.592-.15-.256-.218-.505-.202-.75-.067-.25-.045-.575-.112-.825l.038-.57c-.006.082-.011.163-.1.24l-.205.558-.105.32c.084.005.078.087.073.168l-.01.163-.006.081-.006.082-.016.244-.005.082-.006.08-.016.245c-.022.326-.043.651.03.82-.022.325.034.738-.01 1.39l-.005.08-.01.163-.022.326c-.011.163-.022.326-.116.483-.1.239-.116.483-.21.64-.1.239-.194.396-.366.466-.089.076-.172.07-.178.152-.089.076-.255.065-.339.06l-.25-.017c-.083-.006-.161-.093-.245-.098-.083-.006-.16-.093-.239-.18-.094.157-.089.076-.172.07-.15-.255-.301-.51-.368-.76.005-.081-.067-.25-.062-.331l.006-.082c.01-.162-.068-.25-.057-.412l.044-.651c.005-.082.016-.245.105-.32.005-.082.01-.163.1-.24.01-.162.099-.238.104-.32l.006-.08c.094-.158.194-.397.293-.635.094-.157.189-.315.372-.548.183-.233.366-.466.46-.623.089-.076.183-.233.271-.31.09-.075.178-.151.35-.221.084.005.089-.076.167.01l.11-.4.216-.722.299-.716c.1-.239.199-.478.293-.635.006-.081.006-.081.094-.157.105-.32.294-.635.393-.873.006-.082.1-.24.106-.32-.183.233-.366.466-.544.617l-.089.076c-.266.228-.533.455-.721.77l-.073-.168c-.183.233-.538.536-.887.758-.267.228-.622.531-1.055.748l-.517.21c-.088.077-.255.065-.427.136-.25-.017-.5-.034-.74-.213-.078-.087-.156-.174-.15-.255-.078-.087-.067-.25-.14-.418l.049-.733.005-.081c.027-.407.3-.716.57-1.025.273-.31.544-.618.9-.922.177-.152.266-.227.438-.298l.089-.076a1.75 1.75 0 0 1 .522-.292c.177-.152.35-.222.522-.292.255-.065.433-.217.605-.287.172-.07.344-.14.511-.13.172-.07.339-.059.506-.048l.083.006c.083.005.167.01.256-.065.083.006.172-.07.255-.065l.084.006c.172-.07.422-.054.589-.043.083.006.16.093.244.098.1-.238.2-.477.382-.71l.477-.868.377-.629.188-.315.006-.08.094-.158c.094-.157.183-.233.277-.39l.005-.082.006-.081c-.006.081-.089.076-.178.151-.177.152-.355.304-.527.374l-.094.157-.172.07c-.09.077-.173.071-.261.147 0 0-.084-.006-.09.076-.171.07-.349.222-.604.286-.434.217-.95.428-1.378.563-.172.07-.427.135-.6.205l-.083-.005c-.172.07-.344.14-.594.124-.256.065-.506.048-.762.113a2.124 2.124 0 0 1-.661-.126c-.084-.006-.078-.087-.162-.093l-.155-.173c-.078-.087-.073-.169-.068-.25.006-.082-.067-.25-.061-.331l.027-.407.005-.082c.011-.163.105-.32.11-.401.106-.32.294-.635.482-.95.095-.157.272-.308.366-.466l.09-.075c.088-.076.093-.158.177-.152.177-.152.36-.385.538-.537l.005-.081c.09-.076.183-.233.356-.304l.266-.227.266-.228.267-.227.088-.076.09-.076c.171-.07.26-.146.26-.146.35-.222.783-.439 1.133-.66.522-.293.95-.428 1.377-.563l.172-.07c.256-.065.428-.136.683-.2.34-.06.678-.119.934-.184.167.011.339-.059.589-.042.167.01.333.022.495.114l.166.012.084.005.083.006.084.005c.083.006.16.093.244.098.078.087.162.093.24.18l.094-.158.094-.157.089-.076c.005-.081.089-.076.094-.157.089-.076.183-.233.272-.309l.632-.694c.544-.618 1.082-1.154 1.537-1.696.005-.082.088-.076.088-.076l.09-.076.005-.082.005-.081c-.872.514-1.9.855-2.843 1.201-.6.205-1.2.41-1.633.627l-.256.065-1.283.405c-.255.065-.506.048-.678.119l-.083-.006c-.167-.011-.25-.017-.422.054l-.084-.006c-.167-.01-.417-.027-.667-.044a1.604 1.604 0 0 1-.656-.207c-.083-.006-.161-.093-.323-.185 0 0-.083-.006-.078-.087l-.155-.174c-.078-.087-.073-.169-.068-.25l.006-.081.005-.082.016-.244c.017-.244.11-.401.122-.564.105-.32.288-.553.387-.792l.09-.076c.088-.076.177-.152.182-.233l.089-.076.266-.228c.178-.151.36-.384.622-.53.266-.228.527-.374.788-.52.522-.293 1.122-.498 1.638-.71.428-.134.856-.27 1.445-.312.51-.13 1.017-.178 1.606-.22.677-.119 1.511-.063 2.34.074.416.027.828.137 1.156.24.083.006.161.093.245.098l.083.006c.083.005.245.098.328.103.083.006.078.087.161.093l.167.01c.083.006.078.088.161.093l.888-.758.09-.076.265-.228.789-.52.177-.151c.439-.298.883-.677 1.321-.975l.09-.076.171-.07.267-.228c.083.005.088-.076.172-.07-.34.059-.683.2-.939.264l-.255.065-.423.054c-.933.183-1.95.36-3.217.522-.505.048-1.011.096-1.6.138l-.25-.016-.084-.006c-.166-.01-.25-.016-.416-.028l-.084-.005-.083-.006c-.667-.044-1.318-.333-1.958-.784-.161-.092-.317-.266-.395-.353l-.078-.087a1.128 1.128 0 0 1-.228-.342l-.218-.506c.005-.08.01-.162-.067-.25l.005-.08.022-.326c.022-.326.293-.635.476-.868.094-.157.272-.31.366-.466l.444-.38.089-.075c.266-.228.61-.369.96-.59.173-.071.434-.217.778-.358.083.006.172-.07.172-.07l.083.005.09-.075c.171-.07.255-.065.427-.136.172-.07.344-.14.511-.13.344-.14.767-.193 1.183-.166.423-.053.923-.02 1.418.095.333.022.661.125.995.148a8.05 8.05 0 0 1 1.473.506c.245.099.573.202.813.382.244.098.4.271.562.364.078.087.317.266.478.359.083.005.078.087.161.092l.156.174.468.522.156.174.078.087.078.087.156.174s-.006.081.078.087l.177-.152.178-.152.089-.076.522-.292s.088-.076.094-.157c.089-.076.26-.146.516-.211l.173-.07.516-.212c.172-.07.261-.146.344-.14l.861-.352.172-.07a.646.646 0 0 1 .428-.135l.172-.07.089-.076.083.005c.428-.135.861-.351 1.372-.48a6.91 6.91 0 0 1 .934-.184c.166.011.339-.06.505-.048l.334.022.167.011c.25.017.505-.048.672-.037l.5.033c.083.006.167.011.245.098.078.087.072.169.067.25-.005.082-.01.163-.1.239-.088.076-.172.07-.255.065l-.75-.05-.25-.017c-.25-.017-.673.037-1.095.09-.167-.01-.34.06-.506.049-.256.065-.428.135-.594.124l-.517.21-.194.397-.516.21c-.084-.005-.172.071-.256.065l-.083-.005-.089.076-.083-.006-.084-.005-.088.076-.09.075-.516.211c-.089.076-.172.07-.26.147l-.09.075-.172.07-.088.077c.077.086.077.086.072.168l.078.087c.078.087.073.168.15.255.079.087.073.169.151.255.078.087.15.256.229.343l-.006.081c.078.087.073.168.156.174.156.174.223.424.29.673.15.256.218.506.28.837.067.25.128.58.112.825.046.575.096 1.07.059 1.639-.044.651.007 1.145-.03 1.715l-.022.326-.011.163-.027.407a2.215 2.215 0 0 1-.32 1.041c-.195.396-.383.71-.572 1.025-.271.31-.449.46-.715.688z"/></g><g><g><path fill="#f2e96c" d="M39.342 70.344c-.95.043-1.938.824-2.095 1.618a46.526 46.526 0 0 0-1.626 7.354c-.158.794.578 1.368 1.59 1.09.267-.025.386-.082.625-.197.716-.342 1.198-.983 1.293-1.543.234-2.269.734-4.564 1.502-6.883.129-.884-.458-1.425-1.289-1.439z"/></g><g><path fill="#def9fa" d="M50.92 74.14c.25-.024.471-.131.694-.239a2.479 2.479 0 0 0 1.231-1.37c.147-.75-.427-1.347-1.285-1.223-1.742.164-3.427.105-4.97-.313-.715-.236-1.716.247-2.25.99-.533.743-.293 1.5.423 1.736 1.845.563 3.943.713 6.157.419z"/></g><g><path fill="#f2e96c" d="M48.064 88.307c.472-.226.886-.63 1.155-1.064 1.108-2.06 1.63-4.249 1.682-6.21.01-.82-.778-1.155-1.66-.936-1 .276-1.683 1.114-1.72 1.845a11.564 11.564 0 0 1-1.287 4.899c-.42.813-.046 1.551.802 1.654.175.12.675-.018 1.028-.188z"/></g><g><path fill="#def9fa" d="M41.55 101.051c.266-.025.385-.082.622-.195.712-.341 1.22-.891 1.286-1.537.346-1.906.692-3.812 1.303-5.743.275-.849-.308-1.388-1.134-1.402-.944.043-1.808.764-2.111 1.523-.702 2.077-1.138 4.128-1.427 6.212-.157.791.574 1.362 1.462 1.142z"/></g><g><path fill="#dbb2d2" d="M61.957 99.926c.828-.486 1.29-1.352 1.004-1.861-.311-.59-1.212-.715-1.933-.28-2.296 1.278-4.823 1.836-6.97 1.658-.767-.095-1.677.522-2.057 1.257-.38.734.064 1.353.832 1.449 2.517.185 5.522-.415 8.19-1.686.187-.181.614-.384.934-.537z"/></g><g><path fill="#f2e96c" d="M63.51 86.408c-1.398.387-2.657.419-3.884.147-.708-.233-1.698.244-2.226.979-.529.734-.291 1.483.417 1.716 1.663.445 3.66.345 5.636-.225l.33-.16c.66-.318 1.215-.969 1.25-1.657.062-.605-.59-1.059-1.522-.8z"/></g><g><path fill="#f2e96c" d="M64.134 65.514c.341-.165.769-.471 1.028-.894.546-.76.3-1.533-.432-1.773l-4.03-1.124c-.732-.24-1.755.254-2.3 1.013-.546.76-.3 1.533.432 1.774l4.029 1.124c.423.093.819.1 1.273-.12z"/></g><g><path fill="#dbb2d2" d="M60.013 71.706c-.923.042-1.882.807-2.035 1.585l-.75 2.678c-.27.835.329 1.453 1.224 1.323.26-.024.519-.049.867-.217a2.58 2.58 0 0 0 1.284-1.424l.75-2.678c.153-.779-.445-1.397-1.34-1.267z"/></g><g><path fill="#f9d9e3" d="M53.876 110.28c-.922.042-1.792.663-2.06 1.497l-1.19 3.39c-.268.834.186 1.42 1.107 1.377.26-.024.634-.105.866-.216.579-.28 1.074-.82 1.194-1.28l1.19-3.39c.295-.747-.302-1.364-1.107-1.378z"/></g><g><path fill="#def9fa" d="M78.418 90.55c-.915.346-1.936.355-2.455-.072-.52-.427-1.599-.196-2.296.431-.697.628-.79 1.545-.27 1.972 1.313.915 3.52 1.01 5.545.129l.11-.054c.778-.375 1.395-1.255 1.209-1.843-.214-.672-1.04-.854-1.843-.562z"/></g><g><path fill="#f9d9e3" d="M34.896 80.654l-4.456.33c-.875.038-1.785.765-1.93 1.505-.255.794.312 1.382 1.16 1.26l4.457-.329c.246-.023.492-.046.821-.205.55-.265 1.02-.779 1.218-1.353.061-.605-.395-1.246-1.27-1.208z"/></g><g><path fill="#f2e96c" d="M47.825 63.676c.368.322 1.14.25 1.715-.028.23-.111.46-.222.662-.42.722-.649.818-1.596.165-1.98l-1.191-.826c-.538-.44-1.655-.2-2.35.535-.721.648-.818 1.595-.165 1.98z"/></g><g><path fill="#dbb2d2" d="M32.768 94.316a21.682 21.682 0 0 0 4.779-3.102c.67-.594.891-1.437.393-1.844-.499-.407-1.453-.321-2.123.273-1.257 1.059-2.698 1.928-4.19 2.638-.852.405-1.338 1.189-1.24 1.879.203.64.996.815 1.874.49.081-.132.294-.233.507-.334z"/></g><g><path fill="#def9fa" d="M28.708 70.619c.284.062.656-.018 1-.184.457-.221.975-.67 1.208-1.183.408-.795-.069-1.462-.893-1.563-2.163-.152-4.206-.76-5.645-1.96-.536-.44-1.535-.256-2.368.446-.72.647-.958 1.56-.28 2.03 1.664 1.49 4.16 2.28 6.978 2.414z"/></g><g><path fill="#f2e96c" d="M46.85 108.47c-.73-.24-1.69.027-2.375.753-1.685 2.1-3.148 4.487-3.99 6.772-.264.818.18 1.394.996 1.493.281.062.62-.102.96-.267.567-.274.966-.664 1.17-1.257.697-1.918 1.902-3.884 3.302-5.648.711-.64.58-1.466-.063-1.847z"/></g><g><path fill="#dbb2d2" d="M69.377 111.99c-1.342.258-2.679.121-3.51-.456-.636-.377-1.615-.198-2.292.522-.678.719-.8 1.561-.162 1.938 1.468.955 3.64 1.275 5.82.807.113-.054.364-.078.476-.132.673-.326 1.239-.99 1.302-1.609.009-.787-.768-1.195-1.634-1.07z"/></g><g><path fill="#f9d9e3" d="M79.463 52.851c-.312-.59-1.188-.635-2.043-.228-2.087 1.18-4.07 2.68-5.897 4.29-.671.597-.761 1.472-.261 1.882.342.299 1.06.234 1.594-.02.214-.103.428-.204.616-.387 1.53-1.376 3.22-2.644 4.986-3.67.855-.408 1.317-1.275 1.005-1.867z"/></g><g><path fill="#dbb2d2" d="M71.625 49.153c.406-.792.16-1.566-.66-1.666-.82-.1-1.846.396-2.251 1.187l-2.2 4.241c-.406.792-.16 1.567.66 1.667a2.41 2.41 0 0 0 1.108-.238c.455-.22.856-.613 1.116-1.036z"/></g><g><path fill="#f9d9e3" d="M54.303 125.082c-.984.464-1.515 1.446-1.155 2.113.477 1.03.492 2.381.355 3.7-.162.81.595 1.393 1.545 1.259a1.96 1.96 0 0 0 .645-.2c.738-.347 1.264-.91 1.333-1.569.294-1.707.161-3.422-.464-4.904-.36-.667-1.398-.805-2.259-.4z"/></g><g><path fill="#f2e96c" d="M66.449 121.661c-.359-.666-1.271-.861-2.223-.307-.952.553-1.511 1.444-1.153 2.11.624 1.48 1.493 2.845 2.73 4.036.421.427 1.275.441 2.011.094.123-.058.368-.174.461-.322.8-.587 1.178-1.6.574-2.15a10.614 10.614 0 0 1-2.4-3.46z"/></g></g><g><g><path fill="#f2e96c" d="M144.997 117.483c.895.116 1.95-.507 2.234-1.285a50.788 50.788 0 0 0 2.775-7.17c.283-.777-.306-1.482-1.298-1.37-.254-.02-.376.017-.618.093-.727.225-1.287.793-1.472 1.344a35.401 35.401 0 0 1-2.58 6.714c-.27.873.185 1.52.959 1.674z"/></g><g><path fill="#def9fa" d="M134.256 111.365c-.238-.019-.466.051-.694.121a2.441 2.441 0 0 0-1.396 1.168c-.266.728.174 1.424 1.004 1.446 1.672.133 3.25.48 4.635 1.163.635.359 1.66.044 2.29-.611.63-.656.533-1.457-.102-1.816-1.645-.88-3.598-1.388-5.737-1.47z"/></g><g><path fill="#f2e96c" d="M139.613 97.862c-.48.15-.936.487-1.261.881a15.185 15.185 0 0 0-2.63 5.998c-.149.827.53 1.3 1.392 1.227.981-.11 1.763-.842 1.923-1.575a12.514 12.514 0 0 1 2.037-4.738c.53-.752.308-1.562-.468-1.809-.143-.15-.634-.096-.993.016z"/></g><g><path fill="#def9fa" d="M148.422 86.582c-.252-.02-.373.018-.614.092-.723.225-1.291.696-1.464 1.339-.648 1.87-1.297 3.74-2.198 5.591-.401.812.052 1.457.821 1.61.89.116 1.82-.467 2.233-1.185 1.01-1.983 1.768-3.985 2.393-6.045.282-.774-.304-1.475-1.17-1.402z"/></g><g><path fill="#dbb2d2" d="M128.442 84.028c-.873.343-1.463 1.122-1.28 1.676.194.637 1.03.912 1.794.602 2.41-.879 4.914-1.005 6.928-.467.715.224 1.69-.235 2.18-.898.489-.664.174-1.352-.541-1.577-2.367-.608-5.334-.52-8.097.29-.21.148-.652.277-.984.374z"/></g><g><path fill="#f2e96c" d="M124.312 96.974c1.389-.15 2.584.033 3.698.513.63.355 1.647.045 2.272-.6.625-.647.528-1.437-.102-1.792-1.496-.729-3.401-.968-5.366-.734l-.34.103c-.678.207-1.313.765-1.464 1.449-.162.595.376 1.16 1.302 1.06z"/></g><g><path fill="#f2e96c" d="M119.631 117.28c-.348.108-.801.344-1.116.726-.642.673-.542 1.494.104 1.861l3.594 1.82c.647.368 1.692.044 2.333-.63.642-.672.542-1.493-.104-1.86l-3.594-1.821c-.382-.166-.752-.24-1.217-.096z"/></g><g><path fill="#dbb2d2" d="M124.902 112.09c.871.115 1.9-.495 2.175-1.256l1.158-2.578c.393-.797-.062-1.523-.922-1.545-.247-.019-.495-.038-.849.072a2.539 2.539 0 0 0-1.444 1.221l-1.158 2.579c-.276.76.18 1.486 1.04 1.507z"/></g><g><path fill="#f9d9e3" d="M138.352 75.428c.87.114 1.79-.365 2.184-1.162l1.69-3.222c.393-.797.067-1.466-.803-1.58-.247-.02-.612-.002-.848.072-.59.183-1.145.645-1.336 1.09l-1.69 3.223c-.404.703.05 1.428.803 1.58z"/></g><g><path fill="#def9fa" d="M110.453 90.03c.921-.191 1.886-.026 2.304.491.417.518 1.474.47 2.24-.041.764-.512 1.008-1.417.59-1.934-1.083-1.143-3.149-1.615-5.21-1.075l-.113.035c-.797.244-1.53 1.022-1.454 1.644.087.712.835 1.035 1.643.88z"/></g><g><path fill="#f9d9e3" d="M151.3 108.12l4.27.43c.834.11 1.818-.463 2.082-1.18.377-.751-.058-1.438-.881-1.46l-4.27-.43c-.237-.018-.474-.037-.813.066a2.413 2.413 0 0 0-1.382 1.148c-.162.595.16 1.316.994 1.426z"/></g><g><path fill="#f2e96c" d="M135.16 122.153c-.29-.389-1.026-.446-1.612-.264-.235.073-.469.146-.692.311-.787.532-1.038 1.472-.491 1.972l.976 1.036c.43.536 1.518.484 2.294-.14.787-.532 1.038-1.472.491-1.972z"/></g><g><path fill="#dbb2d2" d="M155.8 94.976a20.892 20.892 0 0 0-5.095 2.267c-.742.476-1.1 1.272-.696 1.76.404.487 1.33.563 2.07.087 1.384-.836 2.908-1.455 4.454-1.906.883-.258 1.483-.952 1.51-1.652-.083-.667-.808-.975-1.702-.8-.1.115-.32.18-.542.244z"/></g><g><path fill="#def9fa" d="M155.372 119.053c-.256-.111-.618-.094-.968.015-.467.145-1.03.51-1.335.988-.518.733-.184 1.488.573 1.73 2.003.52 3.816 1.483 4.963 2.939.428.535 1.396.52 2.297-.047.785-.53 1.163-1.411.607-2.001-1.308-1.788-3.516-3.009-6.137-3.624z"/></g><g><path fill="#f2e96c" d="M145.003 78.62c.645.366 1.593.26 2.36-.354 1.94-1.829 3.72-3.985 4.9-6.144.386-.78.067-1.436-.683-1.675-.254-.11-.6-.003-.948.105-.579.18-1.02.505-1.312 1.067-.982 1.815-2.448 3.59-4.063 5.13-.778.524-.794 1.378-.254 1.871z"/></g><g><path fill="#dbb2d2" d="M123.469 70.739c1.307-.03 2.543.335 3.226 1.058.536.488 1.488.474 2.248-.134.76-.609 1.017-1.435.481-1.923-1.219-1.211-3.21-1.904-5.342-1.806-.115.036-.356.017-.47.052-.69.213-1.335.786-1.5 1.397-.141.791.52 1.334 1.357 1.356z"/></g><g><path fill="#f9d9e3" d="M102.272 126.89c.195.639 1.021.831 1.906.571 2.192-.817 4.342-1.97 6.361-3.26.743-.478.981-1.331.576-1.821-.274-.355-.969-.412-1.522-.25-.221.065-.443.13-.653.28-1.698 1.107-3.526 2.078-5.386 2.799-.885.26-1.476 1.042-1.282 1.68z"/></g><g><path fill="#dbb2d2" d="M109.23 132.002c-.514.73-.415 1.553.338 1.793s1.8-.084 2.315-.814l2.786-3.902c.515-.73.415-1.552-.338-1.793a2.154 2.154 0 0 0-1.08.051c-.465.145-.908.472-1.224.855z"/></g><g><path fill="#f9d9e3" d="M140.683 60.794c1-.307 1.665-1.213 1.445-1.949-.268-1.122-.048-2.495.309-3.808.291-.792-.315-1.51-1.225-1.532-.262-.02-.511.056-.636.095-.75.23-1.338.711-1.516 1.368-.571 1.68-.743 3.44-.416 5.046.22.735 1.165 1.048 2.04.78z"/></g><g><path fill="#f2e96c" d="M128.151 61.829c.22.734 1.038 1.084 2.022.682.984-.403 1.66-1.211 1.44-1.946-.325-1.604-.9-3.13-1.85-4.543-.32-.503-1.114-.66-1.861-.43-.125.038-.374.114-.486.249-.848.46-1.376 1.424-.907 2.082a11.083 11.083 0 0 1 1.642 3.906z"/></g></g><g><path fill="url(#6uqsa)" d="M200 100.93l-7.302-.744L191.209 92l-3.162 7.628-8.047-2 5.674 6.046-3.767 6.326 6.977-3.21 5.349 5.21-.977-7.395z"/></g><g><path fill="url(#6uqsb)" d="M123 18.753l-15.335-1.562L104.54 0l-6.641 16.019L81 11.819l11.916 12.697L85.005 37.8l14.65-6.74L110.889 42l-2.05-15.53z"/></g></g></g></svg>