<svg xmlns="http://www.w3.org/2000/svg" width="189" height="62" viewBox="0 0 189 62">
    <g>
        <g>
            <g>
                <g />
                <g>
                    <g>
                        <path fill="#ffffff" d="M158.463 12.51c-.125-.44-.188-1.068-.188-1.602v-1.13c-.501-.408-1.378-.66-2.193-.66-1.535-.03-2.287.88-2.287 2.042-.032 1.35.908 2.166 2.569 2.103.783-.031 1.535-.282 2.1-.753zm2.162-4.459v3.36c0 .973.251 2.072 1.88 1.978v1.57c-1.66.094-2.694-.377-3.352-1.068-.94.723-2.256 1.037-3.259 1.068-2.413.063-4.637-.91-4.7-3.705-.063-2.763 2.287-3.862 4.637-3.8.94 0 1.598.189 2.413.597v-.377c0-1.601-.69-2.7-2.663-2.826-1.003-.063-2.538.22-3.478.942l-.47-2.072c1.19-.471 2.851-.754 4.292-.628 2.977.251 4.732 1.884 4.7 4.961zm-15.008-3.768c0-.471-.063-.785-.188-1.005h2.882c-.125.22-.188.534-.188 1.005v9.577c0 .471.063.754.188 1.005h-2.882c.125-.251.188-.534.188-1.005V9.84h-5.139v3.989c0 .47.063.785.188 1.004h-2.883c.126-.25.188-.533.188-1.004V4.283c0-.471-.062-.785-.188-1.005h2.883c-.125.251-.188.534-.188 1.005v3.454h5.139zm-21.526 10.55c.125-.25.188-.533.188-1.004V4.283c0-.471-.063-.785-.188-1.005h2.694c-.125.251-.188.534-.188 1.005v7.128l5.39-8.133h2.506c-.125.251-.188.534-.188 1.005v9.546c0 .47.063.785.188 1.004H131.8c.125-.22.188-.533.188-1.004V6.7l-5.39 8.132zm-13.223-10.55c0-.471-.063-.785-.188-1.005h5.42c3.165 0 4.2 1.319 4.2 3.077 0 .848-.314 1.979-1.38 2.544 1.285.47 1.755 1.664 1.755 2.637 0 1.759-1.159 3.329-4.324 3.329h-5.671c.125-.251.188-.534.188-1.005zm5.327 3.737c1.034 0 1.692-.534 1.692-1.476s-.69-1.288-1.724-1.288h-2.788V8.02zm-2.82 4.835h3.039c1.034 0 1.849-.502 1.849-1.413 0-.942-.815-1.413-1.849-1.413h-3.04z" />
                    </g>
                    <g>
                        <path fill="#ffffff" d="M34.48 12.508c-.125-.44-.187-1.068-.187-1.602v-1.13c-.502-.408-1.38-.66-2.194-.66-1.535-.03-2.287.88-2.287 2.042-.031 1.35.909 2.166 2.57 2.103.783-.031 1.566-.282 2.099-.753zm12.001 1.319v-8.51h-2.757c-.22 2.795-.533 5.872-2.037 7.756a4.814 4.814 0 0 1-3.697 1.821c-.971.032-2.1-.22-2.82-1.005-.94.723-2.256 1.037-3.259 1.068-2.412.063-4.637-.91-4.7-3.705-.062-2.732 2.225-3.862 4.638-3.8.94 0 1.598.189 2.412.597v-.377c0-1.601-.69-2.7-2.663-2.826-1.003-.062-2.538.22-3.478.942l-.47-2.072c1.19-.44 2.851-.754 4.293-.628 3.258.283 4.73 1.947 4.73 5.15v3.422c0 1.193.565 1.57 1.192 1.601.72.032 1.378-.345 1.848-.973 1.316-1.821 1.598-5.464 1.786-8.038 0-.283 0-.754-.188-.974h7.928c-.157.252-.188.534-.188 1.036v9.515c0 .47.062.753.188 1.004h-2.883c.125-.22.188-.533.188-1.004zm8.46-.911h2.382c1.065 0 1.848-.565 1.848-1.79 0-1.099-.814-1.727-1.848-1.727H54.94zm0-8.635v3.171h2.319c3.165 0 4.293 1.727 4.293 3.643 0 1.915-1.128 3.736-4.293 3.736h-5.013c.125-.22.188-.533.188-1.004V4.28c0-.47-.063-.753-.188-1.005h2.882c-.125.22-.188.534-.188 1.005zm9.62 9.546V5.349h-2.194c-.376 0-.658 0-1.065.157v-2.23h8.993v2.23a3.369 3.369 0 0 0-1.066-.157h-2.193v8.478c0 .47.063.753.188 1.004H64.34c.126-.22.188-.533.188-1.004zm17.296-5.778v3.36c0 .973.25 2.072 1.88 1.978v1.57c-1.661.094-2.695-.377-3.353-1.068-.94.723-2.256 1.037-3.259 1.068-2.412.063-4.637-.91-4.7-3.705-.062-2.763 2.288-3.862 4.638-3.8.94 0 1.598.189 2.412.597v-.377c0-1.601-.69-2.7-2.663-2.826-1.003-.062-2.538.22-3.478.942l-.47-2.072c1.19-.44 2.851-.754 4.293-.628 3.008.251 4.762 1.884 4.7 4.961zm-2.131 4.459c-.125-.44-.188-1.068-.188-1.602v-1.13c-.501-.408-1.379-.66-2.193-.66-1.536-.03-2.288.88-2.288 2.042-.031 1.35.909 2.166 2.57 2.103.783-.031 1.535-.282 2.099-.753z" />
                    </g>
                    <g>
                        <path fill="#ffffff" d="M104.827 9.93a.644.644 0 0 1-.47.502c-.094.031-.188.031-.282.031a.355.355 0 0 1-.25-.094.531.531 0 0 1-.251-.534c.063-1.162-.125-2.26-.564-3.234-.439-.942-1.128-1.758-2.1-2.418-.093-.063-.187-.125-.25-.125-.063-.032-.157 0-.22.03-.219.095-.47.158-.72.158s-.501-.063-.72-.157a1.912 1.912 0 0 1-.502-.377 1.647 1.647 0 0 1-.313-.565.378.378 0 0 0-.157-.157 1.111 1.111 0 0 0-.313-.063 7.094 7.094 0 0 0-3.165.251 6.35 6.35 0 0 0-2.57 1.696.714.714 0 0 1-.626.22.63.63 0 0 1-.25-.126 1.365 1.365 0 0 1-.189-.22c-.094-.188-.062-.47.126-.753.752-1.068 1.91-1.884 3.196-2.387a8.296 8.296 0 0 1 4.198-.44c.094.032.188.032.25 0 .064 0 .126-.03.189-.093.188-.095.376-.189.564-.22.345-.094.72-.063 1.003.063.313.125.595.345.752.659.094.157.156.314.188.502l.03.095c.032.157.064.22.22.314 1.222.753 2.162 1.852 2.758 3.17.5 1.351.72 2.827.438 4.271zm-2.412 5.086c-.972 1.036-2.35 1.727-3.854 2.041-1.504.314-3.134.22-4.575-.314-1.567-.565-2.789-1.633-3.603-2.92-.846-1.382-1.254-3.046-1.16-4.773 0-.282.188-.502.376-.596.094-.032.188-.063.282-.063.094 0 .188.031.282.063.188.094.345.282.376.596a6.879 6.879 0 0 0 1.285 3.58 6.693 6.693 0 0 0 3.008 2.323c1.097.44 2.381.597 3.603.44 1.16-.157 2.288-.565 3.196-1.256a.608.608 0 0 1 .627-.126c.094.032.157.094.22.157a.632.632 0 0 1 .125.251c.03.157 0 .377-.188.597z" />
                    </g>
                </g>
            </g>
            <g>
                <g>
                    <path fill="#ffffff" d="M30.311 34.91c-.594.594-.972.917-1.134 1.025.432.27.81.593 1.026 1.025.27.431.378.916.378 1.348 0 .97-.216 2.103-.702 3.397.27-.054.486-.054.702-.054h.487c.378 0 .594.216.594.593 0 .27-.27.378-.702.378H29.5a23.552 23.552 0 0 1-2.647 4.26 35.438 35.438 0 0 1-3.836 4.314 48.224 48.224 0 0 1-4.7 3.99 44.096 44.096 0 0 1-5.188 3.29 26.528 26.528 0 0 1-5.295 2.265c-1.783.54-3.458.809-5.078.809-.703 0-1.297-.27-1.892-.701C.27 60.418 0 59.77 0 58.908c0-1.349.486-2.643 1.459-3.99.972-1.35 2.215-2.643 3.782-3.884 1.567-1.24 3.35-2.372 5.295-3.505a46.502 46.502 0 0 1 5.943-2.912c2-.809 3.945-1.51 5.836-1.995 1.89-.54 3.512-.809 4.862-.863.109-.27.27-.701.487-1.348.216-.647.324-1.402.324-2.265 0-.485-.108-.809-.324-.97a7.72 7.72 0 0 1-1.513.754c-.648.27-1.459.432-2.323.432-.54 0-.973-.108-1.351-.324-.378-.216-.54-.54-.54-.97 0-.486.27-.917.864-1.24.54-.324 1.621-.486 3.188-.486.378 0 .81 0 1.243.054.432.054.81.108 1.08.162.108-.162.486-.486 1.08-1.079.595-.593 1.19-1.294 1.838-2.157.594-.863 1.188-1.78 1.675-2.75.486-.97.756-1.942.756-2.912 0-.324-.054-.593-.216-.755-.162-.162-.432-.27-.864-.27-.54 0-1.135.216-1.892.647a38.69 38.69 0 0 0-2.215 1.456 22.428 22.428 0 0 0-2.107 1.726c-.648.593-1.135 1.078-1.459 1.456-.162.162-.378.108-.702-.162-.27-.216-.432-.7-.432-1.348 0-.378.378-.863 1.08-1.456a26.934 26.934 0 0 1 2.594-1.78 21.978 21.978 0 0 1 2.971-1.51c1.027-.43 1.783-.647 2.378-.647.756 0 1.35.162 1.729.54.378.377.594.862.594 1.456 0 1.24-.27 2.426-.81 3.559-.54 1.186-1.135 2.21-1.837 3.127-.703.917-1.351 1.726-2.162 2.211zm-3.404 1.78c-.378-.108-.756-.216-1.242-.27-.487-.054-.865-.108-1.243-.108-.324 0-.648.055-.973.162-.324.054-.486.27-.486.486 0 .215.162.377.432.431.27.054.595.108 1.027.054.432-.054.865-.108 1.297-.27.432-.108.864-.323 1.188-.485zm0 6.04c-1.62.108-3.35.485-5.24 1.078-1.892.54-3.783 1.294-5.674 2.157a52.115 52.115 0 0 0-5.403 2.912c-1.729 1.025-3.242 2.157-4.593 3.29-1.35 1.132-2.431 2.265-3.241 3.397-.81 1.133-1.243 2.157-1.243 3.128 0 .485.162.863.432 1.24.27.378.703.54 1.189.54 1.297 0 2.647-.27 4.16-.756 1.459-.485 2.972-1.186 4.539-2.049 1.567-.863 3.08-1.887 4.592-3.074 1.513-1.132 2.918-2.426 4.269-3.72a35.98 35.98 0 0 0 3.62-4.045c1.027-1.402 1.891-2.75 2.593-4.098zM96.5 36.744c0 .054-.162.216-.378.431-.054.054-.162.216-.324.432a3.46 3.46 0 0 1-.54.7c-.217.216-.433.432-.649.594-.216.162-.432.27-.594.27-.486 0-.973-.324-1.351-.917a4.168 4.168 0 0 1-.594-2.157c0-.863.054-1.564.27-2.103.216-.54.378-.917.486-1.133l-.108-.108-.648.647c-.379.378-.865.81-1.405 1.349-.54.539-1.135 1.132-1.837 1.725-.703.594-1.351 1.187-2 1.672-.648.485-1.242.917-1.836 1.24-.595.324-1.027.486-1.351.486-.27 0-.54-.054-.81-.162a2.865 2.865 0 0 1-.811-.432c-.27-.161-.432-.377-.595-.593a1.184 1.184 0 0 1-.216-.7c0-.702.162-1.619.54-2.751.379-1.079.757-2.103 1.243-3.182-.054 0-.054.054-.108.108-.864.97-1.837 1.888-2.863 2.858-.649.647-1.297 1.187-2 1.78-.648.593-1.35 1.078-1.999 1.51-.648.431-1.296.755-1.89 1.024a4.132 4.132 0 0 1-1.676.378c-1.08 0-1.945-.324-2.647-.97-.703-.648-1.027-1.619-1.027-2.859 0-.809.108-1.618.378-2.427.27-.862.595-1.671 1.027-2.426-.324 0-.702-.054-1.026-.054h-1.081a111.926 111.926 0 0 0-2.107 3.667c-.595 1.078-.919 1.78-.973 2.157l.108.054c0-.054.108-.216.27-.378.162-.162.379-.377.54-.593.217-.216.379-.377.541-.593.162-.216.27-.324.378-.432.216 0 .324.054.324.216-.216.216-.432.54-.756 1.025-.27.431-.594.917-.919 1.402-.324.485-.594.917-.864 1.294-.27.378-.432.54-.54.54-.162.107-.27.053-.433 0-.162-.109-.216-.27-.27-.486 0-.216 0-.593.162-1.132.108-.54.325-1.187.649-1.888.324-.7.648-1.456 1.08-2.319.432-.862.919-1.725 1.405-2.588-.378 0-.756.054-1.08.054h-1.027c-.378 1.294-.919 2.48-1.621 3.505a22.625 22.625 0 0 1-2.107 2.642c-.703.701-1.405 1.295-2.107 1.672-.703.378-1.297.593-1.73.593-.216 0-.486-.108-.756-.323-.27-.216-.54-.432-.756-.755-.216-.27-.379-.593-.54-.917-.163-.324-.217-.593-.217-.755 0-.593.216-1.025.595-1.294.378-.27.702-.432.918-.432.108 0 .162.108.162.324a6.826 6.826 0 0 0-.162.54c-.108.215-.108.43-.162.592v.54c0 .161.162.215.378.215.378 0 .81-.107 1.351-.431.54-.27 1.08-.701 1.675-1.24.594-.54 1.189-1.133 1.729-1.888a18.06 18.06 0 0 0 1.459-2.426c-.757.107-1.405.215-1.945.27-.54.107-.973.053-1.189-.055-.648-.215-.918-.485-.756-.916.108-.432.324-.594.648-.486.162.054.27.108.378.216.108.054.27.108.432.162.109.108.433.054.973 0 .54-.108 1.243-.162 2.053-.27.216-.593.378-1.132.486-1.726a9.907 9.907 0 0 0 .162-1.78c.055-.323 0-.592-.162-.754-.162-.162-.432-.27-.864-.27-.486 0-1.135.162-1.891.54-.757.377-1.513.862-2.27 1.348a74.935 74.935 0 0 0-2.16 1.617c-.703.54-1.19.971-1.513 1.349h-.055c-.27.323-.648.755-1.08 1.186-.432.485-.919.917-1.351 1.402-.432.431-.81.809-1.135 1.079-.324.27-.702.593-1.134.97-.432.378-.865.755-1.351 1.133-.432.377-.918.647-1.405.916-.486.27-.864.378-1.242.378-.54 0-.973-.27-1.19-.809-.27-.54-.377-1.24-.377-1.995 0-.432.054-.863.162-1.456.108-.54.216-.917.27-1.025a.164.164 0 0 0 0-.216c-.054-.053-.108-.107-.162-.107-.054 0-.216.161-.487.377-.27.216-.594.54-1.026.863-.378.377-.81.701-1.297 1.132a13.89 13.89 0 0 0-1.297 1.133c-.378.377-.864.809-1.404 1.294-.54.485-1.081.97-1.621 1.402-.54.432-1.081.81-1.513 1.133-.432.323-.757.485-.973.485-.324 0-.54-.162-.756-.54a3.194 3.194 0 0 1-.27-1.24c0-.755.162-1.617.54-2.588.324-1.025.81-2.05 1.405-3.074.594-1.025 1.297-2.049 2.053-3.074.756-1.024 1.567-1.887 2.377-2.696.81-.809 1.621-1.456 2.486-1.941.81-.486 1.62-.755 2.323-.755.594 0 1.08.161 1.513.485.378.324.594.809.594 1.51 0 .216-.054.431-.162.755-.108.323-.27.647-.432 1.025-.162.377-.324.754-.54 1.132-.216.377-.433.701-.595 1.025.324-.162.54-.216.703-.216.324 0 .648.108.864.27.216.215.324.485.324.916 0 .27-.054.593-.162.971-.162.377-.27.755-.432 1.186-.162.378-.324.81-.432 1.187a3.66 3.66 0 0 0-.162 1.024c0 .27.054.486.108.647.108.162.27.27.486.27.324 0 .865-.324 1.62-.917.757-.593 1.514-1.294 2.378-2.049.433-.431.919-.863 1.351-1.348.432-.485.865-.917 1.243-1.294l.378-.378c-.216-.27-.27-.647-.27-1.186.054-.324.432-.809 1.189-1.348.756-.54 1.62-1.079 2.647-1.618.973-.54 2-.97 3.026-1.348 1.026-.378 1.783-.54 2.377-.54.703 0 1.297.162 1.621.54.324.377.486.863.54 1.456 0 .7-.054 1.402-.108 2.049a10.598 10.598 0 0 1-.324 1.887h2.377c.433-.755.865-1.51 1.351-2.21.433-.702.865-1.349 1.297-1.888a7.804 7.804 0 0 1 1.08-1.348c.325-.324.487-.486.595-.54.27 0 .432.27.486.702.054.215 0 .539-.108 1.024-.108.432-.27.81-.432 1.079-.054.108-.432.431-1.027.97-.648.54-1.188 1.24-1.783 2.157-.054.108-.108.108-.108.162.378 0 .757.054 1.08.054.325 0 .65.054.92.108.54-.809 1.134-1.618 1.782-2.319.649-.7 1.243-1.348 1.892-1.833a8.895 8.895 0 0 1 1.783-1.24c.594-.27 1.08-.432 1.458-.432.27 0 .54.108.81.323.325.216.595.432.811.755.216.27.433.594.595.917.162.324.27.593.27.755 0 .593-.162 1.025-.54 1.294-.379.27-.703.432-.92.432-.107 0-.161-.108-.161-.324 0-.162.054-.323.108-.539.054-.216.108-.431.108-.593v-.54c0-.161-.162-.215-.378-.215-.324 0-.703.108-1.135.323-.432.216-.864.54-1.297.917-.432.378-.918.81-1.404 1.348-.487.54-.919 1.079-1.297 1.726h.108v.054c.324.162.594.323.81.431.216.162.379.27.487.378 0 .054 0 .162-.054.27-.054.107-.108.215-.217.27-.108-.055-.27-.163-.54-.325-.324-.161-.648-.27-1.08-.43h-.054c-.433.808-.811 1.617-1.081 2.426-.27.863-.432 1.671-.432 2.426 0 .594.162 1.079.432 1.402.27.378.648.54 1.135.54.378 0 .81-.162 1.35-.378.487-.27 1.08-.539 1.675-.97a21.36 21.36 0 0 0 1.891-1.402c.649-.486 1.243-1.025 1.891-1.618a79.729 79.729 0 0 0 3.026-3.02c.973-.97 1.621-1.726 2.053-2.319.108 0 .216 0 .27.054.055-.108.109-.216.163-.27.324-.431.594-.755.918-1.024.324-.27.594-.378.81-.378.217 0 .433.162.703.54.27.377.432.7.432.916 0 .108 0 .162-.054.216-.27.324-.54.863-.972 1.564-.433.755-.81 1.51-1.243 2.319-.432.809-.757 1.617-1.08 2.372-.27.755-.433 1.349-.433 1.78 0 .216.054.431.108.647.108.216.27.324.486.324.216 0 .487-.108.81-.27a5.668 5.668 0 0 0 1.19-.701c.432-.324.918-.647 1.404-1.079.487-.43 1.027-.862 1.513-1.348a27.86 27.86 0 0 0 2.161-2.265c.649-.755 1.19-1.402 1.621-1.833.162-.162.324-.27.433-.378.108-.107.216-.161.324-.161.378 0 .702.215.972.7.27.486.433.971.433 1.457 0 .755-.163 1.402-.433 1.995a4.896 4.896 0 0 0-.432 1.995c0 .378.216.593.594.647.433.054.703.108.919.108.108 0 .162.054.378.216zm-51.005-8.898c.27-.431.486-.863.702-1.24.216-.378.325-.647.325-.755 0-.27-.163-.432-.433-.432-.324 0-.756.216-1.35.648-.649.377-1.297.916-2.054 1.617-.756.701-1.567 1.456-2.323 2.32-.756.862-1.513 1.725-2.161 2.588a18.915 18.915 0 0 0-2.053 3.073c-.487.863-.703 1.564-.703 2.05 0 .27.054.431.162.431.108 0 .379-.162.81-.485.433-.324.92-.701 1.514-1.187.594-.431 1.188-.97 1.837-1.51.648-.539 1.242-1.078 1.729-1.51.54-.485 1.08-.97 1.567-1.456.54-.485 1.026-.916 1.458-1.294a1.618 1.618 0 0 1-.54-.216c-.162-.053-.216-.161-.216-.215 0-.108.054-.162.162-.27a1.26 1.26 0 0 0 .378-.377c.054-.054.216-.27.433-.647.216-.378.486-.755.756-1.133zm63.216 6.363c-.216.378-.648.863-1.351 1.456-.702.594-1.404 1.187-2.215 1.78-.81.54-1.621 1.025-2.377 1.402-.757.378-1.351.485-1.783.378-.487-.054-.919-.378-1.351-.863-.378-.486-.54-1.295-.432-2.32 0-.43.216-.916.594-1.563.378-.647.865-1.348 1.351-2.05.54-.7 1.026-1.455 1.567-2.156.54-.755.972-1.402 1.296-2.05.379-.593.541-1.132.595-1.617.054-.485-.162-.81-.649-.97-.378-.109-.81-.109-1.296.107-.487.216-.973.54-1.513.97-.541.486-1.135.971-1.73 1.51-.594.54-1.188 1.08-1.782 1.672l-.162-.755a31.048 31.048 0 0 1 1.89-1.887c.757-.647 1.514-1.294 2.27-1.78.757-.539 1.513-.916 2.269-1.132.703-.216 1.351-.216 1.891.054.433.054.757.27 1.027.593.27.324.432.701.486 1.186.054.432 0 .971-.216 1.51a7.791 7.791 0 0 1-1.026 1.78c-.973 1.132-1.837 2.157-2.702 3.074-.864.917-1.567 1.725-2.107 2.426-.54.701-.811 1.349-.865 1.888-.054.54.271.97.973 1.348.378.162.864.108 1.459-.216a16.19 16.19 0 0 0 1.891-1.24c.648-.54 1.297-1.079 1.891-1.618a15.186 15.186 0 0 0 1.351-1.402c.054.054.162.108.378.216s.324.216.378.27zm51.546-5.123c.27.378.432.971.432 1.726 0 .485-.108 1.186-.27 1.995a39.104 39.104 0 0 1-.541 2.427c-.162.755-.378 1.456-.54 2.05-.162.592-.27.862-.27.916 0 .162.054.27.162.27.108 0 .216-.108.432-.27.216-.162.378-.27.487-.27.054 0 .108.054.162.162.054.108.054.162.054.27 0 .161-.162.377-.433.593a7.58 7.58 0 0 1-.972.647c-.378.216-.757.378-1.135.54-.432.161-.702.215-.918.215-.595 0-.919-.54-.919-1.564 0-.54.108-1.186.324-1.887.216-.701.433-1.402.703-2.157.27-.755.486-1.456.702-2.211.216-.755.324-1.402.324-1.996 0-.431-.108-.647-.432-.647-.432 0-1.135.378-2.053 1.133-.919.755-1.891 1.672-2.918 2.696a39.29 39.29 0 0 0-2.431 2.804c-.757.97-1.405 1.834-1.837 2.643-.054.161-.27.161-.486.108-.217-.054-.487-.216-.703-.378a6.466 6.466 0 0 1-.594-.647c-.162-.27-.216-.485-.108-.647.108-.324.324-.755.648-1.294a47.12 47.12 0 0 0 1.027-1.834c.378-.647.756-1.348 1.188-2.05.379-.7.757-1.347 1.081-1.994.324-.594.594-1.133.81-1.618.217-.485.325-.81.325-.97 0-.432-.217-.648-.649-.648-.594 0-1.351.324-2.323.917-.973.593-1.945 1.348-3.026 2.21-1.08.863-2.161 1.834-3.242 2.859a155.793 155.793 0 0 0-2.917 2.858c-.865.863-1.567 1.618-2.162 2.21-.594.594-.918.918-.972.918-.054 0-.162-.108-.324-.162-.162-.054-.324-.162-.541-.324-.216-.162-.378-.27-.54-.431-.162-.162-.216-.324-.216-.432 0-.107.162-.43.432-.97.27-.486.595-1.079.973-1.726-.541.432-1.027.863-1.567 1.294-.703.594-1.459 1.079-2.161 1.51-.757.432-1.459.755-2.162 1.025-.702.27-1.35.377-1.999.377-1.08 0-1.945-.323-2.647-.97-.703-.647-1.027-1.564-1.027-2.804 0-.378 0-.702.054-1.025a4.866 4.866 0 0 1-.54.485 29.86 29.86 0 0 1-1.351 1.133c-.432.377-.918.647-1.405.916-.486.27-.864.378-1.242.378-.541 0-.973-.27-1.189-.809-.27-.54-.378-1.24-.378-1.995 0-.432.054-.863.162-1.456.108-.54.216-.917.27-1.025a.164.164 0 0 0 0-.216c-.054-.053-.108-.107-.162-.107-.054 0-.216.161-.486.377-.271.216-.595.54-1.027.863-.378.377-.81.701-1.297 1.132-.486.378-.918.755-1.297 1.133-.378.377-.864.809-1.404 1.294-.541.485-1.081.97-1.621 1.402-.541.432-1.081.81-1.513 1.133-.432.323-.757.485-.973.485-.324 0-.54-.162-.756-.54a3.195 3.195 0 0 1-.27-1.24c0-.755.162-1.617.54-2.588.324-1.025.811-2.05 1.405-3.074.594-1.025 1.297-2.049 2.053-3.074.756-1.024 1.567-1.887 2.377-2.696.811-.809 1.621-1.456 2.486-1.941.81-.486 1.621-.755 2.323-.755.594 0 1.081.161 1.513.485.378.324.594.809.594 1.51 0 .216-.054.431-.162.755-.108.323-.27.647-.432 1.025-.162.377-.324.754-.54 1.132-.216.377-.433.701-.595 1.025.325-.162.541-.216.703-.216.324 0 .648.108.864.27.216.215.324.485.324.916 0 .27-.054.593-.162.971-.162.377-.27.755-.432 1.186a10.48 10.48 0 0 0-.432 1.187 3.66 3.66 0 0 0-.162 1.024c0 .27.054.486.108.647.108.162.27.27.486.27.324 0 .865-.324 1.621-.917a35.672 35.672 0 0 0 2.323-1.995c.162-.54.379-1.079.649-1.618.702-1.402 1.513-2.642 2.485-3.72a18.47 18.47 0 0 1 2.918-2.643c.972-.701 1.783-1.025 2.377-1.025.432 0 .811.162 1.081.432.27.27.54.539.81.7.27.163.595.378.973.594.378.216.594.54.594 1.025 0 .539-.324 1.078-.972 1.671-.649.593-1.459 1.133-2.378 1.672a23.719 23.719 0 0 1-2.863 1.456c-1.027.431-1.837.755-2.54.917-.324.647-.594 1.24-.81 1.887-.216.647-.325 1.24-.325 1.78 0 .593.163 1.078.433 1.402.27.377.648.54 1.134.54.487 0 1.027-.109 1.621-.325a11.082 11.082 0 0 0 1.837-.862 29.629 29.629 0 0 0 1.891-1.295c.649-.485 1.243-.97 1.892-1.51a30.731 30.731 0 0 0 2.377-2.157c.378-.593.756-1.132 1.081-1.617a39.02 39.02 0 0 1 1.242-1.726c.324-.485.595-.701.757-.701.378 0 .756.054 1.188.162.433.108.649.27.649.431 0 .054-.054.216-.27.54-.217.323-.433.7-.757 1.186-.324.431-.648.97-1.026 1.51-.379.593-.757 1.078-1.081 1.564.81-.701 1.675-1.402 2.701-2.265a119.724 119.724 0 0 1 3.08-2.373c1.027-.755 2.053-1.402 3.08-1.887 1.027-.486 1.945-.755 2.702-.755.54 0 1.026.161 1.512.485.487.323.757.809.757 1.456 0 .323-.162.755-.378 1.348a17.61 17.61 0 0 1-.811 1.834c-.324.647-.648 1.24-.972 1.833-.325.593-.541 1.025-.703 1.24.162-.215.54-.647 1.135-1.294.54-.593 1.243-1.24 2.053-1.941.756-.701 1.621-1.294 2.485-1.78.865-.485 1.675-.755 2.432-.755.702 0 1.134.162 1.351.647zm-31.068 1.349c.594-.108 1.189-.324 1.891-.647.648-.324 1.297-.648 1.891-1.025.594-.324 1.081-.701 1.513-1.025.378-.323.594-.539.594-.7a.692.692 0 0 0-.216-.54c-.108-.162-.432-.216-.918-.216-.271 0-.595.108-.973.324-.378.215-.81.54-1.243.917-.432.377-.864.862-1.296 1.348-.433.539-.865 1.078-1.243 1.564zm-9.78-2.589c.27-.431.487-.863.703-1.24.216-.378.324-.647.324-.755 0-.27-.162-.432-.432-.432-.325 0-.757.216-1.351.648-.649.377-1.297.916-2.053 1.617-.757.701-1.567 1.456-2.324 2.32-.756.862-1.513 1.725-2.161 2.588a18.933 18.933 0 0 0-2.053 3.073c-.486.863-.703 1.564-.703 2.05 0 .27.055.431.163.431.108 0 .378-.162.81-.485.432-.324.919-.701 1.513-1.187.594-.431 1.189-.97 1.837-1.51.648-.539 1.243-1.078 1.729-1.51.54-.485 1.081-.97 1.567-1.456.54-.485 1.026-.916 1.459-1.294-.216-.054-.379-.108-.541-.216-.162-.053-.216-.161-.216-.215 0-.108.054-.162.162-.27.162-.108.27-.215.379-.377.054-.054.216-.27.432-.647.216-.378.486-.755.756-1.133zM189 5.63v.323a137.791 137.791 0 0 0-3.458 4.206 175.03 175.03 0 0 0-3.404 4.422c-1.243 1.726-2.485 3.452-3.674 5.285-.702 1.025-1.459 2.157-2.323 3.397a114.838 114.838 0 0 0-2.486 3.775 62.133 62.133 0 0 0-2.323 3.937c-.702 1.294-1.243 2.534-1.621 3.72-.108.055-.216.055-.378.055-.27 0-.487-.108-.541-.324a3.152 3.152 0 0 1-.108-.7c0-.217.162-.648.433-1.295.27-.593.648-1.348 1.08-2.157.487-.863.973-1.726 1.513-2.643.54-.916 1.081-1.833 1.567-2.642.486-.809.919-1.564 1.351-2.21.378-.648.702-1.08.864-1.35.216-.323.595-.916 1.243-1.886.594-.971 1.351-2.05 2.161-3.29.865-1.24 1.729-2.535 2.648-3.937a199.743 199.743 0 0 1 2.647-3.774c.811-1.133 1.513-2.104 2.107-2.859.595-.755.973-1.132 1.135-1.132.216 0 .378.054.594.162.217.108.379.215.541.377.162.108.27.27.324.378.108.108.108.215.108.162zM169.279 37.39c.162.216.216.378.216.593 0 .216-.054.432-.162.647-.108.216-.216.432-.378.647a2.584 2.584 0 0 1-.541.54 1.039 1.039 0 0 1-.648.215c-.324 0-.594-.054-.811-.161-.216-.162-.324-.27-.378-.432-.054-.216-.162-.485-.216-.917-.054-.43-.108-.7-.108-.862 0-.108.054-.27.162-.432.108-.215.216-.377.378-.539l.433-.431c.162-.162.324-.216.432-.216.108 0 .27.054.486.216l.648.485c.217.216.379.377.487.647zm-4.593-16.879c0 .108.054.27.054.378l-.054.323a1.203 1.203 0 0 1-.702.216c-1.297.108-2.54.162-3.836.216-1.297.053-2.54.107-3.783.215-.378.054-.972.108-1.729.162-.756.108-1.567.162-2.377.27-.864.108-1.621.215-2.323.377-.703.108-1.189.27-1.405.485-.54 0-.865-.107-.865-.43 0-.486.054-.864.217-1.133.162-.27.432-.432.81-.594.378-.107.81-.215 1.351-.27.54-.053 1.134-.107 1.837-.16.216 0 .702-.055 1.351-.055.648-.054 1.458-.054 2.323-.108a47.097 47.097 0 0 1 2.81-.108c1.026-.054 1.891-.054 2.755-.054h2.161c.595.054.973.054 1.081.108.162.054.27.162.324.162z" />
                </g>
            </g>
        </g>
    </g>
</svg>