<svg xmlns="http://www.w3.org/2000/svg" width="158" height="38" viewBox="0 0 158 38"><g><g><g><g/><g><g><path fill="#fff" d="M152.948 14.021c-.146-.511-.219-1.242-.219-1.862v-1.315c-.583-.475-1.603-.767-2.551-.767-1.786-.037-2.66 1.022-2.66 2.374-.037 1.57 1.056 2.52 2.988 2.447.911-.037 1.786-.329 2.442-.877zm2.514-5.186v3.908c0 1.132.292 2.41 2.187 2.3v1.827c-1.931.11-3.134-.438-3.9-1.242-1.093.84-2.623 1.205-3.79 1.242-2.806.073-5.393-1.06-5.466-4.31-.073-3.214 2.66-4.492 5.393-4.419 1.094 0 1.86.22 2.807.694v-.438c0-1.863-.802-3.141-3.098-3.287-1.166-.073-2.952.256-4.045 1.096l-.547-2.41c1.385-.549 3.316-.877 4.993-.731 3.462.292 5.503 2.191 5.466 5.77zm-17.456-4.382c0-.548-.073-.914-.22-1.17h3.354c-.146.256-.219.622-.219 1.17v11.139c0 .547.073.876.219 1.168h-3.353c.146-.292.219-.62.219-1.168v-4.675h-5.977v4.638c0 .548.073.913.218 1.169h-3.353c.146-.292.22-.621.22-1.169V4.453c0-.548-.074-.914-.22-1.17h3.353c-.145.293-.218.622-.218 1.17V8.47h5.977zm-25.038 12.27c.146-.291.219-.62.219-1.168V4.453c0-.548-.073-.914-.219-1.17h3.134c-.145.293-.218.622-.218 1.17v8.29l6.268-9.46h2.916c-.146.293-.219.622-.219 1.17v11.102c0 .548.073.913.219 1.169h-3.134c.145-.256.218-.621.218-1.169v-8.29l-6.268 9.459zm-15.38-12.27c0-.548-.072-.914-.218-1.17h6.305c3.68 0 4.883 1.535 4.883 3.58 0 .986-.364 2.3-1.603 2.958 1.494.548 2.04 1.936 2.04 3.068 0 2.045-1.348 3.871-5.029 3.871H97.37c.146-.292.219-.62.219-1.168zm6.196 4.346c1.203 0 1.968-.621 1.968-1.717s-.802-1.497-2.004-1.497h-3.244v3.214zm-3.28 5.624h3.535c1.203 0 2.15-.584 2.15-1.644 0-1.095-.947-1.643-2.15-1.643h-3.535z"/></g><g><path fill="#fff" d="M8.737 14.019c-.146-.511-.22-1.242-.22-1.863v-1.314c-.582-.475-1.603-.767-2.55-.767-1.786-.037-2.66 1.022-2.66 2.374-.037 1.57 1.056 2.52 2.988 2.447.91-.037 1.822-.33 2.442-.877zm13.958 1.534V5.655h-3.207c-.255 3.25-.62 6.83-2.37 9.021a5.599 5.599 0 0 1-4.3 2.119c-1.13.036-2.441-.256-3.28-1.17-1.093.84-2.624 1.206-3.79 1.243-2.806.073-5.394-1.06-5.467-4.31C.21 9.381 2.87 8.066 5.675 8.14c1.094 0 1.859.22 2.806.694v-.438c0-1.863-.801-3.141-3.097-3.287-1.167-.073-2.952.255-4.046 1.095l-.546-2.41c1.385-.511 3.316-.877 4.993-.73 3.79.328 5.503 2.264 5.503 5.989v3.98c0 1.389.656 1.827 1.385 1.864.838.036 1.603-.402 2.15-1.133 1.53-2.118 1.859-6.354 2.077-9.35 0-.328 0-.876-.218-1.131h9.22c-.182.292-.219.62-.219 1.205v11.066c0 .548.073.876.219 1.169h-3.353c.146-.256.219-.621.219-1.17zm9.84-1.06h2.77c1.239 0 2.15-.657 2.15-2.081 0-1.278-.948-2.009-2.15-2.009h-2.77zm0-10.043V8.14h2.697c3.68 0 4.993 2.009 4.993 4.236 0 2.228-1.312 4.347-4.993 4.347H29.4c.145-.256.218-.621.218-1.17V4.45c0-.548-.073-.876-.218-1.168h3.352c-.145.255-.218.62-.218 1.168zm11.188 11.103V5.692h-2.55c-.438 0-.766 0-1.24.183V3.282h10.46v2.593c-.51-.146-.802-.183-1.24-.183h-2.55v9.86c0 .549.072.877.218 1.17h-3.353c.146-.256.219-.621.219-1.17zm20.118-6.72v3.908c0 1.132.291 2.41 2.186 2.3v1.827c-1.931.11-3.134-.439-3.9-1.242-1.093.84-2.623 1.205-3.79 1.242-2.806.073-5.393-1.06-5.466-4.31-.073-3.214 2.66-4.492 5.394-4.419 1.093 0 1.858.22 2.806.694v-.438c0-1.863-.802-3.141-3.098-3.287-1.166-.073-2.952.255-4.045 1.095l-.547-2.41c1.385-.511 3.317-.877 4.993-.73 3.499.292 5.54 2.19 5.467 5.77zm-2.479 5.186c-.145-.511-.218-1.242-.218-1.863v-1.314c-.583-.475-1.604-.767-2.551-.767-1.786-.037-2.66 1.022-2.66 2.374-.037 1.57 1.056 2.52 2.988 2.447.91-.037 1.785-.33 2.441-.877z"/></g><g><path fill="#fff" d="M90.555 11.018a.75.75 0 0 1-.547.585c-.11.036-.218.036-.328.036a.413.413 0 0 1-.291-.11.618.618 0 0 1-.292-.62c.073-1.351-.146-2.63-.656-3.762-.51-1.095-1.312-2.045-2.442-2.812-.11-.073-.218-.146-.291-.146-.073-.037-.183 0-.255.036-.256.11-.547.183-.839.183-.291 0-.583-.073-.838-.183-.219-.11-.4-.255-.583-.438a1.914 1.914 0 0 1-.364-.657.44.44 0 0 0-.183-.183 1.292 1.292 0 0 0-.364-.073 8.251 8.251 0 0 0-3.681.292 7.386 7.386 0 0 0-2.988 1.972.831.831 0 0 1-.73.256c-.109-.036-.218-.073-.29-.146-.074-.073-.147-.146-.22-.256-.109-.219-.072-.547.146-.876.875-1.242 2.223-2.191 3.718-2.776A9.65 9.65 0 0 1 83.12.83c.11.036.219.036.292 0 .073 0 .145-.037.218-.11.219-.11.438-.219.656-.255a1.8 1.8 0 0 1 1.167.073c.364.146.692.401.874.767.11.182.182.365.219.584l.036.11c.037.182.073.255.255.365 1.422.876 2.515 2.155 3.208 3.689.583 1.57.838 3.286.51 4.966zm-2.806 5.917c-1.13 1.205-2.734 2.009-4.483 2.374-1.75.365-3.645.256-5.321-.365-1.822-.658-3.244-1.9-4.191-3.397-.984-1.607-1.458-3.542-1.349-5.551 0-.329.22-.584.438-.694.11-.037.218-.073.328-.073.11 0 .218.036.328.073.218.11.4.329.437.694.11 1.534.62 2.958 1.494 4.163a7.785 7.785 0 0 0 3.499 2.703c1.276.511 2.77.694 4.191.511 1.349-.182 2.66-.657 3.718-1.46.255-.22.51-.22.728-.147.11.037.183.11.256.183.072.073.109.182.145.292.037.183 0 .438-.218.694z"/></g></g></g><g transform="rotate(10 31.5 28.5)"><g/><g><g><path fill="#fff" d="M38.83 26.879c-.013.001-.025.001-.037.003a.204.204 0 0 1-.079.095c-1.495.964-2.852 1.984-4.102 3.25.185.02.37.038.554.059.042.005.043.071 0 .067l-.54-.056c.186 1.077.496 2.096.97 3.085.367.763.761 1.44.884 2.29.024.165-.14.355-.312.24-1.532-1.031-3.144-2.058-4.53-3.29-.82.64-1.655 1.26-2.514 1.847-.75.513-1.616 1.276-2.52 1.47-.156.033-.329-.103-.273-.273.609-1.84 1.186-3.751 2.019-5.506-1.444-.996-2.762-2.25-4.288-3.113-.141-.08-.017-.282.126-.214 1.584.752 3.024 2.018 4.374 3.126.04.034.049.08.04.122a.12.12 0 0 1 .018.098c-.434 1.766-1.11 3.498-1.723 5.215.654-.252 1.336-.817 1.878-1.206-.391.024-.784.042-1.174.043-.022 0-.02-.031 0-.034.424-.042.851-.065 1.278-.082l.027-.02c.301-.206.596-.421.892-.636-.518.04-1.04.045-1.557.012-.028-.001-.029-.044 0-.043.563.007 1.12-.016 1.678-.055.306-.224.606-.456.908-.686a11.17 11.17 0 0 1-2.119-.231c-.037-.008-.021-.064.016-.058.736.134 1.465.19 2.207.21.15-.113.302-.222.45-.338a.231.231 0 0 1 .28-.005c.76.464 1.496.976 2.225 1.499a8.45 8.45 0 0 0 1.593.345c-.153-.311-.314-.62-.46-.936-.882-.154-1.76-.34-2.638-.515-.029-.005-.017-.048.012-.043.863.157 1.731.307 2.592.483l-.076-.17a11.694 11.694 0 0 1-.584-1.785c-1.578-.114-3.164-.305-4.734-.505-.02-.002-.022-.035 0-.033 1.57.126 3.155.265 4.717.475-.055-.23-.106-.462-.15-.696a.23.23 0 0 1 .015-.134c-1.26-.13-2.518-.27-3.776-.418-.02-.003-.02-.033 0-.03 1.272.117 2.544.246 3.815.383a.277.277 0 0 1 .119-.083c.211-.265.436-.524.67-.777-.605-.032-1.209-.073-1.813-.112l-1.153-.075c-.177-.012-.66.046-.76-.003.015.007.004.033-.011.027l-.224-.094c-.022-.009-.022-.045.006-.044 1.338.066 2.678.136 4.014.236.312-.333.642-.654.987-.957-1.646-.05-3.293-.16-4.938-.249-.027-.002-.027-.043 0-.042 1.646.07 3.296.118 4.94.226.021.001.031.02.03.037.27-.236.552-.46.841-.673-1.328-.079-2.655-.212-3.98-.325-.032-.002-.032-.052 0-.05 1.354.099 2.713.176 4.063.31l.003.002c.307-.222.625-.43.95-.619-.71.002-1.427-.058-2.13-.076-.784-.02-1.606.029-2.378-.133.011.196-.294.264-.364.053l-.154-.48c-.607-.041-1.214-.095-1.82-.145-.035-.003-.035-.056 0-.054.6.045 1.201.084 1.8.136-.093-.289-.183-.579-.276-.868-.561-.047-1.122-.115-1.683-.175-.03-.003-.03-.05 0-.046.555.053 1.111.098 1.665.163-.099-.308-.194-.618-.292-.927-.484-.011-.97-.045-1.453-.07-.033-.001-.034-.053 0-.052.477.019.957.03 1.434.06-.069-.217-.136-.436-.203-.653a5.677 5.677 0 0 0-1.222-.047c-.387 1.066-.806 2.116-1.335 3.136l-.002.003c.04.076.001.186-.116.2-1.696.217-3.511.041-5.204-.142-.208-.023-.217-.344 0-.333 1.693.084 3.424.029 5.109.192l.001-.009c.683-1.818 1.492-3.612 2.047-5.475.049-.162.269-.153.321 0a149.266 149.266 0 0 1 1.677 5.27c.864-.176 1.786-.08 2.663-.06.942.022 1.906-.016 2.835.151.208.038.13.322-.047.34zm-6.75-3.298a113.8 113.8 0 0 1-.551-1.82c-.209.598-.414 1.194-.628 1.785a5.045 5.045 0 0 1 1.179.035zm3.436 10.602a6.449 6.449 0 0 1-1.497-.323c.643.463 1.282.932 1.929 1.384a6.964 6.964 0 0 0-.432-1.061z"/></g><g><path fill="#fff" d="M34.378 31.998a35.463 35.463 0 0 0-5.344-.558c-.032-.001-.032.048 0 .05 1.791.08 3.556.287 5.326.573.042.006.061-.057.018-.065z"/></g></g></g><g transform="rotate(-5 129.5 28.5)"><g/><g><g><path fill="#fff" d="M136.83 26.879c-.013.001-.025.001-.037.003a.204.204 0 0 1-.079.095c-1.495.964-2.852 1.984-4.102 3.25.185.02.37.038.554.059.042.005.043.071 0 .067l-.54-.056c.186 1.077.496 2.096.97 3.085.367.763.761 1.44.884 2.29.024.165-.14.355-.312.24-1.532-1.031-3.144-2.058-4.53-3.29-.82.64-1.655 1.26-2.514 1.847-.75.513-1.616 1.276-2.52 1.47-.156.033-.329-.103-.273-.273.609-1.84 1.186-3.751 2.019-5.506-1.444-.996-2.762-2.25-4.288-3.113-.141-.08-.017-.282.126-.214 1.584.752 3.024 2.018 4.374 3.126.04.034.049.08.04.122a.12.12 0 0 1 .018.098c-.434 1.766-1.11 3.498-1.723 5.215.654-.252 1.336-.817 1.878-1.206-.391.024-.784.042-1.174.043-.022 0-.02-.031 0-.034.424-.042.851-.065 1.278-.082l.027-.02c.301-.206.596-.421.892-.636-.518.04-1.04.045-1.557.012-.028-.001-.029-.044 0-.043.563.007 1.12-.016 1.678-.055.306-.224.606-.456.908-.686a11.17 11.17 0 0 1-2.119-.231c-.037-.008-.021-.064.016-.058.736.134 1.465.19 2.207.21.15-.113.302-.222.45-.338a.231.231 0 0 1 .28-.005c.76.464 1.496.976 2.225 1.499a8.45 8.45 0 0 0 1.593.345c-.153-.311-.314-.62-.46-.936-.882-.154-1.76-.34-2.638-.515-.029-.005-.017-.048.012-.043.863.157 1.731.307 2.592.483l-.076-.17a11.694 11.694 0 0 1-.584-1.785c-1.578-.114-3.164-.305-4.734-.505-.02-.002-.022-.035 0-.033 1.57.126 3.155.265 4.717.475-.055-.23-.106-.462-.15-.696a.23.23 0 0 1 .015-.134c-1.26-.13-2.518-.27-3.776-.418-.02-.003-.02-.033 0-.03 1.272.117 2.544.246 3.815.383a.277.277 0 0 1 .119-.083c.211-.265.436-.524.67-.777-.605-.032-1.209-.073-1.813-.112l-1.153-.075c-.177-.012-.66.046-.76-.003.015.007.004.033-.011.027l-.224-.094c-.022-.009-.022-.045.006-.044 1.338.066 2.678.136 4.014.236.312-.333.642-.654.987-.957-1.646-.05-3.293-.16-4.938-.249-.027-.002-.027-.043 0-.042 1.646.07 3.296.118 4.94.226.021.001.031.02.03.037.27-.236.552-.46.841-.673-1.328-.079-2.655-.212-3.98-.325-.032-.002-.032-.052 0-.05 1.354.099 2.713.176 4.063.31l.003.002c.307-.222.625-.43.95-.619-.71.002-1.427-.058-2.13-.076-.784-.02-1.606.029-2.378-.133.011.196-.294.264-.364.053l-.154-.48c-.607-.041-1.214-.095-1.82-.145-.034-.003-.035-.056 0-.054.6.045 1.201.084 1.8.136-.093-.289-.183-.579-.276-.868-.561-.047-1.122-.115-1.683-.175-.03-.003-.03-.05 0-.046.555.053 1.111.098 1.665.163-.099-.308-.194-.618-.292-.927-.484-.011-.97-.045-1.453-.07-.033-.001-.034-.053 0-.052.477.019.957.03 1.434.06-.069-.217-.136-.436-.203-.653a5.677 5.677 0 0 0-1.222-.047c-.387 1.066-.806 2.116-1.335 3.136l-.002.003c.04.076.001.186-.116.2-1.696.217-3.511.041-5.204-.142-.208-.023-.217-.344 0-.333 1.693.084 3.424.029 5.109.192l.001-.009c.683-1.818 1.492-3.612 2.047-5.475.049-.162.269-.153.321 0a149.266 149.266 0 0 1 1.677 5.27c.864-.176 1.786-.08 2.663-.06.942.022 1.906-.016 2.834.151.209.038.132.322-.046.34zm-6.75-3.298a113.8 113.8 0 0 1-.551-1.82c-.209.598-.414 1.194-.628 1.785a5.045 5.045 0 0 1 1.179.035zm3.436 10.602a6.449 6.449 0 0 1-1.497-.323c.643.463 1.282.932 1.929 1.384a6.964 6.964 0 0 0-.432-1.061z"/></g><g><path fill="#fff" d="M132.378 31.998a35.463 35.463 0 0 0-5.344-.558c-.032-.001-.032.048 0 .05 1.791.08 3.556.287 5.326.573.042.006.061-.057.018-.065z"/></g></g></g><g><path fill="#fff" d="M54.32 30.918c0 .84-.18 1.597-.54 2.272a5.616 5.616 0 0 1-1.373 1.71 6.2 6.2 0 0 1-1.89 1.08 6.243 6.243 0 0 1-2.137.383c-.495 0-.945-.023-1.35-.068a5.518 5.518 0 0 1-1.125-.203 5.19 5.19 0 0 1-1.035-.427 7.966 7.966 0 0 1-1.035-.743c-.63-.51-.945-.982-.945-1.417 0-.135.068-.27.203-.405.15-.135.292-.203.427-.203a.4.4 0 0 1 .18.045c.06.03.135.09.225.18s.188.225.293.405c.104.18.232.428.382.743.24.345.608.637 1.103.877.51.24 1.17.36 1.98.36a5.88 5.88 0 0 0 1.867-.315 5.922 5.922 0 0 0 1.688-.922c.51-.39.922-.855 1.237-1.395a3.5 3.5 0 0 0 .495-1.823c0-.54-.098-1.005-.293-1.395a2.458 2.458 0 0 0-.742-.945 2.988 2.988 0 0 0-1.125-.517c-.42-.12-.87-.18-1.35-.18-.045 0-.225.06-.54.18-.3.105-.653.225-1.058.36-.405.12-.817.24-1.237.36-.405.105-.728.157-.968.157-.524 0-.787-.12-.787-.36 0-.105.022-.217.068-.337a.901.901 0 0 1 .27-.383c.15-.12.36-.225.63-.315s.63-.157 1.08-.202c1.035-.09 1.665-.18 1.89-.27.21-.09.487-.278.832-.563a7.29 7.29 0 0 0 1.035-1.012c.345-.39.638-.81.878-1.26.255-.45.382-.878.382-1.283 0-.525-.158-.952-.472-1.282-.315-.33-.735-.495-1.26-.495-.255 0-.63.082-1.125.247-.495.15-.99.338-1.485.563-.48.225-.9.472-1.26.742s-.54.518-.54.743v.09c.015.045.03.105.045.18-.405.525-.78.9-1.125 1.125-.33.21-.533.315-.608.315-.135 0-.292-.06-.472-.18-.165-.12-.248-.24-.248-.36 0-.195.09-.435.27-.72.18-.285.413-.578.698-.878.3-.3.645-.6 1.035-.9.39-.315.795-.592 1.215-.832.63-.345 1.26-.615 1.89-.81.63-.21 1.2-.315 1.71-.315.855 0 1.56.225 2.115.675.555.45.832 1.102.832 1.957 0 .33-.075.683-.225 1.058a5.91 5.91 0 0 1-.607 1.125c-.24.375-.525.735-.855 1.08a8.115 8.115 0 0 1-.99.922c1.275.21 2.235.623 2.88 1.238s.967 1.462.967 2.542zm8.16 5.737c0 .21-.164.315-.494.315-.36 0-.578-.15-.653-.45-.015-.045-.022-.338-.022-.878a.81.81 0 0 0-.068-.36c-.84.616-1.748.923-2.723.923-.675 0-1.327-.188-1.957-.563-.72-.42-1.08-.945-1.08-1.575 0-.615.427-1.215 1.282-1.8.78-.54 1.5-.81 2.16-.81h2.228c.09-.09.135-.247.135-.472 0-1.005-.083-1.762-.247-2.272-.27-.856-.803-1.283-1.598-1.283-.57 0-1.095.36-1.575 1.08-.435.66-.653 1.29-.653 1.89v.248c0 .12-.06.18-.18.18-.15 0-.315-.09-.495-.27-.18-.18-.27-.338-.27-.473 0-.42.128-.945.383-1.575.255-.645.532-1.133.832-1.462.375-.405.84-.608 1.395-.608.855 0 1.643.27 2.363.81.765.585 1.155 1.29 1.17 2.115zm-1.192-3.578c0-.6-.465-.9-1.395-.9-.735 0-1.38.128-1.935.383-.705.33-1.058.825-1.058 1.485 0 .405.188.72.563.945.315.195.69.292 1.125.292.645 0 1.252-.21 1.822-.63.585-.42.878-.945.878-1.575zm2.069 3.645c-.045-.045-.068-.082-.068-.112 0-.06.023-.105.068-.135.18-.09.442-.263.787-.517.36-.27.743-.578 1.148-.923.42-.36.847-.735 1.282-1.125.435-.39.833-.765 1.193-1.125.36-.36.652-.675.877-.945.225-.27.338-.457.338-.562 0-.09-.068-.195-.203-.315a4.065 4.065 0 0 0-.562-.45c-.225-.18-.488-.383-.788-.608-.3-.225-.607-.48-.922-.765a41.144 41.144 0 0 0-1.463-1.215c-.42-.345-.772-.615-1.057-.81a.906.906 0 0 1-.023-.247c0-.24.068-.435.203-.585a.665.665 0 0 1 .517-.225c.015 0 .203.165.563.495.375.315.81.697 1.305 1.147.51.435 1.027.885 1.552 1.35.525.45.96.803 1.305 1.058 0-.675-.015-1.2-.045-1.575s-.06-.66-.09-.855c-.03-.21-.06-.368-.09-.473a1.78 1.78 0 0 1-.045-.427c0-.15.113-.3.338-.45.24-.15.45-.225.63-.225.135 0 .277.045.427.135.165.075.248.172.248.292 0 .045-.03.233-.09.563-.06.315-.12.81-.18 1.485-.03.36-.053.675-.068.945-.015.27-.022.442-.022.517 0 .075.037.113.112.113.165-.12.375-.293.63-.518.27-.225.563-.472.878-.742.315-.285.645-.585.99-.9.345-.33.675-.653.99-.968.45-.435.802-.742 1.057-.922.27-.195.443-.293.518-.293.15 0 .285.038.405.113.12.075.217.172.292.292.09.12.158.255.203.405.045.135.067.263.067.383 0 .225-.045.36-.135.405a.602.602 0 0 1-.225.045h-.18a.585.585 0 0 0-.18-.023c-.315 0-.637.135-.967.405-.33.27-.735.585-1.215.945l-.945.72c-.315.24-.6.473-.855.698a7.28 7.28 0 0 0-.585.562c-.15.165-.225.293-.225.383 0 .075.112.232.337.472.225.24.495.518.81.833.33.315.683.645 1.058.99.39.345.742.66 1.057.945.525.48.915.825 1.17 1.035.255.195.473.345.653.45a.7.7 0 0 0 .292.112c.12.015.225.023.315.023a.828.828 0 0 1 .248.067c.06.03.09.09.09.18a.426.426 0 0 1-.158.338.912.912 0 0 1-.36.225 2.354 2.354 0 0 1-.607.18c-.165 0-.383-.083-.653-.248a7.203 7.203 0 0 1-.832-.585c-.285-.24-.578-.502-.878-.787a45.47 45.47 0 0 1-.832-.81l-.675-.675a17.92 17.92 0 0 0-.338-.36 9.823 9.823 0 0 1-.675-.698c-.195-.24-.367-.405-.517-.495-.045.03-.083.105-.113.225a2.68 2.68 0 0 0-.045.585 10 10 0 0 0 .023.608l.045.742.045.675c.015.195.022.338.022.428.015.135.068.322.158.562.09.255.135.45.135.585 0 .09-.053.173-.158.248a.568.568 0 0 1-.382.135c-.3 0-.518-.098-.653-.293-.12-.195-.202-.555-.247-1.08-.03-.315-.06-.6-.09-.855l-.045-.742v-.743-.832c-.3.345-.585.645-.855.9-.255.255-.518.532-.788.832-.27.3-.562.623-.877.968-.315.33-.63.63-.945.9-.3.285-.585.517-.855.697-.27.195-.495.293-.675.293-.21 0-.51-.15-.9-.45zm14.566-2.474v-2.16c.014-.735.03-1.433.044-2.093.03-.675.06-1.282.09-1.822s.076-.983.136-1.328a.628.628 0 0 1 .135-.225c.09-.09.187-.165.292-.225.12-.075.24-.135.36-.18a.872.872 0 0 1 .338-.09c.12 0 .255.052.405.158.165.104.247.202.247.292 0 .105-.007.21-.022.315-.015.09-.06.24-.135.45-.075.18-.165.51-.27.99a57.82 57.82 0 0 0-.293 1.665 49.15 49.15 0 0 0-.247 2.16c-.06.78-.09 1.575-.09 2.385 0 .51.112.765.337.765.12 0 .27-.105.45-.315a13.426 13.426 0 0 0 2.002-3.51c.36-.93.706-1.89 1.036-2.88.165-.51.315-.922.45-1.237.15-.33.292-.578.427-.743.15-.165.315-.277.495-.337.195-.06.42-.09.675-.09.705 0 1.058.135 1.058.405l-.09.202c-.09.765-.165 1.448-.225 2.048a91.71 91.71 0 0 0-.113 1.642l-.045 1.463v1.462c0 1.485.188 2.438.563 2.858a.614.614 0 0 1-.293.157c-.105.03-.195.045-.27.045a.813.813 0 0 1-.652-.292 2.042 2.042 0 0 1-.383-.743 6.66 6.66 0 0 1-.202-1.035c-.03-.375-.045-.735-.045-1.08 0-.405.015-.877.045-1.417.045-.555.09-1.088.135-1.598.06-.525.105-.99.135-1.395.045-.405.067-.66.067-.765 0-.15-.067-.225-.202-.225-.72 1.89-1.388 3.435-2.003 4.635-.615 1.2-1.072 2.025-1.372 2.475-.315.48-.578.803-.788.968-.21.165-.48.247-.81.247-.48 0-.832-.165-1.057-.495-.21-.33-.315-.832-.315-1.507zm14.955-7.2c0 .18-.022.322-.068.427-.044.09-.15.135-.314.135-.12 0-.24-.015-.36-.045a8.793 8.793 0 0 0-.945-.18 5.034 5.034 0 0 0-.743-.045c-.285 0-.563.007-.833.022-.254 0-.487.023-.697.068-.195.03-.36.082-.495.157a.414.414 0 0 0-.225.338c-.045.27-.083.532-.113.787-.014.24-.037.503-.067.788-.015.285-.03.615-.045.99v1.327c0 .69.007 1.38.022 2.07s.09 1.38.225 2.07c-.075.12-.157.18-.247.18-.705 0-1.073-.352-1.103-1.057a107.17 107.17 0 0 1-.067-3.78v-1.868c.015-.615.037-1.215.067-1.8a1.314 1.314 0 0 1-.135-.472 5.44 5.44 0 0 1-.022-.428c0-.045.03-.09.09-.135.06-.06.24-.112.54-.157.315-.06.787-.105 1.417-.135.645-.03 1.553-.045 2.723-.045.465 0 .81.06 1.035.18.24.105.36.307.36.607zm7.853 9.607c0 .21-.165.315-.495.315-.36 0-.578-.15-.653-.45-.015-.045-.022-.338-.022-.878a.81.81 0 0 0-.068-.36c-.84.616-1.747.923-2.722.923-.675 0-1.328-.188-1.958-.563-.72-.42-1.08-.945-1.08-1.575 0-.615.428-1.215 1.283-1.8.78-.54 1.5-.81 2.16-.81h2.227c.09-.09.135-.247.135-.472 0-1.005-.082-1.762-.247-2.272-.27-.856-.803-1.283-1.598-1.283-.57 0-1.095.36-1.575 1.08-.435.66-.652 1.29-.652 1.89v.248c0 .12-.06.18-.18.18-.15 0-.315-.09-.495-.27-.18-.18-.27-.338-.27-.473 0-.42.127-.945.382-1.575.255-.645.532-1.133.833-1.462.374-.405.84-.608 1.394-.608.856 0 1.643.27 2.363.81.765.585 1.155 1.29 1.17 2.115zm-1.193-3.578c0-.6-.465-.9-1.395-.9-.735 0-1.38.128-1.935.383-.705.33-1.058.825-1.058 1.485 0 .405.188.72.563.945.315.195.69.292 1.125.292.645 0 1.252-.21 1.823-.63.584-.42.877-.945.877-1.575zm8.909.698c0 .66-.443 1.252-1.328 1.778-.795.48-1.545.72-2.25.72-2.01 0-3.015-1.276-3.015-3.826 0-1.125.203-2.332.608-3.622.54-1.68 1.23-2.52 2.07-2.52.72 0 1.507.367 2.362 1.103.855.72 1.283 1.44 1.283 2.16 0 .93-.375 1.74-1.125 2.43-.75.69-1.598 1.034-2.543 1.034-.09 0-.285-.074-.585-.224-.285-.15-.48-.226-.585-.226-.195 0-.292.06-.292.18 0 1.725.57 2.588 1.71 2.588.585 0 1.125-.195 1.62-.585.3-.225.63-.578.99-1.058.285-.375.472-.562.562-.562.345 0 .518.21.518.63zm-1.553-4.14c0-.525-.15-1.012-.45-1.462-.3-.465-.697-.698-1.192-.698-.6 0-1.088.375-1.463 1.125a4.326 4.326 0 0 0-.472 1.958c0 .435.135.802.405 1.102.285.285.645.427 1.08.427.615 0 1.125-.262 1.53-.787.375-.48.562-1.035.562-1.665zm9.389-2.273c-.105.076-.39.15-.855.226-.12.015-.293.03-.518.045l-.652.045c-.21.015-.398.03-.563.045-.165 0-.255.007-.27.022-.015.075-.037.383-.067.923-.03.525-.045 1.432-.045 2.722 0 .645.015 1.185.045 1.62.03.42.06.803.09 1.148 0 .075.007.18.022.315.03.135.06.292.09.472s.053.338.068.472c.03.135.045.255.045.36 0 .12-.075.24-.225.36-.15.12-.285.18-.405.18-.3 0-.54-.307-.72-.922-.06-.225-.12-.66-.18-1.305a39.476 39.476 0 0 1-.068-2.61 48.7 48.7 0 0 1 .045-2.43c.03-.57.053-.96.068-1.17-.03-.015-.158-.015-.383 0-.21.015-.457.037-.742.067a16.4 16.4 0 0 0-.855.068l-.653.067c-.48.075-.72-.097-.72-.517 0-.09.143-.188.428-.293.285-.105.63-.202 1.035-.292.42-.105.87-.195 1.35-.27.48-.09.915-.158 1.305-.203.18-.015.39-.03.63-.045.255-.03.517-.052.787-.067l.81-.045c.285-.015.54-.03.765-.045.42 0 .63.165.63.495 0 .24-.097.427-.292.562z"/></g></g></g></svg>