<svg xmlns="http://www.w3.org/2000/svg" width="67" height="51" viewBox="0 0 67 51"><g><g transform="rotate(160.81 33.5 25.5)"><path fill="#cfb0d0" d="M15.587 15.475l.43.42.144.14c.287.28.574.42 1.004.56.287.14.574.14.861.14.43 0 .86-.14 1.148-.28.143-.14.287-.14.43-.28l.144-.14.287-.28.143-.14c.287-.28.43-.56.574-.84l.43-.841c.287-.56.43-1.12.574-1.821.144-.7.144-1.401.287-1.962v-.28V8.471 7.91 7.21c0-.28 0-.7-.143-1.121v-.42-.56l-.144-.421-.143-.42c0-.14 0-.28-.144-.42V3.427c0-.14-.143-.281-.143-.421v-.14l-.43-1.261c-.144-.42-.287-.84-.574-1.4-.144-.281-.287-.561-.43-.701l-.144-.28-.144-.14v-.14l.718.42.717.42c.143.14.287.14.43.28l1.005.84h.143l.43.28.288.14c.43.281.717.561 1.147.841.43.42.861.7 1.292 1.121l.574.42.287.28.286.28h-.143l-.143.14c0 .14-.144.14-.144.281v.28l-.143.28v.14l-.144.14c-.143.42-.43.841-.574 1.261-.287.7-.574 1.541-.86 2.522-.288.98-.431 1.961-.575 2.662-.143.42-.143.98-.287 1.54 0 .42-.143.841-.143 1.401-.143 1.121 0 2.242.143 3.082 0 .42.144.841.287 1.261v.14c0 .14 0 .28.144.42v.28c0 .281.143.561.287.841.143.28.287.56.574.98 0 .421.143.561.287.561v.14l.143.14h.144c.143.14.43.28.574.28h.143c.287.14.574.14 1.004.14.287 0 .43 0 .718-.14.287 0 .574-.14.86-.42h.144l.287-.28.144-.14c.573-.7 1.004-1.4 1.29-1.961.288-.7.575-1.26.718-1.681 0-.28.144-.56.144-.84v-.28c.143-.982.143-2.102 0-3.223 0-.42-.144-.84-.144-1.26v-.28c0-.141 0-.281-.143-.421v-.28c0-.14 0-.42-.144-.56-.143-.561-.287-1.122-.43-1.542-.144-.42-.287-.98-.43-1.4a6.74 6.74 0 0 0-.431-.981c.143.14.287.28.43.56 0 .28.287.56.43.7.144 0 .144.14.288.14.143.14.287.42.574.561l.43.42.144.14.86.981.861.56.861.981.144.14c0 .14.143.14.143.28l.287.14.144.28c.143.14.287.28.43.56l.144.14c-.144 0-.43.141-.574.281l-.287.28-.144.14-.43.42c-.287.42-.574.701-.718.981-.287.42-.574.84-.717 1.261-.287.7-.574 1.401-.86 2.382-.288.98-.431 1.96-.575 2.801-.143.84 0 1.821 0 2.942 0 .14 0 .28.144.42v.28c0 .14.143.421.143.561.287.98.574 1.821 1.148 2.662l.143.14.287.28c.144.14.287.14.43.14.288.14.575.28.862.28h.43c.144 0 .287-.14.43-.14.144 0 .288-.14.431-.28l.144-.14.573-.56c.287-.28.574-.7 1.005-1.261.287-.56.574-1.12.717-1.541.287-.7.43-1.401.574-1.962.144-.98.144-2.1 0-2.941 0-.42-.143-.981-.143-1.401-.144-.7-.287-1.541-.574-2.242 0-.14-.144-.28-.144-.56l.144.14.143.14c0 .14.144.14.144.28.287.42.717.981 1.004 1.401 0 .14.143.28.287.42v.14l1.004.841.861 1.26c0 .141.144.141.144.281v.14l.43.42.43.56c.144.14.287.421.43.561v.14c-.143 0-.286.14-.43.28l-.143.14-.574.56c-.143.281-.43.561-.43.701l-.144.14-.143.14v.14c-.144.28-.43.561-.574.981-.287.56-.43.98-.574 1.261-.287.84-.574 1.681-.718 2.382-.143.56-.143.98-.287 1.68 0 .28-.143.701-.143.981v1.541c0 .56 0 1.12.143 1.541 0 .28 0 .42.144.7 0 .28.143.561.287.841 0 .14.143.14.143.28.144.14.144.28.287.28l.287.28c.287.14.574.28.718.421.574.28 1.148.42 1.578.28.43-.14.717-.28 1.148-.56l.43-.42h.144l.287-.28.143-.14c.144-.28.43-.421.718-.701.286-.42.573-.84.86-1.401.144-.42.287-.7.287-1.12v-.14c.144-.841.144-1.542.144-2.242 0-.84-.144-1.821-.287-2.802.143.14.143.28.287.42v.14l.43.84c.144.14.144.281.144.421v.14l.143.28v.14l.144.14v.14c0 .28.143.701.43.841v.42l.144.28c.43.841.717 1.682 1.004 2.382H49.16c-.143 0-.287.14-.43.14-.143 0-.143.14-.287.14l-.143.14-.43.42-.431.42c-.718.701-1.292 1.402-1.865 2.102-.43.56-.718 1.261-1.005 1.821-.143.28-.143.42-.143.7-.144.281-.144.561-.144.701v.98c0 .421.144 1.122.718 1.542.287.28.574.42.717.56h.144c.143 0 .143.14.286.14.144 0 .43.14.574.14.43 0 .718-.14 1.148-.28.287-.14.43-.28.718-.42.143 0 .143-.14.286-.14l.574-.56c.287-.28.43-.7.574-.981.287-.42.43-.84.43-1.26.144-.421.144-.982.288-1.402v-.98c0 .14 0 .28.143.42l.287.98.144.56c-.144 0-.144.141-.144.281V44.193c0 .56 0 1.12-.143 1.401 0 .56-.144 1.26-.144 2.382V48.956c0 .28 0 .56.144.84.143.42.143.841.287 1.121.143.42.287.7.574.84.143.141.286.141.286.281.144.14.43.14.574.14h.43c.144 0 .288-.14.431-.14.144 0 .287-.14.43-.28.144.28.144.14.288.14.287-.42.573-.84.717-1.26 0-.14.143-.421.143-.561v-.14c0-.28.144-.42.144-.7v-1.121c0-.14 0-.42-.144-.56 0-.14 0-.28-.143-.421 0-.28-.143-.42-.143-.56v-.14c-.144-.28-.287-.7-.43-1.121a7.988 7.988 0 0 0-.575-.98c-.287-.421-.574-.841-.717-1.122-.144-.14-.287-.42-.43-.56a1.977 1.977 0 0 0-.575-.42c-.143 0-.143-.14-.287 0l-.143-.7-.287-1.261-.43-1.261c-.144-.42-.287-.84-.43-1.12 0-.141 0-.141-.144-.281-.144-.56-.43-1.12-.574-1.541 0-.14-.144-.42-.144-.56.287.42.574.84.861 1.12l.144.14c.43.42.86.84 1.147 1.401l.144-.28c.287.42.86.98 1.435 1.401.43.42 1.004.98 1.721 1.4l.861.421c.144.14.43.14.718.28.43 0 .86 0 1.291-.28.143-.14.287-.28.287-.42.143-.14.143-.42.287-.7V38.59c0-.7-.43-1.261-.861-1.822-.43-.56-.86-1.12-1.435-1.68-.287-.28-.43-.42-.717-.561l-.144-.14c-.287-.28-.573-.42-.86-.56-.287-.28-.574-.42-.861-.56-.43-.14-.718-.421-1.005-.561-.287-.14-.574-.28-.86-.28-.287-.14-.574-.14-.861-.14h-.144c-.143 0-.287 0-.43-.14-.144 0-.287-.14-.43-.14h-.144c-.287-.14-.718-.14-1.005-.14-.143 0-.287.14-.43.14-.143-.42-.287-.841-.574-1.261l-.717-1.541-.574-1.121-.287-.56v-.14l-.144-.28c-.143-.28-.287-.421-.43-.701v-.28c0 .14.143.14.287.28.287.28.574.56.86.7l.144.28.287.14c.144.14.287.14.43.28 0 0 .144 0 .144.14.287.14.574.421 1.004.561.718.42 1.579.84 2.296 1.12.287.14.717.281 1.004.421h.144c.287.14.574.28 1.004.28.43.14.861.14 1.292.28.287 0 .717 0 1.147-.14.144 0 .144-.14.287-.14l.287-.28c.144-.14.144-.28.144-.42 0-.14.143-.42.143-.56v-.841c0-.28-.143-.56-.143-.7-.144-.56-.43-1.121-.718-1.682-.143-.28-.43-.56-.574-.84l-.143-.14c-.144-.14-.143-.28-.287-.28-.287-.28-.574-.7-.86-.981v-.14c-.144-.14-.288-.42-.575-.56l-.43-.42-.43-.421-.431-.42-.144-.14-.143-.14c-.287-.14-.43-.28-.43-.28-.574-.42-1.292-.841-1.866-1.261-.86-.56-1.578-.84-2.295-1.121l-.287-.14c-.43-.14-.718-.28-1.148-.42-.574-.14-1.148-.28-1.578-.42-.287 0-.574-.14-1.005-.14-.287 0-.574 0-.86.14h-.718c-.143 0-.287.14-.43.14-.144.14-.287.14-.43.28l-.144-.28-.144-.28-.143-.14c0-.141-.144-.141-.144-.281-.143-.14-.287-.42-.43-.56l-1.004-1.261c-.861-1.121-1.722-2.102-2.44-3.082 0-.14-.143-.14-.143-.14l-.143-.14v-.28c1.434.98 3.156 1.68 4.734 2.38 1.005.421 2.009.841 2.726 1.262l.43.14 2.153.84c.43.14.86.14 1.148.28h.143c.287 0 .43 0 .718.14h1.291c.43 0 .86-.14 1.148-.28.143 0 .287-.14.574-.28 0 0 .143 0 .143-.14l.287-.28c.144-.14.144-.28.144-.42v-.28-.42c0-.421-.144-.701-.144-.981-.143-.56-.43-.98-.574-1.401l-.143-.14c-.144-.14-.287-.28-.287-.42l-.144-.14-.43-.42c-.287-.281-.574-.701-1.005-.982-.43-.42-.86-.7-1.29-.98-.862-.56-1.866-.98-2.727-1.401-.717-.28-1.435-.56-2.439-.7-.86-.28-1.722-.42-2.726-.56-1.148-.281-2.583-.281-4.017-.141-.718 0-1.435.14-2.01.28-.143 0-.286.14-.43.14h-.143c-.143 0-.43.14-.574.14-.143 0-.143.14-.287.14h-.287c-.143 0-.143.14-.287.14l-1.435-1.4-.143-.14-.43-.42-1.292-.981-.287-.28c-.717-.56-1.434-1.261-2.152-1.822l-.143-.14-.287-.14-.43-.42c-.144 0-.144-.14-.288-.14.574.14 1.148.42 1.579.56l.43.14.717.14c1.579.42 3.3.84 5.453 1.261.86.14 1.721.28 2.726.42H37.252c1.148 0 2.295-.42 3.443-1.12.287-.14.574-.42.718-.56l.143-.14c.144-.14.287-.28.43-.561l.431-.84c0-.14 0-.28.143-.42V.064v-.56c0-.56-.43-1.121-.717-1.541-.143-.28-.43-.56-.574-.84l-.717-.701-.144-.14c-.43-.42-1.004-.7-1.578-1.121-.287-.14-.717-.42-1.291-.7-.144 0-.287-.14-.287-.14h-.144l-.143-.14c-.287-.14-.43-.14-.718-.28-.286-.141-.573-.281-.86-.281-.574-.28-1.292-.42-2.009-.42-.717-.14-1.578-.14-2.44 0-.573 0-1.147.14-1.72.14-.862.14-1.866.42-2.583.7-.43.14-1.005.28-1.435.56-.43.14-.718.42-1.005.56-.143.141-.573.421-.86.561-.144 0-.144.14-.287.14l-.287.28-.861.841-.287.28-.144.14-.143.14-.287.28s0 .14-.144.14l-.286-.28-.287-.28-.144-.14-.86-.56s-.144-.14-.144-.28c-.144-.14-.43-.28-.861-.42l-.287-.14-.86-.42c-.288-.141-.431-.281-.575-.281l-1.435-.7-.287-.14a1.11 1.11 0 0 0-.717-.28l-.287-.14-.143-.141h-.144c-.717-.28-1.435-.7-2.295-.98-.43-.14-.861-.28-1.579-.42-.287 0-.574-.141-.86-.141h-.861c-.43 0-.861-.14-1.148-.14h-.861c-.144 0-.287 0-.43.14-.144.14-.144.28-.144.42 0 .14 0 .28.143.42.144.14.287.14.43.14h1.722c.431 0 1.148.14 1.866.28.287 0 .574.14.86.14.431.141.718.281 1.005.281l.86.42.288.7.86.421c.144 0 .288.14.431.14h.144l.143.14h.287l.143.14.144.14.86.42c.144.14.288.14.431.28l.144.141.287.14.143.14c-.143.14-.143.14-.143.28l-.144.14c-.143.14-.143.28-.287.42-.143.14-.143.28-.287.421-.143.14-.287.42-.43.56v.14c-.144.14-.144.28-.287.28-.287.28-.43.701-.574 1.121-.287.42-.43.84-.574 1.401-.143.42-.287.98-.287 1.401-.143.98-.287 1.821-.287 2.802 0 1.12-.143 1.961-.143 2.942v1.54c0 .701.143 1.261.43 1.822.287.7.574 1.26.861 1.821.43.56.717.84 1.148 1.26z"/></g></g></svg>